<?xml version="1.0" standalone="no"?>
<!DOCTYPE svg PUBLIC "-//W3C//DTD SVG 1.0//EN" "http://www.w3.org/TR/2001/REC-SVG-20010904/DTD/svg10.dtd">
<svg xmlns="http://www.w3.org/2000/svg" xmlns:xlink="http://www.w3.org/1999/xlink" id="body_1" width="1056" height="816">

<g transform="matrix(1 0 0 1 0 0)">
    <path transform="matrix(1.333333 0 0 1.333333 0 0)"  d="M165.6289 351.2891C 168.0469 340.8125 175.0039 327.6953 188.0508 331.0859C 195.7891 333.0938 197.7891 341.6094 197.6094 348.7227C 195.6328 365.7109 183.4102 375.7539 171.8867 386.7031C 165.0313 390.2266 168.0313 391.2734 160.8945 387.8828C 107.6875 342.6836 145.3672 305.3789 165.6289 351.2891zM304.1992 362.7852C 299.7617 362.2695 250.0039 384.9336 243.7656 391.7461C 238.4648 397.5352 240.4609 401.5313 241.5977 408.2188C 244.3906 411.5156 247.0977 415.6875 251.9492 416.0508C 262.4883 415.918 312.9766 394.8711 316.4844 390.125C 317.6914 387.6563 318.8359 386.2266 318.8516 382.1055C 318.8672 377.6992 317.2227 376.7617 317.1211 373.9063C 313.8789 368.1289 311.6328 363.6445 304.1992 362.7852zM241.6875 222.7578C 235.4961 235.875 205.5195 302.2539 241.4766 294.0586C 248.3125 291.5586 263.5039 249.3398 268.1641 238.1289C 273.4258 225.4883 266.4883 216.8203 254.1758 216.0273C 248.8906 215.6875 242.9492 218.3086 241.6875 222.7578zM107.3984 210.8047C 89.85938 218.2969 98.30469 231.5703 103.3711 245.8164C 106.043 253.3359 115.6328 298.5625 134.2031 289.1172C 144.3281 282.2188 141.1133 273.3945 138.3047 263.5625C 137.4766 260.6641 136.7461 257.793 135.9219 254.6836C 134.4609 249.1445 132.1563 242.2227 131.3086 236.7148C 126.8516 225.8789 125.6602 203.0078 107.3984 210.8047zM83.70703 324.4492C 84.31641 338.6602 110.5 418.8359 111.9258 420.8789L111.9258 420.8789L224.1055 421.8359C 227.6328 403.207 240.2148 315.3281 239.9336 306.7383C 224.5117 301.6328 208.5039 296.3711 192.9688 291.6953C 188.6953 290.4102 186.0234 289.4844 181.9297 288.2109C 175.7109 286.2734 104.8945 316.0898 83.70703 324.4492zM77.17578 310.3398C 79.05859 312.5859 82.05078 314.4375 86.13281 314.207C 105.1445 313.1328 91.71875 289.6445 87.66797 280.9961C 84.14453 273.4844 78.32422 255.4063 70.86328 250.8594C 67.05469 248.3125 60.3125 250.918 56.42578 253.8984C 52.83984 256.6523 51.91797 259.8906 52.46094 265.9492C 60.09375 277.8945 68.78125 300.3047 77.17578 310.3398zM164.4219 262.1914C 166.8945 275.7852 188.7266 276.3359 190.6211 259.7813C 192.1094 246.7578 192.8242 232.6211 193.8672 219.7891C 194.1016 214.4922 195.3984 206.6406 194.8438 201.5859C 194.0781 194.6602 188.0977 190.3789 181.5352 190.1836C 160.3828 189.5547 164.3008 205.5469 164.3008 221.0469C 164.3008 234.6602 164.6328 248.6641 164.4219 262.1914" stroke="none" fill="none" />
    <path transform="matrix(1.333333 0 0 1.333333 0 0)"  d="M332.7539 227.6875L332.7539 253.4336C 332.7539 253.7383 332.9492 253.9297 333.2656 253.9297L333.2656 253.9297L336.9688 253.9297C 337.2813 253.9297 337.4805 253.7383 337.4805 253.4336L337.4805 253.4336L337.4805 243.7695C 337.4805 243.1211 337.9141 242.6992 338.582 242.6992L338.582 242.6992L349.5313 242.6992C 350.1992 242.6992 350.6328 243.1211 350.6328 243.7695L350.6328 243.7695L350.6328 253.4336C 350.6328 253.7383 350.8672 253.9297 351.1445 253.9297L351.1445 253.9297L354.8477 253.9297C 355.1602 253.9297 355.3594 253.7383 355.3594 253.4336L355.3594 253.4336L355.3594 227.6875C 355.3594 227.3828 355.1602 227.1914 354.8477 227.1914L354.8477 227.1914L351.1445 227.1914C 350.8672 227.1914 350.6328 227.3828 350.6328 227.6875L350.6328 227.6875L350.6328 237.3555C 350.6328 238.0039 350.1992 238.4219 349.5313 238.4219L349.5313 238.4219L338.582 238.4219C 337.9141 238.4219 337.4805 238.0039 337.4805 237.3555L337.4805 237.3555L337.4805 227.6875C 337.4805 227.3828 337.2813 227.1914 336.9688 227.1914L336.9688 227.1914L333.2656 227.1914C 332.9492 227.1914 332.7539 227.3828 332.7539 227.6875zM368.3633 242.2031C 368.3633 242.5117 368.5625 242.6992 368.875 242.6992L368.875 242.6992L385.6914 242.6992C 386.0078 242.6992 386.2031 242.5117 386.2031 242.2031L386.2031 242.2031L386.2031 238.9219C 386.2031 238.6133 386.0078 238.4219 385.6914 238.4219L385.6914 238.4219L368.875 238.4219C 368.5625 238.4219 368.3633 238.6133 368.3633 238.9219zM368.3633 250.1484L368.3633 253.4336C 368.3633 253.7383 368.5625 253.9297 368.875 253.9297L368.875 253.9297L385.6914 253.9297C 386.0078 253.9297 386.2031 253.7383 386.2031 253.4336L386.2031 253.4336L386.2031 250.1484C 386.2031 249.8438 386.0078 249.6523 385.6914 249.6523L385.6914 249.6523L368.875 249.6523C 368.5625 249.6523 368.3633 249.8438 368.3633 250.1484zM368.875 231.4727L385.6914 231.4727C 386.0078 231.4727 386.2031 231.2813 386.2031 230.9766L386.2031 230.9766L386.2031 227.6875C 386.2031 227.3828 386.0078 227.1914 385.6914 227.1914L385.6914 227.1914L368.875 227.1914C 368.5625 227.1914 368.3633 227.3828 368.3633 227.6875L368.3633 227.6875L368.3633 230.9766C 368.3633 231.2813 368.5625 231.4727 368.875 231.4727zM399.2109 244.8789C 399.2109 245.1836 399.4063 245.375 399.7227 245.375L399.7227 245.375L403.4258 245.375C 403.7383 245.375 403.9375 245.1836 403.9375 244.8789L403.9375 244.8789L403.9375 227.6875C 403.9375 227.3828 403.7383 227.1914 403.4258 227.1914L403.4258 227.1914L399.7227 227.1914C 399.4063 227.1914 399.2109 227.3828 399.2109 227.6875zM399.2109 253.4336C 399.2109 253.7383 399.4063 253.9297 399.7227 253.9297L399.7227 253.9297L416.5391 253.9297C 416.8516 253.9297 417.0508 253.7383 417.0508 253.4336L417.0508 253.4336L417.0508 250.1484C 417.0508 249.8438 416.8516 249.6523 416.5391 249.6523L416.5391 249.6523L399.7227 249.6523C 399.4063 249.6523 399.2109 249.8438 399.2109 250.1484zM429.1094 253.4336C 429.1094 253.7383 429.3086 253.9297 429.6211 253.9297L429.6211 253.9297L433.3242 253.9297C 433.6406 253.9297 433.8359 253.7383 433.8359 253.4336L433.8359 253.4336L433.8359 245.5664C 433.8359 244.9531 434.2695 244.4961 434.9375 244.4961L434.9375 244.4961L437.1055 244.4961C 438.207 244.4961 438.8789 244.4961 439.3516 244.457C 444.8242 244 447.5391 239.9141 447.5391 235.8633C 447.5391 231.5078 444.4297 227.1914 438.207 227.1914L438.207 227.1914L429.6211 227.1914C 429.3086 227.1914 429.1094 227.3828 429.1094 227.6875L429.1094 227.6875L429.1094 231.0117C 429.1094 231.3164 429.3086 231.5078 429.6211 231.5078L429.6211 231.5078L438.207 231.5078C 444.1523 231.5078 444.1953 240.1797 438.207 240.1797L438.207 240.1797L429.6211 240.1797C 429.3086 240.1797 429.1094 240.3711 429.1094 240.6758zM460.3906 235.6719L460.3906 253.4336C 460.3906 253.7383 460.5859 253.9297 460.9023 253.9297L460.9023 253.9297L464.6016 253.9297C 464.918 253.9297 465.1133 253.7383 465.1133 253.4336L465.1133 253.4336L465.1133 235.6719C 465.1133 235.3672 464.918 235.1758 464.6016 235.1758L464.6016 235.1758L460.9023 235.1758C 460.5859 235.1758 460.3906 235.3672 460.3906 235.6719zM460.3906 230.9766C 460.3906 231.2813 460.5859 231.4727 460.9023 231.4727L460.9023 231.4727L464.6016 231.4727C 464.918 231.4727 465.1133 231.2813 465.1133 230.9766L465.1133 230.9766L465.1133 227.6875C 465.1133 227.3828 464.918 227.1914 464.6016 227.1914L464.6016 227.1914L460.9023 227.1914C 460.5859 227.1914 460.3906 227.3828 460.3906 227.6875zM478.75 231.5859C 478.75 231.8906 478.9063 232.2344 479.1055 232.4648L479.1055 232.4648L499.3086 253.5508C 499.5039 253.7773 499.8594 253.9297 500.1758 253.9297L500.1758 253.9297L500.7266 253.9297C 501.0391 253.9297 501.2383 253.7383 501.2383 253.4336L501.2383 253.4336L501.2383 227.6875C 501.2383 227.3828 501.0391 227.1914 500.7266 227.1914L500.7266 227.1914L497.0234 227.1914C 496.7109 227.1914 496.5117 227.3828 496.5117 227.6875L496.5117 227.6875L496.5117 242.9297C 496.5117 243.3125 496.3945 243.5039 496.2383 243.5039C 496.0781 243.5039 495.9609 243.4258 495.7656 243.2344L495.7656 243.2344L480.6797 227.5352C 480.4844 227.3477 480.1289 227.1914 479.8516 227.1914L479.8516 227.1914L479.2617 227.1914C 478.9453 227.1914 478.75 227.3828 478.75 227.6875zM478.75 253.4336C 478.75 253.7383 478.9453 253.9297 479.2617 253.9297L479.2617 253.9297L482.9648 253.9297C 483.2813 253.9297 483.4766 253.7383 483.4766 253.4336L483.4766 253.4336L483.4766 243.1992C 483.4766 242.8906 483.3203 242.5469 483.1211 242.3555L483.1211 242.3555L479.1055 238.1563C 478.9063 237.9258 478.75 237.9648 478.75 238.2695zM528.4609 254.5039C 531.8867 254.5039 535.1953 253.2422 537.4805 251.6016C 537.7148 251.4102 537.8711 251.1055 537.8711 250.8008L537.8711 250.8008L537.8711 247.2852C 537.8711 246.9805 537.6758 246.7891 537.3594 246.7891L537.3594 246.7891L533.6211 246.7891C 533.3047 246.7891 533.1094 246.9805 533.1094 247.2852L533.1094 247.2852L533.1094 247.668C 533.1094 249.7305 530.0352 249.9609 528.5 249.9609C 516.0938 249.9609 516.0938 231.1641 528.5 231.1641C 530.5859 231.1641 532.3594 231.9297 533.5391 232.7695C 533.8164 232.9609 534.0547 232.9219 534.25 232.6563L534.25 232.6563L536.3789 229.7148C 536.5352 229.4844 536.5352 229.1797 536.2578 229.0273C 533.8555 227.6875 531.2188 226.6211 528.4609 226.6211C 518.9688 226.6211 514.2422 233.5703 514.2422 240.5625C 514.2422 247.5156 518.9688 254.5039 528.4609 254.5039zM527.1602 243.6172L537.3594 243.6172C 537.6758 243.6172 537.8711 243.4258 537.8711 243.1211L537.8711 243.1211L537.8711 239.8359C 537.8711 239.5313 537.6758 239.3398 537.3594 239.3398L537.3594 239.3398L527.1602 239.3398C 526.8477 239.3398 526.6484 239.5313 526.6484 239.8359L526.6484 239.8359L526.6484 243.1211C 526.6484 243.4258 526.8477 243.6172 527.1602 243.6172zM332.7539 284.2656L332.7539 310.0117C 332.7539 310.3164 332.9492 310.5078 333.2656 310.5078L333.2656 310.5078L336.9688 310.5078C 337.2813 310.5078 337.4805 310.3164 337.4805 310.0117L337.4805 310.0117L337.4805 300.3477C 337.4805 299.6953 337.9141 299.2773 338.582 299.2773L338.582 299.2773L349.5313 299.2773C 350.1992 299.2773 350.6328 299.6953 350.6328 300.3477L350.6328 300.3477L350.6328 310.0117C 350.6328 310.3164 350.8672 310.5078 351.1445 310.5078L351.1445 310.5078L354.8477 310.5078C 355.1602 310.5078 355.3594 310.3164 355.3594 310.0117L355.3594 310.0117L355.3594 284.2656C 355.3594 283.9609 355.1602 283.7695 354.8477 283.7695L354.8477 283.7695L351.1445 283.7695C 350.8672 283.7695 350.6328 283.9609 350.6328 284.2656L350.6328 284.2656L350.6328 293.9297C 350.6328 294.5781 350.1992 295 349.5313 295L349.5313 295L338.582 295C 337.9141 295 337.4805 294.5781 337.4805 293.9297L337.4805 293.9297L337.4805 284.2656C 337.4805 283.9609 337.2813 283.7695 336.9688 283.7695L336.9688 283.7695L333.2656 283.7695C 332.9492 283.7695 332.7539 283.9609 332.7539 284.2656zM367.9297 310.5078L371.8281 310.5078C 372.1055 310.5078 372.4219 310.3164 372.5391 310.0508L372.5391 310.0508L380.1797 294.0078C 380.3359 293.6992 380.4922 293.5469 380.6523 293.5469C 380.8086 293.5469 380.9648 293.6992 381.125 294.0078L381.125 294.0078L384.668 301.4922C 384.9453 302.1055 384.707 302.4844 384.0391 302.4844L384.0391 302.4844L380.1016 302.4844C 379.7852 302.4844 379.5078 302.6758 379.3906 302.9453L379.3906 302.9453L377.7773 306.3047C 377.6602 306.5742 377.7773 306.7656 378.0938 306.7656L378.0938 306.7656L386.0469 306.7656C 386.7148 306.7656 387.3477 307.1445 387.6211 307.7188L387.6211 307.7188L388.7266 310.0508C 388.8438 310.3164 389.1563 310.5078 389.4727 310.5078L389.4727 310.5078L393.332 310.5078C 393.6484 310.5078 393.7656 310.3164 393.6484 310.0508L393.6484 310.0508L381.2031 283.7305C 381.125 283.5391 380.8867 283.3867 380.6523 283.3867C 380.4141 283.3867 380.1406 283.5391 380.0625 283.7305L380.0625 283.7305L367.6172 310.0508C 367.4961 310.3164 367.6172 310.5078 367.9297 310.5078zM405.9063 288.1602C 405.9063 288.4688 406.0625 288.8125 406.2578 289.0391L406.2578 289.0391L426.4648 310.125C 426.6602 310.3555 427.0156 310.5078 427.3281 310.5078L427.3281 310.5078L427.8789 310.5078C 428.1953 310.5078 428.3906 310.3164 428.3906 310.0117L428.3906 310.0117L428.3906 284.2656C 428.3906 283.9609 428.1953 283.7695 427.8789 283.7695L427.8789 283.7695L424.1797 283.7695C 423.8633 283.7695 423.6641 283.9609 423.6641 284.2656L423.6641 284.2656L423.6641 299.5078C 423.6641 299.8867 423.5469 300.0781 423.3906 300.0781C 423.2344 300.0781 423.1133 300.0039 422.918 299.8125L422.918 299.8125L407.8359 284.1133C 407.6367 283.9219 407.2813 283.7695 407.0078 283.7695L407.0078 283.7695L406.418 283.7695C 406.1016 283.7695 405.9063 283.9609 405.9063 284.2656zM405.9063 310.0117C 405.9063 310.3164 406.1016 310.5078 406.418 310.5078L406.418 310.5078L410.1172 310.5078C 410.4336 310.5078 410.6328 310.3164 410.6328 310.0117L410.6328 310.0117L410.6328 299.7734C 410.6328 299.4688 410.4727 299.125 410.2773 298.9336L410.2773 298.9336L406.2578 294.7305C 406.0625 294.5039 405.9063 294.5391 405.9063 294.8477zM442.5391 288.0469L449.9844 288.0469C 462.1133 288.0469 462.4297 305.082 451.125 306.1523C 450.6914 306.1914 450.0234 306.1914 448.8789 306.1914L448.8789 306.1914L447.8555 306.1914C 447.1875 306.1914 446.7539 305.7695 446.7539 305.1211L446.7539 305.1211L446.7539 292.25C 446.7539 291.9453 446.5586 291.7539 446.2422 291.7539L446.2422 291.7539L442.5391 291.7539C 442.2266 291.7539 442.0273 291.9453 442.0273 292.25L442.0273 292.25L442.0273 310.0117C 442.0273 310.3164 442.2266 310.5078 442.5391 310.5078L442.5391 310.5078L449.0781 310.5078C 450.1406 310.5078 450.8906 310.5078 451.3203 310.4688C 459.9453 309.7031 464.2773 303.5156 464.2773 297.1367C 464.2773 290.7578 459.9453 284.3789 451.3203 283.8086C 450.8906 283.7695 450.1406 283.7695 449.0781 283.7695L449.0781 283.7695L442.5391 283.7695C 442.2266 283.7695 442.0273 283.9609 442.0273 284.2656L442.0273 284.2656L442.0273 287.5508C 442.0273 287.8555 442.2266 288.0469 442.5391 288.0469zM332.7539 340.8438L332.7539 366.5859C 332.7539 366.8906 332.9492 367.0859 333.2656 367.0859L333.2656 367.0859L336.9688 367.0859C 337.2813 367.0859 337.4805 366.8906 337.4805 366.5859L337.4805 366.5859L337.4805 340.8438C 337.4805 340.5352 337.2813 340.3438 336.9688 340.3438L336.9688 340.3438L333.2656 340.3438C 332.9492 340.3438 332.7539 340.5352 332.7539 340.8438zM351.1133 344.7383C 351.1133 345.043 351.2734 345.3867 351.4688 345.6172L351.4688 345.6172L371.6719 366.7031C 371.8672 366.9297 372.2227 367.0859 372.5391 367.0859L372.5391 367.0859L373.0898 367.0859C 373.4063 367.0859 373.6016 366.8906 373.6016 366.5859L373.6016 366.5859L373.6016 340.8438C 373.6016 340.5352 373.4063 340.3438 373.0898 340.3438L373.0898 340.3438L369.3867 340.3438C 369.0742 340.3438 368.875 340.5352 368.875 340.8438L368.875 340.8438L368.875 356.082C 368.875 356.4648 368.7578 356.6563 368.6016 356.6563C 368.4414 356.6563 368.3242 356.5781 368.1289 356.3867L368.1289 356.3867L353.043 340.6875C 352.8477 340.4961 352.4922 340.3438 352.2188 340.3438L352.2188 340.3438L351.6289 340.3438C 351.3125 340.3438 351.1133 340.5352 351.1133 340.8438zM351.1133 366.5859C 351.1133 366.8906 351.3125 367.0859 351.6289 367.0859L351.6289 367.0859L355.3281 367.0859C 355.6445 367.0859 355.8398 366.8906 355.8398 366.5859L355.8398 366.5859L355.8398 356.3516C 355.8398 356.0469 355.6836 355.6992 355.4844 355.5117L355.4844 355.5117L351.4688 351.3086C 351.2734 351.0781 351.1133 351.1172 351.1133 351.4219zM386.1758 344.6211L407.8359 344.6211C 408.1484 344.6211 408.3477 344.4336 408.3477 344.1289L408.3477 344.1289L408.3477 340.8438C 408.3477 340.5352 408.1484 340.3438 407.8359 340.3438L407.8359 340.3438L386.1758 340.3438C 385.8594 340.3438 385.6641 340.5352 385.6641 340.8438L385.6641 340.8438L385.6641 344.1289C 385.6641 344.4336 385.8594 344.6211 386.1758 344.6211zM394.6016 366.5859C 394.6016 366.8906 394.8398 367.0859 395.1133 367.0859L395.1133 367.0859L398.8164 367.0859C 399.1328 367.0859 399.3281 366.8906 399.3281 366.5859L399.3281 366.5859L399.3281 348.8242C 399.3281 348.5195 399.1328 348.3281 398.8164 348.3281L398.8164 348.3281L395.1133 348.3281C 394.8398 348.3281 394.6016 348.5195 394.6016 348.8242zM419.7773 355.3555C 419.7773 355.6602 419.9727 355.8555 420.2891 355.8555L420.2891 355.8555L437.1055 355.8555C 437.4219 355.8555 437.6172 355.6602 437.6172 355.3555L437.6172 355.3555L437.6172 352.0703C 437.6172 351.7656 437.4219 351.5742 437.1055 351.5742L437.1055 351.5742L420.2891 351.5742C 419.9727 351.5742 419.7773 351.7656 419.7773 352.0703zM419.7773 363.3008L419.7773 366.5859C 419.7773 366.8906 419.9727 367.0859 420.2891 367.0859L420.2891 367.0859L437.1055 367.0859C 437.4219 367.0859 437.6172 366.8906 437.6172 366.5859L437.6172 366.5859L437.6172 363.3008C 437.6172 362.9961 437.4219 362.8047 437.1055 362.8047L437.1055 362.8047L420.2891 362.8047C 419.9727 362.8047 419.7773 362.9961 419.7773 363.3008zM420.2891 344.6211L437.1055 344.6211C 437.4219 344.6211 437.6172 344.4336 437.6172 344.1289L437.6172 344.1289L437.6172 340.8438C 437.6172 340.5352 437.4219 340.3438 437.1055 340.3438L437.1055 340.3438L420.2891 340.3438C 419.9727 340.3438 419.7773 340.5352 419.7773 340.8438L419.7773 340.8438L419.7773 344.1289C 419.7773 344.4336 419.9727 344.6211 420.2891 344.6211zM451.1328 367.0859L454.8359 367.0859C 455.1523 367.0859 455.3477 366.8906 455.3477 366.5859L455.3477 366.5859L455.3477 345.7695C 455.3477 345.1211 455.7813 344.6602 456.4492 344.6602L456.4492 344.6602L459.3242 344.6602C 465.2734 344.6602 465.3125 352.1094 459.3242 352.1094L459.3242 352.1094L458.6172 352.1094C 458.3008 352.1094 458.1055 352.3008 458.1055 352.6055L458.1055 352.6055L458.1055 355.9297C 458.1055 356.2344 458.2617 356.5781 458.4219 356.8086L458.4219 356.8086L465.4688 366.6641C 465.6641 366.9297 465.9805 367.0859 466.2969 367.0859L466.2969 367.0859L470.9023 367.0859C 471.2188 367.0859 471.3398 366.9297 471.1406 366.6641L471.1406 366.6641L463.8945 356.6563C 463.5391 356.1602 463.6953 355.6602 464.2891 355.3555C 471.1406 351.8047 469.9219 341.2227 460.4688 340.3828C 459.9961 340.3438 459.3242 340.3438 458.2227 340.3438L458.2227 340.3438L450.8203 340.3438C 450.6992 340.3438 450.6211 340.4219 450.6211 340.5352L450.6211 340.5352L450.6211 366.5859C 450.6211 366.8906 450.8203 367.0859 451.1328 367.0859zM483.4766 344.7383C 483.4766 345.043 483.6328 345.3867 483.832 345.6172L483.832 345.6172L504.0352 366.7031C 504.2305 366.9297 504.5859 367.0859 504.8984 367.0859L504.8984 367.0859L505.4531 367.0859C 505.7656 367.0859 505.9648 366.8906 505.9648 366.5859L505.9648 366.5859L505.9648 340.8438C 505.9648 340.5352 505.7656 340.3438 505.4531 340.3438L505.4531 340.3438L501.75 340.3438C 501.4336 340.3438 501.2383 340.5352 501.2383 340.8438L501.2383 340.8438L501.2383 356.082C 501.2383 356.4648 501.1211 356.6563 500.9609 356.6563C 500.8047 356.6563 500.6875 356.5781 500.4883 356.3867L500.4883 356.3867L485.4063 340.6875C 485.2109 340.4961 484.8555 340.3438 484.5781 340.3438L484.5781 340.3438L483.9883 340.3438C 483.6719 340.3438 483.4766 340.5352 483.4766 340.8438zM483.4766 366.5859C 483.4766 366.8906 483.6719 367.0859 483.9883 367.0859L483.9883 367.0859L487.6914 367.0859C 488.0039 367.0859 488.2031 366.8906 488.2031 366.5859L488.2031 366.5859L488.2031 356.3516C 488.2031 356.0469 488.0469 355.6992 487.8477 355.5117L487.8477 355.5117L483.832 351.3086C 483.6328 351.0781 483.4766 351.1172 483.4766 351.4219zM518.5352 367.0859L522.4336 367.0859C 522.7109 367.0859 523.0273 366.8906 523.1445 366.625L523.1445 366.625L530.7852 350.582C 530.9414 350.2773 531.0977 350.125 531.2578 350.125C 531.4141 350.125 531.5703 350.2773 531.7305 350.582L531.7305 350.582L535.2734 358.0703C 535.5508 358.6797 535.3125 359.0625 534.6445 359.0625L534.6445 359.0625L530.7031 359.0625C 530.3906 359.0625 530.1133 359.2539 529.9961 359.5195L529.9961 359.5195L528.3828 362.8828C 528.2656 363.1484 528.3828 363.3398 528.6953 363.3398L528.6953 363.3398L536.6523 363.3398C 537.3203 363.3398 537.9531 363.7227 538.2266 364.2969L538.2266 364.2969L539.3281 366.625C 539.4492 366.8906 539.7617 367.0859 540.0781 367.0859L540.0781 367.0859L543.9375 367.0859C 544.2539 367.0859 544.3711 366.8906 544.2539 366.625L544.2539 366.625L531.8086 340.3086C 531.7305 340.1172 531.4922 339.9648 531.2578 339.9648C 531.0195 339.9648 530.7461 340.1172 530.6641 340.3086L530.6641 340.3086L518.2227 366.625C 518.1016 366.8906 518.2227 367.0859 518.5352 367.0859zM555.4453 344.6211L577.1055 344.6211C 577.4219 344.6211 577.6172 344.4336 577.6172 344.1289L577.6172 344.1289L577.6172 340.8438C 577.6172 340.5352 577.4219 340.3438 577.1055 340.3438L577.1055 340.3438L555.4453 340.3438C 555.1328 340.3438 554.9336 340.5352 554.9336 340.8438L554.9336 340.8438L554.9336 344.1289C 554.9336 344.4336 555.1328 344.6211 555.4453 344.6211zM563.875 366.5859C 563.875 366.8906 564.1094 367.0859 564.3867 367.0859L564.3867 367.0859L568.0898 367.0859C 568.4023 367.0859 568.6016 366.8906 568.6016 366.5859L568.6016 366.5859L568.6016 348.8242C 568.6016 348.5195 568.4023 348.3281 568.0898 348.3281L568.0898 348.3281L564.3867 348.3281C 564.1094 348.3281 563.875 348.5195 563.875 348.8242zM589.6797 348.8242L589.6797 366.5859C 589.6797 366.8906 589.875 367.0859 590.1914 367.0859L590.1914 367.0859L593.8945 367.0859C 594.207 367.0859 594.4063 366.8906 594.4063 366.5859L594.4063 366.5859L594.4063 348.8242C 594.4063 348.5195 594.207 348.3281 593.8945 348.3281L593.8945 348.3281L590.1914 348.3281C 589.875 348.3281 589.6797 348.5195 589.6797 348.8242zM589.6797 344.1289C 589.6797 344.4336 589.875 344.6211 590.1914 344.6211L590.1914 344.6211L593.8945 344.6211C 594.207 344.6211 594.4063 344.4336 594.4063 344.1289L594.4063 344.1289L594.4063 340.8438C 594.4063 340.5352 594.207 340.3438 593.8945 340.3438L593.8945 340.3438L590.1914 340.3438C 589.875 340.3438 589.6797 340.5352 589.6797 340.8438zM607.4102 353.7148C 607.4102 363.0352 614.5 367.6953 621.6289 367.6953C 628.7148 367.6953 635.8047 363.0352 635.8047 353.7148C 635.8047 344.3945 628.7148 339.7344 621.6289 339.7344C 614.5 339.7344 607.4102 344.3945 607.4102 353.7148zM612.0586 353.7148C 612.0586 347.4492 616.8242 344.3555 621.6289 344.3555C 626.3945 344.3555 631.1953 347.4492 631.1953 353.7148C 631.1953 359.9805 626.3945 363.0742 621.6289 363.0742C 616.8242 363.0742 612.0586 359.9805 612.0586 353.7148zM618.3984 354.0586L621.2734 356.8477C 621.4688 357.0352 621.7461 357.0742 621.9805 356.8477L621.9805 356.8477L624.8555 354.0586C 625.0547 353.8672 625.0547 353.5625 624.8555 353.3711L624.8555 353.3711L621.9805 350.582C 621.7461 350.3516 621.4688 350.3906 621.2734 350.582L621.2734 350.582L618.3984 353.3711C 618.1602 353.6016 618.1602 353.8281 618.3984 354.0586zM648.8125 344.7383C 648.8125 345.043 648.9688 345.3867 649.1641 345.6172L649.1641 345.6172L669.3672 366.7031C 669.5664 366.9297 669.9219 367.0859 670.2344 367.0859L670.2344 367.0859L670.7852 367.0859C 671.1016 367.0859 671.2969 366.8906 671.2969 366.5859L671.2969 366.5859L671.2969 340.8438C 671.2969 340.5352 671.1016 340.3438 670.7852 340.3438L670.7852 340.3438L667.0859 340.3438C 666.7695 340.3438 666.5703 340.5352 666.5703 340.8438L666.5703 340.8438L666.5703 356.082C 666.5703 356.4648 666.4531 356.6563 666.2969 356.6563C 666.1406 356.6563 666.0195 356.5781 665.8242 356.3867L665.8242 356.3867L650.7383 340.6875C 650.543 340.4961 650.1875 340.3438 649.9141 340.3438L649.9141 340.3438L649.3203 340.3438C 649.0078 340.3438 648.8125 340.5352 648.8125 340.8438zM648.8125 366.5859C 648.8125 366.8906 649.0078 367.0859 649.3203 367.0859L649.3203 367.0859L653.0234 367.0859C 653.3398 367.0859 653.5352 366.8906 653.5352 366.5859L653.5352 366.5859L653.5352 356.3516C 653.5352 356.0469 653.3789 355.6992 653.1836 355.5117L653.1836 355.5117L649.1641 351.3086C 648.9688 351.0781 648.8125 351.1172 648.8125 351.4219zM683.8711 367.0859L687.7695 367.0859C 688.0469 367.0859 688.3594 366.8906 688.4766 366.625L688.4766 366.625L696.1172 350.582C 696.2773 350.2773 696.4336 350.125 696.5898 350.125C 696.7461 350.125 696.9063 350.2773 697.0625 350.582L697.0625 350.582L700.6094 358.0703C 700.8828 358.6797 700.6484 359.0625 699.9766 359.0625L699.9766 359.0625L696.0391 359.0625C 695.7227 359.0625 695.4492 359.2539 695.3281 359.5195L695.3281 359.5195L693.7148 362.8828C 693.5977 363.1484 693.7148 363.3398 694.0313 363.3398L694.0313 363.3398L701.9844 363.3398C 702.6563 363.3398 703.2852 363.7227 703.5625 364.2969L703.5625 364.2969L704.6641 366.625C 704.7813 366.8906 705.0977 367.0859 705.4141 367.0859L705.4141 367.0859L709.2734 367.0859C 709.5859 367.0859 709.7031 366.8906 709.5859 366.625L709.5859 366.625L697.1406 340.3086C 697.0625 340.1172 696.8281 339.9648 696.5898 339.9648C 696.3555 339.9648 696.0781 340.1172 696 340.3086L696 340.3086L683.5547 366.625C 683.4375 366.8906 683.5547 367.0859 683.8711 367.0859zM721.8438 358.0313C 721.8438 358.3359 722.0391 358.5273 722.3555 358.5273L722.3555 358.5273L726.0586 358.5273C 726.3711 358.5273 726.5703 358.3359 726.5703 358.0313L726.5703 358.0313L726.5703 340.8438C 726.5703 340.5352 726.3711 340.3438 726.0586 340.3438L726.0586 340.3438L722.3555 340.3438C 722.0391 340.3438 721.8438 340.5352 721.8438 340.8438zM721.8438 366.5859C 721.8438 366.8906 722.0391 367.0859 722.3555 367.0859L722.3555 367.0859L739.1719 367.0859C 739.4883 367.0859 739.6836 366.8906 739.6836 366.5859L739.6836 366.5859L739.6836 363.3008C 739.6836 362.9961 739.4883 362.8047 739.1719 362.8047L739.1719 362.8047L722.3555 362.8047C 722.0391 362.8047 721.8438 362.9961 721.8438 363.3008" stroke="none" fill="none" />
    <path transform="matrix(1.333333 0 0 1.333333 0 0)"  d="M349.2344 403.1055L342.9023 403.1055L342.9023 418.6875L338.9023 418.6875L338.9023 403.1328L332.5156 403.1328L332.5156 399.1328L349.2344 399.1328L349.2344 403.1055zM383.1563 408.9375C 383.1563 410.2969 382.9023 411.5664 382.3906 412.7539C 381.8789 413.9375 381.1797 414.9648 380.2969 415.8398C 379.4141 416.7148 378.3789 417.4063 377.1953 417.918C 376.0117 418.4297 374.7383 418.6875 373.3789 418.6875C 372.0195 418.6875 370.7461 418.4297 369.5664 417.918C 368.3828 417.4063 367.3438 416.7109 366.4531 415.8242C 365.5586 414.9414 364.8555 413.9102 364.3438 412.7266C 363.832 411.543 363.5781 410.2695 363.5781 408.9102C 363.5781 407.5664 363.832 406.3008 364.3438 405.1055C 364.8555 403.9141 365.5586 402.8711 366.4531 401.9805C 367.3438 401.0898 368.3828 400.3867 369.5664 399.875C 370.7461 399.3633 372.0195 399.1055 373.3789 399.1055C 374.7578 399.1055 376.0391 399.3672 377.2227 399.8867C 378.4063 400.4102 379.4375 401.1133 380.3203 402.0078C 381.207 402.8984 381.8984 403.9414 382.4023 405.1328C 382.9063 406.3242 383.1563 407.5938 383.1563 408.9375zM379.1836 408.9375C 379.1836 408.4258 379.1133 407.8945 378.9727 407.3477C 378.8281 406.8008 378.6016 406.2773 378.2813 405.7813C 377.9648 405.2891 377.5586 404.8359 377.0625 404.418C 376.5703 404.0039 375.9688 403.6641 375.2617 403.3984C 375.1211 403.3438 374.9531 403.3047 374.7578 403.2773C 374.5625 403.2539 374.3945 403.2227 374.2539 403.1875C 374.0977 403.1523 373.9102 403.125 373.6992 403.1055C 373.4844 403.0898 373.3633 403.082 373.3281 403.082C 372.9219 403.082 372.4961 403.1328 372.0547 403.2383C 371.6133 403.3438 371.1719 403.5117 370.7305 403.7422C 370.2891 403.9727 369.8711 404.2656 369.4727 404.6172C 369.0742 404.9688 368.7266 405.3945 368.4258 405.8906C 368.0547 406.5078 367.8164 407.1172 367.7109 407.7188C 367.6758 407.9102 367.6445 408.1055 367.6172 408.3008C 367.5898 408.4961 367.5781 408.707 367.5781 408.9375C 367.5781 409.7148 367.7266 410.4492 368.0273 411.1484C 368.3281 411.8477 368.7422 412.4609 369.2734 412.9883C 369.8047 413.5195 370.4219 413.9414 371.1289 414.25C 371.8359 414.5586 372.5859 414.7109 373.3789 414.7109C 374.1563 414.7109 374.8984 414.5625 375.6055 414.2617C 376.3125 413.9609 376.9297 413.5508 377.4609 413.0313C 377.9922 412.5078 378.4102 411.8984 378.7188 411.2031C 379.0273 410.5039 379.1836 409.75 379.1836 408.9375zM412.7617 418.6875L407.3281 418.6875C 407.293 418.6875 407.2148 418.6797 407.0898 418.6602C 406.9688 418.6445 406.8633 418.625 406.7734 418.6094C 406.4531 418.5547 406.1445 418.5039 405.8477 418.4492C 405.5469 418.3945 405.2188 418.2969 404.8633 418.1563C 403.6992 417.7344 402.7031 417.168 401.8711 416.4609C 401.0391 415.7539 400.3555 414.9805 399.8164 414.1445C 399.2773 413.3047 398.8867 412.4297 398.6406 411.5195C 398.3906 410.6094 398.2773 409.75 398.293 408.9375C 398.3125 407.4531 398.582 406.1602 399.1016 405.0547C 399.6211 403.9492 400.2578 403.0156 401.0117 402.2461C 401.7617 401.4766 402.5547 400.8633 403.3945 400.4023C 404.2344 399.9453 404.9883 399.6289 405.6602 399.4492C 405.8008 399.4141 405.9648 399.375 406.1484 399.332C 406.3359 399.2852 406.5078 399.2461 406.668 399.2109C 406.7891 399.1953 406.9609 399.1719 407.1719 399.1445C 407.3828 399.1172 407.5078 399.1055 407.5391 399.1055L407.5391 399.1055L408.7852 399.1055L408.7852 403.082L407.5664 403.082C 407.25 403.1172 407.0156 403.1602 406.8672 403.2148C 406.7148 403.2656 406.6055 403.293 406.5352 403.293C 406.2188 403.3633 405.8867 403.4883 405.5391 403.6641C 405.1953 403.8398 404.8633 404.0508 404.5469 404.3008C 404.2305 404.5469 403.9336 404.8242 403.6602 405.1328C 403.3867 405.4414 403.1719 405.7656 403.0117 406.1016C 402.9766 406.1367 402.9453 406.1836 402.918 406.2461C 402.8906 406.3086 402.8594 406.375 402.8242 406.4453C 402.6328 406.9766 402.4922 407.3945 402.4141 407.7031C 402.3359 408.0156 402.2969 408.4063 402.2969 408.8828C 402.2969 409.3789 402.3594 409.8906 402.4922 410.4219C 402.625 410.9492 402.8359 411.457 403.1172 411.9453C 403.3984 412.4297 403.7695 412.8789 404.2305 413.2969C 404.6875 413.7109 405.2539 414.0508 405.9258 414.3164C 405.9766 414.332 406.0703 414.3633 406.2031 414.4063C 406.3359 414.4531 406.4805 414.4961 406.6406 414.5391C 406.8008 414.5859 406.9531 414.625 407.1055 414.6602C 407.2539 414.6953 407.375 414.7109 407.4609 414.7109L407.4609 414.7109L408.7617 414.7109L408.7617 410.9219L406.5078 410.9219L406.5078 406.9492L412.7617 406.9492zM441.7539 418.6875L427.8984 418.6875L427.8984 399.1328L441.7539 399.1328L441.7539 403.082L431.8984 403.082L431.8984 406.9219L436.8008 406.9219L436.8008 410.8984L431.8984 410.8984L431.8984 414.7109L441.7539 414.7109zM473.6133 403.082L467.2773 403.082L467.2773 418.6875L463.2773 418.6875L463.2773 403.1055L456.8906 403.1055L456.8906 399.1328L473.6133 399.1328zM505.707 418.6875L501.7578 418.6875L501.7578 410.6602L492.75 410.6602L492.75 418.6875L488.7461 418.6875L488.7461 399.1328L492.75 399.1328L492.75 406.6836L501.7031 406.6836L501.7031 399.1328L505.707 399.1328zM534.6992 418.6875L520.8438 418.6875L520.8438 399.1328L534.6992 399.1328L534.6992 403.082L524.8438 403.082L524.8438 406.9219L529.7461 406.9219L529.7461 410.8984L524.8438 410.8984L524.8438 414.7109L534.6992 414.7109zM563.6406 418.7148L559.2969 418.7148L555.9297 411.2148L553.8398 411.2148L553.8398 418.6875L549.8359 418.6875L549.8359 399.1055L556.9648 399.1055C 557.0703 399.1055 557.207 399.1172 557.375 399.1445C 557.543 399.1719 557.7188 399.207 557.9063 399.2539C 558.0898 399.2969 558.2617 399.3398 558.4219 399.3828C 558.5781 399.4297 558.7031 399.4688 558.793 399.5039C 559.1992 399.6797 559.5938 399.8828 559.9727 400.1133C 560.3516 400.3438 560.7266 400.6602 561.0977 401.0664C 561.5195 401.5273 561.8516 402.0039 562.0898 402.4961C 562.3281 402.9922 562.4922 403.4766 562.582 403.9531C 562.6719 404.3594 562.7148 404.7695 562.7148 405.1758C 562.7148 406.0391 562.5078 406.9336 562.0898 407.8516C 561.6758 408.7695 560.9492 409.582 559.9063 410.2891zM558.7383 405.1758C 558.7383 404.8203 558.6445 404.457 558.4609 404.0859C 558.2773 403.7148 557.9375 403.4258 557.4414 403.2148C 557.3516 403.1797 557.2422 403.1484 557.1094 403.1211C 556.9766 403.0938 556.8945 403.082 556.8594 403.082L556.8594 403.082L553.8398 403.082L553.8398 407.2656L556.8594 407.2656C 556.8945 407.2656 556.9766 407.25 557.1094 407.2148C 557.2422 407.1797 557.3516 407.1445 557.4414 407.1094C 557.9375 406.9141 558.2773 406.6328 558.4609 406.2617C 558.6445 405.8906 558.7383 405.5273 558.7383 405.1758zM608.6133 399.1328L605.8828 418.7148L601.6445 418.7148L598.332 412.0625L595.0195 418.7148L590.7813 418.7148L588.0508 399.1328L592.0547 399.1328L593.8828 412.0117L598.332 403.1328L602.7852 412.0117L604.6133 399.1328zM637.6055 418.6875L623.75 418.6875L623.75 399.1328L637.6055 399.1328L637.6055 403.082L627.75 403.082L627.75 406.9219L632.6523 406.9219L632.6523 410.8984L627.75 410.8984L627.75 414.7109L637.6055 414.7109zM674.4961 418.6875L671.0547 418.6875C 671.0195 418.6875 670.9375 418.6797 670.8125 418.6602C 670.6914 418.6445 670.5859 418.625 670.4961 418.6094C 670.1797 418.5547 669.8711 418.5039 669.5703 418.4492C 669.2695 418.3945 668.9414 418.2969 668.5898 418.1563C 667.4063 417.7148 666.3984 417.1445 665.5664 416.4492C 664.7383 415.75 664.0586 414.9844 663.5273 414.1563C 662.9961 413.3242 662.6133 412.4609 662.375 411.5586C 662.1367 410.6602 662.0195 409.7734 662.0195 408.9102C 662.0195 408.7344 662.0352 408.4219 662.0703 407.9688C 662.1055 407.5195 662.168 407.0898 662.2578 406.6836C 662.3789 406.1875 662.5703 405.6523 662.8242 405.0664C 663.082 404.4844 663.4023 403.9141 663.793 403.3594C 664.1836 402.8008 664.6328 402.2734 665.1445 401.7695C 665.6563 401.2656 666.2305 400.8281 666.8672 400.457C 667.7695 399.9258 668.6328 399.582 669.4648 399.4258C 669.4961 399.4258 669.582 399.4063 669.7148 399.3711C 669.8477 399.3359 669.9961 399.2969 670.1641 399.2539C 670.332 399.207 670.5 399.1719 670.668 399.1445C 670.8359 399.1172 670.9727 399.1055 671.0781 399.1055L671.0781 399.1055L674.4961 399.1055L674.4961 403.082L671.2656 403.082C 671.2305 403.082 671.1211 403.1016 670.9453 403.1484C 670.7695 403.1914 670.6289 403.2227 670.5234 403.2383C 670.2031 403.2734 669.8555 403.3867 669.4766 403.5703C 669.0977 403.7578 668.7227 403.9883 668.3516 404.2734C 667.9805 404.5547 667.6406 404.8711 667.3281 405.2266C 667.0195 405.5781 666.7852 405.9414 666.6289 406.3125C 666.5938 406.4023 666.5469 406.5039 666.4805 406.6172C 666.4219 406.7344 666.3711 406.8438 666.3359 406.9492C 666.1953 407.3555 666.1055 407.6953 666.0703 407.9688C 666.0352 408.2422 666.0195 408.5469 666.0195 408.8828C 666.0195 409.3594 666.0781 409.8594 666.2031 410.3789C 666.3281 410.9023 666.5313 411.4023 666.8125 411.8789C 667.0977 412.3555 667.4648 412.8008 667.9141 413.2148C 668.3633 413.6289 668.9141 413.9805 669.5703 414.2617C 669.6406 414.2969 669.7539 414.3398 669.9141 414.3945C 670.0742 414.4492 670.2344 414.4961 670.4023 414.5391C 670.5703 414.5859 670.7344 414.625 670.8945 414.6602C 671.0547 414.6953 671.1875 414.7109 671.2891 414.7109L671.2891 414.7109L674.4961 414.7109zM707.5195 418.7148L703.0938 418.7148L701.6641 415.6914L694.9336 415.6914L693.5039 418.7148L689.1055 418.7148L698.3242 399.1055zM699.8086 411.6914L698.3242 408.5117L696.8164 411.6914zM738.7383 418.6875L734.7656 418.6875L726.1289 406.1797L726.1289 418.6875L722.125 418.6875L722.125 399.1328L726.1016 399.1328L734.7383 411.6406L734.7383 399.1328L738.7383 399.1328" stroke="none" fill="none" />
</g>
</svg>