<?xml version="1.0" standalone="no"?>
<!DOCTYPE svg PUBLIC "-//W3C//DTD SVG 20010904//EN"
 "http://www.w3.org/TR/2001/REC-SVG-20010904/DTD/svg10.dtd">
<svg version="1.0" xmlns="http://www.w3.org/2000/svg"
 width="1498.000000pt" height="613.000000pt" viewBox="0 0 1498.000000 613.000000"
 preserveAspectRatio="xMidYMid meet">
<metadata>
Created by potrace 1.16, written by Peter Selinger 2001-2019
</metadata>
<g transform="translate(0.000000,613.000000) scale(0.100000,-0.100000)"
fill="#000000" stroke="none">
<path d="M2391 5385 c-96 -27 -139 -76 -161 -182 -6 -30 -7 -237 -2 -565 l7
-516 31 -39 c48 -61 105 -85 190 -81 57 3 79 9 112 30 53 36 88 97 101 178 18
114 72 872 69 962 -3 77 -6 91 -33 129 -59 84 -190 119 -314 84z"/>
<path d="M1290 5061 c-49 -16 -126 -59 -154 -87 -87 -87 -86 -191 5 -420 15
-39 53 -152 83 -251 136 -441 248 -613 401 -613 58 0 93 18 139 72 75 87 73
154 -14 468 -35 124 -71 261 -82 305 -33 142 -116 389 -146 436 -42 66 -84 92
-151 96 -31 1 -67 -1 -81 -6z"/>
<path d="M3703 4949 c-93 -17 -126 -49 -183 -179 -261 -593 -333 -974 -208
-1107 36 -38 100 -57 171 -50 57 6 65 10 102 50 66 72 171 298 352 757 103
260 111 308 68 396 -20 41 -39 64 -74 85 -68 44 -154 62 -228 48z"/>
<path d="M9493 4676 c-135 -44 -205 -143 -206 -291 -1 -63 4 -91 21 -130 75
-166 269 -227 442 -140 50 25 50 25 50 75 l0 50 -45 0 c-39 0 -47 -3 -55 -25
-27 -71 -181 -59 -257 20 -56 59 -73 127 -49 207 19 68 46 102 99 129 52 27
139 29 186 4 l35 -17 28 33 c15 19 28 37 28 40 0 4 -24 17 -52 30 -64 28 -165
34 -225 15z"/>
<path d="M5230 4385 l0 -295 45 0 45 0 0 106 c0 58 5 114 10 125 10 17 22 19
143 19 90 0 137 -4 145 -12 8 -8 12 -50 12 -125 l0 -113 45 0 45 0 0 295 0
295 -45 0 -45 0 0 -109 c0 -60 -3 -116 -6 -125 -5 -14 -28 -16 -149 -16 -168
0 -158 -8 -155 128 4 130 7 122 -45 122 l-45 0 0 -295z"/>
<path d="M6027 4673 c-4 -3 -7 -24 -7 -45 l0 -38 195 0 195 0 0 45 0 45 -188
0 c-104 0 -192 -3 -195 -7z"/>
<path d="M6717 4673 c-4 -3 -7 -93 -7 -200 l0 -193 50 0 50 0 0 200 0 200 -43
0 c-24 0 -47 -3 -50 -7z"/>
<path d="M7380 4636 l0 -46 105 0 c121 0 170 -15 185 -55 18 -48 12 -85 -19
-116 -29 -29 -30 -29 -150 -29 l-121 0 0 -150 0 -150 50 0 49 0 3 103 3 102
85 5 c115 8 155 30 195 109 24 48 17 137 -15 185 -46 66 -87 80 -237 84 l-133
4 0 -46z"/>
<path d="M8490 4625 l0 -55 128 -132 c297 -309 336 -348 349 -348 10 0 13 56
13 295 l0 295 -45 0 -45 0 0 -174 c0 -125 -3 -177 -12 -182 -8 -5 -75 58 -188
174 -96 101 -181 182 -187 182 -9 0 -13 -18 -13 -55z"/>
<path d="M8080 4295 l0 -205 44 0 c31 0 46 5 50 16 3 9 6 94 6 189 0 95 -3
180 -6 189 -4 11 -19 16 -50 16 l-44 0 0 -205z"/>
<path d="M6027 4423 c-4 -3 -7 -24 -7 -45 l0 -38 195 0 195 0 0 45 0 45 -188
0 c-104 0 -192 -3 -195 -7z"/>
<path d="M8490 4261 l0 -172 48 3 47 3 3 108 c4 118 -4 141 -67 201 l-31 30 0
-173z"/>
<path d="M9560 4365 l0 -45 120 0 120 0 0 45 0 45 -120 0 -120 0 0 -45z"/>
<path d="M513 4369 c-79 -14 -161 -68 -187 -123 -19 -40 -24 -140 -7 -159 6
-8 78 -145 160 -305 202 -395 263 -482 347 -498 58 -11 133 3 169 31 85 64 71
185 -55 455 -32 69 -72 160 -89 203 -72 182 -156 328 -214 370 -39 29 -68 35
-124 26z"/>
<path d="M6027 4173 c-4 -3 -7 -24 -7 -45 l0 -38 195 0 195 0 0 45 0 45 -188
0 c-104 0 -192 -3 -195 -7z"/>
<path d="M6717 4173 c-4 -3 -7 -24 -7 -45 l0 -38 195 0 195 0 0 45 0 45 -188
0 c-104 0 -192 -3 -195 -7z"/>
<path d="M2398 3695 c-138 -38 -431 -148 -1014 -381 l-542 -216 5 -42 c20
-151 201 -778 389 -1347 l85 -257 382 -6 c210 -3 643 -8 963 -11 l580 -5 12
72 c55 349 80 516 132 882 64 449 105 774 115 896 3 41 8 85 11 97 4 21 -14
28 -318 127 -402 131 -680 216 -699 215 -8 0 -53 -11 -101 -24z m-405 -728
c79 -47 169 -153 227 -267 l23 -45 18 52 c81 237 249 344 411 262 77 -39 120
-130 121 -254 1 -126 -42 -243 -138 -375 -65 -89 -286 -303 -351 -340 l-53
-31 -50 22 c-38 16 -81 53 -173 148 -222 227 -329 426 -331 617 -1 69 3 89 27
137 38 79 89 110 169 104 36 -3 72 -14 100 -30z"/>
<path d="M5248 3412 c-17 -3 -18 -25 -18 -298 l0 -294 45 0 45 0 0 103 c0 160
-13 147 155 147 121 0 144 -2 149 -16 3 -9 6 -65 6 -125 l0 -109 45 0 45 0 -2
298 -3 297 -30 -1 c-16 -1 -36 -2 -42 -3 -10 -1 -13 -31 -13 -116 0 -103 -2
-115 -19 -125 -25 -13 -251 -13 -271 0 -11 7 -16 37 -20 126 -5 117 -5 117
-30 118 -14 1 -33 0 -42 -2z"/>
<path d="M6150 3134 c-74 -158 -136 -293 -138 -300 -3 -10 9 -14 43 -14 l46 0
92 190 c50 105 94 190 99 190 8 0 98 -173 98 -189 0 -6 -26 -11 -57 -13 -56
-3 -58 -4 -81 -45 l-23 -43 100 0 c95 0 100 -1 120 -26 11 -14 23 -34 26 -45
5 -15 16 -19 56 -19 27 0 49 2 49 5 0 2 -29 66 -65 142 -36 76 -98 207 -138
292 -40 85 -77 156 -83 158 -5 2 -70 -126 -144 -283z"/>
<path d="M7264 3411 c-2 -2 -4 -82 -4 -177 0 -95 -4 -175 -9 -178 -5 -4 -87
75 -182 174 -100 105 -180 180 -191 180 -15 0 -18 -8 -18 -50 l0 -49 118 -123
c263 -276 359 -371 369 -365 12 8 18 587 6 588 -32 4 -85 4 -89 0z"/>
<path d="M7670 3371 l0 -38 115 -5 c142 -7 194 -28 238 -100 49 -79 35 -202
-30 -260 -42 -39 -180 -71 -211 -50 -10 7 -14 49 -15 163 l-2 154 -47 3 -48 3
0 -212 0 -211 123 5 c136 6 176 15 235 55 59 39 100 100 119 176 15 61 15 71
0 132 -19 76 -60 137 -119 176 -59 40 -98 48 -235 48 l-123 0 0 -39z"/>
<path d="M6862 2993 l3 -168 48 -3 47 -3 0 123 0 123 -41 48 c-22 26 -45 47
-50 47 -6 0 -8 -67 -7 -167z"/>
<path d="M4533 2415 c-195 -67 -720 -319 -868 -416 -45 -29 -85 -64 -102 -90
-25 -38 -28 -51 -27 -123 0 -56 6 -93 19 -119 24 -50 108 -125 150 -133 94
-17 597 163 950 341 143 72 162 84 182 120 35 62 39 116 16 200 -37 132 -122
228 -215 241 -20 3 -60 -5 -105 -21z"/>
<path d="M11617 2159 c-102 -16 -187 -82 -230 -178 -23 -54 -28 -163 -9 -228
18 -61 83 -138 145 -170 47 -25 62 -28 152 -28 89 0 105 3 151 27 60 31 109
84 138 147 30 67 28 187 -3 259 -55 123 -196 194 -344 171z m168 -119 c65 -31
99 -87 103 -171 5 -84 -19 -141 -77 -181 -114 -81 -286 -40 -337 81 -18 42
-18 132 0 174 46 109 191 155 311 97z"/>
<path d="M9627 2109 c-26 -57 -71 -151 -186 -393 -39 -82 -71 -150 -71 -152 0
-2 22 -4 48 -4 l49 0 91 191 c59 122 96 188 103 183 18 -10 91 -175 85 -190
-4 -10 -22 -14 -59 -14 -51 0 -54 -1 -70 -35 -9 -20 -17 -40 -17 -45 0 -5 46
-11 103 -12 l102 -3 20 -37 c19 -36 23 -38 68 -38 26 0 47 3 47 6 0 11 -270
578 -280 588 -5 5 -19 -13 -33 -45z"/>
<path d="M13207 1870 c-75 -160 -137 -295 -137 -301 0 -6 19 -9 47 -7 l47 3
87 185 c48 101 91 186 97 188 6 2 31 -41 56 -94 52 -109 51 -114 -26 -114 -45
0 -49 -2 -68 -40 -11 -21 -20 -42 -20 -45 0 -3 47 -5 105 -5 l105 0 20 -40
c19 -38 23 -40 65 -40 25 0 45 4 45 9 0 8 -24 60 -164 355 -31 65 -68 145 -82
177 -15 33 -30 59 -33 59 -4 0 -68 -131 -144 -290z"/>
<path d="M5230 1855 l0 -295 45 0 45 0 0 295 0 295 -45 0 -45 0 0 -295z"/>
<path d="M5640 2097 l0 -53 231 -242 c127 -133 238 -242 245 -242 12 0 14 51
14 296 l0 295 -47 -3 -48 -3 -3 -177 c-1 -98 -6 -178 -11 -178 -4 0 -85 81
-180 180 -95 99 -179 180 -187 180 -10 0 -14 -14 -14 -53z"/>
<path d="M6410 2105 l0 -45 248 2 247 3 3 43 3 42 -250 0 -251 0 0 -45z"/>
<path d="M7172 2108 l3 -43 193 -3 192 -2 0 45 0 45 -196 0 -195 0 3 -42z"/>
<path d="M7860 1855 l0 -295 50 0 50 0 2 248 3 247 54 3 c92 5 142 -33 133
-101 -4 -33 -52 -67 -94 -67 -27 0 -28 -2 -28 -48 0 -44 7 -58 75 -154 41 -58
81 -111 89 -117 8 -7 36 -11 66 -9 l51 3 -80 110 c-44 61 -81 116 -81 123 0 7
16 27 36 44 46 41 64 77 64 133 0 51 -16 89 -52 122 -45 42 -89 53 -218 53
l-120 0 0 -295z"/>
<path d="M8597 2143 c-4 -3 -7 -26 -7 -50 0 -42 4 -48 123 -171 67 -70 169
-176 227 -237 58 -60 110 -113 115 -117 33 -25 35 -12 35 287 l0 295 -50 0
-50 0 0 -180 c0 -103 -4 -180 -9 -180 -5 0 -87 81 -183 180 -95 99 -178 180
-184 180 -6 0 -14 -3 -17 -7z"/>
<path d="M10190 2105 l0 -45 250 0 250 0 0 45 0 45 -250 0 -250 0 0 -45z"/>
<path d="M12290 2097 l0 -53 231 -242 c127 -133 238 -242 245 -242 12 0 14 51
14 295 l0 295 -45 0 c-57 0 -59 -6 -53 -195 3 -79 1 -150 -4 -157 -6 -9 -57
37 -186 170 -97 100 -183 182 -189 182 -9 0 -13 -17 -13 -53z"/>
<path d="M13920 1950 l0 -200 45 0 45 0 0 200 0 200 -45 0 -45 0 0 -200z"/>
<path d="M6610 1764 l0 -205 48 3 47 3 3 203 2 202 -50 0 -50 0 0 -206z"/>
<path d="M10390 1764 l0 -205 48 3 47 3 3 203 2 202 -50 0 -50 0 0 -206z"/>
<path d="M10970 1765 l0 -205 45 0 45 0 0 205 0 205 -45 0 -45 0 0 -205z"/>
<path d="M5640 1732 l0 -172 44 0 c28 0 46 5 49 14 3 7 3 66 0 129 l-6 116
-43 42 -44 43 0 -172z"/>
<path d="M7170 1855 l0 -45 195 0 195 0 0 45 0 45 -195 0 -195 0 0 -45z"/>
<path d="M8594 1733 l1 -168 48 -3 47 -3 0 121 0 121 -42 50 c-24 27 -46 49
-49 49 -3 0 -6 -75 -5 -167z"/>
<path d="M12290 1732 l0 -172 45 0 45 0 0 128 0 128 -45 44 -45 44 0 -172z"/>
<path d="M7170 1605 l0 -45 195 0 195 0 0 45 0 45 -195 0 -195 0 0 -45z"/>
<path d="M13920 1605 l0 -45 195 0 195 0 0 45 0 45 -195 0 -195 0 0 -45z"/>
</g>
</svg>
