<?xml version="1.0" encoding="UTF-8"?>
<svg xmlns="http://www.w3.org/2000/svg" xmlns:xlink="http://www.w3.org/1999/xlink" width="792pt" height="612pt" viewBox="0 0 792 612" version="1.1">
<g id="surface1">
<path style=" stroke:none;fill-rule:evenodd;fill:rgb(91.398621%,19.999695%,20.399475%);fill-opacity:1;" d="M 143.128906 344.796875 C 145.203125 335.820313 151.160156 324.585938 162.339844 327.488281 C 168.96875 329.210938 170.683594 336.503906 170.523438 342.597656 C 168.832031 357.148438 158.363281 365.753906 148.492188 375.132813 C 142.617188 378.152344 145.1875 379.046875 139.074219 376.140625 C 93.496094 337.425781 125.773438 305.46875 143.128906 344.796875 Z M 261.835938 354.640625 C 258.03125 354.203125 215.40625 373.613281 210.0625 379.453125 C 205.523438 384.414063 207.230469 387.835938 208.203125 393.5625 C 210.597656 396.386719 212.917969 399.960938 217.074219 400.273438 C 226.105469 400.160156 269.351563 382.128906 272.359375 378.0625 C 273.390625 375.949219 274.371094 374.722656 274.382813 371.191406 C 274.398438 367.417969 272.992188 366.613281 272.902344 364.167969 C 270.121094 359.21875 268.199219 355.382813 261.835938 354.640625 Z M 208.285156 234.691406 C 202.980469 245.929688 177.300781 302.789063 208.101563 295.769531 C 213.960938 293.628906 226.972656 257.464844 230.96875 247.859375 C 235.472656 237.03125 229.527344 229.605469 218.980469 228.929688 C 214.453125 228.636719 209.363281 230.882813 208.285156 234.691406 Z M 93.246094 224.453125 C 78.226563 230.871094 85.457031 242.242188 89.796875 254.445313 C 92.089844 260.886719 100.300781 299.628906 116.210938 291.535156 C 124.882813 285.628906 122.132813 278.070313 119.722656 269.644531 C 119.015625 267.164063 118.386719 264.703125 117.683594 262.039063 C 116.429688 257.296875 114.457031 251.367188 113.730469 246.648438 C 109.914063 237.367188 108.890625 217.773438 93.246094 224.453125 Z M 72.957031 321.804688 C 73.476563 333.980469 95.90625 402.660156 97.128906 404.40625 L 193.222656 405.226563 C 196.242188 389.269531 207.023438 313.992188 206.78125 306.632813 C 193.570313 302.261719 179.859375 297.75 166.550781 293.746094 C 162.890625 292.644531 160.601563 291.851563 157.09375 290.761719 C 151.769531 289.101563 91.105469 314.640625 72.957031 321.804688 Z M 67.359375 309.714844 C 68.972656 311.640625 71.535156 313.226563 75.035156 313.03125 C 91.320313 312.109375 79.820313 291.988281 76.347656 284.582031 C 73.332031 278.148438 68.34375 262.660156 61.953125 258.765625 C 58.6875 256.585938 52.914063 258.816406 49.585938 261.371094 C 46.511719 263.726563 45.722656 266.503906 46.1875 271.691406 C 52.726563 281.925781 60.171875 301.121094 67.359375 309.714844 Z M 142.097656 268.472656 C 144.214844 280.117188 162.914063 280.589844 164.539063 266.410156 C 165.816406 255.253906 166.425781 243.140625 167.320313 232.148438 C 167.519531 227.613281 168.632813 220.886719 168.15625 216.554688 C 167.503906 210.625 162.378906 206.957031 156.753906 206.789063 C 138.636719 206.25 141.992188 219.949219 141.992188 233.226563 C 141.992188 244.886719 142.277344 256.886719 142.097656 268.472656 "/>
<path style=" stroke:none;fill-rule:nonzero;fill:rgb(91.398621%,19.999695%,20.399475%);fill-opacity:1;" d="M 291.898438 243.289063 L 291.898438 272.011719 C 291.898438 272.355469 292.121094 272.566406 292.472656 272.566406 L 296.601563 272.566406 C 296.953125 272.566406 297.171875 272.355469 297.171875 272.011719 L 297.171875 261.230469 C 297.171875 260.507813 297.65625 260.035156 298.402344 260.035156 L 310.617188 260.035156 C 311.367188 260.035156 311.851563 260.507813 311.851563 261.230469 L 311.851563 272.011719 C 311.851563 272.355469 312.113281 272.566406 312.421875 272.566406 L 316.550781 272.566406 C 316.902344 272.566406 317.121094 272.355469 317.121094 272.011719 L 317.121094 243.289063 C 317.121094 242.945313 316.902344 242.734375 316.550781 242.734375 L 312.421875 242.734375 C 312.113281 242.734375 311.851563 242.945313 311.851563 243.289063 L 311.851563 254.070313 C 311.851563 254.796875 311.367188 255.265625 310.617188 255.265625 L 298.402344 255.265625 C 297.65625 255.265625 297.171875 254.796875 297.171875 254.070313 L 297.171875 243.289063 C 297.171875 242.945313 296.953125 242.734375 296.601563 242.734375 L 292.472656 242.734375 C 292.121094 242.734375 291.898438 242.945313 291.898438 243.289063 Z M 331.632813 259.484375 C 331.632813 259.824219 331.851563 260.035156 332.203125 260.035156 L 350.96875 260.035156 C 351.320313 260.035156 351.539063 259.824219 351.539063 259.484375 L 351.539063 255.816406 C 351.539063 255.476563 351.320313 255.265625 350.96875 255.265625 L 332.203125 255.265625 C 331.851563 255.265625 331.632813 255.476563 331.632813 255.816406 Z M 331.632813 268.347656 L 331.632813 272.011719 C 331.632813 272.355469 331.851563 272.566406 332.203125 272.566406 L 350.96875 272.566406 C 351.320313 272.566406 351.539063 272.355469 351.539063 272.011719 L 351.539063 268.347656 C 351.539063 268.007813 351.320313 267.792969 350.96875 267.792969 L 332.203125 267.792969 C 331.851563 267.792969 331.632813 268.007813 331.632813 268.347656 Z M 332.203125 247.507813 L 350.96875 247.507813 C 351.320313 247.507813 351.539063 247.292969 351.539063 246.953125 L 351.539063 243.289063 C 351.539063 242.945313 351.320313 242.734375 350.96875 242.734375 L 332.203125 242.734375 C 331.851563 242.734375 331.632813 242.945313 331.632813 243.289063 L 331.632813 246.953125 C 331.632813 247.292969 331.851563 247.507813 332.203125 247.507813 Z M 366.050781 262.464844 C 366.050781 262.808594 366.269531 263.019531 366.621094 263.019531 L 370.753906 263.019531 C 371.101563 263.019531 371.324219 262.808594 371.324219 262.464844 L 371.324219 243.289063 C 371.324219 242.945313 371.101563 242.734375 370.753906 242.734375 L 366.621094 242.734375 C 366.269531 242.734375 366.050781 242.945313 366.050781 243.289063 Z M 366.050781 272.011719 C 366.050781 272.355469 366.269531 272.566406 366.621094 272.566406 L 385.382813 272.566406 C 385.734375 272.566406 385.953125 272.355469 385.953125 272.011719 L 385.953125 268.347656 C 385.953125 268.007813 385.734375 267.792969 385.382813 267.792969 L 366.621094 267.792969 C 366.269531 267.792969 366.050781 268.007813 366.050781 268.347656 Z M 399.410156 272.011719 C 399.410156 272.355469 399.632813 272.566406 399.984375 272.566406 L 404.113281 272.566406 C 404.464844 272.566406 404.683594 272.355469 404.683594 272.011719 L 404.683594 263.234375 C 404.683594 262.550781 405.167969 262.039063 405.914063 262.039063 L 408.332031 262.039063 C 409.5625 262.039063 410.308594 262.039063 410.835938 261.996094 C 416.945313 261.484375 419.976563 256.925781 419.976563 252.410156 C 419.976563 247.550781 416.503906 242.734375 409.5625 242.734375 L 399.984375 242.734375 C 399.632813 242.734375 399.410156 242.945313 399.410156 243.289063 L 399.410156 246.996094 C 399.410156 247.335938 399.632813 247.550781 399.984375 247.550781 L 409.5625 247.550781 C 416.195313 247.550781 416.242188 257.226563 409.5625 257.226563 L 399.984375 257.226563 C 399.632813 257.226563 399.410156 257.4375 399.410156 257.777344 Z M 434.3125 252.195313 L 434.3125 272.011719 C 434.3125 272.355469 434.53125 272.566406 434.882813 272.566406 L 439.011719 272.566406 C 439.363281 272.566406 439.585938 272.355469 439.585938 272.011719 L 439.585938 252.195313 C 439.585938 251.855469 439.363281 251.640625 439.011719 251.640625 L 434.882813 251.640625 C 434.53125 251.640625 434.3125 251.855469 434.3125 252.195313 Z M 434.3125 246.953125 C 434.3125 247.292969 434.53125 247.507813 434.882813 247.507813 L 439.011719 247.507813 C 439.363281 247.507813 439.585938 247.292969 439.585938 246.953125 L 439.585938 243.289063 C 439.585938 242.945313 439.363281 242.734375 439.011719 242.734375 L 434.882813 242.734375 C 434.53125 242.734375 434.3125 242.945313 434.3125 243.289063 Z M 454.796875 247.636719 C 454.796875 247.976563 454.972656 248.359375 455.191406 248.613281 L 477.734375 272.140625 C 477.953125 272.398438 478.351563 272.566406 478.703125 272.566406 L 479.316406 272.566406 C 479.667969 272.566406 479.886719 272.355469 479.886719 272.011719 L 479.886719 243.289063 C 479.886719 242.945313 479.667969 242.734375 479.316406 242.734375 L 475.1875 242.734375 C 474.835938 242.734375 474.613281 242.945313 474.613281 243.289063 L 474.613281 260.292969 C 474.613281 260.71875 474.484375 260.933594 474.308594 260.933594 C 474.132813 260.933594 474 260.847656 473.78125 260.632813 L 456.949219 243.117188 C 456.730469 242.90625 456.335938 242.734375 456.027344 242.734375 L 455.367188 242.734375 C 455.015625 242.734375 454.796875 242.945313 454.796875 243.289063 Z M 454.796875 272.011719 C 454.796875 272.355469 455.015625 272.566406 455.367188 272.566406 L 459.5 272.566406 C 459.851563 272.566406 460.070313 272.355469 460.070313 272.011719 L 460.070313 260.589844 C 460.070313 260.25 459.894531 259.867188 459.675781 259.652344 L 455.191406 254.964844 C 454.972656 254.710938 454.796875 254.753906 454.796875 255.09375 Z M 510.261719 273.207031 C 514.085938 273.207031 517.777344 271.800781 520.324219 269.96875 C 520.589844 269.753906 520.765625 269.414063 520.765625 269.074219 L 520.765625 265.152344 C 520.765625 264.8125 520.542969 264.597656 520.191406 264.597656 L 516.019531 264.597656 C 515.667969 264.597656 515.445313 264.8125 515.445313 265.152344 L 515.445313 265.578125 C 515.445313 267.878906 512.019531 268.136719 510.304688 268.136719 C 496.464844 268.136719 496.464844 247.164063 510.304688 247.164063 C 512.636719 247.164063 514.613281 248.019531 515.929688 248.957031 C 516.238281 249.171875 516.503906 249.128906 516.722656 248.828125 L 519.09375 245.546875 C 519.269531 245.289063 519.269531 244.949219 518.964844 244.78125 C 516.28125 243.289063 513.339844 242.09375 510.261719 242.09375 C 499.671875 242.09375 494.398438 249.851563 494.398438 257.652344 C 494.398438 265.40625 499.671875 273.207031 510.261719 273.207031 Z M 508.8125 261.0625 L 520.191406 261.0625 C 520.542969 261.0625 520.765625 260.847656 520.765625 260.507813 L 520.765625 256.839844 C 520.765625 256.5 520.542969 256.285156 520.191406 256.285156 L 508.8125 256.285156 C 508.460938 256.285156 508.242188 256.5 508.242188 256.839844 L 508.242188 260.507813 C 508.242188 260.847656 508.460938 261.0625 508.8125 261.0625 Z M 291.898438 306.414063 L 291.898438 335.136719 C 291.898438 335.480469 292.121094 335.691406 292.472656 335.691406 L 296.601563 335.691406 C 296.953125 335.691406 297.171875 335.480469 297.171875 335.136719 L 297.171875 324.355469 C 297.171875 323.632813 297.65625 323.160156 298.402344 323.160156 L 310.617188 323.160156 C 311.367188 323.160156 311.851563 323.632813 311.851563 324.355469 L 311.851563 335.136719 C 311.851563 335.480469 312.113281 335.691406 312.421875 335.691406 L 316.550781 335.691406 C 316.902344 335.691406 317.121094 335.480469 317.121094 335.136719 L 317.121094 306.414063 C 317.121094 306.070313 316.902344 305.859375 316.550781 305.859375 L 312.421875 305.859375 C 312.113281 305.859375 311.851563 306.070313 311.851563 306.414063 L 311.851563 317.195313 C 311.851563 317.921875 311.367188 318.390625 310.617188 318.390625 L 298.402344 318.390625 C 297.65625 318.390625 297.171875 317.921875 297.171875 317.195313 L 297.171875 306.414063 C 297.171875 306.070313 296.953125 305.859375 296.601563 305.859375 L 292.472656 305.859375 C 292.121094 305.859375 291.898438 306.070313 291.898438 306.414063 Z M 331.148438 335.691406 L 335.5 335.691406 C 335.808594 335.691406 336.160156 335.480469 336.289063 335.179688 L 344.816406 317.28125 C 344.992188 316.941406 345.167969 316.769531 345.34375 316.769531 C 345.519531 316.769531 345.695313 316.941406 345.871094 317.28125 L 349.824219 325.632813 C 350.132813 326.316406 349.867188 326.742188 349.121094 326.742188 L 344.726563 326.742188 C 344.375 326.742188 344.070313 326.953125 343.9375 327.253906 L 342.136719 331.003906 C 342.003906 331.300781 342.136719 331.515625 342.488281 331.515625 L 351.363281 331.515625 C 352.109375 331.515625 352.8125 331.941406 353.121094 332.582031 L 354.351563 335.179688 C 354.484375 335.480469 354.835938 335.691406 355.1875 335.691406 L 359.492188 335.691406 C 359.84375 335.691406 359.976563 335.480469 359.84375 335.179688 L 345.957031 305.816406 C 345.871094 305.601563 345.605469 305.433594 345.34375 305.433594 C 345.078125 305.433594 344.773438 305.601563 344.683594 305.816406 L 330.796875 335.179688 C 330.664063 335.480469 330.796875 335.691406 331.148438 335.691406 Z M 373.519531 310.761719 C 373.519531 311.101563 373.695313 311.484375 373.914063 311.738281 L 396.457031 335.265625 C 396.675781 335.523438 397.070313 335.691406 397.421875 335.691406 L 398.039063 335.691406 C 398.390625 335.691406 398.609375 335.480469 398.609375 335.136719 L 398.609375 306.414063 C 398.609375 306.070313 398.390625 305.859375 398.039063 305.859375 L 393.90625 305.859375 C 393.558594 305.859375 393.335938 306.070313 393.335938 306.414063 L 393.335938 323.417969 C 393.335938 323.84375 393.203125 324.058594 393.03125 324.058594 C 392.855469 324.058594 392.722656 323.972656 392.503906 323.757813 L 375.671875 306.242188 C 375.453125 306.027344 375.058594 305.859375 374.75 305.859375 L 374.089844 305.859375 C 373.738281 305.859375 373.519531 306.070313 373.519531 306.414063 Z M 373.519531 335.136719 C 373.519531 335.480469 373.738281 335.691406 374.089844 335.691406 L 378.222656 335.691406 C 378.574219 335.691406 378.792969 335.480469 378.792969 335.136719 L 378.792969 323.714844 C 378.792969 323.375 378.617188 322.992188 378.398438 322.777344 L 373.914063 318.089844 C 373.695313 317.835938 373.519531 317.878906 373.519531 318.21875 Z M 414.394531 310.632813 L 422.699219 310.632813 C 436.234375 310.632813 436.585938 329.640625 423.972656 330.835938 C 423.492188 330.875 422.742188 330.875 421.46875 330.875 L 420.328125 330.875 C 419.578125 330.875 419.097656 330.40625 419.097656 329.683594 L 419.097656 315.320313 C 419.097656 314.980469 418.878906 314.765625 418.523438 314.765625 L 414.394531 314.765625 C 414.042969 314.765625 413.824219 314.980469 413.824219 315.320313 L 413.824219 335.136719 C 413.824219 335.480469 414.042969 335.691406 414.394531 335.691406 L 421.6875 335.691406 C 422.875 335.691406 423.710938 335.691406 424.195313 335.648438 C 433.816406 334.796875 438.652344 327.894531 438.652344 320.777344 C 438.652344 313.65625 433.816406 306.539063 424.195313 305.902344 C 423.710938 305.859375 422.875 305.859375 421.6875 305.859375 L 414.394531 305.859375 C 414.042969 305.859375 413.824219 306.070313 413.824219 306.414063 L 413.824219 310.078125 C 413.824219 310.417969 414.042969 310.632813 414.394531 310.632813 Z M 291.898438 369.535156 L 291.898438 398.261719 C 291.898438 398.605469 292.121094 398.816406 292.472656 398.816406 L 296.601563 398.816406 C 296.953125 398.816406 297.171875 398.605469 297.171875 398.261719 L 297.171875 369.535156 C 297.171875 369.195313 296.953125 368.984375 296.601563 368.984375 L 292.472656 368.984375 C 292.121094 368.984375 291.898438 369.195313 291.898438 369.535156 Z M 312.386719 373.886719 C 312.386719 374.226563 312.5625 374.609375 312.78125 374.863281 L 335.324219 398.390625 C 335.542969 398.644531 335.9375 398.816406 336.289063 398.816406 L 336.90625 398.816406 C 337.257813 398.816406 337.476563 398.605469 337.476563 398.261719 L 337.476563 369.535156 C 337.476563 369.195313 337.257813 368.984375 336.90625 368.984375 L 332.777344 368.984375 C 332.425781 368.984375 332.203125 369.195313 332.203125 369.535156 L 332.203125 386.542969 C 332.203125 386.96875 332.074219 387.183594 331.898438 387.183594 C 331.722656 387.183594 331.589844 387.097656 331.371094 386.882813 L 314.539063 369.367188 C 314.320313 369.152344 313.925781 368.984375 313.617188 368.984375 L 312.957031 368.984375 C 312.605469 368.984375 312.386719 369.195313 312.386719 369.535156 Z M 312.386719 398.261719 C 312.386719 398.605469 312.605469 398.816406 312.957031 398.816406 L 317.089844 398.816406 C 317.441406 398.816406 317.660156 398.605469 317.660156 398.261719 L 317.660156 386.839844 C 317.660156 386.5 317.484375 386.117188 317.265625 385.902344 L 312.78125 381.214844 C 312.5625 380.960938 312.386719 381.003906 312.386719 381.34375 Z M 351.503906 373.757813 L 375.671875 373.757813 C 376.023438 373.757813 376.242188 373.542969 376.242188 373.203125 L 376.242188 369.535156 C 376.242188 369.195313 376.023438 368.984375 375.671875 368.984375 L 351.503906 368.984375 C 351.152344 368.984375 350.933594 369.195313 350.933594 369.535156 L 350.933594 373.203125 C 350.933594 373.542969 351.152344 373.757813 351.503906 373.757813 Z M 360.910156 398.261719 C 360.910156 398.605469 361.171875 398.816406 361.480469 398.816406 L 365.609375 398.816406 C 365.960938 398.816406 366.179688 398.605469 366.179688 398.261719 L 366.179688 378.445313 C 366.179688 378.105469 365.960938 377.890625 365.609375 377.890625 L 361.480469 377.890625 C 361.171875 377.890625 360.910156 378.105469 360.910156 378.445313 Z M 388.996094 385.734375 C 388.996094 386.074219 389.21875 386.285156 389.566406 386.285156 L 408.332031 386.285156 C 408.683594 386.285156 408.902344 386.074219 408.902344 385.734375 L 408.902344 382.066406 C 408.902344 381.726563 408.683594 381.515625 408.332031 381.515625 L 389.566406 381.515625 C 389.21875 381.515625 388.996094 381.726563 388.996094 382.066406 Z M 388.996094 394.597656 L 388.996094 398.261719 C 388.996094 398.605469 389.21875 398.816406 389.566406 398.816406 L 408.332031 398.816406 C 408.683594 398.816406 408.902344 398.605469 408.902344 398.261719 L 408.902344 394.597656 C 408.902344 394.257813 408.683594 394.042969 408.332031 394.042969 L 389.566406 394.042969 C 389.21875 394.042969 388.996094 394.257813 388.996094 394.597656 Z M 389.566406 373.757813 L 408.332031 373.757813 C 408.683594 373.757813 408.902344 373.542969 408.902344 373.203125 L 408.902344 369.535156 C 408.902344 369.195313 408.683594 368.984375 408.332031 368.984375 L 389.566406 368.984375 C 389.21875 368.984375 388.996094 369.195313 388.996094 369.535156 L 388.996094 373.203125 C 388.996094 373.542969 389.21875 373.757813 389.566406 373.757813 Z M 423.984375 398.816406 L 428.113281 398.816406 C 428.46875 398.816406 428.6875 398.605469 428.6875 398.261719 L 428.6875 375.035156 C 428.6875 374.3125 429.171875 373.800781 429.917969 373.800781 L 433.125 373.800781 C 439.761719 373.800781 439.804688 382.109375 433.125 382.109375 L 432.335938 382.109375 C 431.980469 382.109375 431.761719 382.324219 431.761719 382.664063 L 431.761719 386.371094 C 431.761719 386.714844 431.9375 387.097656 432.113281 387.351563 L 439.980469 398.347656 C 440.199219 398.644531 440.550781 398.816406 440.902344 398.816406 L 446.042969 398.816406 C 446.394531 398.816406 446.527344 398.644531 446.308594 398.347656 L 438.222656 387.183594 C 437.824219 386.628906 438.003906 386.074219 438.660156 385.734375 C 446.308594 381.769531 444.945313 369.964844 434.398438 369.027344 C 433.871094 368.984375 433.125 368.984375 431.894531 368.984375 L 423.632813 368.984375 C 423.503906 368.984375 423.414063 369.070313 423.414063 369.195313 L 423.414063 398.261719 C 423.414063 398.605469 423.632813 398.816406 423.984375 398.816406 Z M 460.070313 373.886719 C 460.070313 374.226563 460.246094 374.609375 460.464844 374.863281 L 483.007813 398.390625 C 483.226563 398.644531 483.621094 398.816406 483.976563 398.816406 L 484.589844 398.816406 C 484.941406 398.816406 485.160156 398.605469 485.160156 398.261719 L 485.160156 369.535156 C 485.160156 369.195313 484.941406 368.984375 484.589844 368.984375 L 480.460938 368.984375 C 480.109375 368.984375 479.886719 369.195313 479.886719 369.535156 L 479.886719 386.542969 C 479.886719 386.96875 479.757813 387.183594 479.582031 387.183594 C 479.40625 387.183594 479.273438 387.097656 479.054688 386.882813 L 462.222656 369.367188 C 462.003906 369.152344 461.609375 368.984375 461.300781 368.984375 L 460.640625 368.984375 C 460.289063 368.984375 460.070313 369.195313 460.070313 369.535156 Z M 460.070313 398.261719 C 460.070313 398.605469 460.289063 398.816406 460.640625 398.816406 L 464.773438 398.816406 C 465.125 398.816406 465.34375 398.605469 465.34375 398.261719 L 465.34375 386.839844 C 465.34375 386.5 465.167969 386.117188 464.949219 385.902344 L 460.464844 381.214844 C 460.246094 380.960938 460.070313 381.003906 460.070313 381.34375 Z M 499.1875 398.816406 L 503.539063 398.816406 C 503.847656 398.816406 504.199219 398.605469 504.328125 398.304688 L 512.855469 380.40625 C 513.03125 380.0625 513.207031 379.894531 513.382813 379.894531 C 513.558594 379.894531 513.734375 380.0625 513.910156 380.40625 L 517.863281 388.757813 C 518.171875 389.441406 517.90625 389.867188 517.160156 389.867188 L 512.765625 389.867188 C 512.414063 389.867188 512.105469 390.078125 511.976563 390.378906 L 510.175781 394.128906 C 510.042969 394.425781 510.175781 394.640625 510.523438 394.640625 L 519.402344 394.640625 C 520.148438 394.640625 520.851563 395.066406 521.160156 395.703125 L 522.390625 398.304688 C 522.519531 398.605469 522.871094 398.816406 523.226563 398.816406 L 527.53125 398.816406 C 527.882813 398.816406 528.015625 398.605469 527.882813 398.304688 L 513.996094 368.941406 C 513.910156 368.726563 513.644531 368.558594 513.382813 368.558594 C 513.117188 368.558594 512.8125 368.726563 512.722656 368.941406 L 498.835938 398.304688 C 498.703125 398.605469 498.835938 398.816406 499.1875 398.816406 Z M 540.371094 373.757813 L 564.539063 373.757813 C 564.890625 373.757813 565.109375 373.542969 565.109375 373.203125 L 565.109375 369.535156 C 565.109375 369.195313 564.890625 368.984375 564.539063 368.984375 L 540.371094 368.984375 C 540.019531 368.984375 539.800781 369.195313 539.800781 369.535156 L 539.800781 373.203125 C 539.800781 373.542969 540.019531 373.757813 540.371094 373.757813 Z M 549.773438 398.261719 C 549.773438 398.605469 550.039063 398.816406 550.347656 398.816406 L 554.476563 398.816406 C 554.828125 398.816406 555.046875 398.605469 555.046875 398.261719 L 555.046875 378.445313 C 555.046875 378.105469 554.828125 377.890625 554.476563 377.890625 L 550.347656 377.890625 C 550.039063 377.890625 549.773438 378.105469 549.773438 378.445313 Z M 578.566406 378.445313 L 578.566406 398.261719 C 578.566406 398.605469 578.785156 398.816406 579.136719 398.816406 L 583.269531 398.816406 C 583.621094 398.816406 583.839844 398.605469 583.839844 398.261719 L 583.839844 378.445313 C 583.839844 378.105469 583.621094 377.890625 583.269531 377.890625 L 579.136719 377.890625 C 578.785156 377.890625 578.566406 378.105469 578.566406 378.445313 Z M 578.566406 373.203125 C 578.566406 373.542969 578.785156 373.757813 579.136719 373.757813 L 583.269531 373.757813 C 583.621094 373.757813 583.839844 373.542969 583.839844 373.203125 L 583.839844 369.535156 C 583.839844 369.195313 583.621094 368.984375 583.269531 368.984375 L 579.136719 368.984375 C 578.785156 368.984375 578.566406 369.195313 578.566406 369.535156 Z M 598.351563 383.898438 C 598.351563 394.300781 606.261719 399.5 614.214844 399.5 C 622.121094 399.5 630.03125 394.300781 630.03125 383.898438 C 630.03125 373.5 622.121094 368.300781 614.214844 368.300781 C 606.261719 368.300781 598.351563 373.5 598.351563 383.898438 Z M 603.535156 383.898438 C 603.535156 376.910156 608.851563 373.460938 614.214844 373.460938 C 619.53125 373.460938 624.890625 376.910156 624.890625 383.898438 C 624.890625 390.890625 619.53125 394.34375 614.214844 394.34375 C 608.851563 394.34375 603.535156 390.890625 603.535156 383.898438 Z M 610.609375 384.285156 L 613.816406 387.394531 C 614.039063 387.609375 614.34375 387.652344 614.609375 387.394531 L 617.816406 384.285156 C 618.035156 384.070313 618.035156 383.730469 617.816406 383.515625 L 614.609375 380.40625 C 614.34375 380.148438 614.039063 380.191406 613.816406 380.40625 L 610.609375 383.515625 C 610.347656 383.773438 610.347656 384.027344 610.609375 384.285156 Z M 644.542969 373.886719 C 644.542969 374.226563 644.71875 374.609375 644.9375 374.863281 L 667.480469 398.390625 C 667.699219 398.644531 668.097656 398.816406 668.445313 398.816406 L 669.0625 398.816406 C 669.414063 398.816406 669.632813 398.605469 669.632813 398.261719 L 669.632813 369.535156 C 669.632813 369.195313 669.414063 368.984375 669.0625 368.984375 L 664.933594 368.984375 C 664.578125 368.984375 664.359375 369.195313 664.359375 369.535156 L 664.359375 386.542969 C 664.359375 386.96875 664.230469 387.183594 664.054688 387.183594 C 663.878906 387.183594 663.746094 387.097656 663.527344 386.882813 L 646.695313 369.367188 C 646.476563 369.152344 646.082031 368.984375 645.773438 368.984375 L 645.113281 368.984375 C 644.761719 368.984375 644.542969 369.195313 644.542969 369.535156 Z M 644.542969 398.261719 C 644.542969 398.605469 644.761719 398.816406 645.113281 398.816406 L 649.246094 398.816406 C 649.597656 398.816406 649.816406 398.605469 649.816406 398.261719 L 649.816406 386.839844 C 649.816406 386.5 649.640625 386.117188 649.421875 385.902344 L 644.9375 381.214844 C 644.71875 380.960938 644.542969 381.003906 644.542969 381.34375 Z M 683.660156 398.816406 L 688.011719 398.816406 C 688.320313 398.816406 688.671875 398.605469 688.800781 398.304688 L 697.328125 380.40625 C 697.503906 380.0625 697.679688 379.894531 697.855469 379.894531 C 698.03125 379.894531 698.207031 380.0625 698.382813 380.40625 L 702.335938 388.757813 C 702.644531 389.441406 702.378906 389.867188 701.632813 389.867188 L 697.238281 389.867188 C 696.886719 389.867188 696.578125 390.078125 696.449219 390.378906 L 694.644531 394.128906 C 694.515625 394.425781 694.644531 394.640625 694.996094 394.640625 L 703.875 394.640625 C 704.621094 394.640625 705.324219 395.066406 705.632813 395.703125 L 706.863281 398.304688 C 706.992188 398.605469 707.347656 398.816406 707.695313 398.816406 L 712.003906 398.816406 C 712.355469 398.816406 712.488281 398.605469 712.355469 398.304688 L 698.46875 368.941406 C 698.382813 368.726563 698.117188 368.558594 697.855469 368.558594 C 697.589844 368.558594 697.28125 368.726563 697.195313 368.941406 L 683.308594 398.304688 C 683.179688 398.605469 683.308594 398.816406 683.660156 398.816406 Z M 726.03125 388.714844 C 726.03125 389.058594 726.25 389.269531 726.601563 389.269531 L 730.730469 389.269531 C 731.085938 389.269531 731.304688 389.058594 731.304688 388.714844 L 731.304688 369.535156 C 731.304688 369.195313 731.085938 368.984375 730.730469 368.984375 L 726.601563 368.984375 C 726.25 368.984375 726.03125 369.195313 726.03125 369.535156 Z M 726.03125 398.261719 C 726.03125 398.605469 726.25 398.816406 726.601563 398.816406 L 745.363281 398.816406 C 745.714844 398.816406 745.9375 398.605469 745.9375 398.261719 L 745.9375 394.597656 C 745.9375 394.257813 745.714844 394.042969 745.363281 394.042969 L 726.601563 394.042969 C 726.25 394.042969 726.03125 394.257813 726.03125 394.597656 "/>
</g>
</svg>
