<?xml version="1.0" standalone="no"?>
<!DOCTYPE svg PUBLIC "-//W3C//DTD SVG 20010904//EN"
 "http://www.w3.org/TR/2001/REC-SVG-20010904/DTD/svg10.dtd">
<svg version="1.0" xmlns="http://www.w3.org/2000/svg"
 width="746.000000pt" height="746.000000pt" viewBox="0 0 746.000000 746.000000"
 preserveAspectRatio="xMidYMid meet">
<metadata>
Created by potrace 1.16, written by Peter Selinger 2001-2019
</metadata>
<g transform="translate(0.000000,746.000000) scale(0.100000,-0.100000)"
fill="#000000" stroke="none">
<path d="M3593 6703 c-7 -2 -13 -11 -13 -19 0 -10 -15 -14 -60 -14 -47 0 -60
-3 -60 -15 0 -8 -9 -15 -19 -15 -30 0 -51 -11 -51 -26 0 -8 -9 -14 -20 -14
-13 0 -20 -7 -20 -20 0 -11 -7 -20 -15 -20 -9 0 -20 -11 -25 -24 -5 -13 -14
-27 -19 -31 -6 -3 -11 -24 -11 -45 0 -30 -5 -40 -20 -45 -20 -6 -20 -15 -20
-802 0 -786 0 -795 20 -800 15 -4 20 -14 20 -39 0 -22 6 -37 15 -40 8 -4 15
-12 15 -19 0 -8 9 -17 20 -20 11 -3 20 -13 20 -21 0 -8 9 -14 20 -14 13 0 20
-7 20 -20 0 -16 7 -20 35 -20 23 0 35 -5 35 -14 0 -18 22 -26 72 -26 22 0 46
-7 54 -15 10 -9 34 -15 65 -15 35 0 51 4 55 15 4 10 21 15 53 15 33 0 54 6 69
20 12 11 30 20 42 20 12 0 20 7 20 16 0 9 9 18 20 21 11 3 20 11 20 18 0 7 9
15 20 18 11 3 20 12 20 21 0 9 6 16 13 16 6 1 21 16 33 34 18 28 22 55 28 181
5 117 10 151 21 158 13 7 15 45 15 242 0 212 2 235 18 244 15 8 17 31 20 188
3 125 8 182 17 193 8 10 14 73 18 205 7 209 2 275 -19 275 -9 0 -14 11 -14 30
0 19 -7 34 -20 42 -11 7 -20 22 -20 33 0 27 -18 45 -46 45 -13 0 -24 8 -27 20
-4 15 -14 20 -41 20 -25 0 -36 4 -36 15 0 11 -13 15 -54 15 -45 0 -54 3 -59
20 -5 18 -13 20 -109 19 -56 0 -109 -3 -115 -6z"/>
<path d="M1955 6216 c-11 -7 -53 -15 -94 -18 -54 -3 -76 -8 -86 -21 -7 -9 -25
-17 -40 -17 -18 0 -28 -6 -32 -20 -4 -15 -14 -20 -38 -20 -25 0 -35 -5 -40
-20 -3 -11 -13 -20 -21 -20 -8 0 -14 -7 -14 -15 0 -8 -7 -15 -15 -15 -9 0 -20
-11 -25 -24 -5 -13 -14 -26 -20 -28 -7 -2 -14 -25 -17 -51 -4 -31 -10 -47 -19
-47 -25 0 -23 -187 2 -206 8 -6 14 -26 14 -44 0 -23 5 -33 20 -37 17 -4 20
-14 20 -58 0 -37 6 -60 20 -78 11 -14 20 -36 20 -50 0 -14 7 -27 15 -31 9 -3
15 -19 15 -41 0 -22 8 -43 20 -55 12 -12 20 -33 20 -55 0 -23 5 -35 14 -35 13
0 26 -41 26 -86 0 -15 6 -24 15 -24 10 0 15 -10 15 -33 0 -21 8 -41 20 -52 14
-13 20 -31 20 -62 0 -30 6 -49 20 -63 11 -11 20 -33 20 -49 0 -16 6 -31 15
-35 9 -3 15 -18 15 -40 0 -44 9 -66 26 -66 9 0 14 -12 14 -36 0 -27 5 -37 20
-41 17 -4 20 -14 20 -54 0 -35 4 -51 15 -55 9 -4 15 -19 15 -36 0 -21 6 -31
20 -35 17 -4 20 -14 20 -55 0 -41 3 -51 20 -55 11 -3 20 -14 20 -24 0 -11 7
-19 15 -19 8 0 15 -9 15 -19 0 -29 11 -51 25 -51 7 0 15 -9 18 -20 4 -17 14
-20 55 -20 41 0 51 -3 55 -20 4 -17 14 -20 60 -20 40 0 56 -4 61 -15 7 -20 75
-20 82 0 5 11 21 15 59 15 45 0 55 3 60 20 5 15 15 20 41 20 23 0 34 5 34 14
0 8 9 18 20 21 11 3 20 13 20 21 0 8 7 14 15 14 8 0 15 9 15 20 0 13 7 20 20
20 16 0 20 7 20 33 0 20 8 39 20 50 18 15 20 29 20 131 0 122 -4 146 -26 146
-10 0 -14 15 -14 60 0 48 -4 64 -20 77 -15 13 -20 30 -20 66 0 33 -5 49 -15
53 -10 4 -15 20 -15 44 0 58 -11 100 -26 100 -11 0 -14 17 -14 65 0 54 -3 67
-20 77 -16 10 -20 24 -20 65 0 38 -4 53 -14 53 -9 0 -15 20 -19 67 -3 45 -10
71 -21 79 -11 7 -16 27 -16 59 0 38 -4 48 -20 52 -17 5 -20 14 -20 69 0 42 -4
66 -14 71 -7 5 -16 35 -20 73 -4 40 -12 69 -21 76 -8 6 -15 27 -15 47 0 45 -8
67 -26 67 -8 0 -14 10 -14 24 0 13 -7 29 -15 36 -8 7 -15 18 -15 26 0 7 -9 18
-20 24 -11 6 -20 17 -20 25 0 8 -8 15 -19 15 -10 0 -21 9 -24 20 -4 15 -14 20
-36 20 -20 0 -31 5 -31 14 0 16 -30 26 -81 26 -23 0 -39 6 -43 15 -7 19 -65
20 -91 1z"/>
<path d="M5453 6030 c-4 -15 -14 -20 -37 -20 -23 0 -39 -8 -56 -30 -14 -17
-40 -37 -58 -45 -23 -10 -34 -23 -38 -45 -4 -16 -12 -30 -20 -30 -8 0 -15 -20
-19 -55 -5 -37 -12 -55 -21 -55 -10 0 -14 -15 -14 -54 0 -45 -3 -54 -20 -59
-17 -4 -20 -14 -20 -60 0 -36 -5 -59 -15 -67 -8 -7 -18 -30 -21 -51 -4 -23
-12 -39 -20 -39 -10 0 -14 -15 -14 -54 0 -45 -3 -54 -20 -59 -15 -4 -20 -14
-20 -37 0 -17 -7 -38 -15 -46 -8 -8 -17 -31 -20 -52 -4 -20 -13 -49 -21 -64
-8 -14 -14 -40 -14 -57 0 -20 -5 -31 -14 -31 -18 0 -26 -22 -26 -72 0 -25 -6
-45 -15 -52 -9 -6 -18 -29 -22 -51 -3 -22 -12 -44 -20 -48 -8 -5 -13 -26 -13
-55 0 -35 -5 -52 -20 -65 -13 -11 -20 -29 -20 -52 0 -22 -8 -43 -20 -55 -15
-15 -20 -33 -20 -79 0 -43 -4 -60 -15 -65 -11 -4 -15 -21 -15 -66 0 -45 4 -62
15 -66 10 -4 15 -20 15 -44 0 -48 8 -70 26 -70 8 0 14 -7 14 -16 0 -9 9 -18
20 -21 11 -3 20 -12 20 -19 0 -8 6 -14 13 -14 8 0 22 -9 32 -20 10 -11 29 -20
42 -20 13 0 23 -6 23 -14 0 -23 24 -26 192 -26 151 0 160 1 165 20 4 14 14 20
35 20 21 0 31 6 35 20 3 11 14 20 24 20 11 0 19 6 19 14 0 7 9 16 20 19 11 3
20 12 20 21 0 9 6 16 14 16 8 0 17 15 20 34 4 19 13 37 21 40 9 3 15 19 15 41
0 23 5 35 14 35 16 0 26 30 26 78 0 21 5 32 14 32 15 0 26 21 26 51 0 10 7 19
15 19 10 0 15 10 15 34 0 26 5 36 20 41 15 5 20 15 20 41 0 23 5 34 14 34 10
0 17 17 21 55 5 37 12 55 21 55 9 0 14 12 14 34 0 25 5 35 20 39 15 4 20 14
20 36 0 19 6 34 15 37 8 3 17 21 21 39 3 19 12 36 20 39 8 3 14 18 14 33 0 17
8 33 20 41 15 9 20 23 20 57 0 32 4 45 14 45 15 0 26 21 26 51 0 11 7 22 15
25 9 4 15 19 15 40 0 27 4 34 20 34 17 0 20 7 20 40 0 28 4 40 15 40 10 0 16
16 21 49 4 28 12 52 20 55 21 8 20 286 0 286 -8 0 -17 15 -20 35 -4 21 -13 35
-21 35 -8 0 -15 9 -15 20 0 13 -7 20 -20 20 -13 0 -20 7 -20 20 0 13 -7 20
-20 20 -11 0 -20 6 -20 14 0 8 -15 17 -35 20 -21 4 -35 13 -35 21 0 10 -11 15
-33 15 -20 0 -39 8 -50 20 -15 18 -29 20 -178 20 -152 0 -161 -1 -166 -20z"/>
<path d="M680 5220 c-11 -11 -33 -20 -50 -20 -18 0 -33 -6 -36 -15 -4 -8 -14
-15 -24 -15 -29 0 -50 -11 -50 -26 0 -9 -11 -14 -31 -14 -22 0 -32 -5 -36 -20
-3 -11 -14 -20 -24 -20 -12 0 -19 -7 -19 -20 0 -11 -6 -20 -14 -20 -15 0 -26
-21 -26 -50 0 -9 -7 -23 -15 -30 -22 -18 -22 -228 0 -236 9 -4 15 -19 15 -40
0 -27 4 -34 20 -34 16 0 20 -7 20 -35 0 -25 4 -35 15 -35 9 0 20 -11 25 -24 5
-13 14 -27 19 -31 6 -3 11 -18 11 -32 0 -16 7 -27 20 -30 15 -4 20 -14 20 -39
0 -27 4 -34 20 -34 16 0 20 -7 20 -35 0 -24 5 -35 15 -35 8 0 15 -9 15 -20 0
-11 9 -29 20 -40 11 -11 20 -27 20 -35 0 -8 9 -15 20 -15 16 0 20 -7 20 -35 0
-22 6 -38 15 -41 8 -4 15 -12 15 -19 0 -7 9 -15 20 -18 13 -3 20 -14 20 -31 0
-15 8 -31 20 -38 11 -7 20 -18 20 -24 0 -7 7 -14 15 -18 9 -3 15 -18 15 -34 0
-16 9 -37 20 -47 11 -10 20 -29 20 -42 0 -16 6 -23 20 -23 16 0 20 -7 20 -35
0 -23 5 -35 14 -35 7 0 16 -9 19 -20 3 -11 12 -20 21 -20 11 0 16 -9 16 -31 0
-22 5 -32 20 -36 11 -3 20 -14 20 -24 0 -12 7 -19 19 -19 10 0 21 -9 24 -20 4
-15 14 -20 36 -20 20 0 31 -5 31 -14 0 -15 21 -26 50 -26 10 0 20 -7 24 -15 4
-11 22 -15 71 -15 51 0 65 3 65 15 0 10 10 15 33 15 21 0 41 8 52 20 10 11 29
20 42 20 16 0 23 6 23 20 0 13 7 20 20 20 11 0 20 6 20 14 0 8 7 16 15 20 8 3
15 12 15 20 0 7 9 16 20 19 17 4 20 14 20 61 0 43 3 56 15 56 11 0 15 12 15
45 0 33 -4 45 -15 45 -11 0 -15 12 -15 51 0 36 -6 58 -20 76 -11 14 -20 38
-20 54 0 15 -6 32 -13 36 -8 4 -16 16 -20 26 -3 9 -13 17 -22 17 -10 0 -15 10
-15 30 0 19 -7 33 -20 40 -14 8 -20 21 -20 45 0 24 -5 35 -15 35 -10 0 -15 10
-15 30 0 17 -9 39 -20 50 -11 11 -20 29 -20 41 0 12 -8 23 -20 26 -15 4 -20
14 -20 39 0 24 -5 34 -15 34 -10 0 -15 10 -15 30 0 19 -7 34 -20 42 -15 10
-20 24 -20 56 0 35 -4 45 -20 49 -15 4 -20 14 -20 37 0 23 -9 40 -35 63 -29
27 -35 39 -35 72 0 30 -5 43 -20 51 -14 8 -20 21 -20 45 0 24 -5 35 -15 35 -8
0 -17 14 -21 35 -3 19 -12 35 -19 35 -7 0 -15 9 -18 20 -3 11 -12 20 -21 20
-9 0 -16 7 -16 15 0 8 -14 17 -35 21 -20 3 -35 12 -35 20 0 10 -12 14 -39 14
-30 0 -40 4 -44 20 -4 17 -14 20 -71 20 -53 0 -70 -4 -86 -20z"/>
<path d="M3610 4265 c0 -11 -11 -15 -39 -15 -49 0 -71 -8 -71 -26 0 -9 -19
-14 -67 -16 -46 -2 -68 -7 -71 -17 -3 -9 0 -11 8 -6 8 5 11 4 7 -2 -3 -5 -32
-11 -64 -12 -37 -1 -62 -7 -69 -16 -6 -8 -25 -15 -43 -15 -18 0 -39 -8 -51
-20 -12 -12 -33 -20 -55 -20 -28 0 -35 -4 -35 -20 0 -17 -7 -20 -39 -20 -25 0
-41 -5 -45 -15 -4 -11 -20 -15 -55 -15 -59 0 -81 -7 -81 -26 0 -10 -14 -14
-51 -14 -42 0 -52 -3 -56 -20 -4 -15 -14 -20 -39 -20 -18 0 -37 -6 -41 -14 -4
-7 -31 -15 -61 -18 -29 -3 -60 -12 -70 -22 -10 -9 -31 -16 -45 -16 -16 0 -32
-8 -39 -20 -10 -15 -24 -20 -59 -20 -32 0 -49 -5 -53 -15 -3 -9 -18 -15 -37
-15 -22 0 -32 -5 -36 -20 -4 -16 -14 -20 -52 -20 -33 0 -54 -6 -69 -20 -13
-12 -35 -20 -57 -20 -21 0 -38 -6 -41 -14 -3 -8 -26 -17 -54 -21 -28 -4 -51
-13 -54 -21 -3 -8 -15 -14 -26 -14 -13 0 -20 -7 -20 -20 0 -17 -7 -20 -50 -20
-30 0 -52 -5 -57 -13 -4 -8 -25 -17 -47 -20 -21 -3 -46 -13 -56 -22 -9 -8 -31
-15 -48 -15 -25 0 -32 -4 -32 -20 0 -17 -7 -20 -50 -20 -36 0 -52 -4 -56 -15
-4 -8 -17 -15 -30 -15 -13 0 -33 -9 -44 -20 -16 -16 -33 -20 -81 -20 -52 0
-62 -3 -66 -19 -4 -14 -15 -21 -42 -23 -34 -3 -36 -5 -39 -40 -2 -25 -8 -38
-18 -38 -19 0 -18 -46 1 -54 11 -4 15 -21 15 -60 0 -64 7 -86 26 -86 10 0 14
-13 14 -44 0 -26 6 -51 15 -60 8 -8 15 -32 15 -55 0 -28 7 -48 20 -61 14 -14
20 -33 20 -64 0 -36 4 -46 20 -51 17 -6 20 -15 20 -76 0 -52 3 -69 14 -69 9 0
16 -18 20 -50 4 -31 13 -53 21 -57 10 -3 15 -21 15 -55 0 -41 3 -51 20 -55 17
-5 20 -14 20 -59 0 -39 4 -54 14 -54 9 0 15 -21 20 -71 5 -47 12 -72 22 -76 8
-3 14 -19 14 -38 0 -18 9 -44 20 -58 14 -18 20 -40 20 -76 0 -38 4 -51 14 -51
10 0 17 -16 21 -45 4 -24 13 -50 21 -56 9 -7 14 -31 14 -65 0 -41 5 -59 20
-74 12 -12 20 -33 20 -55 0 -23 5 -35 14 -35 13 0 26 -59 26 -121 0 -19 5 -29
15 -29 11 0 15 -12 15 -51 0 -42 3 -52 20 -56 18 -5 20 -14 20 -75 0 -61 2
-71 20 -75 17 -4 20 -14 20 -54 0 -35 4 -51 15 -55 11 -5 15 -21 15 -59 0 -63
7 -85 26 -85 8 0 14 -9 14 -20 0 -20 7 -20 443 -20 244 0 447 -4 453 -9 28
-26 194 -31 1139 -31 948 0 975 1 975 19 0 10 9 21 20 24 18 5 20 14 20 80 0
54 4 78 15 87 12 10 15 37 15 121 0 99 2 108 20 114 19 6 20 15 20 131 0 99 3
124 14 124 19 0 26 32 26 131 0 68 3 88 15 93 12 4 15 30 15 141 0 123 2 137
20 152 18 16 20 30 20 152 0 116 2 136 18 147 14 10 18 31 21 110 2 65 8 102
16 109 8 6 15 45 18 108 3 71 9 102 21 115 13 15 16 41 16 135 0 100 2 117 18
126 15 8 17 29 20 143 3 101 7 135 18 141 10 6 14 31 14 95 0 110 9 162 26
162 11 0 14 19 14 80 0 69 -3 81 -20 90 -11 6 -20 17 -20 25 0 11 -13 15 -54
15 -45 0 -54 3 -59 20 -4 17 -14 20 -56 20 -37 0 -51 4 -51 14 0 15 -30 26
-76 26 -19 0 -34 6 -38 15 -4 11 -20 15 -55 15 -40 0 -50 3 -54 20 -4 18 -14
20 -75 20 -61 0 -70 2 -75 20 -4 16 -14 20 -45 20 -23 0 -45 6 -52 15 -8 10
-30 15 -65 15 -44 0 -54 3 -58 20 -4 16 -14 20 -52 20 -33 0 -52 5 -60 17 -8
11 -32 18 -71 21 -35 3 -62 10 -67 18 -4 8 -23 14 -41 14 -18 0 -45 9 -59 20
-21 16 -40 20 -110 20 -76 0 -85 2 -90 20 -4 17 -14 20 -56 20 -39 0 -51 4
-51 15 0 12 -18 15 -105 15 -87 0 -105 -3 -105 -15z m-656 -1170 c3 -8 18 -15
33 -15 43 0 73 -11 73 -26 0 -8 7 -14 15 -14 8 0 15 -7 15 -16 0 -9 9 -18 20
-21 13 -3 20 -14 20 -29 0 -13 9 -29 20 -36 11 -7 20 -19 20 -26 0 -7 7 -15
15 -18 8 -4 15 -18 15 -33 0 -41 11 -71 26 -71 10 0 14 -14 14 -50 0 -39 4
-53 20 -62 11 -7 20 -18 20 -25 0 -9 17 -13 51 -13 40 0 50 3 46 14 -4 10 2
16 16 18 17 2 23 11 25 38 2 19 10 42 17 50 8 9 17 35 21 58 4 26 12 42 20 42
9 0 14 12 14 34 0 25 5 35 20 39 11 3 20 12 20 21 0 9 7 16 15 16 8 0 15 7 15
16 0 9 9 18 20 21 11 3 20 12 20 19 0 8 7 14 16 14 9 0 18 9 21 20 4 15 14 20
39 20 24 0 34 5 34 15 0 12 19 15 115 15 96 0 115 -3 115 -15 0 -10 10 -15 31
-15 22 0 32 -5 36 -20 3 -11 14 -20 24 -20 12 0 19 -7 19 -20 0 -11 7 -20 15
-20 10 0 16 -16 21 -51 4 -28 13 -53 20 -56 20 -7 20 -258 0 -270 -7 -4 -16
-28 -19 -52 -3 -25 -12 -48 -21 -53 -9 -5 -16 -22 -16 -38 0 -19 -7 -33 -20
-40 -13 -7 -20 -21 -20 -40 0 -20 -5 -30 -15 -30 -8 0 -15 -5 -15 -11 0 -6 -9
-22 -20 -36 -11 -14 -20 -34 -20 -44 0 -12 -7 -19 -20 -19 -11 0 -20 -5 -20
-11 0 -6 -16 -25 -35 -43 -19 -19 -35 -38 -35 -45 0 -6 -7 -11 -15 -11 -8 0
-15 -4 -15 -9 0 -12 -59 -71 -71 -71 -5 0 -9 -7 -9 -15 0 -8 -7 -15 -16 -15
-9 0 -18 -9 -21 -20 -3 -11 -9 -20 -14 -20 -13 0 -59 -46 -59 -59 0 -6 -9 -11
-20 -11 -11 0 -20 -6 -20 -14 0 -8 -13 -19 -30 -25 -16 -5 -30 -14 -30 -19 0
-6 -11 -13 -25 -16 -14 -4 -25 -13 -25 -21 0 -8 -8 -15 -18 -15 -11 0 -29 -9
-42 -20 -32 -27 -104 -27 -127 0 -10 11 -29 20 -44 20 -18 0 -28 6 -32 20 -3
12 -14 20 -26 20 -12 0 -29 9 -38 20 -10 11 -23 20 -30 20 -7 0 -13 7 -13 15
0 8 -9 15 -20 15 -13 0 -20 7 -20 20 0 13 -7 20 -20 20 -11 0 -20 7 -20 15 0
8 -7 15 -15 15 -8 0 -15 7 -15 16 0 9 -9 18 -20 21 -11 3 -20 11 -20 18 0 8
-9 17 -20 20 -11 3 -20 13 -20 21 0 8 -6 14 -14 14 -7 0 -16 9 -19 20 -3 11
-12 20 -21 20 -9 0 -16 7 -16 16 0 9 -9 18 -20 21 -11 3 -20 12 -20 19 0 8 -7
17 -15 20 -8 4 -15 12 -15 20 0 8 -9 14 -20 14 -16 0 -20 7 -20 35 0 25 -4 35
-15 35 -9 0 -20 11 -25 24 -5 13 -14 27 -19 31 -6 3 -11 15 -11 26 0 10 -9 24
-20 31 -12 8 -20 24 -20 41 0 20 -6 30 -20 34 -17 4 -20 14 -20 58 0 35 -5 57
-15 65 -12 10 -15 36 -15 115 0 82 3 104 15 109 11 4 15 20 15 55 0 40 3 50
20 54 15 4 20 14 20 36 0 24 4 31 19 31 30 0 51 11 51 26 0 8 10 14 25 14 13
0 30 7 37 15 19 21 203 21 212 0z"/>
<path d="M6802 2443 c-13 -2 -26 -11 -29 -19 -3 -9 -20 -14 -43 -14 -48 0 -70
-8 -70 -26 0 -14 -17 -18 -52 -15 -10 1 -18 -4 -18 -12 0 -9 -14 -17 -36 -21
-19 -4 -38 -14 -41 -22 -3 -7 -13 -14 -23 -14 -29 0 -50 -11 -50 -26 0 -9 -12
-14 -35 -14 -24 0 -35 -5 -35 -15 0 -9 -9 -15 -24 -15 -35 0 -56 -10 -56 -26
0 -9 -11 -14 -31 -14 -22 0 -32 -5 -36 -20 -4 -15 -14 -20 -38 -20 -19 0 -35
-6 -38 -14 -3 -7 -22 -16 -41 -20 -22 -4 -36 -13 -36 -21 0 -10 -10 -15 -27
-15 -43 0 -73 -11 -73 -26 0 -8 -11 -14 -26 -14 -14 0 -37 -9 -51 -20 -14 -11
-36 -20 -49 -20 -15 0 -24 -6 -24 -15 0 -8 -9 -15 -20 -15 -13 0 -20 -7 -20
-20 0 -17 -7 -20 -43 -20 -30 0 -52 -7 -67 -20 -13 -11 -32 -20 -42 -20 -10 0
-21 -7 -24 -15 -4 -8 -17 -15 -30 -15 -13 0 -33 -9 -44 -20 -11 -11 -31 -20
-45 -20 -14 0 -29 -8 -35 -20 -6 -12 -21 -20 -36 -20 -13 0 -27 -7 -30 -15 -3
-8 -14 -17 -25 -20 -10 -4 -19 -12 -19 -19 0 -7 -18 -29 -40 -49 -22 -19 -40
-43 -40 -53 0 -10 -8 -26 -17 -37 -15 -16 -18 -40 -18 -154 0 -117 2 -136 18
-147 10 -8 17 -26 17 -46 0 -23 5 -33 20 -37 11 -3 20 -12 20 -19 0 -8 4 -14
9 -14 5 0 22 -18 38 -40 15 -22 36 -40 46 -40 9 0 17 -7 17 -15 0 -9 14 -17
40 -21 22 -4 45 -13 51 -20 17 -21 262 -20 279 1 7 8 25 15 40 15 39 0 60 9
60 26 0 10 15 14 55 14 48 0 55 2 55 20 0 17 7 20 39 20 23 0 41 5 44 14 3 7
24 16 48 19 23 3 46 13 51 21 6 11 24 16 54 16 37 0 47 4 51 20 4 17 14 20 58
20 37 0 55 4 58 14 3 8 22 18 41 22 21 3 36 12 36 20 0 10 12 14 39 14 49 0
71 8 71 26 0 9 12 14 35 14 23 0 35 5 35 14 0 9 18 16 55 21 38 4 55 11 55 21
0 9 11 14 33 14 21 0 41 8 52 20 12 13 31 20 57 20 25 0 41 5 44 15 4 9 26 17
56 21 27 4 52 13 55 20 3 8 19 14 37 14 20 0 37 7 46 20 8 11 22 20 32 20 18
0 68 44 68 60 0 6 7 10 16 10 9 0 18 9 21 20 3 11 12 20 19 20 8 0 18 8 21 18
4 9 12 21 20 25 20 12 19 345 -1 353 -8 3 -17 21 -20 40 -4 20 -13 34 -21 34
-10 0 -15 11 -15 34 0 26 -5 36 -20 41 -13 4 -20 15 -20 30 0 31 -75 109 -108
112 -39 3 -52 11 -46 28 5 12 -1 15 -26 15 -20 0 -38 7 -46 18 -10 14 -29 17
-101 19 -48 0 -98 -1 -111 -4z"/>
</g>
</svg>
