<?xml version="1.0" encoding="utf-8"?>
<!-- Generator: Adobe Illustrator 24.3.0, SVG Export Plug-In . SVG Version: 6.00 Build 0)  -->
<svg version="1.1" id="Layer_1" xmlns="http://www.w3.org/2000/svg" xmlns:xlink="http://www.w3.org/1999/xlink" x="0px" y="0px"
	 viewBox="0 0 746 746" style="enable-background:new 0 0 746 746;" xml:space="preserve">
<style type="text/css">
	.st0{fill:#E83F57;}
</style>
<g transform="translate(0.000000,746.000000) scale(0.100000,-0.100000)">
	<path class="st0" d="M4153,6175c-4-132-10-195-18-205c-9-11-14-68-17-193c-3-157-5-180-20-188c-16-9-18-32-18-244
		c0-197-2-235-15-242c-11-7-16-41-21-158c-6-126-10-153-28-181c-12-18-27-33-33-34c-7,0-13-7-13-16s-9-18-20-21c-11-3-20-11-20-18
		s-9-15-20-18s-20-12-20-21c0-9-8-16-20-16c-12,0-30-9-42-20c-15-14-36-20-69-20c-32,0-49-5-53-15c-4-11-20-15-55-15
		c-31,0-55,6-65,15c-8,8-32,15-54,15c-50,0-72,8-72,26c0,9-12,14-35,14c-28,0-35,4-35,20c0,13-7,20-20,20c-11,0-20,6-20,14
		c0,8-9,18-20,21s-20,12-20,20c0,7-7,15-15,19c-9,3-15,18-15,40c0,25-5,35-20,39c-20,5-20,14-20,800c0,787,0,796,20,802
		c15,5,20,15,20,45c0,21,5,42,11,45c5,4,14,18,19,31c5,13,16,24,25,24c8,0,15,9,15,20c0,13,7,20,20,20c11,0,20,6,20,14
		c0,15,21,26,51,26c10,0,19,7,19,15c0,12,13,15,60,15c45,0,60,4,60,14c0,8,6,17,13,19c6,3,59,6,115,6c96,1,104-1,109-19
		c5-17,14-20,59-20c41,0,54-4,54-15c0-11,11-15,36-15c27,0,37-5,41-20c3-12,14-20,27-20c28,0,46-18,46-45c0-11,9-26,20-33
		c13-8,20-23,20-42c0-19,5-30,14-30C4155,6450,4160,6384,4153,6175z"/>
	<path class="st0" d="M2760,4504c0-102-2-116-20-131c-12-11-20-30-20-50c0-26-4-33-20-33c-13,0-20-7-20-20c0-11-7-20-15-20
		c-8,0-15-6-15-14c0-8-9-18-20-21s-20-13-20-21c0-9-11-14-34-14c-26,0-36-5-41-20c-5-17-15-20-60-20c-38,0-54-4-59-15
		c-7-20-75-20-82,0c-5,11-21,15-61,15c-46,0-56,3-60,20c-4,17-14,20-55,20c-41,0-51,3-55,20c-3,11-11,20-18,20c-14,0-25,22-25,51
		c0,10-7,19-15,19c-8,0-15,8-15,19c0,10-9,21-20,24c-17,4-20,14-20,55s-3,51-20,55c-14,4-20,14-20,35c0,17-6,32-15,36
		c-11,4-15,20-15,55c0,40-3,50-20,54c-15,4-20,14-20,41c0,24-5,36-14,36c-17,0-26,22-26,66c0,22-6,37-15,40c-9,4-15,19-15,35
		c0,16-9,38-20,49c-14,14-20,33-20,63c0,31-6,49-20,62c-12,11-20,31-20,52c0,23-5,33-15,33c-9,0-15,9-15,24c0,45-13,86-26,86
		c-9,0-14,12-14,35c0,22-8,43-20,55s-20,33-20,55s-6,38-15,41c-8,4-15,17-15,31c0,14-9,36-20,50c-14,18-20,41-20,78c0,44-3,54-20,58
		c-15,4-20,14-20,37c0,18-6,38-14,44c-25,19-27,206-2,206c9,0,15,16,19,47c3,26,10,49,17,51c6,2,15,15,20,28c5,13,16,24,25,24
		c8,0,15,7,15,15s6,15,14,15c8,0,18,9,21,20c5,15,15,20,40,20c24,0,34,5,38,20c4,14,14,20,32,20c15,0,33,8,40,17c10,13,32,18,86,21
		c41,3,83,11,94,18c26,19,84,18,91-1c4-9,20-15,43-15c51,0,81-10,81-26c0-9,11-14,31-14c22,0,32-5,36-20c3-11,14-20,24-20
		c11,0,19-7,19-15s9-19,20-25c11-6,20-17,20-24c0-8,7-19,15-26c8-7,15-23,15-36c0-14,6-24,14-24c18,0,26-22,26-67c0-20,7-41,15-47
		c9-7,17-36,21-76c4-38,13-68,20-73c10-5,14-29,14-71c0-55,3-64,20-69c16-4,20-14,20-52c0-32,5-52,16-59c11-8,18-34,21-79
		c4-47,10-67,19-67c10,0,14-15,14-53c0-41,4-55,20-65c17-10,20-23,20-77c0-48,3-65,14-65c15,0,26-42,26-100c0-24,5-40,15-44
		c10-4,15-20,15-53c0-36,5-53,20-66c16-13,20-29,20-77c0-45,4-60,14-60C2756,4650,2760,4626,2760,4504z"/>
	<path class="st0" d="M6086,5504c-8-3-16-27-20-55c-5-33-11-49-21-49c-11,0-15-12-15-40c0-33-3-40-20-40c-16,0-20-7-20-34
		c0-21-6-36-15-40c-8-3-15-14-15-25c0-30-11-51-26-51c-10,0-14-13-14-45c0-34-5-48-20-57c-12-8-20-24-20-41c0-15-6-30-14-33
		c-8-3-17-20-20-39c-4-18-13-36-21-39c-9-3-15-18-15-37c0-22-5-32-20-36s-20-14-20-39c0-22-5-34-14-34c-9,0-16-18-21-55
		c-4-38-11-55-21-55c-9,0-14-11-14-34c0-26-5-36-20-41s-20-15-20-41c0-24-5-34-15-34c-8,0-15-9-15-19c0-30-11-51-26-51
		c-9,0-14-11-14-32c0-48-10-78-26-78c-9,0-14-12-14-35c0-22-6-38-15-41c-8-3-17-21-21-40c-3-19-12-34-20-34c-8,0-14-7-14-16
		s-9-18-20-21c-11-3-20-12-20-19c0-8-8-14-19-14c-10,0-21-9-24-20c-4-14-14-20-35-20c-21,0-31-6-35-20c-5-19-14-20-165-20
		c-168,0-192,3-192,26c0,8-10,14-23,14s-32,9-42,20c-10,11-24,20-32,20c-7,0-13,6-13,14c0,7-9,16-20,19c-11,3-20,12-20,21
		s-6,16-14,16c-18,0-26,22-26,70c0,24-5,40-15,44c-11,4-15,21-15,66s4,62,15,66c11,5,15,22,15,65c0,46,5,64,20,79c12,12,20,33,20,55
		c0,23,7,41,20,52c15,13,20,30,20,65c0,29,5,50,13,55c8,4,17,26,20,48c4,22,13,45,22,51c9,7,15,27,15,52c0,50,8,72,26,72
		c9,0,14,11,14,31c0,17,6,43,14,57c8,15,17,44,21,64c3,21,12,44,20,52c8,8,15,29,15,46c0,23,5,33,20,37c17,5,20,14,20,59
		c0,39,4,54,14,54c8,0,16,16,20,39c3,21,13,44,21,51c10,8,15,31,15,67c0,46,3,56,20,60c17,5,20,14,20,59c0,39,4,54,14,54
		c9,0,16,18,21,55c4,35,11,55,19,55c8,0,16,14,20,30c4,22,15,35,38,45c18,8,44,28,58,45c17,22,33,30,56,30c23,0,33,5,37,20
		c5,19,14,20,166,20c149,0,163-2,178-20c11-12,30-20,50-20c22,0,33-5,33-15c0-8,14-17,35-21c20-3,35-12,35-20c0-8,9-14,20-14
		c13,0,20-7,20-20s7-20,20-20s20-7,20-20c0-11,7-20,15-20s17-14,21-35c3-20,12-35,20-35C6106,5790,6107,5512,6086,5504z"/>
	<path class="st0" d="M1610,3865c0-33-4-45-15-45c-12,0-15-13-15-56c0-47-3-57-20-61c-11-3-20-12-20-19c0-8-7-17-15-20
		c-8-4-15-12-15-20c0-8-9-14-20-14c-13,0-20-7-20-20c0-14-7-20-23-20c-13,0-32-9-42-20c-11-12-31-20-52-20c-23,0-33-5-33-15
		c0-12-14-15-65-15c-49,0-67,4-71,15c-4,8-14,15-24,15c-29,0-50,11-50,26c0,9-11,14-31,14c-22,0-32,5-36,20c-3,11-14,20-24,20
		c-12,0-19,7-19,19c0,10-9,21-20,24c-15,4-20,14-20,36c0,22-5,31-16,31c-9,0-18,9-21,20s-12,20-19,20c-9,0-14,12-14,35
		c0,28-4,35-20,35c-14,0-20,7-20,23c0,13-9,32-20,42s-20,31-20,47c0,16-6,31-15,34c-8,4-15,11-15,18c0,6-9,17-20,24
		c-12,7-20,23-20,38c0,17-7,28-20,31c-11,3-20,11-20,18s-7,15-15,19c-9,3-15,19-15,41c0,28-4,35-20,35c-11,0-20,7-20,15s-9,24-20,35
		c-11,11-20,29-20,40c0,11-7,20-15,20c-10,0-15,11-15,35c0,28-4,35-20,35s-20,7-20,34c0,25-5,35-20,39c-13,3-20,14-20,30
		c0,14-5,29-11,32c-5,4-14,18-19,31c-5,13-16,24-25,24c-11,0-15,10-15,35c0,28-4,35-20,35s-20,7-20,34c0,21-6,36-15,40
		c-22,8-22,218,0,236c8,7,15,21,15,30c0,29,11,50,26,50c8,0,14,9,14,20c0,13,7,20,19,20c10,0,21,9,24,20c4,15,14,20,36,20
		c20,0,31,5,31,14c0,15,21,26,50,26c10,0,20,7,24,15c3,9,18,15,36,15c17,0,39,9,50,20c16,16,33,20,86,20c57,0,67-3,71-20
		c4-16,14-20,44-20c27,0,39-4,39-14c0-8,15-17,35-20c21-4,35-13,35-21s7-15,16-15c9,0,18-9,21-20c3-11,11-20,18-20s16-16,19-35
		c4-21,13-35,21-35c10,0,15-11,15-35c0-24,6-37,20-45c15-8,20-21,20-51c0-33,6-45,35-72c26-23,35-40,35-63c0-23,5-33,20-37
		c16-4,20-14,20-49c0-32,5-46,20-56c13-8,20-23,20-42c0-20,5-30,15-30s15-10,15-34c0-25,5-35,20-39c12-3,20-14,20-26
		c0-12,9-30,20-41c11-11,20-33,20-50c0-20,5-30,15-30s15-11,15-35c0-24,6-37,20-45c13-7,20-21,20-40c0-20,5-30,15-30c9,0,19-8,22-17
		c4-10,12-22,20-26c7-4,13-21,13-36c0-16,9-40,20-54c14-18,20-40,20-76c0-39,4-51,15-51S1610,3898,1610,3865z"/>
	<path class="st0" d="M5310,3800c-11,6-20,17-20,25c0,11-13,15-54,15c-45,0-54,3-59,20c-4,17-14,20-56,20c-37,0-51,4-51,14
		c0,15-30,26-76,26c-19,0-34,6-38,15c-4,11-20,15-55,15c-40,0-50,3-54,20c-4,18-14,20-75,20c-61,0-70,2-75,20c-4,16-14,20-45,20
		c-23,0-45,6-52,15c-8,10-30,15-65,15c-44,0-54,3-58,20c-4,16-14,20-52,20c-33,0-52,5-60,17c-8,11-32,18-71,21c-35,3-62,10-67,18
		c-4,8-23,14-41,14c-18,0-45,9-59,20c-21,16-40,20-110,20c-76,0-85,2-90,20c-4,17-14,20-56,20c-39,0-51,4-51,15c0,12-18,15-105,15
		c-87,0-105-3-105-15c0-11-11-15-39-15c-49,0-71-8-71-26c0-9-19-14-67-16c-46-2-68-7-71-17c-3-9,0-11,8-6c8,5,11,4,7-2
		c-3-5-32-11-64-12c-37-1-62-7-69-16c-6-8-25-15-43-15c-18,0-39-8-51-20c-12-12-33-20-55-20c-28,0-35-4-35-20c0-17-7-20-39-20
		c-25,0-41-5-45-15c-4-11-20-15-55-15c-59,0-81-7-81-26c0-10-14-14-51-14c-42,0-52-3-56-20c-4-15-14-20-39-20c-18,0-37-6-41-14
		c-4-7-31-15-61-18c-29-3-60-12-70-22c-10-9-31-16-45-16c-16,0-32-8-39-20c-10-15-24-20-59-20c-32,0-49-5-53-15c-3-9-18-15-37-15
		c-22,0-32-5-36-20c-4-16-14-20-52-20c-33,0-54-6-69-20c-13-12-35-20-57-20c-21,0-38-6-41-14c-3-8-26-17-54-21s-51-13-54-21
		c-3-8-15-14-26-14c-13,0-20-7-20-20c0-17-7-20-50-20c-30,0-52-5-57-13c-4-8-25-17-47-20c-21-3-46-13-56-22c-9-8-31-15-48-15
		c-25,0-32-4-32-20c0-17-7-20-50-20c-36,0-52-4-56-15c-4-8-17-15-30-15c-13,0-33-9-44-20c-16-16-33-20-81-20c-52,0-62-3-66-19
		c-4-14-15-21-42-23c-34-3-36-5-39-40c-2-25-8-38-18-38c-19,0-18-46,1-54c11-4,15-21,15-60c0-64,7-86,26-86c10,0,14-13,14-44
		c0-26,6-51,15-60c8-8,15-32,15-55c0-28,7-48,20-61c14-14,20-33,20-64c0-36,4-46,20-51c17-6,20-15,20-76c0-52,3-69,14-69
		c9,0,16-18,20-50c4-31,13-53,21-57c10-3,15-21,15-55c0-41,3-51,20-55c17-5,20-14,20-59c0-39,4-54,14-54c9,0,15-21,20-71
		c5-47,12-72,22-76c8-3,14-19,14-38c0-18,9-44,20-58c14-18,20-40,20-76c0-38,4-51,14-51s17-16,21-45c4-24,13-50,21-56
		c9-7,14-31,14-65c0-41,5-59,20-74c12-12,20-33,20-55c0-23,5-35,14-35c13,0,26-59,26-121c0-19,5-29,15-29c11,0,15-12,15-51
		c0-42,3-52,20-56c18-5,20-14,20-75c0-61,2-71,20-75c17-4,20-14,20-54c0-35,4-51,15-55c11-5,15-21,15-59c0-63,7-85,26-85
		c8,0,14-9,14-20c0-20,7-20,443-20c244,0,447-4,453-9c28-26,194-31,1139-31c948,0,975,1,975,19c0,10,9,21,20,24c18,5,20,14,20,80
		c0,54,4,78,15,87c12,10,15,37,15,121c0,99,2,108,20,114c19,6,20,15,20,131c0,99,3,124,14,124c19,0,26,32,26,131c0,68,3,88,15,93
		c12,4,15,30,15,141c0,123,2,137,20,152c18,16,20,30,20,152c0,116,2,136,18,147c14,10,18,31,21,110c2,65,8,102,16,109
		c8,6,15,45,18,108c3,71,9,102,21,115c13,15,16,41,16,135c0,100,2,117,18,126c15,8,17,29,20,143c3,101,7,135,18,141
		c10,6,14,31,14,95c0,110,9,162,26,162c11,0,14,19,14,80C5330,3779,5327,3791,5310,3800z M4106,2623c-7-4-16-28-19-52
		c-3-25-12-48-21-53c-9-5-16-22-16-38c0-19-7-33-20-40c-13-7-20-21-20-40c0-20-5-30-15-30c-8,0-15-5-15-11c0-6-9-22-20-36
		c-11-14-20-34-20-44c0-12-7-19-20-19c-11,0-20-5-20-11c0-6-16-25-35-43c-19-19-35-38-35-45c0-6-7-11-15-11c-8,0-15-4-15-9
		c0-12-59-71-71-71c-5,0-9-7-9-15c0-8-7-15-16-15c-9,0-18-9-21-20c-3-11-9-20-14-20c-13,0-59-46-59-59c0-6-9-11-20-11s-20-6-20-14
		c0-8-13-19-30-25c-16-5-30-14-30-19c0-6-11-13-25-16c-14-4-25-13-25-21s-8-15-18-15c-11,0-29-9-42-20c-32-27-104-27-127,0
		c-10,11-29,20-44,20c-18,0-28,6-32,20c-3,12-14,20-26,20c-12,0-29,9-38,20c-10,11-23,20-30,20c-7,0-13,7-13,15s-9,15-20,15
		c-13,0-20,7-20,20s-7,20-20,20c-11,0-20,7-20,15s-7,15-15,15c-8,0-15,7-15,16c0,9-9,18-20,21s-20,11-20,18c0,8-9,17-20,20
		c-11,3-20,13-20,21c0,8-6,14-14,14c-7,0-16,9-19,20c-3,11-12,20-21,20c-9,0-16,7-16,16c0,9-9,18-20,21c-11,3-20,12-20,19
		c0,8-7,17-15,20c-8,4-15,12-15,20c0,8-9,14-20,14c-16,0-20,7-20,35c0,25-4,35-15,35c-9,0-20,11-25,24c-5,13-14,27-19,31
		c-6,3-11,15-11,26c0,10-9,24-20,31c-12,8-20,24-20,41c0,20-6,30-20,34c-17,4-20,14-20,58c0,35-5,57-15,65c-12,10-15,36-15,115
		c0,82,3,104,15,109c11,4,15,20,15,55c0,40,3,50,20,54c15,4,20,14,20,36c0,24,4,31,19,31c30,0,51,11,51,26c0,8,10,14,25,14
		c13,0,30,7,37,15c19,21,203,21,212,0c3-8,18-15,33-15c43,0,73-11,73-26c0-8,7-14,15-14c8,0,15-7,15-16c0-9,9-18,20-21
		c13-3,20-14,20-29c0-13,9-29,20-36c11-7,20-19,20-26c0-7,7-15,15-18c8-4,15-18,15-33c0-41,11-71,26-71c10,0,14-14,14-50
		c0-39,4-53,20-62c11-7,20-18,20-25c0-9,17-13,51-13c40,0,50,3,46,14c-4,10,2,16,16,18c17,2,23,11,25,38c2,19,10,42,17,50
		c8,9,17,35,21,58c4,26,12,42,20,42c9,0,14,12,14,34c0,25,5,35,20,39c11,3,20,12,20,21c0,9,7,16,15,16c8,0,15,7,15,16
		c0,9,9,18,20,21c11,3,20,12,20,19c0,8,7,14,16,14c9,0,18,9,21,20c4,15,14,20,39,20c24,0,34,5,34,15c0,12,19,15,115,15s115-3,115-15
		c0-10,10-15,31-15c22,0,32-5,36-20c3-11,14-20,24-20c12,0,19-7,19-20c0-11,7-20,15-20c10,0,16-16,21-51c4-28,13-53,20-56
		C4126,2886,4126,2635,4106,2623z"/>
	<path class="st0" d="M7337,1723c-8-4-16-16-20-25c-3-10-13-18-21-18c-7,0-16-9-19-20s-12-20-21-20c-9,0-16-4-16-10
		c0-16-50-60-68-60c-10,0-24-9-32-20c-9-13-26-20-46-20c-18,0-34-6-37-14c-3-7-28-16-55-20c-30-4-52-12-56-21c-3-10-19-15-44-15
		c-26,0-45-7-57-20c-11-12-31-20-52-20c-22,0-33-5-33-14c0-10-17-17-55-21c-37-5-55-12-55-21c0-9-12-14-35-14s-35-5-35-14
		c0-18-22-26-71-26c-27,0-39-4-39-14c0-8-15-17-36-20c-19-4-38-14-41-22c-3-10-21-14-58-14c-44,0-54-3-58-20c-4-16-14-20-51-20
		c-30,0-48-5-54-16c-5-8-28-18-51-21c-24-3-45-12-48-19c-3-9-21-14-44-14c-32,0-39-3-39-20c0-18-7-20-55-20c-40,0-55-4-55-14
		c0-17-21-26-60-26c-15,0-33-7-40-15c-17-21-262-22-279-1c-6,7-29,16-51,20c-26,4-40,12-40,21c0,8-8,15-17,15c-10,0-31,18-46,40
		c-16,22-33,40-38,40s-9,6-9,14c0,7-9,16-20,19c-15,4-20,14-20,37c0,20-7,38-17,46c-16,11-18,30-18,147c0,114,3,138,18,154
		c9,11,17,27,17,37s18,34,40,53c22,20,40,42,40,49c0,7,9,15,19,19c11,3,22,12,25,20c3,8,17,15,30,15c15,0,30,8,36,20
		c6,12,21,20,35,20c14,0,34,9,45,20c11,11,31,20,44,20c13,0,26,7,30,15c3,8,14,15,24,15s29,9,42,20c15,13,37,20,67,20
		c36,0,43,3,43,20c0,13,7,20,20,20c11,0,20,7,20,15c0,9,9,15,24,15c13,0,35,9,49,20s37,20,51,20c15,0,26,6,26,14c0,15,30,26,73,26
		c17,0,27,5,27,15c0,8,14,17,36,21c19,4,38,13,41,20c3,8,19,14,38,14c24,0,34,5,38,20s14,20,36,20c20,0,31,5,31,14c0,16,21,26,56,26
		c15,0,24,6,24,15c0,10,11,15,35,15c23,0,35,5,35,14c0,15,21,26,50,26c10,0,20,7,23,14c3,8,22,18,41,22c22,4,36,12,36,21
		c0,8,8,13,18,12c35-3,52,1,52,15c0,18,22,26,70,26c23,0,40,5,43,14c3,8,16,17,29,19c13,3,63,4,111,4c72-2,91-5,101-19
		c8-11,26-18,46-18c25,0,31-3,26-15c-6-17,7-25,46-28c33-3,108-81,108-112c0-15,7-26,20-30c15-5,20-15,20-41c0-23,5-34,15-34
		c8,0,17-14,21-34c3-19,12-37,20-40C7356,2068,7357,1735,7337,1723z"/>
</g>
</svg>
