<?xml version="1.0" encoding="utf-8"?>
<!-- Generator: Adobe Illustrator 24.3.0, SVG Export Plug-In . SVG Version: 6.00 Build 0)  -->
<svg version="1.1" id="Layer_1" xmlns="http://www.w3.org/2000/svg" xmlns:xlink="http://www.w3.org/1999/xlink" x="0px" y="0px"
	 viewBox="0 0 544 333" style="enable-background:new 0 0 544 333;" xml:space="preserve">
<style type="text/css">
	.st0{fill:#FFFEFF;}
	.st1{fill:#E27695;}
	.st2{fill:#FFB6C8;}
	.st3{fill:#CC6F86;}
	.st4{fill:#C02D59;}
	.st5{fill:#992A4A;}
	.st6{fill:#CA3259;}
	.st7{fill:#F6B0C2;}
	.st8{fill:#E5849F;}
	.st9{fill:#EE2657;}
	.st10{fill:#DE7D99;}
	.st11{fill:#D4305A;}
	.st12{fill:#ECA8BC;}
	.st13{fill:#E091A4;}
	.st14{fill:#FFECF4;}
	.st15{fill:#F7ACC0;}
	.st16{fill:#CF4F72;}
	.st17{fill:#D75F7D;}
	.st18{fill:#FFDEEB;}
	.st19{fill:#B42850;}
	.st20{fill:#DCA1AF;}
	.st21{fill:#F090AB;}
	.st22{fill:#FFA8C0;}
	.st23{fill:#C62B55;}
	.st24{fill:#D77D95;}
	.st25{fill:#D8899D;}
	.st26{fill:#C33356;}
	.st27{fill:#B04863;}
	.st28{fill:#DC93A6;}
	.st29{fill:#FFD4E9;}
	.st30{fill:#ECB3C4;}
	.st31{fill:#DC859D;}
	.st32{fill:#E3A7B9;}
	.st33{fill:#E9B4C1;}
	.st34{fill:#F9CDD7;}
	.st35{fill:#FEB2C5;}
	.st36{fill:#DF7890;}
	.st37{fill:#C12A4E;}
	.st38{fill:#E27A92;}
	.st39{fill:#D3728A;}
	.st40{fill:#DD7695;}
	.st41{fill:#D88A97;}
	.st42{fill:#C92E55;}
	.st43{fill:#EF2557;}
	.st44{fill:#F1C8D4;}
	.st45{fill:#C15474;}
	.st46{fill:#D46E88;}
	.st47{fill:#E7A1B3;}
	.st48{fill:#D26883;}
	.st49{fill:#F5B5C6;}
	.st50{fill:#DB7490;}
	.st51{fill:#E991AB;}
	.st52{fill:#F6A0B7;}
	.st53{fill:#C04B6A;}
	.st54{fill:#FBA3BB;}
	.st55{fill:#D77B96;}
	.st56{fill:#E79EAF;}
	.st57{fill:#E694A8;}
	.st58{fill:#C02D52;}
	.st59{fill:#C03258;}
	.st60{fill:#B9566D;}
	.st61{fill:#FFD4DD;}
	.st62{fill:#E7809B;}
	.st63{fill:#FFC6D7;}
	.st64{fill:#D72756;}
	.st65{fill:#C47987;}
	.st66{fill:#FFB9CC;}
	.st67{fill:#E0ACB6;}
	.st68{fill:#CB5A75;}
	.st69{fill:#EE93AD;}
	.st70{fill:#DE849D;}
	.st71{fill:#DE2B5B;}
	.st72{fill:#D0496A;}
	.st73{fill:#F1B6C5;}
	.st74{fill:#FFCADB;}
	.st75{fill:#C2496D;}
	.st76{fill:#B4627A;}
	.st77{fill:#E08CA3;}
	.st78{fill:#FFAEC5;}
	.st79{fill:#D32B56;}
	.st80{fill:#FAB5CA;}
	.st81{fill:#C22E53;}
	.st82{fill:#D75478;}
	.st83{fill:#F6A1B8;}
	.st84{fill:#D66B87;}
	.st85{fill:#C62D59;}
	.st86{fill:#FFD7E2;}
	.st87{fill:#EA9EB0;}
	.st88{fill:#EE809D;}
	.st89{fill:#EDB0BF;}
	.st90{fill:#C15672;}
	.st91{fill:#FE9DB5;}
	.st92{fill:#ECB6BD;}
	.st93{fill:#BA4764;}
	.st94{fill:#FFB9CA;}
	.st95{fill:#D76C88;}
	.st96{fill:#E288A1;}
	.st97{fill:#FBA1BE;}
	.st98{fill:#DF849D;}
	.st99{fill:#F68AA6;}
	.st100{fill:#CD7991;}
	.st101{fill:#AF2951;}
	.st102{fill:#C66D85;}
	.st103{fill:#F9BED0;}
	.st104{fill:#BD4A68;}
	.st105{fill:#DD7492;}
	.st106{fill:#D07C93;}
	.st107{fill:#C12E58;}
	.st108{fill:#EB2757;}
	.st109{fill:#AF3A5C;}
	.st110{fill:#EDA3B7;}
	.st111{fill:#CF345E;}
	.st112{fill:#BB4562;}
	.st113{fill:#CE7286;}
	.st114{fill:#E198AB;}
	.st115{fill:#B02B4D;}
	.st116{fill:#F8ADC2;}
	.st117{fill:#EEA5B8;}
	.st118{fill:#FFDFE9;}
	.st119{fill:#D06D89;}
	.st120{fill:#EEA3B7;}
	.st121{fill:#E6A1B2;}
	.st122{fill:#F0D0DB;}
	.st123{fill:#FDFDFD;}
	.st124{fill:#E28CA3;}
	.st125{fill:#D1607E;}
	.st126{fill:#BE5973;}
	.st127{fill:#E27B99;}
	.st128{fill:#FFADC4;}
	.st129{fill:#CC7289;}
	.st130{fill:#C2536C;}
	.st131{fill:#FFCAD5;}
	.st132{fill:#EB96AE;}
	.st133{fill:#EA8DA4;}
	.st134{fill:#BF697E;}
	.st135{fill:#EA8DA2;}
	.st136{fill:#D13260;}
	.st137{fill:#ECADBE;}
	.st138{fill:#DF91A3;}
	.st139{fill:#FFD0DC;}
	.st140{fill:#FFCAD8;}
	.st141{fill:#BD3B5F;}
	.st142{fill:#C3395F;}
	.st143{fill:#E987A0;}
	.st144{fill:#C24263;}
	.st145{fill:#C32E56;}
	.st146{fill:#E07B98;}
	.st147{fill:#F39CB4;}
	.st148{fill:#DB6F8F;}
	.st149{fill:#CD2B54;}
	.st150{fill:#E9A3BB;}
	.st151{fill:#EF9FB4;}
	.st152{fill:#FFD6E6;}
	.st153{fill:#E181A1;}
	.st154{fill:#E485A0;}
	.st155{fill:#E887A3;}
	.st156{fill:#FDADC2;}
	.st157{fill:#FFBAD0;}
	.st158{fill:#E686A5;}
	.st159{fill:#AD284D;}
	.st160{fill:#DE7996;}
	.st161{fill:#F6B9C7;}
	.st162{fill:#FFCFDD;}
	.st163{fill:#B83456;}
	.st164{fill:#D58195;}
	.st165{fill:#F4B1C2;}
	.st166{fill:#CB7189;}
	.st167{fill:#C4617D;}
	.st168{fill:#F09EB4;}
	.st169{fill:#FBA4BC;}
	.st170{fill:#DB6E8D;}
	.st171{fill:#FFD1DF;}
	.st172{fill:#FFC8D6;}
	.st173{fill:#DB6E8B;}
	.st174{fill:#DF7D9A;}
	.st175{fill:#CC315C;}
	.st176{fill:#FFA7BF;}
	.st177{fill:#E78CA2;}
	.st178{fill:#D6839A;}
	.st179{fill:#DC7D95;}
	.st180{fill:#D4768E;}
	.st181{fill:#C76E87;}
	.st182{fill:#D13562;}
	.st183{fill:#B21F47;}
	.st184{fill:#BC7889;}
	.st185{fill:#C32956;}
	.st186{fill:#DD7190;}
	.st187{fill:#E48FA6;}
	.st188{fill:#DF7C95;}
	.st189{fill:#E8AABD;}
	.st190{fill:#B13F61;}
	.st191{fill:#BF2750;}
	.st192{fill:#F3AABE;}
	.st193{fill:#DD7F97;}
	.st194{fill:#D38DA5;}
	.st195{fill:#E5A2B3;}
	.st196{fill:#BA2650;}
	.st197{fill:#D58D9D;}
	.st198{fill:#FFB9CD;}
	.st199{fill:#E2829D;}
	.st200{fill:#FFD7E0;}
	.st201{fill:#DFAEBC;}
	.st202{fill:#DC6C87;}
	.st203{fill:#FFD1DB;}
	.st204{fill:#E792A9;}
	.st205{fill:#DC7C95;}
	.st206{fill:#FFB4C9;}
	.st207{fill:#B82851;}
	.st208{fill:#E1708A;}
	.st209{fill:#D5919D;}
	.st210{fill:#E299AE;}
	.st211{fill:#EAA6B7;}
	.st212{fill:#F8AFC1;}
	.st213{fill:#AF4B64;}
	.st214{fill:#EA869F;}
	.st215{fill:#ED8DA7;}
	.st216{fill:#D68DA1;}
	.st217{fill:#F39FB5;}
	.st218{fill:#B82B50;}
	.st219{fill:#E28BA4;}
	.st220{fill:#FFBACC;}
	.st221{fill:#CB2D56;}
	.st222{fill:#D87B94;}
	.st223{fill:#B8335B;}
	.st224{fill:#C46680;}
	.st225{fill:#DB839B;}
	.st226{fill:#D3748C;}
	.st227{fill:#FFB7CE;}
	.st228{fill:#DB7491;}
	.st229{fill:#DD819A;}
	.st230{fill:#DAA0AE;}
	.st231{fill:#B3264E;}
	.st232{fill:#BA3E5E;}
	.st233{fill:#F4A5B7;}
	.st234{fill:#F7B1C3;}
	.st235{fill:#FDC1CC;}
	.st236{fill:#D88699;}
	.st237{fill:#C0264D;}
	.st238{fill:#C47586;}
	.st239{fill:#E387A1;}
	.st240{fill:#BF2551;}
	.st241{fill:#E17991;}
	.st242{fill:#E7A2B5;}
	.st243{fill:#D1718D;}
	.st244{fill:#D76983;}
	.st245{fill:#C52D56;}
	.st246{fill:#E790A8;}
	.st247{fill:#EDA4B8;}
	.st248{fill:#C06E83;}
	.st249{fill:#F1B4C4;}
	.st250{fill:#C3254E;}
	.st251{fill:#D28B98;}
	.st252{fill:#EBB5C2;}
	.st253{fill:#D77590;}
	.st254{fill:#FFB7CA;}
	.st255{fill:#D1708B;}
	.st256{fill:#B2264D;}
	.st257{fill:#D56D85;}
	.st258{fill:#FFD1E1;}
	.st259{fill:#D56E8B;}
	.st260{fill:#C82254;}
	.st261{fill:#FFB8CB;}
	.st262{fill:#C25471;}
	.st263{fill:#E59FB0;}
	.st264{fill:#F498B1;}
	.st265{fill:#AF1F48;}
	.st266{fill:#E7849D;}
	.st267{fill:#E991A6;}
	.st268{fill:#E799AE;}
	.st269{fill:#EFADBF;}
	.st270{fill:#CC768B;}
	.st271{fill:#D27E92;}
	.st272{fill:#FFB8D1;}
	.st273{fill:#D1496C;}
	.st274{fill:#C01B48;}
	.st275{fill:#FFD6E5;}
	.st276{fill:#FCA9BC;}
	.st277{fill:#FFD5E4;}
	.st278{fill:#DC889E;}
	.st279{fill:#B5274F;}
	.st280{fill:#D59AA8;}
	.st281{fill:#F398AF;}
	.st282{fill:#C82A55;}
	.st283{fill:#F195B2;}
	.st284{fill:#E097AB;}
	.st285{fill:#EBA7B9;}
	.st286{fill:#E191AD;}
	.st287{fill:#B77C88;}
	.st288{fill:#FFB1C6;}
	.st289{fill:#E894AB;}
	.st290{fill:#D5728A;}
	.st291{fill:#DA859D;}
	.st292{fill:#D37D92;}
	.st293{fill:#C0375D;}
	.st294{fill:#E69EB1;}
	.st295{fill:#FFDCEB;}
	.st296{fill:#CE6585;}
	.st297{fill:#EFBDCE;}
	.st298{fill:#DE829C;}
	.st299{fill:#FFFDFF;}
	.st300{fill:#EE8FA8;}
	.st301{fill:#B72B53;}
	.st302{fill:#C26B80;}
	.st303{fill:#D26F8B;}
	.st304{fill:#FFB1C7;}
	.st305{fill:#D86889;}
	.st306{fill:#B72A4F;}
	.st307{fill:#D3879C;}
	.st308{fill:#AC2A50;}
	.st309{fill:#C65073;}
	.st310{fill:#FFCDDB;}
	.st311{fill:#F399B2;}
	.st312{fill:#C4385F;}
	.st313{fill:#C8778C;}
	.st314{fill:#D66C85;}
	.st315{fill:#C53C60;}
	.st316{fill:#E02B5B;}
	.st317{fill:#B72B4D;}
	.st318{fill:#D97E94;}
	.st319{fill:#DD2657;}
	.st320{fill:#C6627E;}
	.st321{fill:#CC2C4E;}
	.st322{fill:#F799B0;}
	.st323{fill:#E97997;}
	.st324{fill:#FFA0B7;}
	.st325{fill:#FFC3DA;}
	.st326{fill:#FFB6CF;}
	.st327{fill:#E07494;}
	.st328{fill:#FEB0BE;}
	.st329{fill:#ED9AB0;}
	.st330{fill:#FFD5DE;}
	.st331{fill:#D1748C;}
	.st332{fill:#D8708C;}
	.st333{fill:#FFB4CA;}
	.st334{fill:#D3899C;}
	.st335{fill:#C1365F;}
	.st336{fill:#BE5E79;}
	.st337{fill:#F3A2B4;}
	.st338{fill:#FAB7CE;}
	.st339{fill:#EDA3B9;}
	.st340{fill:#FFA7C0;}
	.st341{fill:#EB93AC;}
	.st342{fill:#D97994;}
	.st343{fill:#F5A8BA;}
	.st344{fill:#DD6E8D;}
	.st345{fill:#EF9DB3;}
	.st346{fill:#B3294B;}
	.st347{fill:#FFE3EE;}
	.st348{fill:#FFCCDB;}
	.st349{fill:#FFD9E4;}
	.st350{fill:#D04668;}
	.st351{fill:#FFD9E1;}
	.st352{fill:#D07B94;}
	.st353{fill:#BE2A54;}
	.st354{fill:#FFBDCF;}
	.st355{fill:#FFD0DD;}
	.st356{fill:#CD4C6B;}
	.st357{fill:#AD7B8B;}
	.st358{fill:#D76988;}
	.st359{fill:#C7ABB4;}
	.st360{fill:#B73154;}
	.st361{fill:#FFBDD1;}
	.st362{fill:#EC8EA2;}
	.st363{fill:#FFACC2;}
	.st364{fill:#DA8197;}
	.st365{fill:#D56886;}
	.st366{fill:#FFD4E1;}
	.st367{fill:#AB2044;}
	.st368{fill:#F699B0;}
	.st369{fill:#C65470;}
	.st370{fill:#D4748E;}
	.st371{fill:#E189A2;}
	.st372{fill:#BF4265;}
	.st373{fill:#BF2C55;}
	.st374{fill:#CA8695;}
	.st375{fill:#DA8099;}
	.st376{fill:#FFECF1;}
	.st377{fill:#E48FA3;}
	.st378{fill:#FFD3E0;}
	.st379{fill:#D1607C;}
	.st380{fill:#F9A3BA;}
	.st381{fill:#FDFBFF;}
	.st382{fill:#DB7693;}
	.st383{fill:#D77993;}
	.st384{fill:#F3AEC0;}
	.st385{fill:#CB7388;}
	.st386{fill:#CB335A;}
	.st387{fill:#DB7D97;}
	.st388{fill:#FFCCD8;}
	.st389{fill:#C02E52;}
	.st390{fill:#EDA0B4;}
	.st391{fill:#EBA9BB;}
	.st392{fill:#F7ABBF;}
	.st393{fill:#D62957;}
	.st394{fill:#BC2A51;}
	.st395{fill:#D46A86;}
	.st396{fill:#F4A9C0;}
	.st397{fill:#ECA3B7;}
	.st398{fill:#D96F8B;}
	.st399{fill:#DF7997;}
	.st400{fill:#DD6686;}
	.st401{fill:#F5A5BB;}
	.st402{fill:#F6BDCA;}
	.st403{fill:#BE4A66;}
	.st404{fill:#CA315A;}
	.st405{fill:#F296AF;}
	.st406{fill:#E896AC;}
	.st407{fill:#C52A58;}
	.st408{fill:#AC3352;}
	.st409{fill:#E69DB0;}
	.st410{fill:#DA869B;}
	.st411{fill:#FFC1CE;}
	.st412{fill:#D72C5C;}
	.st413{fill:#FFA9C1;}
	.st414{fill:#F897AF;}
	.st415{fill:#F192AC;}
	.st416{fill:#BF3255;}
	.st417{fill:#FDAFC3;}
	.st418{fill:#FCB9C7;}
	.st419{fill:#E491A8;}
	.st420{fill:#E0869A;}
	.st421{fill:#F2B1C2;}
	.st422{fill:#FFBAC9;}
	.st423{fill:#E68BA2;}
	.st424{fill:#C78090;}
	.st425{fill:#DE8B9F;}
	.st426{fill:#FFB9CF;}
	.st427{fill:#FFBFD2;}
	.st428{fill:#E17793;}
	.st429{fill:#C52751;}
	.st430{fill:#AF3254;}
	.st431{fill:#F1A7BB;}
	.st432{fill:#F5A4BA;}
	.st433{fill:#D66D85;}
	.st434{fill:#D2748D;}
	.st435{fill:#F9A6BC;}
	.st436{fill:#F0A5BC;}
	.st437{fill:#FEB0C5;}
	.st438{fill:#BA4262;}
	.st439{fill:#E898AF;}
	.st440{fill:#E09BAE;}
	.st441{fill:#D19CA9;}
	.st442{fill:#DD6E8B;}
	.st443{fill:#DD7690;}
	.st444{fill:#C0325D;}
	.st445{fill:#EFAABC;}
	.st446{fill:#FDACBF;}
	.st447{fill:#C1224A;}
	.st448{fill:#F5AABA;}
	.st449{fill:#FCB2C2;}
	.st450{fill:#EAA3B6;}
	.st451{fill:#FFD4DE;}
	.st452{fill:#DE6D8B;}
	.st453{fill:#FFB6CD;}
	.st454{fill:#D7768E;}
	.st455{fill:#F39EB8;}
	.st456{fill:#CE7087;}
	.st457{fill:#E6899F;}
	.st458{fill:#EF9EB3;}
	.st459{fill:#DB869C;}
	.st460{fill:#EBA7B8;}
	.st461{fill:#FFB8CA;}
	.st462{fill:#CB365E;}
	.st463{fill:#FA83A3;}
	.st464{fill:#DC6689;}
	.st465{fill:#F0ACBA;}
	.st466{fill:#CD2856;}
	.st467{fill:#C8758C;}
	.st468{fill:#D797A4;}
	.st469{fill:#C2617D;}
	.st470{fill:#F092AB;}
	.st471{fill:#E89DB0;}
	.st472{fill:#AD2649;}
	.st473{fill:#D2718C;}
	.st474{fill:#FFCCD9;}
	.st475{fill:#CB476B;}
	.st476{fill:#BC2C50;}
	.st477{fill:#D1798E;}
	.st478{fill:#FBBFCD;}
	.st479{fill:#B53254;}
	.st480{fill:#DC6180;}
	.st481{fill:#FA98AE;}
	.st482{fill:#A92849;}
	.st483{fill:#E592A6;}
	.st484{fill:#C56982;}
	.st485{fill:#D42E5A;}
	.st486{fill:#D86D89;}
	.st487{fill:#E092A6;}
	.st488{fill:#BF2A52;}
	.st489{fill:#E17C96;}
	.st490{fill:#FFCFDE;}
	.st491{fill:#CD2550;}
	.st492{fill:#C5748A;}
	.st493{fill:#FFD8E4;}
	.st494{fill:#DC8799;}
	.st495{fill:#F5869E;}
	.st496{fill:#B32F51;}
	.st497{fill:#CF7B92;}
	.st498{fill:#FFBAD1;}
	.st499{fill:#E489A2;}
	.st500{fill:#D96280;}
	.st501{fill:#B93C5C;}
	.st502{fill:#AD2A4C;}
	.st503{fill:#DA889E;}
	.st504{fill:#DA8898;}
	.st505{fill:#BF3359;}
	.st506{fill:#DC6B8A;}
	.st507{fill:#F893AD;}
	.st508{fill:#D48799;}
	.st509{fill:#B84D69;}
	.st510{fill:#D72D5C;}
	.st511{fill:#EE98B0;}
	.st512{fill:#A9274B;}
	.st513{fill:#DD7D97;}
	.st514{fill:#D5758F;}
	.st515{fill:#FFB7CF;}
	.st516{fill:#FFDCE8;}
	.st517{fill:#CD2954;}
	.st518{fill:#AB5D72;}
	.st519{fill:#F1A9BF;}
	.st520{fill:#E97D9B;}
	.st521{fill:#D15B7A;}
	.st522{fill:#C43A60;}
	.st523{fill:#FFD8E3;}
</style>
<path class="st0" d="M146,74c1.1,1,1.6,1.3,3,2c-5.7,0.6-10.5,0.3-11,7c1.3-0.6,1-0.1,1-2c1,1.5,1,1.2,1,3c6.9-6.1,19.1-9,22.5,3
	c2.2,8-1.8,19.7-2.4,28c-0.3,3.9,0.6,8.4-1.3,12c-4,7.9-13.2,8.6-17.8,1c-2.6-4.2-2-9.3-2-14c0-8.9,1.5-19.4-1-28
	c-1.3,2.6-0.7,5.1-1,8c-0.8,7.7-1.7,15.3-2.4,23c-0.3,3.2-0.2,7.5,3.3,8c-1.2,2-1.7,2.3-4,3c0.3,4.5,1.9,6.3,6,8
	c-0.3,3.9,1.4,5.7,3,9c-5.3-2.5-10.1-8.4-12-14c-2,0.5-2.4,0.7-4,2c-3.5-10-2.2-18-1-28c-1.6,0.8-2.6,1.9-4,3c1.3-4.1,2-7.7,2-12
	c-1,1.1-1.3,1.6-2,3h-2l-1-5l-3,2c0.7-1.6,0.8-1.8,2-3l-1-4c-3.1,0.4-5.3,1.3-8,3c7.1,8.2,8.1,18.9,11.3,29c1.4,4.5,4.4,10.2,4.3,15
	c-0.1,4.6-5.1,9.2-9.6,9.4c-5.1,0.2-8.2-4.3-9.9-8.4c-4.5-10.7-9-21.8-12.1-33c-1.7,0.2-1.5,0.5-2-1l-5,1v-4h-4l1,7
	c-1.5-1-1.2-1-3-1c0.5,2.2,1.1,4,2,6h-4c0.1,2,0.4,1.9-1,3c3.9,2.3,8.1,0.5,11.8,2.3c9.1,4.4,4.3,16,3.2,22.7
	c-2.4,0.3-3.1,1.3-2.8,4c0.4,3.5,3.6,6.5,3.4,10c-0.4,7.2-8.8,9.1-13.3,4.7c-1.4-1.4-2.4-3.1-3.5-4.7c-1.4-2.3-2.7-4.6-3.8-7
	c-5.5,2.2-5.8,4.8-4,10l4-1c1,2.5,1.9,5.3,3.7,7.3c1.8,2,4.4,3.1,5.3,5.8c2,6-4.4,14.2,2,18.9l-1-4c1.7,4-0.6,5-1.3,8.9
	c-0.5,3-0.2,6.1-0.8,9.1c3.9-2,4-4.9,4-9h2v11c1.6-2.3,1.9-4.2,2-7c1.3,2.4,1.9,5.2,4,7v2h-2c1.1,2.4,2,3.4,4,5
	c0.8-5.3-1.2-10-2.8-15c-2.8-9.3-6.1-18.6-8.2-28c15.6-3.6,31-11.1,46-16.8c8-3,16.3-6.8,25-7.2c-0.5-3.1-0.6-4.9,2-8h2
	c1.3-1.1,0.5-3.5,1-5c0.8-2.3,1.6-3.3,2-6l2-1c1.5-2.6-0.2-5.3,2-8l1,1v-9c0.6,1.8,0.8,3.1,1,5h5c2.1-5.3,4-10.9,8-15v-2
	c-4.4-1-5.6,1-7,5c-1.1-2.7-1-4.4-4-5c1-6.1,2.3-14.3-1-19c-2-2.9-8.1-2.7-11-5l1-1C153.6,71.2,150.1,72.5,146,74z"/>
<path class="st1" d="M147,78c2.3,1,4.5,1,7,1C151.7,78,149.5,78,147,78z"/>
<path class="st2" d="M144,79l1,1L144,79z"/>
<path class="st3" d="M145,79l1,1L145,79z"/>
<path class="st4" d="M146,79c2.6,1.1,5.2,1,8,1C151.4,78.9,148.8,79,146,79z"/>
<path class="st5" d="M154.7,79.3c-0.4,0.4,0.6,0.4,0.7,0.3C155.8,79.2,154.7,79.3,154.7,79.3z"/>
<path class="st6" d="M154,80c3.6,3.1,5.6,5.1,6,10C162.2,84.8,159.9,79.8,154,80z"/>
<path class="st7" d="M157,79l1,1L157,79z"/>
<path class="st8" d="M143,80l1,1L143,80z"/>
<path class="st9" d="M144,80c-2,6.4-1.9,13.3-2,20c-0.1,5,0,10,0,15c0,4-0.9,9.3,1.2,12.9c2.9,5.1,10.1,5,13.4,0.4
	c2.7-3.8,1.1-9.9,1.7-14.3c1.1-7.5,1.7-14.4,1.7-22c0-3.5,0.3-7.3-2.7-9.8C153.7,79.3,148.3,80,144,80z"/>
<path class="st10" d="M142,81l1,1L142,81z"/>
<path class="st11" d="M143,81c-4.8,9-2,24-2,34c0,4-0.9,9.2,0.6,13c1.5,3.7,4.8,4.6,8.4,5c-2.5-1.8-5.3-3.2-6.8-6
	c-2-3.7-1.2-8.9-1.2-13C142,103.4,144.4,91.3,143,81z"/>
<path class="st12" d="M141,82l1,1L141,82z"/>
<path class="st13" d="M160,82l1,1L160,82z"/>
<path class="st14" d="M139,84v42c1.6-3.7,1-8,1-12C140,105.2,142.4,92.1,139,84z"/>
<path class="st15" d="M140,84l1,1L140,84z"/>
<path class="st16" d="M161,84v7C162.1,88.5,162.1,86.5,161,84z"/>
<path class="st17" d="M140,85v41c1.6-3.7,1-8,1-12C141,105.5,143.3,92.9,140,85z"/>
<path class="st18" d="M162,85v8C163.2,90.2,163.2,87.8,162,85z"/>
<path class="st19" d="M160,90v8C161.2,95.2,161.2,92.8,160,90z"/>
<path class="st20" d="M102,91c1.5,0.7,2.3,0.8,4,1C104.5,91.3,103.7,91.2,102,91z"/>
<path class="st21" d="M161.3,91.7c-0.1,0.1-0.1,1.1,0.3,0.7C161.7,92.3,161.8,91.2,161.3,91.7z"/>
<path class="st22" d="M99,92l1,1L99,92z"/>
<path class="st9" d="M100,92c-2.2,2.8-5.3,5.3-5.7,9c-0.5,5.4,3.7,10.7,5.6,15.4c3.6,8.7,6.3,18.5,9.1,27.6c2.9,0,6.1,0.3,8.8-0.9
	c9.4-4.2,0-22.3-1.3-29.1c-1.1-5.3-1-14.5-5-18.5C108.7,92.7,103.7,92.9,100,92z"/>
<path class="st23" d="M101,92c2.3,1,4.5,1,7,1C105.7,92,103.5,92,101,92z"/>
<path class="st24" d="M108,92l1,1L108,92z"/>
<path class="st25" d="M97,93l1,1L97,93z"/>
<path class="st26" d="M95,110c0.9-3.1-0.9-5.8-0.4-9c0.5-3.2,3-5.1,5.4-7C91,92.8,93.4,105,95,110z"/>
<path class="st27" d="M108.7,93.3c-0.4,0.4,0.6,0.4,0.7,0.3C109.8,93.2,108.7,93.3,108.7,93.3z"/>
<path class="st28" d="M110,93l1,1L110,93z"/>
<path class="st29" d="M161,93v9C162.3,99,162.3,96,161,93z"/>
<path class="st30" d="M95,94l1,1L95,94z"/>
<path class="st31" d="M111,94l1,1L111,94z"/>
<path class="st32" d="M94,95l1,1L94,95z"/>
<path class="st33" d="M112,95l1,1L112,95z"/>
<path class="st34" d="M200,95c1.8,0.8,3,0.9,5,1C203.2,95.2,202,95.1,200,95z"/>
<path class="st35" d="M93,96l1,1L93,96z"/>
<path class="st36" d="M199,96l1,1L199,96z"/>
<path class="st37" d="M200,96c4,2,8.7,3.7,13,5C209.4,96.9,205.3,96.1,200,96z"/>
<path class="st38" d="M206,96l1,1L206,96z"/>
<path class="st39" d="M93,97l1,1L93,97z"/>
<path class="st40" d="M113.3,97.7c-0.1,0.1-0.1,1.1,0.3,0.7C113.7,98.3,113.8,97.2,113.3,97.7z"/>
<path class="st41" d="M197,97l1,1L197,97z"/>
<path class="st42" d="M196,100c2.1-0.8,2.8-1.1,4-3C198.1,97.9,197.4,98.4,196,100z"/>
<path class="st43" d="M196,112c-1.2-1-1.6-1.3-3-2c-1.4,10.6-13,21.5-9.7,32.8c1.4,4.8,9.7,5.3,13.1,2.4c3.8-3.4,6.4-12.2,6.6-17.1
	h3c1.1-5.1,2.8-9.7,3-15c1.2,1,1.6,1.3,3,2c-0.5-4.6,0.9-9.5,2-14c-3.5-1.1-7.1-3.7-10.9-3.7C194.6,97.3,194.9,106.2,196,112z"/>
<path class="st44" d="M209.7,97.3c-0.4,0.4,0.6,0.4,0.7,0.3C210.8,97.2,209.7,97.3,209.7,97.3z"/>
<path class="st45" d="M160,98v3C160.7,99.4,160.7,99.6,160,98z"/>
<path class="st46" d="M196,98l1,1L196,98z"/>
<path class="st47" d="M211,98l1,1L211,98z"/>
<path class="st48" d="M92,99v3C92.7,100.4,92.7,100.6,92,99z"/>
<path class="st49" d="M114,99v3C114.7,100.4,114.7,100.6,114,99z"/>
<path class="st50" d="M195,99l1,1L195,99z"/>
<path class="st51" d="M212,99l1,1L212,99z"/>
<path class="st52" d="M194,100l1,1L194,100z"/>
<path class="st53" d="M195,100c-1,2.1-1.6,3.7-2,6C194.6,104,195.4,102.6,195,100z"/>
<path class="st54" d="M213,100l1,1L213,100z"/>
<path class="st55" d="M160,101v3C160.7,102.4,160.7,102.6,160,101z"/>
<path class="st56" d="M214.3,101.7c-0.1,0.1-0.1,1.1,0.3,0.7C214.7,102.3,214.8,101.2,214.3,101.7z"/>
<path class="st57" d="M92.3,102.7c-0.1,0.1-0.1,1.1,0.3,0.7C92.7,103.3,92.8,102.2,92.3,102.7z"/>
<path class="st58" d="M114,102v4C114.7,104.2,114.7,103.8,114,102z"/>
<path class="st59" d="M213,102c-0.1,4.2-1.5,7.9-2,12C213.8,110.5,214.8,106.2,213,102z"/>
<path class="st60" d="M214,103v5C214.8,106,214.8,105,214,103z"/>
<path class="st61" d="M215,103v5C215.8,106,215.8,105,215,103z"/>
<path class="st62" d="M115.3,104.7c-0.1,0.1-0.1,1.1,0.3,0.7C115.7,105.3,115.8,104.2,115.3,104.7z"/>
<path class="st63" d="M160,104v8C161.2,109.2,161.2,106.8,160,104z"/>
<path class="st64" d="M194,104c-2.6,6.8-5.9,13.8-7,21c3.1-4.1,5.7-9.8,6-15c1.6,0.5,1.5,0.4,2,2C195.9,109.2,195.3,106.7,194,104z"
	/>
<path class="st65" d="M93,105l1,1L93,105z"/>
<path class="st66" d="M192,105l1,1L192,105z"/>
<path class="st67" d="M93,106l1,1L93,106z"/>
<path class="st68" d="M192.3,106.7c-0.1,0.1-0.1,1.1,0.3,0.7C192.7,107.3,192.8,106.2,192.3,106.7z"/>
<path class="st69" d="M116.3,107.7c-0.1,0.1-0.1,1.1,0.3,0.7C116.7,108.3,116.8,107.2,116.3,107.7z"/>
<path class="st70" d="M94,108l1,1L94,108z"/>
<path class="st71" d="M96,108c0.3,7.2,3.8,14.2,6,21C104.4,122.8,99.4,113.3,96,108z"/>
<path class="st72" d="M159,108v6C160,111.7,160,110.3,159,108z"/>
<path class="st73" d="M191,108l1,1L191,108z"/>
<path class="st74" d="M214.3,108.7c-0.1,0.1-0.1,1.1,0.3,0.7C214.7,109.3,214.8,108.2,214.3,108.7z"/>
<path class="st75" d="M116.3,109.7c-0.1,0.1-0.1,1.1,0.3,0.7C116.7,110.3,116.8,109.2,116.3,109.7z"/>
<path class="st76" d="M191.3,109.7c-0.1,0.1-0.1,1.1,0.3,0.7C191.7,110.3,191.8,109.2,191.3,109.7z"/>
<path class="st77" d="M95.3,110.7c-0.1,0.1-0.1,1.1,0.3,0.7C95.7,111.3,95.8,110.2,95.3,110.7z"/>
<path class="st78" d="M117,110v3C117.7,111.4,117.7,111.6,117,110z"/>
<path class="st62" d="M213,110l1,1L213,110z"/>
<path class="st79" d="M116,111c0.3,3.2,0.9,6,2,9C118.8,116.7,117.9,113.7,116,111z"/>
<path class="st80" d="M190,111l1,1L190,111z"/>
<path class="st81" d="M158,112v8C159.2,117.2,159.2,114.8,158,112z"/>
<path class="st82" d="M190.3,112.7c-0.1,0.1-0.1,1.1,0.3,0.7C190.7,113.3,190.8,112.2,190.3,112.7z"/>
<path class="st83" d="M212.3,112.7c-0.1,0.1-0.1,1.1,0.3,0.7C212.7,113.3,212.8,112.2,212.3,112.7z"/>
<path class="st84" d="M96,113l1,1L96,113z"/>
<path class="st85" d="M209,113l-1,8C210.2,118.2,210.9,116.1,209,113z"/>
<path class="st86" d="M96.3,114.7c-0.1,0.1-0.1,1.1,0.3,0.7C96.7,115.3,96.8,114.2,96.3,114.7z"/>
<path class="st87" d="M118.3,114.7c-0.1,0.1-0.1,1.1,0.3,0.7C118.7,115.3,118.8,114.2,118.3,114.7z"/>
<path class="st88" d="M159,114v3C159.7,115.4,159.7,115.6,159,114z"/>
<path class="st89" d="M189,114l1,1L189,114z"/>
<path class="st90" d="M189.3,115.7c-0.1,0.1-0.1,1.1,0.3,0.7C189.7,116.3,189.8,115.2,189.3,115.7z"/>
<path class="st91" d="M211,115l1,1L211,115z"/>
<path class="st92" d="M97.3,116.7c-0.1,0.1-0.1,1.1,0.3,0.7C97.7,117.3,97.8,116.2,97.3,116.7z"/>
<path class="st93" d="M118.3,116.7c-0.1,0.1-0.1,1.1,0.3,0.7C118.7,117.3,118.8,116.2,118.3,116.7z"/>
<path class="st94" d="M159,117v4C159.7,119.2,159.7,118.8,159,117z"/>
<path class="st95" d="M188.3,117.7c-0.1,0.1-0.1,1.1,0.3,0.7C188.7,118.3,188.8,117.2,188.3,117.7z"/>
<path class="st96" d="M210,117l1,1L210,117z"/>
<path class="st97" d="M69,118c1.5,0.7,2.3,0.8,4,1C71.5,118.3,70.7,118.2,69,118z"/>
<path class="st98" d="M98.3,118.7c-0.1,0.1-0.1,1.1,0.3,0.7C98.7,119.3,98.8,118.2,98.3,118.7z"/>
<path class="st99" d="M119.3,118.7c-0.1,0.1-0.1,1.1,0.3,0.7C119.7,119.3,119.8,118.2,119.3,118.7z"/>
<path class="st100" d="M67,119l1,1L67,119z"/>
<path class="st101" d="M68,119c2.1,0.9,3.7,1,6,1C71.9,119.1,70.3,119,68,119z"/>
<path class="st102" d="M74,119l1,1L74,119z"/>
<path class="st103" d="M75,119l1,1L75,119z"/>
<path class="st104" d="M99,119v3C99.7,120.4,99.7,120.6,99,119z"/>
<path class="st105" d="M209,119l1,1L209,119z"/>
<path class="st106" d="M65,120l1,1L65,120z"/>
<path class="st107" d="M62,126l6-5C64.4,120.5,63,122.8,62,126z"/>
<path class="st108" d="M68,120.9c-2.9,1.2-5.4,3.8-5,7.1c0.5,4.5,4.4,8.6,6.7,12.3c3,4.7,5.1,10,8.3,14.5c2.2,3.1,5.7,6.3,9.8,4.6
	c3.8-1.6,3.6-7,2.5-10.2c-2-5.9-6.1-11.6-8.8-17.3c-1.3-2.8-1.8-5.9-3.8-8.2C75.3,120.8,71.7,119.4,68,120.9z"/>
<path class="st109" d="M74.7,120.3c-0.4,0.4,0.6,0.4,0.7,0.3C75.8,120.2,74.7,120.3,74.7,120.3z"/>
<path class="st110" d="M76,120l1,1L76,120z"/>
<path class="st111" d="M119,120c0,8.6,3.7,14.4,1,23C126.3,137.4,122.9,126.4,119,120z"/>
<path class="st112" d="M158,120v4C158.7,122.2,158.7,121.8,158,120z"/>
<path class="st113" d="M187.3,120.7c-0.1,0.1-0.1,1.1,0.3,0.7C187.7,121.3,187.8,120.2,187.3,120.7z"/>
<path class="st114" d="M63,121l1,1L63,121z"/>
<path class="st115" d="M76,121c0.7,1.6,0.8,1.8,2,3C77.3,122.4,77.2,122.2,76,121z"/>
<path class="st116" d="M77,121l1,1L77,121z"/>
<path class="st117" d="M120.3,121.7c-0.1,0.1-0.1,1.1,0.3,0.7C120.7,122.3,120.8,121.2,120.3,121.7z"/>
<path class="st118" d="M159,121v6C160,124.7,160,123.3,159,121z"/>
<path class="st119" d="M208,121l1,1L208,121z"/>
<path class="st120" d="M62,122l1,1L62,122z"/>
<path class="st121" d="M99,122l1,1L99,122z"/>
<path class="st122" d="M264.3,122.7c-0.1,0.1-0.1,1.1,0.3,0.7C264.7,123.3,264.8,122.2,264.3,122.7z"/>
<path class="st123" d="M383.5,156.5c-1,1.3-3.3,1.7-5,1.3c-0.8,0.8-1.6,1.6-2.4,2.3c-0.7,1.4-1.4,2.8-2.2,4.2c2,0.9,4.7,0.2,6.5-2.6
	c1.2-1.8,2.7-4.1,3.9-6.4C384.1,155.7,383.9,156.1,383.5,156.5z"/>
<path class="st123" d="M298.5,156.1c-0.2,0-0.3-0.1-0.5-0.1l1.9-0.9c-1.6,0.1-3.1,0.2-4.7,0.3c-0.6,0.2-1.2,0.4-1.8,0.6
	c1.2,0.4,2.4,0.7,3.6,0.9C297.5,156.6,298,156.3,298.5,156.1z"/>
<path class="st123" d="M310.8,186.4c-0.3,0.5-0.5,1-0.8,1.6c2-0.7,3.8-1.4,5.7-1.7C314,186.4,312.4,186.4,310.8,186.4z"/>
<path class="st123" d="M326.6,143.1c0,0,0,0.1,0,0.1c1.1-0.1,2.2-0.1,3.2-0.1C328.8,143.1,327.7,143.1,326.6,143.1z"/>
<path class="st124" d="M78,123l1,1L78,123z"/>
<path class="st125" d="M186.3,123.7c-0.1,0.1-0.1,1.1,0.3,0.7C186.7,124.3,186.8,123.2,186.3,123.7z"/>
<path class="st126" d="M61,124v6C62,127.7,62,126.3,61,124z"/>
<path class="st127" d="M100,124l1,1L100,124z"/>
<path class="st128" d="M121,124v3C121.7,125.4,121.7,125.6,121,124z"/>
<path class="st129" d="M158,124v3C158.7,125.4,158.7,125.6,158,124z"/>
<path class="st130" d="M206.3,124.7c-0.1,0.1-0.1,1.1,0.3,0.7C206.7,125.3,206.8,124.2,206.3,124.7z"/>
<path class="st131" d="M207.3,124.7c-0.1,0.1-0.1,1.1,0.3,0.7C207.7,125.3,207.8,124.2,207.3,124.7z"/>
<path class="st132" d="M79,125l1,1L79,125z"/>
<path class="st133" d="M140.3,126.7c-0.1,0.1-0.1,1.1,0.3,0.7C140.7,127.3,140.8,126.2,140.3,126.7z"/>
<path class="st134" d="M185.3,126.7c-0.1,0.1-0.1,1.1,0.3,0.7C185.7,127.3,185.8,126.2,185.3,126.7z"/>
<path class="st135" d="M206,126l1,1L206,126z"/>
<path class="st136" d="M62,127c0.9,8.6,7.2,15.8,11.5,23c2.5,4.1,4,7.8,8.5,10C76,148.9,69.2,137.4,62,127z"/>
<path class="st137" d="M80,127l1,1L80,127z"/>
<path class="st138" d="M101,127l1,1L101,127z"/>
<path class="st139" d="M122,127v3C122.7,128.4,122.7,128.6,122,127z"/>
<path class="st140" d="M158.3,127.7c-0.1,0.1-0.1,1.1,0.3,0.7C158.7,128.3,158.8,127.2,158.3,127.7z"/>
<path class="st141" d="M80,128l1,4C81.4,130.1,81.1,129.6,80,128z"/>
<path class="st142" d="M155,131c1.5-1.1,1.9-1.5,3-3C155.9,128.9,155.9,128.9,155,131z"/>
<path class="st143" d="M184.3,128.7c-0.1,0.1-0.1,1.1,0.3,0.7C184.7,129.3,184.8,128.2,184.3,128.7z"/>
<path class="st144" d="M185,128l-1,4C185.3,130.3,185.6,130,185,128z"/>
<path class="st145" d="M203,128v5c1.3-1.8,1.6-2.9,2-5H203z"/>
<path class="st146" d="M205,128l1,1L205,128z"/>
<path class="st147" d="M81,129l1,1L81,129z"/>
<path class="st148" d="M102,129l1,1L102,129z"/>
<path class="st149" d="M103,129c0.4,2.6,1,4.6,2,7c0.7-2.4,0.3-4.5,0-7H103z"/>
<path class="st150" d="M141,129l1,1L141,129z"/>
<path class="st151" d="M157,129l1,1L157,129z"/>
<path class="st152" d="M102.3,130.7c-0.1,0.1-0.1,1.1,0.3,0.7C102.7,131.3,102.8,130.2,102.3,130.7z"/>
<path class="st153" d="M142,130l1,1L142,130z"/>
<path class="st154" d="M156,130l1,1L156,130z"/>
<path class="st155" d="M62,131l1,1L62,131z"/>
<path class="st156" d="M82,131l1,1L82,131z"/>
<path class="st157" d="M123,131v3C123.7,132.4,123.7,132.6,123,131z"/>
<path class="st158" d="M143,131l1,1L143,131z"/>
<path class="st159" d="M150,132c2,0.8,2.8,0.6,5,0C153.2,131.5,151.9,131.7,150,132z"/>
<path class="st160" d="M155,131l1,1L155,131z"/>
<path class="st161" d="M183,131l1,1L183,131z"/>
<path class="st162" d="M204.3,131.7c-0.1,0.1-0.1,1.1,0.3,0.7C204.7,132.3,204.8,131.2,204.3,131.7z"/>
<path class="st163" d="M82,132v3C82.7,133.4,82.7,133.6,82,132z"/>
<path class="st164" d="M103,132l1,1L103,132z"/>
<path class="st165" d="M144,132l1,1L144,132z"/>
<path class="st166" d="M145,132l1,1L145,132z"/>
<path class="st167" d="M183.3,132.7c-0.1,0.1-0.1,1.1,0.3,0.7C183.7,133.3,183.8,132.2,183.3,132.7z"/>
<path class="st168" d="M63,133l1,1L63,133z"/>
<path class="st86" d="M124,133c-0.1,2.7-0.5,5.3-1,8C125,138.4,125.3,136.1,124,133z"/>
<path class="st169" d="M146.7,133.3c-0.4,0.4,0.6,0.4,0.7,0.3C147.8,133.2,146.7,133.3,146.7,133.3z"/>
<path class="st170" d="M148,133c1.2,0.7,1.5,0.7,3,1C149.8,133.3,149.5,133.3,148,133z"/>
<path class="st171" d="M151.7,133.3c-0.4,0.4,0.6,0.4,0.7,0.3C152.8,133.2,151.7,133.3,151.7,133.3z"/>
<path class="st172" d="M203.3,133.7c-0.1,0.1-0.1,1.1,0.3,0.7C203.7,134.3,203.8,133.2,203.3,133.7z"/>
<path class="st173" d="M83,134l1,1L83,134z"/>
<path class="st174" d="M182.3,134.7c-0.1,0.1-0.1,1.1,0.3,0.7C182.7,135.3,182.8,134.2,182.3,134.7z"/>
<path class="st175" d="M201,134v3c1-1.1,1.3-1.6,2-3H201z"/>
<path class="st176" d="M64,135l1,1L64,135z"/>
<path class="st177" d="M104,135l1,1L104,135z"/>
<path class="st178" d="M202,135l1,1L202,135z"/>
<path class="st179" d="M65,136l1,1L65,136z"/>
<path class="st180" d="M84,136l1,1L84,136z"/>
<path class="st181" d="M105.3,136.7c-0.1,0.1-0.1,1.1,0.3,0.7C105.7,137.3,105.8,136.2,105.3,136.7z"/>
<path class="st182" d="M182,136v8C183.2,141.2,183.2,138.8,182,136z"/>
<path class="st183" d="M84.3,137.7c-0.1,0.1-0.1,1.1,0.3,0.7C84.7,138.3,84.8,137.2,84.3,137.7z"/>
<path class="st184" d="M181,137v5C181.8,140,181.8,139,181,137z"/>
<path class="st185" d="M200,137c-1,2.4-1.7,4.4-2,7C199.8,141.7,200.8,139.9,200,137z"/>
<path class="st186" d="M201,137l1,1L201,137z"/>
<path class="st187" d="M66,138l1,1L66,138z"/>
<path class="st188" d="M85,138l1,1L85,138z"/>
<path class="st189" d="M105,138l1,1L105,138z"/>
<path class="st190" d="M106,138c0.5,1.9,1.1,3.3,2,5C108.4,140.6,107.7,139.8,106,138z"/>
<path class="st191" d="M85.3,139.7c-0.1,0.1-0.1,1.1,0.3,0.7C85.7,140.3,85.8,139.2,85.3,139.7z"/>
<path class="st192" d="M67,140l1,1L67,140z"/>
<path class="st193" d="M86,140l1,1L86,140z"/>
<path class="st194" d="M106,140l1,1L106,140z"/>
<path class="st195" d="M200,140l1,1L200,140z"/>
<path class="st196" d="M86.3,141.7c-0.1,0.1-0.1,1.1,0.3,0.7C86.7,142.3,86.8,141.2,86.3,141.7z"/>
<path class="st197" d="M122,141l1,1L122,141z"/>
<path class="st198" d="M68,142l1,1L68,142z"/>
<path class="st199" d="M87,142l1,1L87,142z"/>
<path class="st200" d="M88.3,142.7c-0.1,0.1-0.1,1.1,0.3,0.7C88.7,143.3,88.8,142.2,88.3,142.7z"/>
<path class="st201" d="M107,142l1,1L107,142z"/>
<path class="st202" d="M121,142l1,1L121,142z"/>
<path class="st203" d="M181,142v3C181.7,143.4,181.7,143.6,181,142z"/>
<path class="st204" d="M199,142l1,1L199,142z"/>
<path class="st205" d="M69,143l1,1L69,143z"/>
<path class="st206" d="M108,143l1,1L108,143z"/>
<path class="st207" d="M111,144c3.1,1.3,5.8,0.9,9,0C117.1,143.1,114.1,143.9,111,144z"/>
<path class="st208" d="M120,143l1,1L120,143z"/>
<path class="st209" d="M88,144l1,1L88,144z"/>
<path class="st210" d="M110,144l1,1L110,144z"/>
<path class="st211" d="M119,144l1,1L119,144z"/>
<path class="st212" d="M148,144l1,1L148,144z"/>
<path class="st213" d="M149,144c1.5,0.7,2.3,0.8,4,1C151.5,144.3,150.7,144.2,149,144z"/>
<path class="st214" d="M153,144l1,1L153,144z"/>
<path class="st215" d="M182,144l1,1L182,144z"/>
<path class="st216" d="M198,144l1,1L198,144z"/>
<path class="st217" d="M70,145l1,1L70,145z"/>
<path class="st218" d="M88.3,145.7c-0.1,0.1-0.1,1.1,0.3,0.7C88.7,146.3,88.8,145.2,88.3,145.7z"/>
<path class="st219" d="M112,145c1.8,0.8,3,0.9,5,1C115.2,145.2,114,145.1,112,145z"/>
<path class="st220" d="M145,145l1,1L145,145z"/>
<path class="st221" d="M143,146c3,1.1,5.8,0,9,0.2c4,0.2,8,1.5,12,1.8C157.8,144.3,149.9,144.7,143,146z"/>
<path class="st222" d="M156,145l1,1L156,145z"/>
<path class="st223" d="M183.7,145.3c-0.4,0.4,0.6,0.4,0.7,0.3C184.8,145.2,183.7,145.3,183.7,145.3z"/>
<path class="st224" d="M197,145l1,1L197,145z"/>
<path class="st225" d="M71,146l1,1L71,146z"/>
<path class="st226" d="M89,146l1,1L89,146z"/>
<path class="st227" d="M141,146l1,1L141,146z"/>
<path class="st228" d="M142,146l1,1L142,146z"/>
<path class="st43" d="M123,155l1,3c-2.9,1.2-4.4,2.3-6,5c3.4,1,6.4,2.5,10,3c-2.9,2.1-5.8,3.5-7,7c6.4-2.3,12.4-0.8,19-2
	c-1.1,2.1-1.7,3.7-2,6c1.9,0,3.2,0.3,5,1l-1-4c2.9-1.1,4.9-1.6,8-1c-3.4-4.9-12.6-4.4-18-4c1.1-3.4,2.5-4.3,6-5c-1-2.5-1.5-3.1-4-4
	c1.2-2.4,1.5-3.4,1-6c9.9,2.3,19.2,2.7,29,4c-0.8-1.6-1.9-2.6-3-4h8c-5.6,7.5-13.6,6-22,6v2c4.4,0,8.7,0.9,13,1
	c2.1,0.1,4.4-1.2,6.4-0.5c3.6,1.2,7.4,6.7,6.9,10.4c-0.2,2.1-1.5,4.1-2.4,6c-2.1-6.8-2.7-11.7-11-12c2.1,5.9,6.9,10.2,6.9,17
	c0,6.2-5,12.2-6.9,18c2.2-0.7,3.7-1.1,6-1c-1.3,2.4-1.8,4.3-2,7l7-3v3h3c0-3.9,0.3-6.1,3-9c0.7,3,1,5.9,1,9h2v-16h2v8h2v-5
	c1,1.5,1,1.2,1,3c2.6-3.8,2-8.5,2-13c-1,2.3-1,4.5-1,7h-2c0.3-4.2,1.5-8.8,1.4-13c-0.1-3-1.2-5.9-1.4-9c1.8,3.2,3.2,6.4,4,10
	c1.2-2.9,0.9-5.9,1.5-9c1-4.9,2.4-9,2.5-14c-13.5-2.8-27.1-10.9-41-10.9C142,146.1,130.9,150.9,123,155z"/>
<path class="st229" d="M161,146l1,1L161,146z"/>
<path class="st230" d="M184,146l1,1L184,146z"/>
<path class="st231" d="M185.7,146.3c-0.4,0.4,0.6,0.4,0.7,0.3C186.8,146.2,185.7,146.3,185.7,146.3z"/>
<path class="st232" d="M194.7,146.3c-0.4,0.4,0.6,0.4,0.7,0.3C195.8,146.2,194.7,146.3,194.7,146.3z"/>
<path class="st233" d="M196,146l1,1L196,146z"/>
<path class="st234" d="M90,147l1,1L90,147z"/>
<path class="st235" d="M138,147l1,1L138,147z"/>
<path class="st236" d="M139,147l1,1L139,147z"/>
<path class="st237" d="M138,148c1.9,0.6,2.9,0.4,5,0C141.1,147.4,140.1,147.6,138,148z"/>
<path class="st238" d="M164,147l1,1L164,147z"/>
<path class="st239" d="M186,147l1,1L186,147z"/>
<path class="st240" d="M187,147c2.3,1,4.5,1,7,1C191.7,147,189.5,147,187,147z"/>
<path class="st241" d="M194,147l1,1L194,147z"/>
<path class="st242" d="M72,148l1,1L72,148z"/>
<path class="st243" d="M90,148l1,1L90,148z"/>
<path class="st244" d="M136.7,148.3c-0.4,0.4,0.6,0.4,0.7,0.3C137.8,148.2,136.7,148.3,136.7,148.3z"/>
<path class="st245" d="M164,148c6.8,5.1,19.6,8,28,9v6c0.9-2.2,1.5-5-0.6-6.9c-2.1-1.9-5.8-2.3-8.4-3.1
	C176.8,151.1,170.5,148.6,164,148z"/>
<path class="st246" d="M168,148l1,1L168,148z"/>
<path class="st247" d="M188,148c1.8,0.8,3,0.9,5,1C191.2,148.2,190,148.1,188,148z"/>
<path class="st248" d="M73,149l1,1L73,149z"/>
<path class="st249" d="M133,149l1,1L133,149z"/>
<path class="st250" d="M134,149c1.5,0.7,2.3,0.8,4,1C136.5,149.3,135.7,149.2,134,149z"/>
<path class="st251" d="M171,149l1,1L171,149z"/>
<path class="st252" d="M73,150l1,1L73,150z"/>
<path class="st253" d="M91,150l1,1L91,150z"/>
<path class="st254" d="M130,150l1,1L130,150z"/>
<path class="st255" d="M131,150l1,1L131,150z"/>
<path class="st256" d="M132.7,150.3c-0.4,0.4,0.6,0.4,0.7,0.3C133.8,150.2,132.7,150.3,132.7,150.3z"/>
<path class="st257" d="M174,150l1,1L174,150z"/>
<path class="st258" d="M175.7,150.3c-0.4,0.4,0.6,0.4,0.7,0.3C176.8,150.2,175.7,150.3,175.7,150.3z"/>
<path class="st259" d="M74,151l1,1L74,151z"/>
<path class="st260" d="M91,151v6C92,154.7,92,153.3,91,151z"/>
<path class="st261" d="M92.3,151.7c-0.1,0.1-0.1,1.1,0.3,0.7C92.7,152.3,92.8,151.2,92.3,151.7z"/>
<path class="st262" d="M128.7,151.3c-0.4,0.4,0.6,0.4,0.7,0.3C129.8,151.2,128.7,151.3,128.7,151.3z"/>
<path class="st263" d="M178,151l1,1L178,151z"/>
<path class="st264" d="M125,152l1,1L125,152z"/>
<path class="st265" d="M124,153c1.8,0.6,2.1,0.5,4,0C126.3,152.6,125.8,152.7,124,153z"/>
<path class="st266" d="M181,152l1,1L181,152z"/>
<path class="st267" d="M75,153l1,1L75,153z"/>
<path class="st268" d="M92.3,153.7c-0.1,0.1-0.1,1.1,0.3,0.7C92.7,154.3,92.8,153.2,92.3,153.7z"/>
<path class="st269" d="M122,153l1,1L122,153z"/>
<path class="st270" d="M123,153l1,1L123,153z"/>
<path class="st271" d="M184,153l1,1L184,153z"/>
<path class="st272" d="M119,154l1,1L119,154z"/>
<path class="st273" d="M120.7,154.3c-0.4,0.4,0.6,0.4,0.7,0.3C121.8,154.2,120.7,154.3,120.7,154.3z"/>
<path class="st274" d="M122.7,154.3c-0.4,0.4,0.6,0.4,0.7,0.3C123.8,154.2,122.7,154.3,122.7,154.3z"/>
<path class="st9" d="M135,154c0.1,2.3-0.3,3.8-1,6c2.1,1.2,2.8,1.9,4,4c-3.7,0.4-5.3,1.2-6,5c7.1-0.2,12.5,2.1,19.3,3.3
	c4.6,0.8,8.6-1.1,11.6,3.8c3.8,6.2,0.6,12.4,0.1,18.9c7.3-10.6,2.1-18.2-3-28c7.1,0.5,9.8,5.3,10,12c5.2-4.9,4.5-13.8-3-16.6
	c-2.2-0.8-4.3,0.3-6.5,0.4c-4.4,0.1-9-0.8-13.4-0.8v-2c7.8,0,18,2.2,22-6h-8c0.8,1.6,1.9,2.6,3,4C154.6,155.9,144.7,155.4,135,154z"
	/>
<path class="st275" d="M188.7,154.3c-0.4,0.4,0.6,0.4,0.7,0.3C189.8,154.2,188.7,154.3,188.7,154.3z"/>
<path class="st276" d="M76,155l1,1L76,155z"/>
<path class="st277" d="M92.3,155.7c-0.1,0.1-0.1,1.1,0.3,0.7C92.7,156.3,92.8,155.2,92.3,155.7z"/>
<path class="st278" d="M117,155l1,1L117,155z"/>
<path class="st279" d="M118,155c1.2,0.7,1.5,0.7,3,1C119.8,155.3,119.5,155.3,118,155z"/>
<path class="st9" d="M90,166v3h-4c0.1,6.3,2.6,12,4.3,18c2.9,10.6,5.9,21.2,10,31.3c1.4,3.5,0.5,10.2,3.5,12.7c1.6,1.3,4.3,1,6.3,1
	l15,0c19,0,38,1,57,1c0.6-14.9,3.9-30.4,6.3-45c1.1-6.9,3-14,2.7-21c-2.4,4-2,8.5-2,13l-4-10c-1.3,3.2-0.1,5.7,0,9
	c0.1,4.3-0.9,8.7-1,13h2v-7c1.3,4.5,0.8,8.5,0,13c-1-1.5-1-1.2-1-3c-0.8,1.8-0.9,3-1,5h-2v-8h-2v16h-2c0-3.2-0.1-6-1-9
	c-3.3,2.4-3,5.2-3,9c-2.1-0.9-2.1-0.9-3-3c-2.5,0.7-4.6,1.9-7,3c0.3-2.5,1.1-4.6,2-7c-2.6-0.5-3.6-0.2-6,1l2-5
	c-5.6,4.6-10.4,13.4-18,14.9c-3.5,0.7-7-1.2-10-2.8c-8.7-4.5-16.5-15.1-16.7-25.2c-0.1-5.1,3-9.1,3.7-14c2.6-0.6,4.7-1.7,7-3
	c-3.1-1.9-6.4-3.3-10-4c1.9-2.1,3.6-3.5,6-5v-2l-1-1C111.7,157.7,101.4,163.7,90,166z"/>
<path class="st280" d="M191,155l1,1L191,155z"/>
<path class="st281" d="M114,156l1,1L114,156z"/>
<path class="st282" d="M103,161c4.9,1,10.4-2.3,15-4C113.2,155.6,107.4,159,103,161z"/>
<path class="st283" d="M193,156v4C193.7,158.2,193.7,157.8,193,156z"/>
<path class="st284" d="M91,157l1,1L91,157z"/>
<path class="st285" d="M111,157l1,1L111,157z"/>
<path class="st286" d="M78,158l1,1L78,158z"/>
<path class="st287" d="M90,158l1,1L90,158z"/>
<path class="st288" d="M108,158l1,1L108,158z"/>
<path class="st289" d="M79,159l1,1L79,159z"/>
<path class="st290" d="M89,159l1,1L89,159z"/>
<path class="st291" d="M106,159l1,1L106,159z"/>
<path class="st292" d="M81,160l1,1L81,160z"/>
<path class="st293" d="M82,160c2.1,0.9,3.7,1,6,1C85.9,160.1,84.3,160,82,160z"/>
<path class="st294" d="M103,160l1,1L103,160z"/>
<path class="st295" d="M193,160v6C194,163.7,194,162.3,193,160z"/>
<path class="st0" d="M259.3,184.7c0.7,1.1,1.8,1.9,3.1,2.5c-0.4-3-0.2-6.2,0.8-9.5c0.3-1,0.8-1.7,1.4-2.3c-0.2-3.1-0.3-6.2-0.4-9.3
	c0,0-0.1-0.1-0.1-0.1c0-0.1,0.1-0.2,0.1-0.3c0-1.8-0.1-3.6-0.1-5.3c-3.3,1.1-5.4,3.3-8,5.7v2c2,1.6,3.4,3.6,0,4
	c1.1,1.8,2.5,3.6,2.7,5.7C258.9,180.2,257.8,182.3,259.3,184.7z"/>
<path class="st0" d="M261.1,219c-1.1-1.3-1.5-3.2-0.6-5.2c-2.3-0.2-4.1,0.2-6.5,1.2c1.5-1.6,2.1-2.1,4-3c-0.6-6.9-3.5-16.4-11-18
	l1,2c-4.6-2.1-7.8-3.8-13-3c3.7,1.7,7.7,2.2,10.7,5.3c9.9,10.3-1.9,18.3-11.7,20.7c4,2.2,7.7-0.4,12-0.4c4.1-0.1,8.1,1.5,12,2.4
	C258,218.7,259.2,218.9,261.1,219z"/>
<path class="st0" d="M267.6,229.5c-0.4,0.3-0.7,0.5-1.1,0.8c-0.4,0.3-0.8,0.5-1.2,0.6c1.2,0,2.4,0,3.6,0.1
	C268.5,230.5,268,230,267.6,229.5z"/>
<path class="st0" d="M265.7,205.8c-0.4-1.1-0.6-2.3-0.6-3.5c0,0.2-0.1,0.5-0.1,0.7c-1.5-1-1.2-1-3-1v9.2
	C263.1,209.3,264.4,207.5,265.7,205.8z"/>
<path class="st0" d="M260.6,229.5c-0.7,0.8-1,1.3-1.6,2.5c1.5-0.5,2.9-0.8,4.2-0.9C262.2,230.9,261.3,230.3,260.6,229.5z"/>
<path class="st0" d="M260.5,222.5c0.8-0.7,1.6-1.4,2.4-2.1c-0.5-0.2-0.9-0.5-1.3-0.9c-3,3.1-3.4,6.4-4.6,10.6l3.3-0.8
	C258.8,227.3,258.4,224.4,260.5,222.5z"/>
<path class="st296" d="M82,161c1.5,0.7,2.3,0.8,4,1C84.5,161.3,83.7,161.2,82,161z"/>
<path class="st297" d="M86.7,161.3c-0.4,0.4,0.6,0.4,0.7,0.3C87.8,161.2,86.7,161.3,86.7,161.3z"/>
<path class="st298" d="M102,161l1,1L102,161z"/>
<path class="st299" d="M276.8,175.5c-0.5-3-1-6-1.4-9.1c-0.7-0.7-1.2-1.6-1.4-2.6c0.1,3.8,0.2,7.5,0.5,11.3
	C275.3,175.1,276.1,175.2,276.8,175.5z"/>
<path class="st300" d="M99,162l1,1L99,162z"/>
<path class="st301" d="M98,163c1.8,0.6,2.1,0.5,4,0C100.3,162.6,99.8,162.7,98,163z"/>
<path class="st302" d="M96.7,163.3c-0.4,0.4,0.6,0.4,0.7,0.3C97.8,163.2,96.7,163.3,96.7,163.3z"/>
<path class="st303" d="M192,163v3C192.7,164.4,192.7,164.6,192,163z"/>
<path class="st304" d="M93,164l1,1L93,164z"/>
<path class="st305" d="M94,164l1,1L94,164z"/>
<path class="st306" d="M191,164v5C191.8,167,191.8,166,191,164z"/>
<path class="st307" d="M91,165l1,1L91,165z"/>
<path class="st308" d="M92.7,165.3c-0.4,0.4,0.6,0.4,0.7,0.3C93.8,165.2,92.7,165.3,92.7,165.3z"/>
<path class="st309" d="M88.7,166.3c-0.4,0.4,0.6,0.4,0.7,0.3C89.8,166.2,88.7,166.3,88.7,166.3z"/>
<path class="st310" d="M192,166v6C193,169.7,193,168.3,192,166z"/>
<path class="st311" d="M85,167l1,1L85,167z"/>
<path class="st312" d="M90,191c2.3-6.5-3.6-15.1-4-22h4v-2C78.9,168.3,88.2,184.4,90,191z"/>
<path class="st313" d="M83,168v3C83.7,169.4,83.7,169.6,83,168z"/>
<path class="st314" d="M191.3,170.7c-0.1,0.1-0.1,1.1,0.3,0.7C191.7,171.3,191.8,170.2,191.3,170.7z"/>
<path class="st315" d="M118,179c6-6.2,9.9-6.1,18-4C130.1,169.1,119.9,170.1,118,179z"/>
<path class="st316" d="M133,172c1.6,1.8,2.9,2.9,5,4l2-5L133,172z"/>
<path class="st317" d="M190,171v5C190.8,174,190.8,173,190,171z"/>
<path class="st318" d="M84.3,172.7c-0.1,0.1-0.1,1.1,0.3,0.7C84.7,173.3,84.8,172.2,84.3,172.7z"/>
<path class="st319" d="M142,174l1,4c-1.2-1.2-1.6-1.5-3-2c-0.6,1.8-0.8,3.1-1,5l4,1c1.8-3.5,4.3-6.1,7-9
	C146.7,172.1,145,172.5,142,174z"/>
<path class="st320" d="M153,172c1.2,0.7,1.5,0.7,3,1C154.8,172.3,154.5,172.3,153,172z"/>
<path class="st321" d="M156,172l8,6C162.5,173.8,160.4,172.5,156,172z"/>
<path class="st322" d="M191.3,172.7c-0.1,0.1-0.1,1.1,0.3,0.7C191.7,173.3,191.8,172.2,191.3,172.7z"/>
<path class="st323" d="M123,173l1,1L123,173z"/>
<path class="st0" d="M142,186h-2c-1-3.2-2-7.1-4.4-9.6c-4.3-4.4-13.2-4.7-15.8,1.7c-3.6,8.8,3.3,20.7,9.4,26.7
	c3,2.9,8.3,7.3,12.8,6.7c3.6-0.4,6.9-3.4,9.5-5.7c7-6.4,16.1-18.5,10.3-28.6c-3.2-5.5-11.3-4.6-15.3-0.6
	C144.1,179,143,182.8,142,186z"/>
<path class="st324" d="M131,173l1,1L131,173z"/>
<path class="st325" d="M150.7,173.3c-0.4,0.4,0.6,0.4,0.7,0.3C151.8,173.2,150.7,173.3,150.7,173.3z"/>
<path class="st326" d="M157,173l1,1L157,173z"/>
<path class="st327" d="M158,173l1,1L158,173z"/>
<path class="st328" d="M133,174l1,1L133,174z"/>
<path class="st329" d="M148,174l1,1L148,174z"/>
<path class="st330" d="M191,174v4C191.7,176.2,191.7,175.8,191,174z"/>
<path class="st331" d="M120,175l1,1L120,175z"/>
<path class="st332" d="M135,175l1,1L135,175z"/>
<path class="st333" d="M147,175l1,1L147,175z"/>
<path class="st0" d="M302.1,193.3c2.6-0.4,5.3-0.1,8.2,0.8c1,0.3,1.7,0.9,2.3,1.5c0.1-0.1,0.3-0.2,0.4-0.3c0.3-0.5,0.6-1,0.9-1.4
	v0.7c3.5-2.5,7.2-4.8,11.1-6.5c-0.3-0.4-0.6-0.7-1.1-1.3c0.1-0.2,0.2-0.4,0.3-0.6c-1.2-0.1-2.4-0.3-3.6-0.6c0,0,0,0-0.1,0
	c-0.2,0-0.4,0-0.6,0.1c0,0,0,0.1-0.1,0.1c-0.2,0-0.3,0-0.5-0.1c-1.9,0.2-3.8,0.4-5.7,0.4c-1.2,0.4-2.4,1-3.8,1.6
	c0.5-0.6,0.9-1.1,1.3-1.6c-2.2,0-4.5-0.2-6.7-0.6c-0.1,0-0.2,0-0.3-0.1C305.1,188.6,304,191.2,302.1,193.3z"/>
<path class="st0" d="M292.2,188.3c-0.4-0.1-0.7-0.2-1.1-0.3c-0.8-0.1-1.5-0.2-2.2-0.2c0,0.3,0.1,0.5,0.1,0.8c0,0,0,0,0,0
	C290.1,188.7,291.2,188.7,292.2,188.3z"/>
<path class="st334" d="M85,176l1,1L85,176z"/>
<path class="st335" d="M136,176c1.1,1.5,1.5,1.9,3,3C138.1,176.9,138.1,176.9,136,176z"/>
<path class="st336" d="M190,176v3C190.7,177.4,190.7,177.6,190,176z"/>
<path class="st337" d="M119,177l1,1L119,177z"/>
<path class="st338" d="M145,177l1,1L145,177z"/>
<path class="st339" d="M162,177l1,1L162,177z"/>
<path class="st340" d="M137,178l1,1L137,178z"/>
<path class="st341" d="M144,178l1,1L144,178z"/>
<path class="st342" d="M163.3,178.7c-0.1,0.1-0.1,1.1,0.3,0.7C163.7,179.3,163.8,178.2,163.3,178.7z"/>
<path class="st343" d="M118.3,179.7c-0.1,0.1-0.1,1.1,0.3,0.7C118.7,180.3,118.8,179.2,118.3,179.7z"/>
<path class="st344" d="M138,179l1,1L138,179z"/>
<path class="st345" d="M190.3,179.7c-0.1,0.1-0.1,1.1,0.3,0.7C190.7,180.3,190.8,179.2,190.3,179.7z"/>
<path class="st346" d="M117,180v3C117.7,181.4,117.7,181.6,117,180z"/>
<path class="st347" d="M138,180l1,4C139.4,182.1,139.1,181.6,138,180z"/>
<path class="st348" d="M143,180l-1,4C143.3,182.3,143.6,182,143,180z"/>
<path class="st349" d="M163,180v8C164.2,185.2,164.2,182.8,163,180z"/>
<path class="st350" d="M164,180v9C165.3,186,165.3,183,164,180z"/>
<path class="st351" d="M118,181v6C119,184.7,119,183.3,118,181z"/>
<path class="st352" d="M139,181l1,1L139,181z"/>
<path class="st353" d="M140,181c0.7,1.6,0.8,1.8,2,3v-3H140z"/>
<path class="st354" d="M190,181v3C190.7,182.4,190.7,182.6,190,181z"/>
<path class="st355" d="M87.3,183.7c-0.1,0.1-0.1,1.1,0.3,0.7C87.7,184.3,87.8,183.2,87.3,183.7z"/>
<path class="st356" d="M117,183v4C117.7,185.2,117.7,184.8,117,183z"/>
<path class="st357" d="M140,183v2h2C141.5,183.4,141.6,183.5,140,183z"/>
<path class="st358" d="M189,184v3C189.7,185.4,189.7,185.6,189,184z"/>
<path class="st359" d="M140.7,185.3c-0.4,0.4,0.6,0.4,0.7,0.3C141.8,185.2,140.7,185.3,140.7,185.3z"/>
<path class="st360" d="M188,185v5C188.8,188,188.8,187,188,185z"/>
<path class="st361" d="M88.3,186.7c-0.1,0.1-0.1,1.1,0.3,0.7C88.7,187.3,88.8,186.2,88.3,186.7z"/>
<path class="st362" d="M118,187v3C118.7,188.4,118.7,188.6,118,187z"/>
<path class="st363" d="M189.3,187.7c-0.1,0.1-0.1,1.1,0.3,0.7C189.7,188.3,189.8,187.2,189.3,187.7z"/>
<path class="st364" d="M89.3,188.7c-0.1,0.1-0.1,1.1,0.3,0.7C89.7,189.3,89.8,188.2,89.3,188.7z"/>
<path class="st365" d="M163.3,188.7c-0.1,0.1-0.1,1.1,0.3,0.7C163.7,189.3,163.8,188.2,163.3,188.7z"/>
<path class="st366" d="M89.3,190.7c-0.1,0.1-0.1,1.1,0.3,0.7C89.7,191.3,89.8,190.2,89.3,190.7z"/>
<path class="st367" d="M118.3,190.7c-0.1,0.1-0.1,1.1,0.3,0.7C118.7,191.3,118.8,190.2,118.3,190.7z"/>
<path class="st368" d="M119.3,190.7c-0.1,0.1-0.1,1.1,0.3,0.7C119.7,191.3,119.8,190.2,119.3,190.7z"/>
<path class="st369" d="M188.3,190.7c-0.1,0.1-0.1,1.1,0.3,0.7C188.7,191.3,188.8,190.2,188.3,190.7z"/>
<path class="st370" d="M90.3,191.7c-0.1,0.1-0.1,1.1,0.3,0.7C90.7,192.3,90.8,191.2,90.3,191.7z"/>
<path class="st371" d="M162,191l1,1L162,191z"/>
<path class="st372" d="M91,192v4C91.7,194.2,91.7,193.8,91,192z"/>
<path class="st373" d="M162,192l-3,7C161.4,196.9,162.9,195.2,162,192z"/>
<path class="st374" d="M188.3,192.7c-0.1,0.1-0.1,1.1,0.3,0.7C188.7,193.3,188.8,192.2,188.3,192.7z"/>
<path class="st375" d="M120,193l1,1L120,193z"/>
<path class="st376" d="M121,193l2,5C123.9,195.4,123.3,194.5,121,193z"/>
<path class="st377" d="M161,193l1,1L161,193z"/>
<path class="st378" d="M188,194v7C189.1,198.5,189.1,196.5,188,194z"/>
<path class="st379" d="M235,194c1.8,0.8,3,0.9,5,1C238.2,194.2,237,194.1,235,194z"/>
<path class="st380" d="M240,194l1,1L240,194z"/>
<path class="st381" d="M346.5,227.1c-1.1,0-2.2,0-3.3,0c-0.1,1.7-0.2,3.3-0.2,4.9l4-1C346.5,229.3,346.1,228.4,346.5,227.1z"/>
<path class="st382" d="M121,195l1,1L121,195z"/>
<path class="st383" d="M160,195l1,1L160,195z"/>
<path class="st384" d="M232,195l1,1L232,195z"/>
<path class="st385" d="M233,195l1,1L233,195z"/>
<path class="st386" d="M234,195c2.6,1.1,5.2,1,8,1C239.4,194.9,236.8,195,234,195z"/>
<path class="st387" d="M242,195l1,1L242,195z"/>
<path class="st388" d="M91.3,196.7c-0.1,0.1-0.1,1.1,0.3,0.7C91.7,197.3,91.8,196.2,91.3,196.7z"/>
<path class="st389" d="M121,196c0.7,1.6,0.8,1.8,2,3C122.3,197.4,122.2,197.2,121,196z"/>
<path class="st390" d="M122,196l1,1L122,196z"/>
<path class="st391" d="M159,196l1,1L159,196z"/>
<path class="st392" d="M230,196l1,1L230,196z"/>
<path class="st393" d="M217,203c5.5,1.5,11-3.4,16-5.1c4-1.4,7.2-0.3,11,1.1C237.9,190.5,223.9,200.1,217,203z"/>
<path class="st394" d="M243,196c0.9,1.9,1.4,2.6,3,4C245.1,198.1,244.6,197.4,243,196z"/>
<path class="st0" d="M365,226.1c-0.2-0.2-0.5-0.4-0.7-0.6c-6,0.8-12.1,1.4-18.2,1.5c-0.1,1.1,0.1,2.4,0.8,3.9
	c7.4,0.3,10.8,13.4,19,8c-2.1-0.6-3.8-0.9-6-1c2-3.4,4.2-3.5,8-3c1.4-2,3.6-2.1,5.3-2.8C370.2,230.7,367.3,228.7,365,226.1z"/>
<path class="st395" d="M92,197v3C92.7,198.4,92.7,198.6,92,197z"/>
<path class="st396" d="M228,197l1,1L228,197z"/>
<path class="st9" d="M236,219c2.9-2.8,7.6-3.4,10.1-6.5c5.4-6.8-1.6-15.5-9.1-15.4c-4.3,0.1-7.2,2.3-11.1,3.9
	c-7.9,3.1-19.8,6.1-26.2,11.7c-4.2,3.7-5.1,13.2,1.5,15.1C213.1,231.1,224.1,218.7,236,219z"/>
<path class="st397" d="M245,197l1,1L245,197z"/>
<path class="st398" d="M123,198l1,1L123,198z"/>
<path class="st399" d="M158,198l1,1L158,198z"/>
<path class="st400" d="M187.3,198.7c-0.1,0.1-0.1,1.1,0.3,0.7C187.7,199.3,187.8,198.2,187.3,198.7z"/>
<path class="st401" d="M226,198l1,1L226,198z"/>
<path class="st402" d="M246,198l1,1L246,198z"/>
<path class="st403" d="M93,199v3C93.7,200.4,93.7,200.6,93,199z"/>
<path class="st404" d="M123,199c1.5,4.7,5.6,8,10,10C130.2,205,127,201.8,123,199z"/>
<path class="st405" d="M124,199l1,1L124,199z"/>
<path class="st406" d="M157,199l1,1L157,199z"/>
<path class="st407" d="M158,199c-4.8,4.8-9.4,9.2-15,13C148.5,212.8,158.1,204.5,158,199z"/>
<path class="st408" d="M186,199v6C187,202.7,187,201.3,186,199z"/>
<path class="st409" d="M224,199l1,1L224,199z"/>
<path class="st410" d="M246,199l1,1L246,199z"/>
<path class="st411" d="M247.3,199.7c-0.1,0.1-0.1,1.1,0.3,0.7C247.7,200.3,247.8,199.2,247.3,199.7z"/>
<path class="st412" d="M94,200c0.2,4.1,1.4,7.9,2,12C97.8,207.8,96.6,203.6,94,200z"/>
<path class="st128" d="M125,200l1,1L125,200z"/>
<path class="st413" d="M156,200l1,1L156,200z"/>
<path class="st414" d="M187.3,200.7c-0.1,0.1-0.1,1.1,0.3,0.7C187.7,201.3,187.8,200.2,187.3,200.7z"/>
<path class="st415" d="M222,200l1,1L222,200z"/>
<path class="st416" d="M246,200l1,4C247.4,202.1,247.1,201.6,246,200z"/>
<path class="st417" d="M126,201l1,1L126,201z"/>
<path class="st418" d="M155,201l1,1L155,201z"/>
<path class="st419" d="M220,201l1,1L220,201z"/>
<path class="st420" d="M247,201l1,1L247,201z"/>
<path class="st421" d="M93.3,202.7c-0.1,0.1-0.1,1.1,0.3,0.7C93.7,203.3,93.8,202.2,93.3,202.7z"/>
<path class="st422" d="M154,202l1,1L154,202z"/>
<path class="st275" d="M187,202v5C187.8,205,187.8,204,187,202z"/>
<path class="st423" d="M218,202l1,1L218,202z"/>
<path class="st424" d="M216,203l1,1L216,203z"/>
<path class="st425" d="M248,203l1,1L248,203z"/>
<path class="st426" d="M152,204l1,1L152,204z"/>
<path class="st427" d="M213,204l1,1L213,204z"/>
<path class="st428" d="M214,204l1,1L214,204z"/>
<path class="st429" d="M213,205c1.8,0.6,2.1,0.5,4,0C215.3,204.6,214.8,204.7,213,205z"/>
<path class="st430" d="M248,204l-1,8C248.8,209.3,249.2,207,248,204z"/>
<path class="st431" d="M249,204v5C249.8,207,249.8,206,249,204z"/>
<path class="st432" d="M94.3,205.7c-0.1,0.1-0.1,1.1,0.3,0.7C94.7,206.3,94.8,205.2,94.3,205.7z"/>
<path class="st433" d="M186,205v3C186.7,206.4,186.7,206.6,186,205z"/>
<path class="st434" d="M212,205l1,1L212,205z"/>
<path class="st435" d="M131,206l1,1L131,206z"/>
<path class="st436" d="M150,206l1,1L150,206z"/>
<path class="st437" d="M209,206l1,1L209,206z"/>
<path class="st438" d="M208,207c1.8,0.6,2.1,0.5,4,0C210.3,206.6,209.8,206.7,208,207z"/>
<path class="st439" d="M132,207l1,1L132,207z"/>
<path class="st440" d="M149,207l1,1L149,207z"/>
<path class="st441" d="M95.3,208.7c-0.1,0.1-0.1,1.1,0.3,0.7C95.7,209.3,95.8,208.2,95.3,208.7z"/>
<path class="st442" d="M133,208l1,1L133,208z"/>
<path class="st443" d="M148,208l1,1L148,208z"/>
<path class="st444" d="M185,208c-0.7,3.7-1,7.2-1,11C185.4,215.7,186.2,211.4,185,208z"/>
<path class="st445" d="M186.3,208.7c-0.1,0.1-0.1,1.1,0.3,0.7C186.7,209.3,186.8,208.2,186.3,208.7z"/>
<path class="st446" d="M205,208l1,1L205,208z"/>
<path class="st447" d="M202,210c2.5,0.7,3.7,0.1,6-1C205.7,208.6,204.2,209.2,202,210z"/>
<path class="st448" d="M135,209l1,1L135,209z"/>
<path class="st449" d="M146,209l1,1L146,209z"/>
<path class="st450" d="M203,209l1,1L203,209z"/>
<path class="st451" d="M249.3,209.7c-0.1,0.1-0.1,1.1,0.3,0.7C249.7,210.3,249.8,209.2,249.3,209.7z"/>
<path class="st452" d="M136,210l1,1L136,210z"/>
<path class="st453" d="M137,210l1,1L137,210z"/>
<path class="st454" d="M145,210l1,1L145,210z"/>
<path class="st295" d="M186,210v6C187,213.7,187,212.3,186,210z"/>
<path class="st455" d="M201,210l1,1L201,210z"/>
<path class="st456" d="M248,210l1,1L248,210z"/>
<path class="st457" d="M138,211l1,1L138,211z"/>
<path class="st458" d="M143,211l1,1L143,211z"/>
<path class="st459" d="M199,211l1,1L199,211z"/>
<path class="st460" d="M248,211l1,1L248,211z"/>
<path class="st461" d="M96.3,212.7c-0.1,0.1-0.1,1.1,0.3,0.7C96.7,213.3,96.8,212.2,96.3,212.7z"/>
<path class="st462" d="M97,212c0.5,5.2,2.4,10.1,4,15C102.9,221.8,100,216.2,97,212z"/>
<path class="st463" d="M140.7,212.3c-0.4,0.4,0.6,0.4,0.7,0.3C141.8,212.2,140.7,212.3,140.7,212.3z"/>
<path class="st464" d="M185.3,212.7c-0.1,0.1-0.1,1.1,0.3,0.7C185.7,213.3,185.8,212.2,185.3,212.7z"/>
<path class="st465" d="M197,212l1,1L197,212z"/>
<path class="st466" d="M195,222l5-10C195.5,214.2,195.1,217.2,195,222z"/>
<path class="st467" d="M247,212l1,1L247,212z"/>
<path class="st468" d="M196,213l1,1L196,213z"/>
<path class="st469" d="M246,213l1,1L246,213z"/>
<path class="st470" d="M185.3,214.7c-0.1,0.1-0.1,1.1,0.3,0.7C185.7,215.3,185.8,214.2,185.3,214.7z"/>
<path class="st471" d="M195,214l1,1L195,214z"/>
<path class="st472" d="M241,215c1.8,0.6,2.1,0.5,4,0C243.3,214.6,242.8,214.7,241,215z"/>
<path class="st473" d="M245,214l1,1L245,214z"/>
<path class="st474" d="M185,216l-1,10C185.9,222.8,186.4,219.5,185,216z"/>
<path class="st475" d="M194,216c0,3.1,0.3,6,1,9C195.9,222,195.3,218.9,194,216z"/>
<path class="st476" d="M238,216c1.2,0.7,1.5,0.7,3,1C239.8,216.3,239.5,216.3,238,216z"/>
<path class="st477" d="M241,216l1,1L241,216z"/>
<path class="st478" d="M193,217v6C194,220.7,194,219.3,193,217z"/>
<path class="st479" d="M236.7,217.3c-0.4,0.4,0.6,0.4,0.7,0.3C237.8,217.2,236.7,217.3,236.7,217.3z"/>
<path class="st480" d="M238,217l1,1L238,217z"/>
<path class="st481" d="M239,217l1,1L239,217z"/>
<path class="st117" d="M98.3,218.7c-0.1,0.1-0.1,1.1,0.3,0.7C98.7,219.3,98.8,218.2,98.3,218.7z"/>
<path class="st482" d="M233.7,218.3c-0.4,0.4,0.6,0.4,0.7,0.3C234.8,218.2,233.7,218.3,233.7,218.3z"/>
<path class="st483" d="M236,218l1,1L236,218z"/>
<path class="st484" d="M184,219v3C184.7,220.4,184.7,220.6,184,219z"/>
<path class="st485" d="M220,223c4.2,1.2,8.8-1.9,13-3C228.8,218.5,223.8,221.1,220,223z"/>
<path class="st486" d="M233,219l1,1L233,219z"/>
<path class="st487" d="M230.7,220.3c-0.4,0.4,0.6,0.4,0.7,0.3C231.8,220.2,230.7,220.3,230.7,220.3z"/>
<path class="st488" d="M183,221v5C183.8,224,183.8,223,183,221z"/>
<path class="st489" d="M228,221l1,1L228,221z"/>
<path class="st490" d="M99.3,222.7c-0.1,0.1-0.1,1.1,0.3,0.7C99.7,223.3,99.8,222.2,99.3,222.7z"/>
<path class="st491" d="M196,222c0.3,2.1,0.4,2.7,2,4C197.4,224.4,196.9,223.4,196,222z"/>
<path class="st492" d="M225,222l1,1L225,222z"/>
<path class="st493" d="M226.7,222.3c-0.4,0.4,0.6,0.4,0.7,0.3C227.8,222.2,226.7,222.3,226.7,222.3z"/>
<path class="st494" d="M194,223l1,1L194,223z"/>
<path class="st495" d="M223,223l1,1L223,223z"/>
<path class="st496" d="M215,225c1.9,0.6,2.9,0.4,5,0C218.1,224.4,217.1,224.6,215,225z"/>
<path class="st497" d="M220,224l1,1L220,224z"/>
<path class="st498" d="M100.3,225.7c-0.1,0.1-0.1,1.1,0.3,0.7C100.7,226.3,100.8,225.2,100.3,225.7z"/>
<path class="st499" d="M195,225l1,1L195,225z"/>
<path class="st500" d="M183.3,226.7c-0.1,0.1-0.1,1.1,0.3,0.7C183.7,227.3,183.8,226.2,183.3,226.7z"/>
<path class="st501" d="M196,226c1.2,1.2,1.4,1.3,3,2C198,226.2,198.1,226.4,196,226z"/>
<path class="st502" d="M212,226c1.2,0.7,1.5,0.7,3,1C213.8,226.3,213.5,226.3,212,226z"/>
<path class="st503" d="M215,226l1,1L215,226z"/>
<path class="st504" d="M101.3,227.7c-0.1,0.1-0.1,1.1,0.3,0.7C101.7,228.3,101.8,227.2,101.3,227.7z"/>
<path class="st218" d="M182,227v5C182.8,230,182.8,229,182,227z"/>
<path class="st505" d="M210.7,227.3c-0.4,0.4,0.6,0.4,0.7,0.3C211.8,227.2,210.7,227.3,210.7,227.3z"/>
<path class="st506" d="M212,227l1,1L212,227z"/>
<path class="st507" d="M183.3,228.7c-0.1,0.1-0.1,1.1,0.3,0.7C183.7,229.3,183.8,228.2,183.3,228.7z"/>
<path class="st508" d="M198,228l1,1L198,228z"/>
<path class="st509" d="M199,228c1.2,1.2,1.4,1.3,3,2C200.8,228.8,200.6,228.7,199,228z"/>
<path class="st510" d="M201,228c3,1.4,5.7,1.3,9,1C207.1,227.8,204.1,228,201,228z"/>
<path class="st511" d="M210,228l1,1L210,228z"/>
<path class="st349" d="M101.3,229.7c-0.1,0.1-0.1,1.1,0.3,0.7C101.7,230.3,101.8,229.2,101.3,229.7z"/>
<path class="st512" d="M202,229c1.5,0.7,2.3,0.8,4,1C204.5,229.3,203.7,229.2,202,229z"/>
<path class="st513" d="M207,229l1,1L207,229z"/>
<path class="st514" d="M102.3,230.7c-0.1,0.1-0.1,1.1,0.3,0.7C102.7,231.3,102.8,230.2,102.3,230.7z"/>
<path class="st515" d="M183,230v4C183.7,232.2,183.7,231.8,183,230z"/>
<path class="st516" d="M202,230c1.5,0.7,2.3,0.8,4,1C204.5,230.3,203.7,230.2,202,230z"/>
<path class="st517" d="M103,232c4.2,1.8,9.5,1,14,1h27c-4.2-1.8-9.5-1-14-1H103z"/>
<path class="st518" d="M182.3,232.7c-0.1,0.1-0.1,1.1,0.3,0.7C182.7,233.3,182.8,232.2,182.3,232.7z"/>
<path class="st519" d="M103,233c1.5,0.7,2.3,0.8,4,1C105.5,233.3,104.7,233.2,103,233z"/>
<path class="st520" d="M107,233c7.9,3.3,20.4,1,29,1C128.1,230.7,115.6,233,107,233z"/>
<path class="st521" d="M136,233c2.6,1.1,5.2,1,8,1C141.4,232.9,138.8,233,136,233z"/>
<path class="st522" d="M144,233c4,1.7,8.7,1,13,1h25c-4-1.7-8.7-1-13-1H144z"/>
<path class="st523" d="M160,234c6.4,2.7,16,1,23,1C176.6,232.3,167,234,160,234z"/>
</svg>
