<?xml version="1.0" encoding="UTF-8"?>
<svg xmlns="http://www.w3.org/2000/svg" xmlns:xlink="http://www.w3.org/1999/xlink" width="792pt" height="612pt" viewBox="0 0 792 612" version="1.1">
<g id="surface1">
<path style=" stroke:none;fill-rule:evenodd;fill:rgb(91.398621%,19.999695%,20.399475%);fill-opacity:1;" d="M 165.628906 351.289063 C 168.046875 340.8125 175.003906 327.695313 188.050781 331.085938 C 195.789063 333.09375 197.789063 341.609375 197.609375 348.722656 C 195.632813 365.710938 183.410156 375.753906 171.886719 386.703125 C 165.03125 390.226563 168.03125 391.273438 160.894531 387.882813 C 107.6875 342.683594 145.367188 305.378906 165.628906 351.289063 Z M 304.199219 362.785156 C 299.761719 362.269531 250.003906 384.933594 243.765625 391.746094 C 238.464844 397.535156 240.460938 401.53125 241.597656 408.21875 C 244.390625 411.515625 247.097656 415.6875 251.949219 416.050781 C 262.488281 415.917969 312.976563 394.871094 316.484375 390.125 C 317.691406 387.65625 318.835938 386.226563 318.851563 382.105469 C 318.867188 377.699219 317.222656 376.761719 317.121094 373.90625 C 313.878906 368.128906 311.632813 363.644531 304.199219 362.785156 Z M 241.6875 222.757813 C 235.496094 235.875 205.519531 302.253906 241.476563 294.058594 C 248.3125 291.558594 263.503906 249.339844 268.164063 238.128906 C 273.425781 225.488281 266.488281 216.820313 254.175781 216.027344 C 248.890625 215.6875 242.949219 218.308594 241.6875 222.757813 Z M 107.398438 210.804688 C 89.859375 218.296875 98.304688 231.570313 103.371094 245.816406 C 106.042969 253.335938 115.632813 298.5625 134.203125 289.117188 C 144.328125 282.21875 141.113281 273.394531 138.304688 263.5625 C 137.476563 260.664063 136.746094 257.792969 135.921875 254.683594 C 134.460938 249.144531 132.15625 242.222656 131.308594 236.714844 C 126.851563 225.878906 125.660156 203.007813 107.398438 210.804688 Z M 83.707031 324.449219 C 84.316406 338.660156 110.5 418.835938 111.925781 420.878906 L 224.105469 421.835938 C 227.632813 403.207031 240.214844 315.328125 239.933594 306.738281 C 224.511719 301.632813 208.503906 296.371094 192.96875 291.695313 C 188.695313 290.410156 186.023438 289.484375 181.929688 288.210938 C 175.710938 286.273438 104.894531 316.089844 83.707031 324.449219 Z M 77.175781 310.339844 C 79.058594 312.585938 82.050781 314.4375 86.132813 314.207031 C 105.144531 313.132813 91.71875 289.644531 87.667969 280.996094 C 84.144531 273.484375 78.324219 255.40625 70.863281 250.859375 C 67.054688 248.3125 60.3125 250.917969 56.425781 253.898438 C 52.839844 256.652344 51.917969 259.890625 52.460938 265.949219 C 60.09375 277.894531 68.78125 300.304688 77.175781 310.339844 Z M 164.421875 262.191406 C 166.894531 275.785156 188.726563 276.335938 190.621094 259.78125 C 192.109375 246.757813 192.824219 232.621094 193.867188 219.789063 C 194.101563 214.492188 195.398438 206.640625 194.84375 201.585938 C 194.078125 194.660156 188.097656 190.378906 181.535156 190.183594 C 160.382813 189.554688 164.300781 205.546875 164.300781 221.046875 C 164.300781 234.660156 164.632813 248.664063 164.421875 262.191406 "/>
<path style=" stroke:none;fill-rule:nonzero;fill:rgb(91.398621%,19.999695%,20.399475%);fill-opacity:1;" d="M 332.753906 227.6875 L 332.753906 253.433594 C 332.753906 253.738281 332.949219 253.929688 333.265625 253.929688 L 336.96875 253.929688 C 337.28125 253.929688 337.480469 253.738281 337.480469 253.433594 L 337.480469 243.769531 C 337.480469 243.121094 337.914063 242.699219 338.582031 242.699219 L 349.53125 242.699219 C 350.199219 242.699219 350.632813 243.121094 350.632813 243.769531 L 350.632813 253.433594 C 350.632813 253.738281 350.867188 253.929688 351.144531 253.929688 L 354.847656 253.929688 C 355.160156 253.929688 355.359375 253.738281 355.359375 253.433594 L 355.359375 227.6875 C 355.359375 227.382813 355.160156 227.191406 354.847656 227.191406 L 351.144531 227.191406 C 350.867188 227.191406 350.632813 227.382813 350.632813 227.6875 L 350.632813 237.355469 C 350.632813 238.003906 350.199219 238.421875 349.53125 238.421875 L 338.582031 238.421875 C 337.914063 238.421875 337.480469 238.003906 337.480469 237.355469 L 337.480469 227.6875 C 337.480469 227.382813 337.28125 227.191406 336.96875 227.191406 L 333.265625 227.191406 C 332.949219 227.191406 332.753906 227.382813 332.753906 227.6875 Z M 368.363281 242.203125 C 368.363281 242.511719 368.5625 242.699219 368.875 242.699219 L 385.691406 242.699219 C 386.007813 242.699219 386.203125 242.511719 386.203125 242.203125 L 386.203125 238.921875 C 386.203125 238.613281 386.007813 238.421875 385.691406 238.421875 L 368.875 238.421875 C 368.5625 238.421875 368.363281 238.613281 368.363281 238.921875 Z M 368.363281 250.148438 L 368.363281 253.433594 C 368.363281 253.738281 368.5625 253.929688 368.875 253.929688 L 385.691406 253.929688 C 386.007813 253.929688 386.203125 253.738281 386.203125 253.433594 L 386.203125 250.148438 C 386.203125 249.84375 386.007813 249.652344 385.691406 249.652344 L 368.875 249.652344 C 368.5625 249.652344 368.363281 249.84375 368.363281 250.148438 Z M 368.875 231.472656 L 385.691406 231.472656 C 386.007813 231.472656 386.203125 231.28125 386.203125 230.976563 L 386.203125 227.6875 C 386.203125 227.382813 386.007813 227.191406 385.691406 227.191406 L 368.875 227.191406 C 368.5625 227.191406 368.363281 227.382813 368.363281 227.6875 L 368.363281 230.976563 C 368.363281 231.28125 368.5625 231.472656 368.875 231.472656 Z M 399.210938 244.878906 C 399.210938 245.183594 399.40625 245.375 399.722656 245.375 L 403.425781 245.375 C 403.738281 245.375 403.9375 245.183594 403.9375 244.878906 L 403.9375 227.6875 C 403.9375 227.382813 403.738281 227.191406 403.425781 227.191406 L 399.722656 227.191406 C 399.40625 227.191406 399.210938 227.382813 399.210938 227.6875 Z M 399.210938 253.433594 C 399.210938 253.738281 399.40625 253.929688 399.722656 253.929688 L 416.539063 253.929688 C 416.851563 253.929688 417.050781 253.738281 417.050781 253.433594 L 417.050781 250.148438 C 417.050781 249.84375 416.851563 249.652344 416.539063 249.652344 L 399.722656 249.652344 C 399.40625 249.652344 399.210938 249.84375 399.210938 250.148438 Z M 429.109375 253.433594 C 429.109375 253.738281 429.308594 253.929688 429.621094 253.929688 L 433.324219 253.929688 C 433.640625 253.929688 433.835938 253.738281 433.835938 253.433594 L 433.835938 245.566406 C 433.835938 244.953125 434.269531 244.496094 434.9375 244.496094 L 437.105469 244.496094 C 438.207031 244.496094 438.878906 244.496094 439.351563 244.457031 C 444.824219 244 447.539063 239.914063 447.539063 235.863281 C 447.539063 231.507813 444.429688 227.191406 438.207031 227.191406 L 429.621094 227.191406 C 429.308594 227.191406 429.109375 227.382813 429.109375 227.6875 L 429.109375 231.011719 C 429.109375 231.316406 429.308594 231.507813 429.621094 231.507813 L 438.207031 231.507813 C 444.152344 231.507813 444.195313 240.179688 438.207031 240.179688 L 429.621094 240.179688 C 429.308594 240.179688 429.109375 240.371094 429.109375 240.675781 Z M 460.390625 235.671875 L 460.390625 253.433594 C 460.390625 253.738281 460.585938 253.929688 460.902344 253.929688 L 464.601563 253.929688 C 464.917969 253.929688 465.113281 253.738281 465.113281 253.433594 L 465.113281 235.671875 C 465.113281 235.367188 464.917969 235.175781 464.601563 235.175781 L 460.902344 235.175781 C 460.585938 235.175781 460.390625 235.367188 460.390625 235.671875 Z M 460.390625 230.976563 C 460.390625 231.28125 460.585938 231.472656 460.902344 231.472656 L 464.601563 231.472656 C 464.917969 231.472656 465.113281 231.28125 465.113281 230.976563 L 465.113281 227.6875 C 465.113281 227.382813 464.917969 227.191406 464.601563 227.191406 L 460.902344 227.191406 C 460.585938 227.191406 460.390625 227.382813 460.390625 227.6875 Z M 478.75 231.585938 C 478.75 231.890625 478.90625 232.234375 479.105469 232.464844 L 499.308594 253.550781 C 499.503906 253.777344 499.859375 253.929688 500.175781 253.929688 L 500.726563 253.929688 C 501.039063 253.929688 501.238281 253.738281 501.238281 253.433594 L 501.238281 227.6875 C 501.238281 227.382813 501.039063 227.191406 500.726563 227.191406 L 497.023438 227.191406 C 496.710938 227.191406 496.511719 227.382813 496.511719 227.6875 L 496.511719 242.929688 C 496.511719 243.3125 496.394531 243.503906 496.238281 243.503906 C 496.078125 243.503906 495.960938 243.425781 495.765625 243.234375 L 480.679688 227.535156 C 480.484375 227.347656 480.128906 227.191406 479.851563 227.191406 L 479.261719 227.191406 C 478.945313 227.191406 478.75 227.382813 478.75 227.6875 Z M 478.75 253.433594 C 478.75 253.738281 478.945313 253.929688 479.261719 253.929688 L 482.964844 253.929688 C 483.28125 253.929688 483.476563 253.738281 483.476563 253.433594 L 483.476563 243.199219 C 483.476563 242.890625 483.320313 242.546875 483.121094 242.355469 L 479.105469 238.15625 C 478.90625 237.925781 478.75 237.964844 478.75 238.269531 Z M 528.460938 254.503906 C 531.886719 254.503906 535.195313 253.242188 537.480469 251.601563 C 537.714844 251.410156 537.871094 251.105469 537.871094 250.800781 L 537.871094 247.285156 C 537.871094 246.980469 537.675781 246.789063 537.359375 246.789063 L 533.621094 246.789063 C 533.304688 246.789063 533.109375 246.980469 533.109375 247.285156 L 533.109375 247.667969 C 533.109375 249.730469 530.035156 249.960938 528.5 249.960938 C 516.09375 249.960938 516.09375 231.164063 528.5 231.164063 C 530.585938 231.164063 532.359375 231.929688 533.539063 232.769531 C 533.816406 232.960938 534.054688 232.921875 534.25 232.65625 L 536.378906 229.714844 C 536.535156 229.484375 536.535156 229.179688 536.257813 229.027344 C 533.855469 227.6875 531.21875 226.621094 528.460938 226.621094 C 518.96875 226.621094 514.242188 233.570313 514.242188 240.5625 C 514.242188 247.515625 518.96875 254.503906 528.460938 254.503906 Z M 527.160156 243.617188 L 537.359375 243.617188 C 537.675781 243.617188 537.871094 243.425781 537.871094 243.121094 L 537.871094 239.835938 C 537.871094 239.53125 537.675781 239.339844 537.359375 239.339844 L 527.160156 239.339844 C 526.847656 239.339844 526.648438 239.53125 526.648438 239.835938 L 526.648438 243.121094 C 526.648438 243.425781 526.847656 243.617188 527.160156 243.617188 Z M 332.753906 284.265625 L 332.753906 310.011719 C 332.753906 310.316406 332.949219 310.507813 333.265625 310.507813 L 336.96875 310.507813 C 337.28125 310.507813 337.480469 310.316406 337.480469 310.011719 L 337.480469 300.347656 C 337.480469 299.695313 337.914063 299.277344 338.582031 299.277344 L 349.53125 299.277344 C 350.199219 299.277344 350.632813 299.695313 350.632813 300.347656 L 350.632813 310.011719 C 350.632813 310.316406 350.867188 310.507813 351.144531 310.507813 L 354.847656 310.507813 C 355.160156 310.507813 355.359375 310.316406 355.359375 310.011719 L 355.359375 284.265625 C 355.359375 283.960938 355.160156 283.769531 354.847656 283.769531 L 351.144531 283.769531 C 350.867188 283.769531 350.632813 283.960938 350.632813 284.265625 L 350.632813 293.929688 C 350.632813 294.578125 350.199219 295 349.53125 295 L 338.582031 295 C 337.914063 295 337.480469 294.578125 337.480469 293.929688 L 337.480469 284.265625 C 337.480469 283.960938 337.28125 283.769531 336.96875 283.769531 L 333.265625 283.769531 C 332.949219 283.769531 332.753906 283.960938 332.753906 284.265625 Z M 367.929688 310.507813 L 371.828125 310.507813 C 372.105469 310.507813 372.421875 310.316406 372.539063 310.050781 L 380.179688 294.007813 C 380.335938 293.699219 380.492188 293.546875 380.652344 293.546875 C 380.808594 293.546875 380.964844 293.699219 381.125 294.007813 L 384.667969 301.492188 C 384.945313 302.105469 384.707031 302.484375 384.039063 302.484375 L 380.101563 302.484375 C 379.785156 302.484375 379.507813 302.675781 379.390625 302.945313 L 377.777344 306.304688 C 377.660156 306.574219 377.777344 306.765625 378.09375 306.765625 L 386.046875 306.765625 C 386.714844 306.765625 387.347656 307.144531 387.621094 307.71875 L 388.726563 310.050781 C 388.84375 310.316406 389.15625 310.507813 389.472656 310.507813 L 393.332031 310.507813 C 393.648438 310.507813 393.765625 310.316406 393.648438 310.050781 L 381.203125 283.730469 C 381.125 283.539063 380.886719 283.386719 380.652344 283.386719 C 380.414063 283.386719 380.140625 283.539063 380.0625 283.730469 L 367.617188 310.050781 C 367.496094 310.316406 367.617188 310.507813 367.929688 310.507813 Z M 405.90625 288.160156 C 405.90625 288.46875 406.0625 288.8125 406.257813 289.039063 L 426.464844 310.125 C 426.660156 310.355469 427.015625 310.507813 427.328125 310.507813 L 427.878906 310.507813 C 428.195313 310.507813 428.390625 310.316406 428.390625 310.011719 L 428.390625 284.265625 C 428.390625 283.960938 428.195313 283.769531 427.878906 283.769531 L 424.179688 283.769531 C 423.863281 283.769531 423.664063 283.960938 423.664063 284.265625 L 423.664063 299.507813 C 423.664063 299.886719 423.546875 300.078125 423.390625 300.078125 C 423.234375 300.078125 423.113281 300.003906 422.917969 299.8125 L 407.835938 284.113281 C 407.636719 283.921875 407.28125 283.769531 407.007813 283.769531 L 406.417969 283.769531 C 406.101563 283.769531 405.90625 283.960938 405.90625 284.265625 Z M 405.90625 310.011719 C 405.90625 310.316406 406.101563 310.507813 406.417969 310.507813 L 410.117188 310.507813 C 410.433594 310.507813 410.632813 310.316406 410.632813 310.011719 L 410.632813 299.773438 C 410.632813 299.46875 410.472656 299.125 410.277344 298.933594 L 406.257813 294.730469 C 406.0625 294.503906 405.90625 294.539063 405.90625 294.847656 Z M 442.539063 288.046875 L 449.984375 288.046875 C 462.113281 288.046875 462.429688 305.082031 451.125 306.152344 C 450.691406 306.191406 450.023438 306.191406 448.878906 306.191406 L 447.855469 306.191406 C 447.1875 306.191406 446.753906 305.769531 446.753906 305.121094 L 446.753906 292.25 C 446.753906 291.945313 446.558594 291.753906 446.242188 291.753906 L 442.539063 291.753906 C 442.226563 291.753906 442.027344 291.945313 442.027344 292.25 L 442.027344 310.011719 C 442.027344 310.316406 442.226563 310.507813 442.539063 310.507813 L 449.078125 310.507813 C 450.140625 310.507813 450.890625 310.507813 451.320313 310.46875 C 459.945313 309.703125 464.277344 303.515625 464.277344 297.136719 C 464.277344 290.757813 459.945313 284.378906 451.320313 283.808594 C 450.890625 283.769531 450.140625 283.769531 449.078125 283.769531 L 442.539063 283.769531 C 442.226563 283.769531 442.027344 283.960938 442.027344 284.265625 L 442.027344 287.550781 C 442.027344 287.855469 442.226563 288.046875 442.539063 288.046875 Z M 332.753906 340.84375 L 332.753906 366.585938 C 332.753906 366.890625 332.949219 367.085938 333.265625 367.085938 L 336.96875 367.085938 C 337.28125 367.085938 337.480469 366.890625 337.480469 366.585938 L 337.480469 340.84375 C 337.480469 340.535156 337.28125 340.34375 336.96875 340.34375 L 333.265625 340.34375 C 332.949219 340.34375 332.753906 340.535156 332.753906 340.84375 Z M 351.113281 344.738281 C 351.113281 345.042969 351.273438 345.386719 351.46875 345.617188 L 371.671875 366.703125 C 371.867188 366.929688 372.222656 367.085938 372.539063 367.085938 L 373.089844 367.085938 C 373.40625 367.085938 373.601563 366.890625 373.601563 366.585938 L 373.601563 340.84375 C 373.601563 340.535156 373.40625 340.34375 373.089844 340.34375 L 369.386719 340.34375 C 369.074219 340.34375 368.875 340.535156 368.875 340.84375 L 368.875 356.082031 C 368.875 356.464844 368.757813 356.65625 368.601563 356.65625 C 368.441406 356.65625 368.324219 356.578125 368.128906 356.386719 L 353.042969 340.6875 C 352.847656 340.496094 352.492188 340.34375 352.21875 340.34375 L 351.628906 340.34375 C 351.3125 340.34375 351.113281 340.535156 351.113281 340.84375 Z M 351.113281 366.585938 C 351.113281 366.890625 351.3125 367.085938 351.628906 367.085938 L 355.328125 367.085938 C 355.644531 367.085938 355.839844 366.890625 355.839844 366.585938 L 355.839844 356.351563 C 355.839844 356.046875 355.683594 355.699219 355.484375 355.511719 L 351.46875 351.308594 C 351.273438 351.078125 351.113281 351.117188 351.113281 351.421875 Z M 386.175781 344.621094 L 407.835938 344.621094 C 408.148438 344.621094 408.347656 344.433594 408.347656 344.128906 L 408.347656 340.84375 C 408.347656 340.535156 408.148438 340.34375 407.835938 340.34375 L 386.175781 340.34375 C 385.859375 340.34375 385.664063 340.535156 385.664063 340.84375 L 385.664063 344.128906 C 385.664063 344.433594 385.859375 344.621094 386.175781 344.621094 Z M 394.601563 366.585938 C 394.601563 366.890625 394.839844 367.085938 395.113281 367.085938 L 398.816406 367.085938 C 399.132813 367.085938 399.328125 366.890625 399.328125 366.585938 L 399.328125 348.824219 C 399.328125 348.519531 399.132813 348.328125 398.816406 348.328125 L 395.113281 348.328125 C 394.839844 348.328125 394.601563 348.519531 394.601563 348.824219 Z M 419.777344 355.355469 C 419.777344 355.660156 419.972656 355.855469 420.289063 355.855469 L 437.105469 355.855469 C 437.421875 355.855469 437.617188 355.660156 437.617188 355.355469 L 437.617188 352.070313 C 437.617188 351.765625 437.421875 351.574219 437.105469 351.574219 L 420.289063 351.574219 C 419.972656 351.574219 419.777344 351.765625 419.777344 352.070313 Z M 419.777344 363.300781 L 419.777344 366.585938 C 419.777344 366.890625 419.972656 367.085938 420.289063 367.085938 L 437.105469 367.085938 C 437.421875 367.085938 437.617188 366.890625 437.617188 366.585938 L 437.617188 363.300781 C 437.617188 362.996094 437.421875 362.804688 437.105469 362.804688 L 420.289063 362.804688 C 419.972656 362.804688 419.777344 362.996094 419.777344 363.300781 Z M 420.289063 344.621094 L 437.105469 344.621094 C 437.421875 344.621094 437.617188 344.433594 437.617188 344.128906 L 437.617188 340.84375 C 437.617188 340.535156 437.421875 340.34375 437.105469 340.34375 L 420.289063 340.34375 C 419.972656 340.34375 419.777344 340.535156 419.777344 340.84375 L 419.777344 344.128906 C 419.777344 344.433594 419.972656 344.621094 420.289063 344.621094 Z M 451.132813 367.085938 L 454.835938 367.085938 C 455.152344 367.085938 455.347656 366.890625 455.347656 366.585938 L 455.347656 345.769531 C 455.347656 345.121094 455.78125 344.660156 456.449219 344.660156 L 459.324219 344.660156 C 465.273438 344.660156 465.3125 352.109375 459.324219 352.109375 L 458.617188 352.109375 C 458.300781 352.109375 458.105469 352.300781 458.105469 352.605469 L 458.105469 355.929688 C 458.105469 356.234375 458.261719 356.578125 458.421875 356.808594 L 465.46875 366.664063 C 465.664063 366.929688 465.980469 367.085938 466.296875 367.085938 L 470.902344 367.085938 C 471.21875 367.085938 471.339844 366.929688 471.140625 366.664063 L 463.894531 356.65625 C 463.539063 356.160156 463.695313 355.660156 464.289063 355.355469 C 471.140625 351.804688 469.921875 341.222656 460.46875 340.382813 C 459.996094 340.34375 459.324219 340.34375 458.222656 340.34375 L 450.820313 340.34375 C 450.699219 340.34375 450.621094 340.421875 450.621094 340.535156 L 450.621094 366.585938 C 450.621094 366.890625 450.820313 367.085938 451.132813 367.085938 Z M 483.476563 344.738281 C 483.476563 345.042969 483.632813 345.386719 483.832031 345.617188 L 504.035156 366.703125 C 504.230469 366.929688 504.585938 367.085938 504.898438 367.085938 L 505.453125 367.085938 C 505.765625 367.085938 505.964844 366.890625 505.964844 366.585938 L 505.964844 340.84375 C 505.964844 340.535156 505.765625 340.34375 505.453125 340.34375 L 501.75 340.34375 C 501.433594 340.34375 501.238281 340.535156 501.238281 340.84375 L 501.238281 356.082031 C 501.238281 356.464844 501.121094 356.65625 500.960938 356.65625 C 500.804688 356.65625 500.6875 356.578125 500.488281 356.386719 L 485.40625 340.6875 C 485.210938 340.496094 484.855469 340.34375 484.578125 340.34375 L 483.988281 340.34375 C 483.671875 340.34375 483.476563 340.535156 483.476563 340.84375 Z M 483.476563 366.585938 C 483.476563 366.890625 483.671875 367.085938 483.988281 367.085938 L 487.691406 367.085938 C 488.003906 367.085938 488.203125 366.890625 488.203125 366.585938 L 488.203125 356.351563 C 488.203125 356.046875 488.046875 355.699219 487.847656 355.511719 L 483.832031 351.308594 C 483.632813 351.078125 483.476563 351.117188 483.476563 351.421875 Z M 518.535156 367.085938 L 522.433594 367.085938 C 522.710938 367.085938 523.027344 366.890625 523.144531 366.625 L 530.785156 350.582031 C 530.941406 350.277344 531.097656 350.125 531.257813 350.125 C 531.414063 350.125 531.570313 350.277344 531.730469 350.582031 L 535.273438 358.070313 C 535.550781 358.679688 535.3125 359.0625 534.644531 359.0625 L 530.703125 359.0625 C 530.390625 359.0625 530.113281 359.253906 529.996094 359.519531 L 528.382813 362.882813 C 528.265625 363.148438 528.382813 363.339844 528.695313 363.339844 L 536.652344 363.339844 C 537.320313 363.339844 537.953125 363.722656 538.226563 364.296875 L 539.328125 366.625 C 539.449219 366.890625 539.761719 367.085938 540.078125 367.085938 L 543.9375 367.085938 C 544.253906 367.085938 544.371094 366.890625 544.253906 366.625 L 531.808594 340.308594 C 531.730469 340.117188 531.492188 339.964844 531.257813 339.964844 C 531.019531 339.964844 530.746094 340.117188 530.664063 340.308594 L 518.222656 366.625 C 518.101563 366.890625 518.222656 367.085938 518.535156 367.085938 Z M 555.445313 344.621094 L 577.105469 344.621094 C 577.421875 344.621094 577.617188 344.433594 577.617188 344.128906 L 577.617188 340.84375 C 577.617188 340.535156 577.421875 340.34375 577.105469 340.34375 L 555.445313 340.34375 C 555.132813 340.34375 554.933594 340.535156 554.933594 340.84375 L 554.933594 344.128906 C 554.933594 344.433594 555.132813 344.621094 555.445313 344.621094 Z M 563.875 366.585938 C 563.875 366.890625 564.109375 367.085938 564.386719 367.085938 L 568.089844 367.085938 C 568.402344 367.085938 568.601563 366.890625 568.601563 366.585938 L 568.601563 348.824219 C 568.601563 348.519531 568.402344 348.328125 568.089844 348.328125 L 564.386719 348.328125 C 564.109375 348.328125 563.875 348.519531 563.875 348.824219 Z M 589.679688 348.824219 L 589.679688 366.585938 C 589.679688 366.890625 589.875 367.085938 590.191406 367.085938 L 593.894531 367.085938 C 594.207031 367.085938 594.40625 366.890625 594.40625 366.585938 L 594.40625 348.824219 C 594.40625 348.519531 594.207031 348.328125 593.894531 348.328125 L 590.191406 348.328125 C 589.875 348.328125 589.679688 348.519531 589.679688 348.824219 Z M 589.679688 344.128906 C 589.679688 344.433594 589.875 344.621094 590.191406 344.621094 L 593.894531 344.621094 C 594.207031 344.621094 594.40625 344.433594 594.40625 344.128906 L 594.40625 340.84375 C 594.40625 340.535156 594.207031 340.34375 593.894531 340.34375 L 590.191406 340.34375 C 589.875 340.34375 589.679688 340.535156 589.679688 340.84375 Z M 607.410156 353.714844 C 607.410156 363.035156 614.5 367.695313 621.628906 367.695313 C 628.714844 367.695313 635.804688 363.035156 635.804688 353.714844 C 635.804688 344.394531 628.714844 339.734375 621.628906 339.734375 C 614.5 339.734375 607.410156 344.394531 607.410156 353.714844 Z M 612.058594 353.714844 C 612.058594 347.449219 616.824219 344.355469 621.628906 344.355469 C 626.394531 344.355469 631.195313 347.449219 631.195313 353.714844 C 631.195313 359.980469 626.394531 363.074219 621.628906 363.074219 C 616.824219 363.074219 612.058594 359.980469 612.058594 353.714844 Z M 618.398438 354.058594 L 621.273438 356.847656 C 621.46875 357.035156 621.746094 357.074219 621.980469 356.847656 L 624.855469 354.058594 C 625.054688 353.867188 625.054688 353.5625 624.855469 353.371094 L 621.980469 350.582031 C 621.746094 350.351563 621.46875 350.390625 621.273438 350.582031 L 618.398438 353.371094 C 618.160156 353.601563 618.160156 353.828125 618.398438 354.058594 Z M 648.8125 344.738281 C 648.8125 345.042969 648.96875 345.386719 649.164063 345.617188 L 669.367188 366.703125 C 669.566406 366.929688 669.921875 367.085938 670.234375 367.085938 L 670.785156 367.085938 C 671.101563 367.085938 671.296875 366.890625 671.296875 366.585938 L 671.296875 340.84375 C 671.296875 340.535156 671.101563 340.34375 670.785156 340.34375 L 667.085938 340.34375 C 666.769531 340.34375 666.570313 340.535156 666.570313 340.84375 L 666.570313 356.082031 C 666.570313 356.464844 666.453125 356.65625 666.296875 356.65625 C 666.140625 356.65625 666.019531 356.578125 665.824219 356.386719 L 650.738281 340.6875 C 650.542969 340.496094 650.1875 340.34375 649.914063 340.34375 L 649.320313 340.34375 C 649.007813 340.34375 648.8125 340.535156 648.8125 340.84375 Z M 648.8125 366.585938 C 648.8125 366.890625 649.007813 367.085938 649.320313 367.085938 L 653.023438 367.085938 C 653.339844 367.085938 653.535156 366.890625 653.535156 366.585938 L 653.535156 356.351563 C 653.535156 356.046875 653.378906 355.699219 653.183594 355.511719 L 649.164063 351.308594 C 648.96875 351.078125 648.8125 351.117188 648.8125 351.421875 Z M 683.871094 367.085938 L 687.769531 367.085938 C 688.046875 367.085938 688.359375 366.890625 688.476563 366.625 L 696.117188 350.582031 C 696.277344 350.277344 696.433594 350.125 696.589844 350.125 C 696.746094 350.125 696.90625 350.277344 697.0625 350.582031 L 700.609375 358.070313 C 700.882813 358.679688 700.648438 359.0625 699.976563 359.0625 L 696.039063 359.0625 C 695.722656 359.0625 695.449219 359.253906 695.328125 359.519531 L 693.714844 362.882813 C 693.597656 363.148438 693.714844 363.339844 694.03125 363.339844 L 701.984375 363.339844 C 702.65625 363.339844 703.285156 363.722656 703.5625 364.296875 L 704.664063 366.625 C 704.78125 366.890625 705.097656 367.085938 705.414063 367.085938 L 709.273438 367.085938 C 709.585938 367.085938 709.703125 366.890625 709.585938 366.625 L 697.140625 340.308594 C 697.0625 340.117188 696.828125 339.964844 696.589844 339.964844 C 696.355469 339.964844 696.078125 340.117188 696 340.308594 L 683.554688 366.625 C 683.4375 366.890625 683.554688 367.085938 683.871094 367.085938 Z M 721.84375 358.03125 C 721.84375 358.335938 722.039063 358.527344 722.355469 358.527344 L 726.058594 358.527344 C 726.371094 358.527344 726.570313 358.335938 726.570313 358.03125 L 726.570313 340.84375 C 726.570313 340.535156 726.371094 340.34375 726.058594 340.34375 L 722.355469 340.34375 C 722.039063 340.34375 721.84375 340.535156 721.84375 340.84375 Z M 721.84375 366.585938 C 721.84375 366.890625 722.039063 367.085938 722.355469 367.085938 L 739.171875 367.085938 C 739.488281 367.085938 739.683594 366.890625 739.683594 366.585938 L 739.683594 363.300781 C 739.683594 362.996094 739.488281 362.804688 739.171875 362.804688 L 722.355469 362.804688 C 722.039063 362.804688 721.84375 362.996094 721.84375 363.300781 "/>
<path style=" stroke:none;fill-rule:nonzero;fill:rgb(91.398621%,19.999695%,20.399475%);fill-opacity:1;" d="M 349.234375 403.105469 L 342.902344 403.105469 L 342.902344 418.6875 L 338.902344 418.6875 L 338.902344 403.132813 L 332.515625 403.132813 L 332.515625 399.132813 L 349.234375 399.132813 Z M 383.15625 408.9375 C 383.15625 410.296875 382.902344 411.566406 382.390625 412.753906 C 381.878906 413.9375 381.179688 414.964844 380.296875 415.839844 C 379.414063 416.714844 378.378906 417.40625 377.195313 417.917969 C 376.011719 418.429688 374.738281 418.6875 373.378906 418.6875 C 372.019531 418.6875 370.746094 418.429688 369.566406 417.917969 C 368.382813 417.40625 367.34375 416.710938 366.453125 415.824219 C 365.558594 414.941406 364.855469 413.910156 364.34375 412.726563 C 363.832031 411.542969 363.578125 410.269531 363.578125 408.910156 C 363.578125 407.566406 363.832031 406.300781 364.34375 405.105469 C 364.855469 403.914063 365.558594 402.871094 366.453125 401.980469 C 367.34375 401.089844 368.382813 400.386719 369.566406 399.875 C 370.746094 399.363281 372.019531 399.105469 373.378906 399.105469 C 374.757813 399.105469 376.039063 399.367188 377.222656 399.886719 C 378.40625 400.410156 379.4375 401.113281 380.320313 402.007813 C 381.207031 402.898438 381.898438 403.941406 382.402344 405.132813 C 382.90625 406.324219 383.15625 407.59375 383.15625 408.9375 Z M 379.183594 408.9375 C 379.183594 408.425781 379.113281 407.894531 378.972656 407.347656 C 378.828125 406.800781 378.601563 406.277344 378.28125 405.78125 C 377.964844 405.289063 377.558594 404.835938 377.0625 404.417969 C 376.570313 404.003906 375.96875 403.664063 375.261719 403.398438 C 375.121094 403.34375 374.953125 403.304688 374.757813 403.277344 C 374.5625 403.253906 374.394531 403.222656 374.253906 403.1875 C 374.097656 403.152344 373.910156 403.125 373.699219 403.105469 C 373.484375 403.089844 373.363281 403.082031 373.328125 403.082031 C 372.921875 403.082031 372.496094 403.132813 372.054688 403.238281 C 371.613281 403.34375 371.171875 403.511719 370.730469 403.742188 C 370.289063 403.972656 369.871094 404.265625 369.472656 404.617188 C 369.074219 404.96875 368.726563 405.394531 368.425781 405.890625 C 368.054688 406.507813 367.816406 407.117188 367.710938 407.71875 C 367.675781 407.910156 367.644531 408.105469 367.617188 408.300781 C 367.589844 408.496094 367.578125 408.707031 367.578125 408.9375 C 367.578125 409.714844 367.726563 410.449219 368.027344 411.148438 C 368.328125 411.847656 368.742188 412.460938 369.273438 412.988281 C 369.804688 413.519531 370.421875 413.941406 371.128906 414.25 C 371.835938 414.558594 372.585938 414.710938 373.378906 414.710938 C 374.15625 414.710938 374.898438 414.5625 375.605469 414.261719 C 376.3125 413.960938 376.929688 413.550781 377.460938 413.03125 C 377.992188 412.507813 378.410156 411.898438 378.71875 411.203125 C 379.027344 410.503906 379.183594 409.75 379.183594 408.9375 Z M 412.761719 418.6875 L 407.328125 418.6875 C 407.292969 418.6875 407.214844 418.679688 407.089844 418.660156 C 406.96875 418.644531 406.863281 418.625 406.773438 418.609375 C 406.453125 418.554688 406.144531 418.503906 405.847656 418.449219 C 405.546875 418.394531 405.21875 418.296875 404.863281 418.15625 C 403.699219 417.734375 402.703125 417.167969 401.871094 416.460938 C 401.039063 415.753906 400.355469 414.980469 399.816406 414.144531 C 399.277344 413.304688 398.886719 412.429688 398.640625 411.519531 C 398.390625 410.609375 398.277344 409.75 398.292969 408.9375 C 398.3125 407.453125 398.582031 406.160156 399.101563 405.054688 C 399.621094 403.949219 400.257813 403.015625 401.011719 402.246094 C 401.761719 401.476563 402.554688 400.863281 403.394531 400.402344 C 404.234375 399.945313 404.988281 399.628906 405.660156 399.449219 C 405.800781 399.414063 405.964844 399.375 406.148438 399.332031 C 406.335938 399.285156 406.507813 399.246094 406.667969 399.210938 C 406.789063 399.195313 406.960938 399.171875 407.171875 399.144531 C 407.382813 399.117188 407.507813 399.105469 407.539063 399.105469 L 408.785156 399.105469 L 408.785156 403.082031 L 407.566406 403.082031 C 407.25 403.117188 407.015625 403.160156 406.867188 403.214844 C 406.714844 403.265625 406.605469 403.292969 406.535156 403.292969 C 406.21875 403.363281 405.886719 403.488281 405.539063 403.664063 C 405.195313 403.839844 404.863281 404.050781 404.546875 404.300781 C 404.230469 404.546875 403.933594 404.824219 403.660156 405.132813 C 403.386719 405.441406 403.171875 405.765625 403.011719 406.101563 C 402.976563 406.136719 402.945313 406.183594 402.917969 406.246094 C 402.890625 406.308594 402.859375 406.375 402.824219 406.445313 C 402.632813 406.976563 402.492188 407.394531 402.414063 407.703125 C 402.335938 408.015625 402.296875 408.40625 402.296875 408.882813 C 402.296875 409.378906 402.359375 409.890625 402.492188 410.421875 C 402.625 410.949219 402.835938 411.457031 403.117188 411.945313 C 403.398438 412.429688 403.769531 412.878906 404.230469 413.296875 C 404.6875 413.710938 405.253906 414.050781 405.925781 414.316406 C 405.976563 414.332031 406.070313 414.363281 406.203125 414.40625 C 406.335938 414.453125 406.480469 414.496094 406.640625 414.539063 C 406.800781 414.585938 406.953125 414.625 407.105469 414.660156 C 407.253906 414.695313 407.375 414.710938 407.460938 414.710938 L 408.761719 414.710938 L 408.761719 410.921875 L 406.507813 410.921875 L 406.507813 406.949219 L 412.761719 406.949219 Z M 441.753906 418.6875 L 427.898438 418.6875 L 427.898438 399.132813 L 441.753906 399.132813 L 441.753906 403.082031 L 431.898438 403.082031 L 431.898438 406.921875 L 436.800781 406.921875 L 436.800781 410.898438 L 431.898438 410.898438 L 431.898438 414.710938 L 441.753906 414.710938 Z M 473.613281 403.082031 L 467.277344 403.082031 L 467.277344 418.6875 L 463.277344 418.6875 L 463.277344 403.105469 L 456.890625 403.105469 L 456.890625 399.132813 L 473.613281 399.132813 Z M 505.707031 418.6875 L 501.757813 418.6875 L 501.757813 410.660156 L 492.75 410.660156 L 492.75 418.6875 L 488.746094 418.6875 L 488.746094 399.132813 L 492.75 399.132813 L 492.75 406.683594 L 501.703125 406.683594 L 501.703125 399.132813 L 505.707031 399.132813 Z M 534.699219 418.6875 L 520.84375 418.6875 L 520.84375 399.132813 L 534.699219 399.132813 L 534.699219 403.082031 L 524.84375 403.082031 L 524.84375 406.921875 L 529.746094 406.921875 L 529.746094 410.898438 L 524.84375 410.898438 L 524.84375 414.710938 L 534.699219 414.710938 Z M 563.640625 418.714844 L 559.296875 418.714844 L 555.929688 411.214844 L 553.839844 411.214844 L 553.839844 418.6875 L 549.835938 418.6875 L 549.835938 399.105469 L 556.964844 399.105469 C 557.070313 399.105469 557.207031 399.117188 557.375 399.144531 C 557.542969 399.171875 557.71875 399.207031 557.90625 399.253906 C 558.089844 399.296875 558.261719 399.339844 558.421875 399.382813 C 558.578125 399.429688 558.703125 399.46875 558.792969 399.503906 C 559.199219 399.679688 559.59375 399.882813 559.972656 400.113281 C 560.351563 400.34375 560.726563 400.660156 561.097656 401.066406 C 561.519531 401.527344 561.851563 402.003906 562.089844 402.496094 C 562.328125 402.992188 562.492188 403.476563 562.582031 403.953125 C 562.671875 404.359375 562.714844 404.769531 562.714844 405.175781 C 562.714844 406.039063 562.507813 406.933594 562.089844 407.851563 C 561.675781 408.769531 560.949219 409.582031 559.90625 410.289063 Z M 558.738281 405.175781 C 558.738281 404.820313 558.644531 404.457031 558.460938 404.085938 C 558.277344 403.714844 557.9375 403.425781 557.441406 403.214844 C 557.351563 403.179688 557.242188 403.148438 557.109375 403.121094 C 556.976563 403.09375 556.894531 403.082031 556.859375 403.082031 L 553.839844 403.082031 L 553.839844 407.265625 L 556.859375 407.265625 C 556.894531 407.265625 556.976563 407.25 557.109375 407.214844 C 557.242188 407.179688 557.351563 407.144531 557.441406 407.109375 C 557.9375 406.914063 558.277344 406.632813 558.460938 406.261719 C 558.644531 405.890625 558.738281 405.527344 558.738281 405.175781 Z M 608.613281 399.132813 L 605.882813 418.714844 L 601.644531 418.714844 L 598.332031 412.0625 L 595.019531 418.714844 L 590.78125 418.714844 L 588.050781 399.132813 L 592.054688 399.132813 L 593.882813 412.011719 L 598.332031 403.132813 L 602.785156 412.011719 L 604.613281 399.132813 Z M 637.605469 418.6875 L 623.75 418.6875 L 623.75 399.132813 L 637.605469 399.132813 L 637.605469 403.082031 L 627.75 403.082031 L 627.75 406.921875 L 632.652344 406.921875 L 632.652344 410.898438 L 627.75 410.898438 L 627.75 414.710938 L 637.605469 414.710938 Z M 674.496094 418.6875 L 671.054688 418.6875 C 671.019531 418.6875 670.9375 418.679688 670.8125 418.660156 C 670.691406 418.644531 670.585938 418.625 670.496094 418.609375 C 670.179688 418.554688 669.871094 418.503906 669.570313 418.449219 C 669.269531 418.394531 668.941406 418.296875 668.589844 418.15625 C 667.40625 417.714844 666.398438 417.144531 665.566406 416.449219 C 664.738281 415.75 664.058594 414.984375 663.527344 414.15625 C 662.996094 413.324219 662.613281 412.460938 662.375 411.558594 C 662.136719 410.660156 662.019531 409.773438 662.019531 408.910156 C 662.019531 408.734375 662.035156 408.421875 662.070313 407.96875 C 662.105469 407.519531 662.167969 407.089844 662.257813 406.683594 C 662.378906 406.1875 662.570313 405.652344 662.824219 405.066406 C 663.082031 404.484375 663.402344 403.914063 663.792969 403.359375 C 664.183594 402.800781 664.632813 402.273438 665.144531 401.769531 C 665.65625 401.265625 666.230469 400.828125 666.867188 400.457031 C 667.769531 399.925781 668.632813 399.582031 669.464844 399.425781 C 669.496094 399.425781 669.582031 399.40625 669.714844 399.371094 C 669.847656 399.335938 669.996094 399.296875 670.164063 399.253906 C 670.332031 399.207031 670.5 399.171875 670.667969 399.144531 C 670.835938 399.117188 670.972656 399.105469 671.078125 399.105469 L 674.496094 399.105469 L 674.496094 403.082031 L 671.265625 403.082031 C 671.230469 403.082031 671.121094 403.101563 670.945313 403.148438 C 670.769531 403.191406 670.628906 403.222656 670.523438 403.238281 C 670.203125 403.273438 669.855469 403.386719 669.476563 403.570313 C 669.097656 403.757813 668.722656 403.988281 668.351563 404.273438 C 667.980469 404.554688 667.640625 404.871094 667.328125 405.226563 C 667.019531 405.578125 666.785156 405.941406 666.628906 406.3125 C 666.59375 406.402344 666.546875 406.503906 666.480469 406.617188 C 666.421875 406.734375 666.371094 406.84375 666.335938 406.949219 C 666.195313 407.355469 666.105469 407.695313 666.070313 407.96875 C 666.035156 408.242188 666.019531 408.546875 666.019531 408.882813 C 666.019531 409.359375 666.078125 409.859375 666.203125 410.378906 C 666.328125 410.902344 666.53125 411.402344 666.8125 411.878906 C 667.097656 412.355469 667.464844 412.800781 667.914063 413.214844 C 668.363281 413.628906 668.914063 413.980469 669.570313 414.261719 C 669.640625 414.296875 669.753906 414.339844 669.914063 414.394531 C 670.074219 414.449219 670.234375 414.496094 670.402344 414.539063 C 670.570313 414.585938 670.734375 414.625 670.894531 414.660156 C 671.054688 414.695313 671.1875 414.710938 671.289063 414.710938 L 674.496094 414.710938 Z M 707.519531 418.714844 L 703.09375 418.714844 L 701.664063 415.691406 L 694.933594 415.691406 L 693.503906 418.714844 L 689.105469 418.714844 L 698.324219 399.105469 Z M 699.808594 411.691406 L 698.324219 408.511719 L 696.816406 411.691406 Z M 738.738281 418.6875 L 734.765625 418.6875 L 726.128906 406.179688 L 726.128906 418.6875 L 722.125 418.6875 L 722.125 399.132813 L 726.101563 399.132813 L 734.738281 411.640625 L 734.738281 399.132813 L 738.738281 399.132813 "/>
</g>
</svg>
