<svg width="1121" height="863" viewBox="0 0 1121 863" fill="none" xmlns="http://www.w3.org/2000/svg">
<path opacity="0.1" d="M921.69 256.42H880.8V318.32H921.69V256.42Z" fill="#092034"/>
<path opacity="0.1" d="M917.71 262.44H884.77V312.3H917.71V262.44Z" fill="#092034"/>
<path opacity="0.1" d="M860.6 213.42H797.8V275.32H860.6V213.42Z" fill="#092034"/>
<path opacity="0.1" d="M854.49 219.44H803.9V269.3H854.49V219.44Z" fill="#092034"/>
<path opacity="0.1" d="M256.57 121.32H64.6201V126.43H256.57V121.32Z" fill="#092034"/>
<path opacity="0.1" d="M256.57 146.31H64.6201V151.42H256.57V146.31Z" fill="#092034"/>
<path d="M408.04 452.63H388.43V671.77H408.04V452.63Z" fill="#D6D6E3"/>
<path d="M980.84 475.64V273.5C980.843 267.866 983.083 262.463 987.067 258.48C991.052 254.497 996.456 252.26 1002.09 252.26V252.26C1007.72 252.271 1013.11 254.513 1017.09 258.495C1021.06 262.476 1023.3 267.873 1023.3 273.5V518.14C1023.3 523.776 1021.06 529.181 1017.08 533.166C1013.09 537.151 1007.69 539.39 1002.05 539.39H870.44C864.804 539.39 859.399 537.151 855.414 533.166C851.429 529.181 849.19 523.776 849.19 518.14V518.14C849.19 512.504 851.429 507.099 855.414 503.114C859.399 499.129 864.804 496.89 870.44 496.89H959.59C965.226 496.89 970.631 494.651 974.616 490.666C978.601 486.681 980.84 481.276 980.84 475.64V475.64Z" fill="#AEBEE1"/>
<path d="M980.84 475.64V273.5C980.843 267.866 983.083 262.463 987.067 258.48C991.052 254.497 996.456 252.26 1002.09 252.26V252.26C1007.72 252.271 1013.11 254.513 1017.09 258.495C1021.06 262.476 1023.3 267.873 1023.3 273.5V518.14C1023.3 523.776 1021.06 529.181 1017.08 533.166C1013.09 537.151 1007.69 539.39 1002.05 539.39H870.44C864.804 539.39 859.399 537.151 855.414 533.166C851.429 529.181 849.19 523.776 849.19 518.14V518.14C849.19 512.504 851.429 507.099 855.414 503.114C859.399 499.129 864.804 496.89 870.44 496.89H959.59C965.226 496.89 970.631 494.651 974.616 490.666C978.601 486.681 980.84 481.276 980.84 475.64V475.64Z" fill="#535461"/>
<path d="M849.22 517C849.512 511.569 851.875 506.457 855.822 502.716C859.77 498.975 865.001 496.89 870.44 496.89H959.59C965.226 496.89 970.631 494.651 974.616 490.666C978.601 486.681 980.84 481.276 980.84 475.64V273.5C980.836 268.038 982.936 262.785 986.703 258.83C990.469 254.875 995.615 252.522 1001.07 252.26V517H849.22Z" fill="#D6D6E3"/>
<path d="M192.5 482.46V280.32C192.5 274.693 190.268 269.295 186.294 265.312C182.319 261.328 176.927 259.083 171.3 259.07V259.07C165.664 259.07 160.259 261.309 156.274 265.294C152.289 269.279 150.05 274.684 150.05 280.32V524.96C150.044 527.755 150.588 530.523 151.653 533.107C152.718 535.691 154.282 538.04 156.256 540.018C158.23 541.997 160.575 543.567 163.157 544.638C165.738 545.709 168.505 546.26 171.3 546.26H302.9C308.536 546.26 313.941 544.021 317.926 540.036C321.911 536.051 324.15 530.646 324.15 525.01V525.01C324.15 519.374 321.911 513.969 317.926 509.984C313.941 505.999 308.536 503.76 302.9 503.76H213.76C210.964 503.761 208.196 503.211 205.613 502.141C203.031 501.07 200.685 499.501 198.71 497.522C196.735 495.543 195.17 493.194 194.104 490.61C193.039 488.025 192.494 485.256 192.5 482.46V482.46Z" fill="#AEBEE1"/>
<path d="M192.5 482.46V280.32C192.5 274.693 190.268 269.295 186.294 265.312C182.319 261.328 176.927 259.083 171.3 259.07V259.07C165.664 259.07 160.259 261.309 156.274 265.294C152.289 269.279 150.05 274.684 150.05 280.32V524.96C150.044 527.755 150.588 530.523 151.653 533.107C152.718 535.691 154.282 538.04 156.256 540.018C158.23 541.997 160.575 543.567 163.157 544.638C165.738 545.709 168.505 546.26 171.3 546.26H302.9C308.536 546.26 313.941 544.021 317.926 540.036C321.911 536.051 324.15 530.646 324.15 525.01V525.01C324.15 519.374 321.911 513.969 317.926 509.984C313.941 505.999 308.536 503.76 302.9 503.76H213.76C210.964 503.761 208.196 503.211 205.613 502.141C203.031 501.07 200.685 499.501 198.71 497.522C196.735 495.543 195.17 493.194 194.104 490.61C193.039 488.025 192.494 485.256 192.5 482.46V482.46Z" fill="#535461"/>
<path d="M324.12 523.82C323.828 518.389 321.465 513.277 317.518 509.536C313.57 505.795 308.339 503.71 302.9 503.71H213.76C210.969 503.711 208.204 503.163 205.625 502.095C203.046 501.028 200.702 499.463 198.728 497.49C196.753 495.516 195.187 493.173 194.119 490.594C193.05 488.016 192.5 485.251 192.5 482.46V280.32C192.499 274.867 190.401 269.622 186.641 265.673C182.881 261.723 177.747 259.369 172.3 259.1V523.82H324.12Z" fill="#D6D6E3"/>
<path d="M796.01 452.63H776.4V676.88H796.01V452.63Z" fill="#D6D6E3"/>
<path opacity="0.1" d="M408.04 452.63H388.43V468.83H408.04V452.63Z" fill="black"/>
<path opacity="0.1" d="M796.01 452.63H776.4V468.83H796.01V452.63Z" fill="black"/>
<path opacity="0.1" d="M458.47 319.18C458.157 322.633 457.76 326.133 457.28 329.68H454.51V319.18H458.47Z" fill="black"/>
<path d="M538.82 428.26C538.88 431.81 536.32 434.72 533.15 434.72H473.3V428.48H523.1C525.25 428.48 526.59 425.88 525.51 423.8L480.35 331.95C480.031 331.288 479.535 330.727 478.918 330.328C478.3 329.93 477.585 329.709 476.85 329.69H454.51V319.19H482.72C483.234 319.203 483.735 319.357 484.167 319.636C484.599 319.915 484.946 320.307 485.17 320.77L536.94 420.77C538.133 423.089 538.776 425.652 538.82 428.26Z" fill="#535461"/>
<path d="M428.9 411.6L428.08 412.98L420.41 407.86L444.14 225.39H450.25C450.25 225.39 450.5 226.23 450.91 227.83C455 243.6 475.09 332.91 428.9 411.6Z" fill="#535461"/>
<path opacity="0.1" d="M450.9 227.83L428.9 411.6L428.08 412.98L420.41 407.86L444.14 225.39H450.25C450.25 225.39 450.49 226.26 450.9 227.83Z" fill="black"/>
<path d="M435.981 223.502L413.47 411.449L427.867 413.173L450.378 225.226L435.981 223.502Z" fill="#D6D6E3"/>
<path d="M364.13 428.33C364.127 428.783 363.946 429.216 363.626 429.536C363.306 429.856 362.873 430.037 362.42 430.04H359.86C359.407 430.04 358.972 429.86 358.651 429.539C358.33 429.218 358.15 428.784 358.15 428.33C358.142 428.264 358.142 428.196 358.15 428.13C358.201 427.717 358.401 427.337 358.712 427.061C359.023 426.785 359.424 426.632 359.84 426.63H362.4C362.78 426.634 363.148 426.764 363.447 426.999C363.745 427.234 363.957 427.561 364.05 427.93C364.094 428.059 364.121 428.194 364.13 428.33V428.33Z" fill="#E3EDF9"/>
<path d="M371.8 428.33C371.797 428.783 371.616 429.216 371.296 429.536C370.976 429.856 370.543 430.037 370.09 430.04H367.53C367.077 430.04 366.642 429.86 366.321 429.539C366 429.218 365.82 428.784 365.82 428.33C365.821 428.171 365.845 428.013 365.89 427.86C365.966 427.583 366.114 427.331 366.32 427.13C366.477 426.971 366.663 426.844 366.869 426.758C367.076 426.673 367.297 426.629 367.52 426.63H370.08C370.41 426.628 370.734 426.722 371.012 426.899C371.29 427.077 371.512 427.33 371.65 427.63C371.748 427.851 371.799 428.089 371.8 428.33Z" fill="#E3EDF9"/>
<path d="M378.62 428.33C378.617 428.783 378.436 429.216 378.116 429.536C377.796 429.856 377.363 430.037 376.91 430.04H374.35C373.896 430.04 373.461 429.86 373.141 429.539C372.82 429.218 372.64 428.784 372.64 428.33C372.636 428.085 372.687 427.842 372.79 427.62C372.929 427.325 373.147 427.075 373.421 426.898C373.696 426.721 374.014 426.625 374.34 426.62H376.9C377.125 426.619 377.348 426.662 377.556 426.747C377.764 426.833 377.953 426.959 378.112 427.118C378.271 427.277 378.397 427.466 378.482 427.674C378.568 427.882 378.611 428.105 378.61 428.33H378.62Z" fill="#E3EDF9"/>
<path d="M386.3 428.33C386.297 428.783 386.116 429.216 385.796 429.536C385.476 429.856 385.043 430.037 384.59 430.04H382.03C381.717 430.04 381.411 429.954 381.144 429.792C380.876 429.629 380.659 429.397 380.514 429.119C380.37 428.842 380.305 428.531 380.325 428.219C380.345 427.907 380.451 427.606 380.63 427.35L380.83 427.13C380.986 426.971 381.173 426.844 381.379 426.758C381.585 426.673 381.807 426.629 382.03 426.63H384.59C384.823 426.633 385.053 426.683 385.266 426.778C385.48 426.872 385.671 427.009 385.83 427.18C386.13 427.487 386.299 427.9 386.3 428.33V428.33Z" fill="#E3EDF9"/>
<path opacity="0.1" d="M364.08 427.92C364.115 428.054 364.131 428.192 364.13 428.33C364.127 428.783 363.946 429.216 363.626 429.536C363.306 429.856 362.873 430.037 362.42 430.04H359.86C359.407 430.04 358.972 429.86 358.651 429.539C358.33 429.218 358.15 428.784 358.15 428.33C358.142 428.264 358.142 428.196 358.15 428.13L364.08 427.92Z" fill="black"/>
<path opacity="0.1" d="M371.66 427.65C371.75 427.862 371.798 428.09 371.8 428.32C371.797 428.773 371.616 429.206 371.296 429.526C370.976 429.846 370.543 430.027 370.09 430.03H367.53C367.077 430.03 366.642 429.85 366.321 429.529C366 429.208 365.82 428.774 365.82 428.32C365.821 428.161 365.845 428.003 365.89 427.85L371.66 427.65Z" fill="black"/>
<path opacity="0.1" d="M378.37 427.42C378.538 427.69 378.628 428.002 378.63 428.32C378.627 428.773 378.446 429.206 378.126 429.526C377.806 429.846 377.373 430.027 376.92 430.03H374.36C373.906 430.03 373.471 429.85 373.151 429.529C372.83 429.208 372.65 428.774 372.65 428.32C372.646 428.075 372.697 427.832 372.8 427.61L378.37 427.42Z" fill="black"/>
<path opacity="0.1" d="M386.3 428.33C386.297 428.783 386.116 429.216 385.796 429.536C385.476 429.856 385.043 430.037 384.59 430.04H382.03C381.717 430.04 381.411 429.954 381.144 429.792C380.876 429.629 380.659 429.397 380.514 429.119C380.37 428.842 380.305 428.531 380.325 428.219C380.345 427.907 380.451 427.606 380.63 427.35L385.83 427.17C386.133 427.48 386.302 427.897 386.3 428.33Z" fill="black"/>
<path d="M401.64 435.15H352.19V432.9C352.189 431.901 352.577 430.941 353.271 430.223C353.965 429.504 354.912 429.084 355.91 429.05L395.57 427.68C396.358 427.653 397.143 427.785 397.879 428.068C398.615 428.351 399.287 428.779 399.854 429.326C400.421 429.874 400.873 430.53 401.181 431.256C401.49 431.981 401.649 432.762 401.65 433.55L401.64 435.15Z" fill="#D6D6E3"/>
<path d="M645.61 428.26C645.55 431.81 648.11 434.72 651.28 434.72H711.16V428.48H661.3C659.15 428.48 657.81 425.88 658.89 423.8L704.05 331.95C704.369 331.288 704.865 330.727 705.482 330.328C706.1 329.93 706.815 329.709 707.55 329.69H729.9V319.19H701.71C701.204 319.209 700.712 319.365 700.288 319.642C699.863 319.918 699.522 320.305 699.3 320.76L647.53 420.76C646.322 423.079 645.665 425.646 645.61 428.26V428.26Z" fill="#535461"/>
<path d="M755.54 411.6L756.36 412.98L764.03 407.86L740.3 225.39H734.19C734.19 225.39 733.94 226.23 733.53 227.83C729.43 243.6 709.3 332.91 755.54 411.6Z" fill="#535461"/>
<path opacity="0.1" d="M733.53 227.83L755.53 411.6L756.35 412.98L764.02 407.86L740.3 225.39H734.19C734.19 225.39 733.94 226.26 733.53 227.83Z" fill="black"/>
<path d="M748.467 223.483L734.07 225.208L756.581 413.155L770.978 411.43L748.467 223.483Z" fill="#D6D6E3"/>
<path d="M820.3 428.33C820.303 428.783 820.484 429.216 820.804 429.536C821.124 429.856 821.557 430.037 822.01 430.04H824.57C825.024 430.04 825.458 429.86 825.779 429.539C826.1 429.218 826.28 428.784 826.28 428.33C826.288 428.264 826.288 428.196 826.28 428.13C826.229 427.717 826.029 427.337 825.718 427.061C825.407 426.785 825.006 426.632 824.59 426.63H822.03C821.65 426.634 821.282 426.764 820.984 426.999C820.685 427.234 820.473 427.561 820.38 427.93C820.336 428.059 820.309 428.194 820.3 428.33V428.33Z" fill="#E3EDF9"/>
<path d="M812.63 428.33C812.633 428.783 812.814 429.216 813.134 429.536C813.454 429.856 813.887 430.037 814.34 430.04H816.9C817.124 430.04 817.347 429.996 817.554 429.91C817.762 429.824 817.95 429.698 818.109 429.539C818.268 429.38 818.394 429.192 818.48 428.984C818.566 428.777 818.61 428.555 818.61 428.33C818.609 428.171 818.585 428.013 818.54 427.86C818.464 427.583 818.316 427.331 818.11 427.13C817.953 426.971 817.767 426.844 817.561 426.758C817.354 426.673 817.133 426.629 816.91 426.63H814.3C813.97 426.628 813.646 426.722 813.368 426.899C813.09 427.077 812.868 427.33 812.73 427.63C812.65 427.854 812.616 428.092 812.63 428.33Z" fill="#E3EDF9"/>
<path d="M805.81 428.33C805.813 428.783 805.994 429.216 806.314 429.536C806.634 429.856 807.067 430.037 807.52 430.04H810.08C810.534 430.04 810.968 429.86 811.289 429.539C811.61 429.218 811.79 428.784 811.79 428.33C811.794 428.085 811.743 427.842 811.64 427.62C811.501 427.325 811.283 427.075 811.008 426.898C810.734 426.721 810.416 426.625 810.09 426.62H807.53C807.305 426.619 807.082 426.662 806.874 426.747C806.666 426.833 806.477 426.959 806.318 427.118C806.159 427.277 806.033 427.466 805.948 427.674C805.862 427.882 805.819 428.105 805.82 428.33H805.81Z" fill="#E3EDF9"/>
<path d="M798.13 428.33C798.133 428.783 798.313 429.216 798.634 429.536C798.954 429.856 799.387 430.037 799.84 430.04H802.4C802.712 430.04 803.019 429.954 803.286 429.792C803.553 429.629 803.771 429.397 803.915 429.119C804.06 428.842 804.125 428.531 804.105 428.219C804.085 427.907 803.979 427.606 803.8 427.35L803.6 427.13C803.443 426.971 803.257 426.844 803.051 426.758C802.844 426.673 802.623 426.629 802.4 426.63H799.84C799.607 426.633 799.376 426.683 799.163 426.778C798.95 426.872 798.758 427.009 798.6 427.18C798.299 427.487 798.131 427.9 798.13 428.33Z" fill="#E3EDF9"/>
<path opacity="0.1" d="M820.35 427.92C820.315 428.054 820.299 428.192 820.3 428.33C820.303 428.783 820.483 429.216 820.804 429.536C821.124 429.856 821.557 430.037 822.01 430.04H824.57C825.023 430.04 825.458 429.86 825.779 429.539C826.1 429.218 826.28 428.784 826.28 428.33C826.288 428.264 826.288 428.196 826.28 428.13L820.35 427.92Z" fill="black"/>
<path opacity="0.1" d="M812.77 427.65C812.68 427.862 812.632 428.09 812.63 428.32C812.633 428.773 812.813 429.206 813.134 429.526C813.454 429.846 813.887 430.027 814.34 430.03H816.9C817.124 430.03 817.347 429.986 817.554 429.9C817.762 429.814 817.95 429.688 818.109 429.529C818.268 429.37 818.394 429.182 818.48 428.974C818.566 428.767 818.61 428.545 818.61 428.32C818.609 428.161 818.585 428.003 818.54 427.85L812.77 427.65Z" fill="black"/>
<path opacity="0.1" d="M806.06 427.42C805.892 427.69 805.802 428.002 805.8 428.32C805.803 428.773 805.984 429.206 806.304 429.526C806.624 429.846 807.057 430.027 807.51 430.03H810.07C810.524 430.03 810.958 429.85 811.279 429.529C811.6 429.208 811.78 428.774 811.78 428.32C811.784 428.075 811.733 427.832 811.63 427.61L806.06 427.42Z" fill="black"/>
<path opacity="0.1" d="M798.13 428.33C798.133 428.783 798.313 429.216 798.634 429.536C798.954 429.856 799.387 430.037 799.84 430.04H802.4C802.712 430.04 803.019 429.954 803.286 429.792C803.553 429.629 803.771 429.397 803.915 429.119C804.06 428.842 804.125 428.531 804.105 428.219C804.085 427.907 803.979 427.606 803.8 427.35L798.6 427.17C798.297 427.48 798.128 427.897 798.13 428.33Z" fill="black"/>
<path d="M782.79 435.15H832.24V432.9C832.241 431.901 831.853 430.941 831.159 430.223C830.465 429.504 829.518 429.084 828.52 429.05L788.86 427.68C788.072 427.653 787.287 427.785 786.551 428.068C785.815 428.351 785.143 428.779 784.576 429.326C784.009 429.874 783.557 430.53 783.249 431.256C782.94 431.981 782.781 432.762 782.78 433.55L782.79 435.15Z" fill="#D6D6E3"/>
<path d="M989.77 462.26C1012.84 423.13 1004.48 344.2 1005.41 342.69C1006.24 341.36 1003.06 304.19 981.86 295.11C978.03 287.52 974.26 278.97 974.26 278.97C973.889 279.318 973.48 279.624 973.04 279.88C972.873 279.427 972.71 278.967 972.55 278.5C972.28 277.71 972.03 276.9 971.78 276.09C972.374 276.279 972.978 276.433 973.59 276.55C975.207 276.945 976.908 276.793 978.43 276.12C978.949 275.842 979.418 275.48 979.82 275.05C981.49 273.94 982.41 271.94 983.19 270.05L989.36 255.27C992.14 248.6 994.94 241.89 996.42 234.82C998.622 224.181 997.769 213.135 993.96 202.96C992.5 199.08 990.48 195.2 987.05 192.88C980.18 188.22 970.62 191.44 962.77 188.71C960.19 187.81 957.86 186.29 955.28 185.37C949.71 183.37 943.42 184.44 938.06 186.93C932.7 189.42 928.36 193.38 923.67 196.93C921.36 198.7 917.67 200.53 914.95 202.93C912.31 204.99 910.28 207.48 910.67 210.76C911.11 214.51 915.06 216.76 918.74 217.64C919.35 217.78 919.98 217.89 920.6 218C916.232 222.425 913.085 227.905 911.465 233.908C909.844 239.91 909.806 246.23 911.354 252.252C912.901 258.273 915.982 263.792 920.296 268.269C924.61 272.746 930.01 276.03 935.97 277.8C937.847 281.324 939.471 284.976 940.83 288.73C941.01 289.243 941.187 289.76 941.36 290.28C935.3 292 930.56 293.43 929.61 294.22C926.74 296.6 932.75 317.44 932.75 317.44C931.22 319.38 929.66 321.59 928.08 323.96C916.098 342.159 908.512 362.895 905.92 384.53C904.92 392.44 903.62 400.53 901.97 408.22L830.3 393.85L830.15 395.62L828.44 395.2L823.06 393.87L822.85 395.08L822.03 394.69C808.7 388.44 786.24 380.46 771.03 388.69C754.98 397.33 789.62 408.81 811.85 414.92C804.48 415.28 797.43 417.05 791.85 421.19C775.73 433.27 821.32 439.56 842.85 441.79L843.72 441.88V442.34L851.18 443.03L852.93 443.19L853.1 445.85C853.1 445.85 863.78 447.6 878.05 449.72C861.76 453.79 841.63 456.61 827.65 458.26C812.83 460 800.21 470.32 796.23 484.71C794.944 488.836 794.819 493.237 795.87 497.43C800.03 511.96 794.95 618.85 793.8 641.87L767.45 657.04C767.45 657.04 726.45 662.04 753.76 671.65C756.221 672.49 758.737 673.158 761.29 673.65C757.69 675.97 758 679 768.61 682.72C795.94 692.3 859.47 682.3 859.47 682.3C859.47 682.3 858.08 671.04 855.82 661.68L856.52 661.74C856.52 661.74 849.96 637.33 859.91 625.02C869.86 612.71 858.24 519.02 858.24 519.02C858.24 519.02 875.66 511.81 927.73 511.34C969.73 522.12 990.2 483.53 989.91 463.58C989.82 463.13 989.8 462.67 989.77 462.26Z" fill="url(#paint0_linear)"/>
<path d="M834.55 401.62L830.1 419.62C830.1 419.62 826.1 418.72 820.1 417.18C799.78 411.92 756.92 399.29 774.1 390.02C788.91 382.02 810.72 389.8 823.67 395.87C828.41 398.1 831.97 400.1 833.56 401.04C834.23 401.42 834.55 401.62 834.55 401.62Z" fill="#F8B9BF"/>
<path opacity="0.1" d="M833.3 406.7L830.1 419.7C830.1 419.7 826.1 418.8 820.1 417.26L823.71 395.95C828.45 398.18 832.01 400.18 833.6 401.12L833.3 406.7Z" fill="black"/>
<path d="M833.31 420.93L820.89 417.86L824.75 395.1L834.68 397.55L833.31 420.93Z" fill="#D9DFE8"/>
<path opacity="0.1" d="M833.31 420.93L827.95 419.61L829.97 396.39L834.68 397.55L833.31 420.93Z" fill="black"/>
<path d="M953.15 326.66C953.15 326.66 929.3 312.88 918.7 352.41C908.1 391.94 907.1 410.15 907.1 410.15L831.78 395.09L829.39 422.6C829.39 422.6 909.92 448.6 920.05 446.71C930.18 444.82 963.05 389.71 963.05 389.71C963.05 389.71 992.93 347 953.15 326.66Z" fill="#092034"/>
<g opacity="0.1">
<path opacity="0.1" d="M834.55 401.62L830.1 419.62C830.1 419.62 826.1 418.72 820.1 417.18C799.78 411.92 756.92 399.29 774.1 390.02C788.91 382.02 810.72 389.8 823.67 395.87C828.41 398.1 831.97 400.1 833.56 401.04C834.23 401.42 834.55 401.62 834.55 401.62Z" fill="black"/>
<path opacity="0.1" d="M833.3 406.7L830.1 419.7C830.1 419.7 826.1 418.8 820.1 417.26L823.71 395.95C828.45 398.18 832.01 400.18 833.6 401.12L833.3 406.7Z" fill="black"/>
<path opacity="0.1" d="M833.31 420.93L820.89 417.86L824.75 395.1L834.68 397.55L833.31 420.93Z" fill="black"/>
<path opacity="0.1" d="M833.31 420.93L827.95 419.61L829.97 396.39L834.68 397.55L833.31 420.93Z" fill="black"/>
<path opacity="0.1" d="M953.15 327.66C953.15 327.66 929.3 313.88 918.7 353.41C908.1 392.94 907.1 411.15 907.1 411.15L831.78 396.09L829.39 423.6C829.39 423.6 909.92 449.6 920.05 447.71C930.18 445.82 963.05 390.71 963.05 390.71C963.05 390.71 992.93 348 953.15 327.66Z" fill="black"/>
</g>
<path d="M801.45 632.96L770.7 650.67C770.7 650.67 730.86 655.55 757.4 664.85C783.94 674.15 845.64 664.44 845.64 664.44C845.64 664.44 842.21 636.72 837.43 632.85C832.65 628.98 801.45 632.96 801.45 632.96Z" fill="#68739D"/>
<path d="M921.3 434.26C921.3 434.26 906 442.26 878.82 449.17C862.89 453.17 842.95 456.01 829.17 457.63C822.116 458.398 815.449 461.244 810.015 465.807C804.581 470.37 800.626 476.445 798.65 483.26C797.392 487.282 797.271 491.574 798.3 495.66C802.83 511.49 796.07 640.17 796.07 640.17L842.77 644.49C842.77 644.49 836.4 620.78 846.07 608.83C855.74 596.88 844.45 505.92 844.45 505.92C844.45 505.92 861.37 498.92 911.93 498.46C958.77 510.46 978.07 459.19 970.84 444.82C963.61 430.45 921.3 434.26 921.3 434.26Z" fill="#6394E2"/>
<g opacity="0.1">
<path opacity="0.1" d="M801.45 632.96L770.7 650.67C770.7 650.67 730.86 655.55 757.4 664.85C783.94 674.15 845.64 664.44 845.64 664.44C845.64 664.44 842.21 636.72 837.43 632.85C832.65 628.98 801.45 632.96 801.45 632.96Z" fill="black"/>
<path opacity="0.1" d="M921.3 434.26C921.3 434.26 906 442.26 878.82 449.17C862.89 453.17 842.95 456.01 829.17 457.63C822.116 458.398 815.449 461.244 810.015 465.807C804.581 470.37 800.625 476.445 798.65 483.26C797.391 487.282 797.27 491.574 798.3 495.66C802.83 511.49 796.07 640.17 796.07 640.17L842.77 644.49C842.77 644.49 836.4 620.78 846.07 608.83C855.74 596.88 844.45 505.92 844.45 505.92C844.45 505.92 861.37 498.92 911.93 498.46C958.77 510.46 978.07 459.19 970.84 444.82C963.61 430.45 921.3 434.26 921.3 434.26Z" fill="black"/>
</g>
<path d="M815.87 643.71L785.12 661.42C785.12 661.42 745.3 666.26 771.82 675.6C798.34 684.94 860.06 675.19 860.06 675.19C860.06 675.19 856.63 647.47 851.85 643.6C847.07 639.73 815.87 643.71 815.87 643.71Z" fill="#68739D"/>
<path d="M926.3 509.21C875.74 509.67 858.82 516.67 858.82 516.67C858.82 516.67 870.11 607.67 860.44 619.58C850.77 631.49 857.14 655.24 857.14 655.24L810.44 650.92C810.44 650.92 810.52 649.4 810.65 646.68C811.77 624.32 816.7 520.52 812.65 506.41C811.628 502.336 811.749 498.059 813 494.05C814.966 487.226 818.916 481.14 824.349 476.566C829.781 471.991 836.451 469.135 843.51 468.36C857.28 466.75 877.22 463.95 893.15 459.9L893.93 459.7C920.63 452.84 935.63 444.99 935.63 444.99C935.63 444.99 977.94 441.19 985.17 455.56C986.19 457.839 986.695 460.314 986.65 462.81C987.01 482.2 967.11 519.68 926.3 509.21Z" fill="#6394E2"/>
<path d="M855.87 424.05L854.16 442.55C854.16 442.55 850.05 442.26 843.94 441.62C823.07 439.45 778.8 433.35 794.45 421.62C807.91 411.54 830.63 415.94 844.34 420.02C849.34 421.52 853.18 422.97 854.89 423.66C855.52 423.9 855.87 424.05 855.87 424.05Z" fill="#F8B9BF"/>
<path d="M980.08 303.1C980.08 303.1 973.82 308 966.17 313.38C957.78 315.28 948.04 316.85 941.02 317.87C943.53 309.87 942.02 300.87 939.19 292.98C936.112 284.735 931.887 276.966 926.64 269.9L968.96 256.69C965.64 265.1 967.14 274.69 969.96 283.03C972.45 290.13 975.852 296.877 980.08 303.1V303.1Z" fill="#F8B9BF"/>
<path opacity="0.1" d="M855.39 429.26L854.16 442.55C854.16 442.55 850.05 442.26 843.94 441.62L844.34 420.01C849.34 421.51 853.18 422.96 854.89 423.65L855.39 429.26Z" fill="black"/>
<path d="M857.52 443.33L844.78 442.15L845.2 419.07L855.39 420.01L857.52 443.33Z" fill="#D9DFE8"/>
<path opacity="0.1" d="M980.08 303.1C980.08 303.1 973.82 308 966.17 313.38C957.78 315.28 948.04 316.85 941.02 317.87C943.53 309.87 942.02 300.87 939.19 292.98C949.53 289.98 964.32 286.1 969.97 282.98C972.453 290.097 975.851 296.86 980.08 303.1V303.1Z" fill="black"/>
<path d="M971.62 283.48C971.62 283.48 978.7 299.55 983.16 306.81C987.62 314.07 931.34 320.81 931.34 320.81C931.34 320.81 925.5 300.58 928.29 298.26C931.08 295.94 966.91 288.18 971.62 283.48Z" fill="#D9DFE8"/>
<path opacity="0.1" d="M986.73 462.82C984.362 466.996 981.413 470.814 977.97 474.16C953.11 497.78 912.36 473.16 893.97 459.7C920.67 452.84 935.67 444.99 935.67 444.99C935.67 444.99 977.98 441.19 985.21 455.56C986.245 457.839 986.764 460.318 986.73 462.82Z" fill="black"/>
<path d="M978.13 472.47C949.87 499.31 901.13 463.77 887.99 453.3C885.86 451.6 884.67 450.55 884.67 450.55C889.86 445.69 894.42 435.39 898.03 422.79C901.394 410.735 903.825 398.439 905.3 386.01C907.816 364.997 915.183 344.857 926.82 327.18C928.35 324.88 929.82 322.73 931.35 320.85C942.02 307.28 959.95 298.66 959.95 298.66C997.79 287.6 1002.88 343.73 1001.87 345.35C1000.86 346.97 1010.98 441.26 978.13 472.47Z" fill="#092034"/>
<path opacity="0.1" d="M981.79 395.74C981.79 395.74 957.46 455.14 947.73 458.53C942.16 460.46 912.41 456.8 887.99 453.31C885.86 451.61 884.67 450.56 884.67 450.56C889.86 445.7 894.42 435.4 898.03 422.8L929.48 424.3C929.48 424.3 927.73 406.16 932.35 365.48C936.97 324.8 962.58 334.88 962.58 334.88C1004.95 349.07 981.79 395.74 981.79 395.74Z" fill="black"/>
<path opacity="0.1" d="M857.52 443.33L852.02 442.82L850.56 419.57L855.39 420.01L857.52 443.33Z" fill="black"/>
<path d="M961.97 332.26C961.97 332.26 936.36 322.19 931.74 362.86C927.12 403.53 928.87 421.68 928.87 421.68L852.14 418.01L853.87 445.57C853.87 445.57 937.38 459.28 947.11 455.9C956.84 452.52 981.17 393.11 981.17 393.11C981.17 393.11 1004.3 346.44 961.97 332.26Z" fill="#092034"/>
<path opacity="0.1" d="M963.69 272.04C962.57 265.96 968.92 266.04 971.2 260.32L928.88 273.53C931.817 277.474 934.439 281.643 936.72 286C938.915 286.652 941.17 287.087 943.45 287.3C953.54 288.26 956.69 278.33 963.69 272.04Z" fill="black"/>
<path d="M979.208 252.057C980.985 232.831 966.839 215.805 947.613 214.029C928.387 212.252 911.361 226.397 909.585 245.623C907.808 264.849 921.953 281.875 941.179 283.652C960.405 285.429 977.431 271.283 979.208 252.057Z" fill="#F8B9BF"/>
<path opacity="0.1" d="M909.9 217.26C910.33 220.9 914.17 223.12 917.74 223.94C921.31 224.76 925.18 224.8 928.31 226.71C933.31 229.79 934.66 236.63 934.03 242.51C933.68 245.83 933.18 249.9 935.9 251.83C936.754 252.353 937.708 252.694 938.7 252.83C941.537 253.404 944.45 253.506 947.32 253.13C949 252.91 950.73 252.53 952.32 253C954.94 253.76 956.49 256.52 957 259.19C957.51 261.86 957.23 264.64 957.64 267.33C958.211 270.698 959.79 273.814 962.168 276.267C964.546 278.72 967.611 280.394 970.96 281.07C972.53 281.452 974.183 281.304 975.66 280.65C977.56 279.65 978.53 277.52 979.35 275.53L985.35 261.17C988.05 254.7 990.77 248.17 992.21 241.31C994.348 230.978 993.52 220.251 989.82 210.37C988.4 206.61 986.44 202.84 983.11 200.58C976.44 196.05 967.11 199.18 959.53 196.58C957.02 195.71 954.76 194.23 952.26 193.34C946.85 191.41 940.74 192.43 935.53 194.86C930.32 197.29 926.11 201.12 921.53 204.61C917.56 207.7 909.15 210.97 909.9 217.26Z" fill="black"/>
<path d="M910.82 216.49C911.25 220.13 915.09 222.35 918.66 223.17C922.23 223.99 926.1 224.03 929.23 225.94C934.23 229.02 935.58 235.86 934.95 241.74C934.6 245.06 934.1 249.13 936.82 251.06C937.674 251.583 938.628 251.924 939.62 252.06C942.457 252.634 945.37 252.736 948.24 252.36C949.92 252.14 951.65 251.76 953.24 252.23C955.86 252.99 957.41 255.75 957.92 258.42C958.43 261.09 958.15 263.87 958.56 266.56C959.131 269.928 960.71 273.044 963.088 275.497C965.466 277.95 968.531 279.624 971.88 280.3C973.45 280.682 975.102 280.534 976.58 279.88C978.48 278.88 979.45 276.75 980.27 274.76L986.27 260.4C988.97 253.93 991.69 247.4 993.13 240.54C995.268 230.208 994.44 219.481 990.74 209.6C989.32 205.84 987.36 202.07 984.03 199.81C977.36 195.28 968.03 198.41 960.45 195.81C957.94 194.94 955.68 193.46 953.18 192.57C947.77 190.64 941.66 191.66 936.45 194.09C931.24 196.52 927.03 200.35 922.45 203.84C918.49 206.93 910.08 210.2 910.82 216.49Z" fill="#B96B6B"/>
<path opacity="0.1" d="M939.78 354.6C939.78 354.6 926.43 406.46 913.14 411.26C899.85 416.06 905.72 417.42 905.72 417.42" fill="black"/>
<path d="M940.41 544.58H925.9V639.95H940.41V544.58Z" fill="#D6D6E3"/>
<path opacity="0.1" d="M940.41 544.58H925.9V551.65H940.41V544.58Z" fill="black"/>
<path d="M896.87 544.08V546.08C896.87 546.696 896.991 547.306 897.227 547.875C897.463 548.444 897.808 548.961 898.244 549.396C898.679 549.832 899.196 550.177 899.765 550.413C900.334 550.649 900.944 550.77 901.56 550.77H964.74C965.356 550.77 965.966 550.649 966.535 550.413C967.104 550.177 967.621 549.832 968.056 549.396C968.492 548.961 968.837 548.444 969.073 547.875C969.309 547.306 969.43 546.696 969.43 546.08V544.08C969.43 543.464 969.309 542.854 969.073 542.285C968.837 541.716 968.492 541.199 968.056 540.764C967.621 540.328 967.104 539.983 966.535 539.747C965.966 539.511 965.356 539.39 964.74 539.39H901.56C900.944 539.39 900.334 539.511 899.765 539.747C899.196 539.983 898.679 540.328 898.244 540.764C897.808 541.199 897.463 541.716 897.227 542.285C896.991 542.854 896.87 543.464 896.87 544.08V544.08Z" fill="#D6D6E3"/>
<path opacity="0.1" d="M897.95 541.1H968.36C967.921 540.564 967.369 540.133 966.742 539.837C966.116 539.542 965.432 539.389 964.74 539.39H901.56C900.869 539.39 900.187 539.544 899.563 539.84C898.939 540.135 898.388 540.566 897.95 541.1V541.1Z" fill="black"/>
<path d="M987.27 634.76H879.06C876.022 634.76 873.56 637.222 873.56 640.26V640.66C873.56 643.698 876.022 646.16 879.06 646.16H987.27C990.308 646.16 992.77 643.698 992.77 640.66V640.26C992.77 637.222 990.308 634.76 987.27 634.76Z" fill="#D6D6E3"/>
<path d="M986.03 660.68C990.04 660.68 993.29 657.43 993.29 653.42C993.29 649.41 990.04 646.16 986.03 646.16C982.02 646.16 978.77 649.41 978.77 653.42C978.77 657.43 982.02 660.68 986.03 660.68Z" fill="#535461"/>
<path d="M880.29 660.68C884.3 660.68 887.55 657.43 887.55 653.42C887.55 649.41 884.3 646.16 880.29 646.16C876.28 646.16 873.03 649.41 873.03 653.42C873.03 657.43 876.28 660.68 880.29 660.68Z" fill="#535461"/>
<path d="M933.16 660.68C937.169 660.68 940.42 657.43 940.42 653.42C940.42 649.41 937.169 646.16 933.16 646.16C929.15 646.16 925.9 649.41 925.9 653.42C925.9 657.43 929.15 660.68 933.16 660.68Z" fill="#535461"/>
<path d="M1023.27 427.44H926.24C921.546 427.44 917.74 431.246 917.74 435.94V436.56C917.74 441.254 921.546 445.06 926.24 445.06H1023.27C1027.96 445.06 1031.77 441.254 1031.77 436.56V435.94C1031.77 431.246 1027.96 427.44 1023.27 427.44Z" fill="#D6D6E3"/>
<path opacity="0.1" d="M940.41 634.76C940.41 634.76 934.71 640.39 925.9 634.76Z" fill="black"/>
<path opacity="0.1" d="M1031.77 436.43V437.82C1031.77 439.743 1031.01 441.587 1029.65 442.947C1028.29 444.306 1026.44 445.07 1024.52 445.07H924.99C923.067 445.07 921.223 444.306 919.863 442.947C918.504 441.587 917.74 439.743 917.74 437.82V436.43H1031.77Z" fill="black"/>
<path d="M842.05 452.63H822.44V702.49H842.05V452.63Z" fill="#D6D6E3"/>
<path opacity="0.1" d="M842.05 452.63H822.44V468.83H842.05V452.63Z" fill="black"/>
<path d="M247.45 551.4H232.94V646.77H247.45V551.4Z" fill="#D6D6E3"/>
<path opacity="0.1" d="M247.45 551.4H232.94V558.47H247.45V551.4Z" fill="black"/>
<path d="M276.47 550.91V552.91C276.47 554.154 275.976 555.347 275.096 556.226C274.217 557.106 273.024 557.6 271.78 557.6H208.6C207.356 557.6 206.163 557.106 205.284 556.226C204.404 555.347 203.91 554.154 203.91 552.91V550.91C203.92 549.673 204.419 548.49 205.298 547.62C206.176 546.749 207.363 546.26 208.6 546.26H271.78C272.396 546.26 273.006 546.381 273.575 546.617C274.144 546.853 274.661 547.198 275.096 547.634C275.532 548.069 275.877 548.586 276.113 549.155C276.349 549.724 276.47 550.334 276.47 550.95V550.91Z" fill="#D6D6E3"/>
<path opacity="0.1" d="M275.4 547.92H204.98C205.424 547.394 205.978 546.972 206.604 546.685C207.23 546.398 207.912 546.253 208.6 546.26H271.78C272.468 546.253 273.15 546.398 273.776 546.685C274.402 546.972 274.956 547.394 275.4 547.92V547.92Z" fill="black"/>
<path d="M294.3 641.58H186.09C183.053 641.58 180.59 644.042 180.59 647.08V647.48C180.59 650.518 183.053 652.98 186.09 652.98H294.3C297.338 652.98 299.8 650.518 299.8 647.48V647.08C299.8 644.042 297.338 641.58 294.3 641.58Z" fill="#D6D6E3"/>
<path d="M187.33 667.5C191.34 667.5 194.59 664.25 194.59 660.24C194.59 656.23 191.34 652.98 187.33 652.98C183.32 652.98 180.07 656.23 180.07 660.24C180.07 664.25 183.32 667.5 187.33 667.5Z" fill="#535461"/>
<path d="M293.06 667.5C297.07 667.5 300.32 664.25 300.32 660.24C300.32 656.23 297.07 652.98 293.06 652.98C289.05 652.98 285.8 656.23 285.8 660.24C285.8 664.25 289.05 667.5 293.06 667.5Z" fill="#535461"/>
<path d="M240.19 667.5C244.2 667.5 247.45 664.25 247.45 660.24C247.45 656.23 244.2 652.98 240.19 652.98C236.18 652.98 232.93 656.23 232.93 660.24C232.93 664.25 236.18 667.5 240.19 667.5Z" fill="#535461"/>
<path opacity="0.1" d="M232.94 641.58C232.94 641.58 238.64 647.21 247.45 641.58Z" fill="black"/>
<path d="M603.11 354.48C603.11 354.48 586.83 324.89 592.78 299.17C595.343 288.398 594.343 277.085 589.93 266.93C587.811 262.127 585.257 257.528 582.3 253.19" stroke="#535461" stroke-width="2" stroke-miterlimit="10"/>
<path d="M585.91 236.95C586.76 240.83 582.21 253.62 582.21 253.62C582.21 253.62 572.72 243.92 571.86 240.04C571.572 239.092 571.484 238.094 571.6 237.11C571.716 236.126 572.034 235.176 572.535 234.321C573.035 233.465 573.707 232.723 574.509 232.139C575.31 231.556 576.223 231.145 577.191 230.931C578.158 230.717 579.16 230.706 580.132 230.898C581.105 231.09 582.027 231.481 582.841 232.046C583.655 232.611 584.343 233.339 584.863 234.182C585.382 235.026 585.722 235.969 585.86 236.95H585.91Z" fill="#092034"/>
<path d="M602.24 255.88C600.85 259.6 590.08 267.88 590.08 267.88C590.08 267.88 587.38 254.58 588.78 250.88C589.08 249.959 589.563 249.108 590.2 248.378C590.837 247.648 591.615 247.054 592.487 246.632C593.36 246.21 594.308 245.969 595.276 245.923C596.244 245.877 597.211 246.028 598.119 246.365C599.027 246.702 599.858 247.219 600.562 247.885C601.265 248.552 601.827 249.353 602.212 250.242C602.598 251.131 602.8 252.088 602.807 253.057C602.813 254.026 602.624 254.986 602.25 255.88H602.24Z" fill="#092034"/>
<path d="M609.8 292.7C606.72 295.21 593.25 296.9 593.25 296.9C593.25 296.9 597.64 284.06 600.72 281.55C601.451 280.944 602.295 280.489 603.203 280.211C604.11 279.933 605.064 279.837 606.009 279.93C606.954 280.023 607.871 280.301 608.708 280.75C609.545 281.199 610.284 281.809 610.883 282.546C611.483 283.282 611.931 284.129 612.201 285.04C612.471 285.95 612.558 286.904 612.458 287.849C612.357 288.793 612.07 289.707 611.614 290.54C611.158 291.373 610.541 292.107 609.8 292.7V292.7Z" fill="#092034"/>
<path d="M609.25 321.84C606.64 324.84 593.65 328.78 593.65 328.78C593.65 328.78 595.8 315.38 598.41 312.39C599.02 311.646 599.774 311.031 600.626 310.584C601.479 310.136 602.412 309.864 603.372 309.784C604.331 309.704 605.297 309.818 606.211 310.118C607.126 310.418 607.971 310.899 608.697 311.532C609.422 312.165 610.013 312.937 610.434 313.803C610.855 314.668 611.099 315.61 611.149 316.571C611.2 317.532 611.057 318.494 610.729 319.399C610.401 320.304 609.895 321.134 609.24 321.84H609.25Z" fill="#092034"/>
<path d="M575.5 271.85C578.88 273.94 592.45 273.85 592.45 273.85C592.45 273.85 586.45 261.68 583.07 259.59C582.267 259.062 581.367 258.701 580.422 258.527C579.478 258.353 578.508 258.37 577.57 258.577C576.632 258.784 575.745 259.177 574.961 259.732C574.178 260.288 573.513 260.995 573.007 261.811C572.502 262.628 572.164 263.538 572.016 264.487C571.868 265.436 571.911 266.405 572.143 267.337C572.376 268.269 572.792 269.145 573.369 269.913C573.945 270.681 574.67 271.326 575.5 271.81V271.85Z" fill="#092034"/>
<path d="M575.3 305.95C579.15 306.95 592.08 302.83 592.08 302.83C592.08 302.83 582.71 293.01 578.86 292.03C577.045 291.644 575.15 291.975 573.573 292.954C571.996 293.932 570.858 295.483 570.399 297.281C569.939 299.079 570.192 300.986 571.106 302.602C572.019 304.217 573.522 305.417 575.3 305.95V305.95Z" fill="#092034"/>
<path d="M579.63 339.11C583.25 340.73 596.7 338.87 596.7 338.87C596.7 338.87 589.12 327.61 585.5 325.99C583.759 325.212 581.78 325.157 579.998 325.837C578.217 326.518 576.778 327.879 576 329.62C575.222 331.361 575.167 333.34 575.847 335.122C576.528 336.903 577.889 338.342 579.63 339.12V339.11Z" fill="#092034"/>
<path d="M585.91 236.95C586.76 240.83 582.21 253.62 582.21 253.62C582.21 253.62 572.72 243.92 571.86 240.04C571.572 239.092 571.484 238.094 571.6 237.11C571.716 236.126 572.034 235.176 572.535 234.321C573.035 233.465 573.707 232.723 574.509 232.139C575.31 231.556 576.223 231.145 577.191 230.931C578.158 230.717 579.16 230.706 580.132 230.898C581.105 231.09 582.027 231.481 582.841 232.046C583.655 232.611 584.343 233.339 584.863 234.182C585.382 235.026 585.722 235.969 585.86 236.95H585.91Z" fill="#092034"/>
<path d="M602.24 255.88C600.85 259.6 590.08 267.88 590.08 267.88C590.08 267.88 587.38 254.58 588.78 250.88C589.08 249.959 589.563 249.108 590.2 248.378C590.837 247.648 591.615 247.054 592.487 246.632C593.36 246.21 594.308 245.969 595.276 245.923C596.244 245.877 597.211 246.028 598.119 246.365C599.027 246.702 599.858 247.219 600.562 247.885C601.265 248.552 601.827 249.353 602.212 250.242C602.598 251.131 602.8 252.088 602.807 253.057C602.813 254.026 602.624 254.986 602.25 255.88H602.24Z" fill="#092034"/>
<path d="M609.8 292.7C606.72 295.21 593.25 296.9 593.25 296.9C593.25 296.9 597.64 284.06 600.72 281.55C601.451 280.944 602.295 280.489 603.203 280.211C604.11 279.933 605.064 279.837 606.009 279.93C606.954 280.023 607.871 280.301 608.708 280.75C609.545 281.199 610.284 281.809 610.883 282.546C611.483 283.282 611.931 284.129 612.201 285.04C612.471 285.95 612.558 286.904 612.458 287.849C612.357 288.793 612.07 289.707 611.614 290.54C611.158 291.373 610.541 292.107 609.8 292.7V292.7Z" fill="#092034"/>
<path d="M609.25 321.84C606.64 324.84 593.65 328.78 593.65 328.78C593.65 328.78 595.8 315.38 598.41 312.39C599.02 311.646 599.774 311.031 600.626 310.584C601.479 310.136 602.412 309.864 603.372 309.784C604.331 309.704 605.297 309.818 606.211 310.118C607.126 310.418 607.971 310.899 608.697 311.532C609.422 312.165 610.013 312.937 610.434 313.803C610.855 314.668 611.099 315.61 611.149 316.571C611.2 317.532 611.057 318.494 610.729 319.399C610.401 320.304 609.895 321.134 609.24 321.84H609.25Z" fill="#092034"/>
<path d="M575.5 271.85C578.88 273.94 592.45 273.85 592.45 273.85C592.45 273.85 586.45 261.68 583.07 259.59C582.267 259.062 581.367 258.701 580.422 258.527C579.478 258.353 578.508 258.37 577.57 258.577C576.632 258.784 575.745 259.177 574.961 259.732C574.178 260.288 573.513 260.995 573.007 261.811C572.502 262.628 572.164 263.538 572.016 264.487C571.868 265.436 571.911 266.405 572.143 267.337C572.376 268.269 572.792 269.145 573.369 269.913C573.945 270.681 574.67 271.326 575.5 271.81V271.85Z" fill="#092034"/>
<path d="M575.3 305.95C579.15 306.95 592.08 302.83 592.08 302.83C592.08 302.83 582.71 293.01 578.86 292.03C577.045 291.644 575.15 291.975 573.573 292.954C571.996 293.932 570.858 295.483 570.399 297.281C569.939 299.079 570.192 300.986 571.106 302.602C572.019 304.217 573.522 305.417 575.3 305.95V305.95Z" fill="#092034"/>
<path d="M579.63 339.11C583.25 340.73 596.7 338.87 596.7 338.87C596.7 338.87 589.12 327.61 585.5 325.99C583.759 325.212 581.78 325.157 579.998 325.837C578.217 326.518 576.778 327.879 576 329.62C575.222 331.361 575.167 333.34 575.847 335.122C576.528 336.903 577.889 338.342 579.63 339.12V339.11Z" fill="#092034"/>
<path d="M596.49 436.55C594.148 436.551 591.83 436.071 589.681 435.141C587.531 434.211 585.595 432.851 583.992 431.143C582.388 429.436 581.152 427.418 580.359 425.214C579.565 423.01 579.232 420.668 579.38 418.33L584.17 342.43H608.81L613.6 418.33C613.748 420.668 613.414 423.01 612.621 425.214C611.828 427.418 610.592 429.436 608.988 431.143C607.385 432.851 605.449 434.211 603.299 435.141C601.15 436.071 598.832 436.551 596.49 436.55Z" fill="#092034"/>
<path opacity="0.1" d="M97.6001 63.42H83.6001V121.42H97.6001V63.42Z" fill="#092034"/>
<path opacity="0.1" d="M115.6 63.42H101.6V121.42H115.6V63.42Z" fill="#092034"/>
<path opacity="0.1" d="M133.6 63.42H119.6V121.42H133.6V63.42Z" fill="#092034"/>
<path opacity="0.1" d="M151.6 63.42H137.6V121.42H151.6V63.42Z" fill="#092034"/>
<path opacity="0.1" d="M187.6 63.42H173.6V121.42H187.6V63.42Z" fill="#092034"/>
<path opacity="0.1" d="M205.6 63.42H191.6V121.42H205.6V63.42Z" fill="#092034"/>
<path opacity="0.1" d="M97.6001 74.42H83.6001V77.42H97.6001V74.42Z" fill="#092034"/>
<path opacity="0.1" d="M97.6001 110.42H83.6001V113.42H97.6001V110.42Z" fill="#092034"/>
<path opacity="0.1" d="M115.6 74.42H101.6V77.42H115.6V74.42Z" fill="#092034"/>
<path opacity="0.1" d="M115.6 110.42H101.6V113.42H115.6V110.42Z" fill="#092034"/>
<path opacity="0.1" d="M133.6 74.42H119.6V77.42H133.6V74.42Z" fill="#092034"/>
<path opacity="0.1" d="M133.6 110.42H119.6V113.42H133.6V110.42Z" fill="#092034"/>
<path opacity="0.1" d="M151.6 74.42H137.6V77.42H151.6V74.42Z" fill="#092034"/>
<path opacity="0.1" d="M151.6 110.42H137.6V113.42H151.6V110.42Z" fill="#092034"/>
<path opacity="0.1" d="M169.6 74.42H155.6V77.42H169.6V74.42Z" fill="#092034"/>
<path opacity="0.1" d="M169.6 110.42H155.6V113.42H169.6V110.42Z" fill="#092034"/>
<path opacity="0.1" d="M187.6 74.42H173.6V77.42H187.6V74.42Z" fill="#092034"/>
<path opacity="0.1" d="M187.6 110.42H173.6V113.42H187.6V110.42Z" fill="#092034"/>
<path opacity="0.1" d="M205.6 74.42H191.6V77.42H205.6V74.42Z" fill="#092034"/>
<path opacity="0.1" d="M205.6 110.42H191.6V113.42H205.6V110.42Z" fill="#092034"/>
<path opacity="0.1" d="M169.6 63.42H155.6V121.42H169.6V63.42Z" fill="#092034"/>
<path opacity="0.1" d="M218.766 63.1538L206.061 69.035L230.426 121.669L243.131 115.788L218.766 63.1538Z" fill="#092034"/>
<path opacity="0.1" d="M223.391 73.1458L210.686 79.027L211.946 81.7495L224.651 75.8683L223.391 73.1458Z" fill="#092034"/>
<path opacity="0.1" d="M238.506 105.812L225.801 111.693L227.061 114.415L239.766 108.534L238.506 105.812Z" fill="#092034"/>
<path d="M389.14 661.47L363.73 645.26C363.6 622.43 363.24 516.44 367.99 502.26C369.215 498.155 369.284 493.792 368.19 489.65C364.89 475.24 352.85 464.48 338.26 462.11C324.5 459.87 304.7 456.2 288.76 451.46C302.97 449.99 313.62 448.72 313.62 448.72L313.9 446.09L323.05 445.65V445.26L323.92 445.21C345.29 443.94 390.67 439.71 375.25 427.05C369.96 422.71 363.06 420.66 355.78 419.97C378.04 414.89 412.83 405.05 397.32 395.8C382.58 387.02 360.01 393.92 346.54 399.53L345.71 399.88L345.56 398.67L340.18 399.75L338.47 400.09L338.39 398.33L262.9 409.99C262.308 401.34 261.28 392.726 259.82 384.18C261.51 372.92 269.37 356.5 266.6 347.69C263.38 337.46 250.16 334.11 244.6 324.87C243.14 322.46 241.69 320.2 240.27 318.22C237.162 313.997 233.59 310.136 229.62 306.71C229.86 300.769 231.189 294.922 233.54 289.46C235.047 285.806 236.812 282.264 238.82 278.86C247.619 276.677 255.254 271.22 260.167 263.601C265.08 255.982 266.902 246.776 265.26 237.86C270.04 239.91 275.85 240.12 278.84 236.12L277.42 235.57C277.56 235.42 277.7 235.27 277.82 235.1C274.91 233.99 271.82 232.73 269.54 230.71C268.963 230.061 268.475 229.338 268.09 228.56C266.71 225.76 266.87 222.4 265.55 219.56C264.929 218.267 264.047 217.116 262.96 216.18C260.644 213.812 257.715 212.136 254.5 211.34C250.89 210.29 247.09 209.76 243.63 208.34C238.914 202.864 232.689 198.901 225.733 196.944C218.777 194.988 211.398 195.125 204.52 197.34L203.27 197.77C204.138 193.585 203.328 189.226 201.015 185.631C198.702 182.037 195.07 179.494 190.9 178.55C186.731 177.607 182.358 178.337 178.723 180.585C175.087 182.833 172.479 186.419 171.46 190.57C171.777 186.926 173.313 183.494 175.82 180.83C175.56 181.05 175.29 181.26 175.04 181.49C173.478 182.958 172.221 184.719 171.341 186.673C170.46 188.627 169.973 190.736 169.907 192.878C169.841 195.02 170.197 197.155 170.956 199.159C171.715 201.163 172.862 202.999 174.33 204.56L174.62 204.84C175.775 206.253 177.157 207.463 178.71 208.42C175.852 207.411 173.331 205.625 171.431 203.264C169.53 200.902 168.325 198.058 167.95 195.05C167.95 195.39 167.95 195.73 167.95 196.05C168.075 198.199 168.623 200.302 169.564 202.238C170.505 204.174 171.82 205.905 173.433 207.331C175.045 208.757 176.924 209.849 178.961 210.546C180.997 211.243 183.152 211.529 185.3 211.39L185.75 211.34L185.51 211.67C180.859 218.51 178.655 226.72 179.254 234.969C179.853 243.218 183.22 251.024 188.81 257.12C189.474 258.64 190.356 260.055 191.43 261.32C191.807 261.752 192.211 262.159 192.64 262.54C195.379 265.43 199.124 267.155 203.1 267.36C203.767 268.153 204.477 268.917 205.23 269.65C204.571 272.456 203.708 275.209 202.65 277.89C200.519 283.228 197.866 288.343 194.73 293.16C173.13 299.3 171.23 335.98 172.01 337.37C172.94 339.03 168.79 396.63 184.79 466.21C184.13 486.1 195.73 518.99 236.91 510.32C288.41 513.07 305.3 520.96 305.3 520.96C305.3 520.96 300.41 610.53 307.39 623.57C311.76 631.74 308.66 643.74 305.39 652.21C304.178 654.305 303.211 656.533 302.51 658.85C301.51 660.96 300.78 662.24 300.78 662.24H301.48C298.84 671.41 296.97 682.48 296.97 682.48C296.97 682.48 359.4 695.15 386.86 686.86C397.52 683.64 397.96 680.66 394.5 678.2C397.048 677.825 399.568 677.274 402.04 676.55C429.52 668.26 389.14 661.47 389.14 661.47Z" fill="url(#paint1_linear)"/>
<path d="M253.3 236.26C253.3 243.38 251.189 250.34 247.233 256.261C243.277 262.181 237.655 266.795 231.077 269.52C224.499 272.244 217.26 272.957 210.277 271.568C203.293 270.179 196.879 266.751 191.844 261.716C186.81 256.681 183.381 250.267 181.992 243.283C180.603 236.3 181.316 229.062 184.04 222.483C186.765 215.905 191.379 210.283 197.3 206.327C203.22 202.371 210.18 200.26 217.3 200.26C222.028 200.26 226.709 201.191 231.077 203C235.444 204.81 239.413 207.461 242.756 210.804C246.099 214.147 248.751 218.116 250.56 222.483C252.369 226.851 253.3 231.532 253.3 236.26V236.26Z" fill="#FA595F"/>
<path d="M334.39 405.39L338.04 423.61C338.04 423.61 342.1 422.88 348.11 421.61C368.64 417.26 412.02 406.52 395.22 396.5C380.77 387.89 358.64 394.66 345.44 400.16C340.6 402.16 336.96 404.02 335.33 404.89C334.72 405.2 334.39 405.39 334.39 405.39Z" fill="#F8B9BF"/>
<path opacity="0.1" d="M335.42 410.53L338.04 423.61C338.04 423.61 342.1 422.88 348.11 421.61L345.44 400.16C340.6 402.16 336.96 404.02 335.33 404.89L335.42 410.53Z" fill="black"/>
<path d="M334.79 424.74L347.33 422.23L344.49 399.32L334.45 401.33L334.79 424.74Z" fill="#D9DFE8"/>
<path opacity="0.1" d="M334.79 424.74L340.2 423.65L339.21 400.38L334.45 401.33L334.79 424.74Z" fill="black"/>
<path d="M219.21 325.26C219.21 325.26 243.62 312.54 252.49 352.51C261.36 392.48 261.49 410.7 261.49 410.7L337.41 398.97L338.59 426.56C338.59 426.56 256.99 448.99 246.96 446.65C236.93 444.31 206.48 387.8 206.48 387.8C206.48 387.8 178.58 343.85 219.21 325.26Z" fill="#092034"/>
<g opacity="0.1">
<path opacity="0.1" d="M334.39 405.39L338.04 423.61C338.04 423.61 342.1 422.88 348.11 421.61C368.64 417.26 412.02 406.52 395.22 396.5C380.77 387.89 358.64 394.66 345.44 400.16C340.6 402.16 336.96 404.02 335.33 404.89C334.72 405.2 334.39 405.39 334.39 405.39Z" fill="black"/>
<path opacity="0.1" d="M335.42 410.53L338.04 423.61C338.04 423.61 342.1 422.88 348.11 421.61L345.44 400.16C340.6 402.16 336.96 404.02 335.33 404.89L335.42 410.53Z" fill="black"/>
<path opacity="0.1" d="M334.79 424.74L347.33 422.23L344.49 399.32L334.45 401.33L334.79 424.74Z" fill="black"/>
<path opacity="0.1" d="M334.79 424.74L340.2 423.65L339.21 400.38L334.45 401.33L334.79 424.74Z" fill="black"/>
<path opacity="0.1" d="M221.21 327.26C221.21 327.26 245.62 314.54 254.49 354.51C263.36 394.48 263.49 412.7 263.49 412.7L339.41 400.97L340.59 428.56C340.59 428.56 258.99 450.99 248.96 448.65C238.93 446.31 208.48 389.8 208.48 389.8C208.48 389.8 180.58 345.85 221.21 327.26Z" fill="black"/>
</g>
<path d="M357.3 637.97L387.24 656.97C387.24 656.97 426.83 663.6 399.9 671.73C372.97 679.86 311.77 667.43 311.77 667.43C311.77 667.43 316.42 639.89 321.37 636.24C326.32 632.59 357.3 637.97 357.3 637.97Z" fill="#F37291"/>
<path d="M246.3 434.16C246.3 434.16 261.23 442.83 288.08 450.93C303.82 455.68 323.62 459.35 337.3 461.58C344.318 462.663 350.855 465.809 356.081 470.616C361.307 475.424 364.986 481.677 366.65 488.58C367.724 492.639 367.658 496.916 366.46 500.94C361.24 516.56 362.3 645.41 362.3 645.41L315.46 647.66C315.46 647.66 322.87 624.25 313.74 611.89C304.61 599.53 319.9 509.16 319.9 509.16C319.9 509.16 303.31 501.42 252.81 498.73C205.48 508.73 188.47 456.58 196.33 442.54C204.19 428.5 246.3 434.16 246.3 434.16Z" fill="#96A2D0"/>
<g opacity="0.1">
<path opacity="0.1" d="M357.3 637.97L387.24 656.97C387.24 656.97 426.83 663.6 399.9 671.73C372.97 679.86 311.77 667.43 311.77 667.43C311.77 667.43 316.42 639.89 321.37 636.24C326.32 632.59 357.3 637.97 357.3 637.97Z" fill="black"/>
<path opacity="0.1" d="M246.3 434.16C246.3 434.16 261.23 442.83 288.08 450.93C303.82 455.68 323.62 459.35 337.3 461.58C344.318 462.663 350.855 465.809 356.081 470.616C361.307 475.424 364.986 481.677 366.65 488.58C367.724 492.639 367.658 496.916 366.46 500.94C361.24 516.56 362.3 645.41 362.3 645.41L315.46 647.66C315.46 647.66 322.87 624.25 313.74 611.89C304.61 599.53 319.9 509.16 319.9 509.16C319.9 509.16 303.31 501.42 252.81 498.73C205.48 508.73 188.47 456.58 196.33 442.54C204.19 428.5 246.3 434.16 246.3 434.16Z" fill="black"/>
</g>
<path d="M342.38 648.08L372.32 667.08C372.32 667.08 411.91 673.71 384.98 681.84C358.05 689.97 296.85 677.54 296.85 677.54C296.85 677.54 301.5 650 306.45 646.35C311.4 642.7 342.38 648.08 342.38 648.08Z" fill="#F37291"/>
<path d="M237.94 508.83C288.44 511.52 305.03 519.26 305.03 519.26C305.03 519.26 300.24 607.08 307.03 619.86C314.28 633.42 300.55 657.76 300.55 657.76L347.39 655.51C347.39 655.51 347.39 653.99 347.39 651.27C347.25 628.89 346.91 524.97 351.56 511.04C352.758 507.016 352.824 502.739 351.75 498.68C350.085 491.777 346.406 485.525 341.18 480.718C335.954 475.91 329.417 472.765 322.4 471.68C308.71 469.46 288.92 465.79 273.18 461.04L272.41 460.8C246.04 452.8 231.41 444.27 231.41 444.27C231.41 444.27 200.22 442.11 192.41 456.15C191.41 457.97 187.1 461.55 186.92 464.44C185.75 483.78 196.76 517.5 237.94 508.83Z" fill="#96A2D0"/>
<path d="M312.11 426.86L313 445.42C313 445.42 317.12 445.31 323.26 444.94C344.21 443.69 388.71 439.55 373.59 427.14C360.59 416.47 337.69 419.87 323.82 423.34C318.73 424.62 314.82 425.9 313.12 426.51C312.46 426.73 312.11 426.86 312.11 426.86Z" fill="#F8B9BF"/>
<path d="M193.3 300.55C193.3 300.55 199.3 305.72 206.74 311.44C215.04 313.7 224.74 315.71 231.67 317.04C229.52 308.89 231.43 300.04 234.6 292.25C238.04 284.147 242.605 276.569 248.16 269.74L206.46 254.67C209.41 263.22 207.46 272.77 204.29 280.94C201.492 287.925 197.797 294.517 193.3 300.55V300.55Z" fill="#F8B9BF"/>
<path opacity="0.1" d="M312.36 432.09L313 445.42C313 445.42 317.12 445.31 323.26 444.94L323.82 423.33C318.73 424.61 314.82 425.89 313.12 426.5L312.36 432.09Z" fill="black"/>
<path d="M309.62 446.05L322.39 445.44L322.99 422.36L312.77 422.85L309.62 446.05Z" fill="#D9DFE8"/>
<path d="M187.83 469.84C214.83 497.91 265.18 464.55 278.72 454.67C280.92 453.06 282.15 452.07 282.15 452.07C277.15 446.98 269.15 442.27 266.08 429.52C263.151 416.507 261.166 403.299 260.14 390C259.31 379.45 270.21 359.36 267.06 349.34C263.91 339.32 250.94 336.03 245.49 326.96C244.06 324.6 242.64 322.38 241.24 320.44C231.18 306.44 213.65 297.01 213.65 297.01C176.3 284.26 173.37 337.6 174.3 339.26C175.23 340.92 170.96 399.72 187.83 469.84Z" fill="#092034"/>
<path opacity="0.1" d="M187.55 393.02C187.55 393.02 209.24 453.44 218.81 457.25C224.29 459.43 254.18 457.08 278.72 454.67C280.92 453.06 282.15 452.07 282.15 452.07C277.15 446.98 273.08 436.49 270.02 423.75L238.53 423.86C238.53 423.86 241.08 405.86 238.26 364.97C235.44 324.08 209.41 333.07 209.41 333.07C166.48 345.38 187.55 393.02 187.55 393.02Z" fill="black"/>
<path opacity="0.1" d="M309.62 446.05L315.13 445.79L317.62 422.62L312.77 422.85L309.62 446.05Z" fill="black"/>
<path d="M210.15 330.47C210.15 330.47 236.15 321.54 239 362.37C241.85 403.2 239.3 421.26 239.3 421.26L316.12 420.98L313.17 448.44C313.17 448.44 229.17 458.44 219.57 454.65C209.97 450.86 188.3 390.43 188.3 390.43C188.3 390.43 167.21 342.78 210.15 330.47Z" fill="#092034"/>
<path opacity="0.1" d="M211.1 270.26C212.49 264.26 206.1 264.07 204.1 258.26L245.82 273.26C242.712 277.07 239.91 281.119 237.44 285.37C235.218 285.924 232.947 286.259 230.66 286.37C220.52 286.87 217.81 276.84 211.1 270.26Z" fill="black"/>
<path d="M233.04 282.867C252.325 281.941 267.208 265.556 266.282 246.27C265.356 226.985 248.971 212.101 229.685 213.028C210.399 213.954 195.516 230.339 196.442 249.625C197.369 268.91 213.754 283.794 233.04 282.867Z" fill="#F8B9BF"/>
<path opacity="0.1" d="M213.3 356.4C213.3 356.4 224.36 408.79 237.42 414.14C250.48 419.49 244.56 420.63 244.56 420.63" fill="black"/>
<path opacity="0.1" d="M258.88 385.99C258.88 385.99 249.64 388.88 238.88 375.07Z" fill="black"/>
<path d="M189.3 215.26C198.137 215.26 205.3 208.097 205.3 199.26C205.3 190.423 198.137 183.26 189.3 183.26C180.463 183.26 173.3 190.423 173.3 199.26C173.3 208.097 180.463 215.26 189.3 215.26Z" fill="#FA595F"/>
<path d="M178.06 207.71C175.279 204.744 173.731 200.831 173.731 196.765C173.731 192.699 175.279 188.786 178.06 185.82C177.8 186.03 177.54 186.24 177.3 186.47C174.208 189.377 172.397 193.393 172.265 197.635C172.134 201.877 173.693 205.998 176.6 209.09C179.507 212.182 183.523 213.993 187.765 214.125C192.007 214.256 196.128 212.697 199.22 209.79C199.47 209.56 199.69 209.31 199.91 209.07C196.777 211.662 192.775 212.965 188.716 212.712C184.657 212.459 180.847 210.671 178.06 207.71Z" fill="#FA595F"/>
<path d="M187.2 213.75C183.139 213.995 179.138 212.683 176.01 210.082C172.881 207.482 170.861 203.787 170.36 199.75C170.36 200.08 170.36 200.41 170.36 200.75C170.625 204.986 172.562 208.942 175.745 211.75C177.321 213.14 179.155 214.206 181.143 214.887C183.13 215.568 185.233 215.851 187.33 215.72C189.427 215.589 191.478 215.046 193.365 214.122C195.253 213.198 196.94 211.911 198.33 210.335C199.72 208.76 200.786 206.925 201.467 204.938C202.148 202.95 202.431 200.847 202.3 198.75C202.3 198.41 202.23 198.09 202.19 197.75C202.198 201.824 200.652 205.748 197.866 208.721C195.081 211.694 191.266 213.493 187.2 213.75V213.75Z" fill="#FA595F"/>
<path opacity="0.1" d="M244.25 213.17C247.98 215.01 252.25 215.52 256.25 216.68C260.25 217.84 264.33 219.96 266.09 223.74C267.38 226.52 267.23 229.81 268.58 232.56C270.52 236.56 275 238.4 279.12 239.97C275.58 244.72 267.98 243.43 263.02 240.2C258.06 236.97 253.79 232.2 248.02 230.95C245.173 230.389 242.222 230.72 239.571 231.9C236.92 233.08 234.699 235.049 233.21 237.54C231.63 240.31 231.07 243.54 230.29 246.62C228.29 254.74 224.29 262.82 217.29 267.43C210.29 272.04 199.86 272.01 194.37 265.7C191.17 262.02 190.1 257.01 189.15 252.23C188.609 250.001 188.35 247.713 188.38 245.42C188.7 239.68 192.52 234.79 196.38 230.53C200.93 225.53 205.77 220.73 210.61 215.96C214.79 211.84 219.61 204.86 225.91 204.37C233.17 203.79 238.3 210.26 244.25 213.17Z" fill="black"/>
<path d="M243.25 212.17C246.98 214.01 251.25 214.52 255.25 215.68C259.25 216.84 263.33 218.96 265.09 222.74C266.38 225.52 266.23 228.81 267.58 231.56C269.52 235.56 274 237.4 278.12 238.97C274.58 243.72 266.98 242.43 262.02 239.2C257.06 235.97 252.79 231.2 247.02 229.95C244.173 229.389 241.222 229.72 238.571 230.9C235.92 232.08 233.699 234.049 232.21 236.54C230.63 239.31 230.07 242.54 229.29 245.62C227.29 253.74 223.29 261.82 216.29 266.43C209.29 271.04 198.86 271.01 193.37 264.7C190.17 261.02 189.1 256.01 188.15 251.23C187.609 249.001 187.35 246.713 187.38 244.42C187.7 238.68 191.52 233.79 195.38 229.53C199.93 224.53 204.77 219.73 209.61 214.96C213.79 210.84 218.61 203.86 224.91 203.37C232.17 202.79 237.3 209.26 243.25 212.17Z" fill="#FA595F"/>
<path d="M247.11 434.26H150.08C145.386 434.26 141.58 438.066 141.58 442.76V443.38C141.58 448.074 145.386 451.88 150.08 451.88H247.11C251.804 451.88 255.61 448.074 255.61 443.38V442.76C255.61 438.066 251.804 434.26 247.11 434.26Z" fill="#D6D6E3"/>
<path opacity="0.1" d="M141.58 443.26V444.65C141.58 446.573 142.344 448.417 143.704 449.777C145.063 451.136 146.907 451.9 148.83 451.9H248.36C250.283 451.9 252.127 451.136 253.487 449.777C254.846 448.417 255.61 446.573 255.61 444.65V443.26H141.58Z" fill="black"/>
<path d="M362 452.63H342.39V702.46H362V452.63Z" fill="#D6D6E3"/>
<path opacity="0.1" d="M362 452.63H342.39V468.83H362V452.63Z" fill="black"/>
<path d="M851.43 434.72H333.01V467.12H851.43V434.72Z" fill="#D6D6E3"/>
<defs>
<linearGradient id="paint0_linear" x1="864.095" y1="693.986" x2="910.428" y2="179.176" gradientUnits="userSpaceOnUse">
<stop stop-color="#808080" stop-opacity="0.25"/>
<stop offset="0.54" stop-color="#808080" stop-opacity="0.12"/>
<stop offset="1" stop-color="#808080" stop-opacity="0.1"/>
</linearGradient>
<linearGradient id="paint1_linear" x1="80457" y1="362533" x2="80457" y2="100949" gradientUnits="userSpaceOnUse">
<stop stop-color="#808080" stop-opacity="0.25"/>
<stop offset="0.54" stop-color="#808080" stop-opacity="0.12"/>
<stop offset="1" stop-color="#808080" stop-opacity="0.1"/>
</linearGradient>
</defs>
</svg>
