<svg width="230" height="57" viewBox="0 0 230 57" fill="none" xmlns="http://www.w3.org/2000/svg">
<path d="M37.3065 23.8833L9.08423 32.9338L17.4646 56.6915L50.4933 57L54.9299 28.7171L37.3065 23.8833ZM42.8523 38.899C42.8523 38.899 42.8523 44.4527 33.2395 49.0808C23.7499 44.5555 23.6267 38.899 23.6267 38.899C23.1337 35.2993 26.5845 34.4765 26.5845 34.4765C32.3768 33.6538 33.2395 39.7217 33.2395 39.7217C33.2395 39.7217 34.1022 33.6538 39.8945 34.4765C39.8945 34.5794 43.3453 35.2993 42.8523 38.899Z" fill="#BA1315"/>
<path d="M36.6901 20.0779C34.3485 19.8722 33.4858 18.5352 33.2394 17.7124C33.1161 17.5067 33.1161 17.3011 33.1161 16.9925L32.8696 2.90249C32.8696 2.6968 32.8696 2.4911 32.9929 2.28541C33.8556 -0.388612 37.4296 0.0227758 37.4296 0.0227758C37.4296 0.0227758 41.1268 -0.182918 41.743 2.4911C41.743 2.69679 41.743 2.90249 41.743 3.10818L40.5106 17.1982C40.5106 17.4039 40.3873 17.7124 40.3873 17.9181C39.8944 18.7409 39.0317 20.0779 36.6901 20.0779Z" fill="#BA1315"/>
<path d="M23.5037 24.3975C21.1621 24.9117 19.8065 23.7804 19.3135 23.1633C19.1903 22.9576 19.067 22.752 18.9438 22.5463L12.905 9.27901C12.7817 9.07331 12.7817 8.86762 12.7817 8.66193C12.5352 5.98791 16.1092 5.26798 16.1092 5.26798C16.1092 5.26798 19.4367 4.03381 21.1621 6.39929C21.2854 6.60499 21.4086 6.81068 21.4086 7.01638L25.9685 20.695C26.0918 20.9007 26.0918 21.2093 26.0918 21.4149C26.0918 22.032 25.722 23.5747 23.5037 24.3975Z" fill="#BA1315"/>
<path d="M11.3026 30.054C9.45399 30.6711 8.22157 29.9512 7.72861 29.5398C7.60537 29.4369 7.35889 29.2312 7.35889 29.0255L0.334139 18.8437C0.210898 18.638 0.0876571 18.5352 0.0876571 18.3295C-0.528549 16.1697 2.306 15.2441 2.306 15.2441C2.306 15.2441 4.89406 13.907 6.61944 15.5526C6.74268 15.6554 6.86592 15.8611 6.98916 16.0668L12.7815 26.7629C12.9047 26.9686 12.9047 27.1743 13.028 27.2771C13.028 27.8942 13.028 29.2312 11.3026 30.054Z" fill="#BA1315"/>
<path d="M52.7119 25.5287C55.0535 26.0429 56.4091 25.0145 56.9021 24.3974C57.0253 24.1917 57.2718 23.986 57.2718 23.7803L63.5571 10.6159C63.6804 10.4102 63.6804 10.2045 63.8036 9.99882C64.1733 7.3248 60.5993 6.60487 60.5993 6.60487C60.5993 6.60487 57.2718 5.37071 55.5464 7.63334C55.4232 7.83904 55.3 8.04473 55.1767 8.25043L50.3703 21.8262C50.2471 22.0319 50.2471 22.2376 50.2471 22.5461C50.2471 23.2661 50.4936 24.7059 52.7119 25.5287Z" fill="#BA1315"/>
<path d="M55.5464 53.0919C56.6556 55.046 58.6275 55.1488 59.4901 55.1488C59.7366 55.1488 60.1064 55.046 60.3528 55.046L76.4974 50.1093C76.7439 50.0065 76.9904 49.9036 77.2369 49.8008C79.8249 48.1552 77.9763 45.2755 77.9763 45.2755C77.9763 45.2755 76.7439 42.1901 73.5396 42.6015C73.2932 42.6015 73.0467 42.7043 72.8002 42.8072L57.2718 48.8751C57.0253 48.978 56.7788 49.0808 56.5324 49.2865C55.9162 49.8008 54.6837 51.0349 55.5464 53.0919Z" fill="#BA1315"/>
<path d="M84.4742 31.2098V31.3132C84.4742 31.4167 84.4742 31.5201 84.2968 31.6235C84.1193 31.7269 83.9418 31.7269 83.7643 31.7269C83.4094 31.7269 83.2319 31.5201 83.2319 31.2098C83.2319 30.5892 84.2967 29.8652 86.6039 29.1412C87.3137 28.8309 88.0236 28.7275 88.3786 28.624C88.911 28.5206 89.2659 28.4172 89.7983 28.3138C90.3307 28.2103 90.6857 28.1069 91.0406 28.0035C91.3956 27.9 91.573 27.9 91.7505 27.9C92.1054 26.9692 92.4604 25.9349 92.6379 24.9006C92.8153 23.8663 92.9928 23.0389 93.1703 22.4183C93.3477 21.7977 93.3477 21.1771 93.5252 20.66C93.5252 20.3497 93.8801 20.2463 94.4126 20.2463C94.59 20.2463 94.7675 20.2463 94.7675 20.3497C94.7675 20.3497 94.945 20.4531 94.7675 20.5565C94.59 22.108 94.0576 24.4869 93.1703 27.6932C96.0098 27.2795 99.5592 26.9692 103.818 26.8657C104.351 24.1766 104.706 22.7286 104.883 22.4183C105.238 21.4874 105.416 20.8668 105.593 20.5565C105.593 20.4531 105.771 20.3497 105.948 20.2463C106.126 20.1428 106.303 20.1428 106.481 20.1428C106.658 20.1428 106.835 20.2463 107.013 20.4531C107.013 20.7634 106.835 21.0737 106.835 21.384L106.481 22.2114C106.303 22.6251 106.126 23.3491 105.948 24.28C105.771 25.3143 105.593 26.1417 105.416 26.7623L111.805 26.6589C112.16 26.6589 112.337 26.7623 112.337 26.9692C112.337 27.0726 112.337 27.176 112.16 27.2795C111.982 27.3829 111.805 27.3829 111.627 27.4863C110.562 27.4863 109.498 27.4863 108.433 27.5898C107.368 27.5898 106.303 27.5898 105.238 27.5898C105.061 28.3138 104.883 29.2446 104.528 30.1755C104.173 31.1064 103.996 32.0372 103.641 32.9681C103.286 33.899 103.109 34.8298 103.109 35.7607C103.109 35.8641 102.931 35.9676 102.754 36.071C102.576 36.1744 102.399 36.1744 102.221 36.1744C101.866 36.1744 101.866 36.071 101.689 35.8641C101.689 34.9333 101.866 33.899 102.221 32.9681C102.576 32.0372 102.754 31.3132 102.931 30.7961C103.109 30.2789 103.286 29.6583 103.464 29.1412L103.818 27.6932C99.5592 27.7966 96.0098 28.1069 92.9928 28.5206C92.4604 29.8652 91.7505 31.1064 91.2181 32.4509C90.5082 33.6921 89.9758 35.0367 89.4434 36.2778C88.911 36.4847 88.556 36.5881 88.3786 36.5881C88.0236 36.5881 88.0236 36.4847 87.8462 36.2778C88.3786 35.0367 88.911 33.7955 89.4434 32.5544C89.9758 31.3132 90.6857 30.0721 91.2181 28.7275C88.911 29.1412 86.9588 29.7618 85.539 30.3824C85.539 30.3824 85.3616 30.4858 85.1841 30.4858C84.6517 30.7961 84.4742 31.0029 84.4742 31.2098Z" fill="#BA1315"/>
<path d="M114.112 34.7264C114.467 34.7264 114.644 34.8299 114.644 35.0367C114.644 35.2436 114.112 35.5539 113.225 35.7607C112.337 36.071 111.45 36.1745 110.917 36.1745C110.208 36.1745 109.853 36.071 109.498 35.9676C109.143 35.8642 108.965 35.6573 108.788 35.4505C108.433 35.0367 108.255 34.5196 108.255 33.899C108.255 32.8647 108.61 31.8304 109.143 30.8996C109.675 29.9687 110.385 29.1412 111.272 28.6241C112.16 28.0035 113.225 27.6932 114.289 27.6932C114.822 27.6932 115.354 27.7967 115.532 28.107C115.887 28.4172 116.064 28.7275 116.064 29.0378C116.064 29.7618 115.709 30.279 115.177 30.7961C114.644 31.3133 113.757 31.6236 112.87 31.9338C111.982 32.2441 110.917 32.5544 109.675 32.7613V33.899C109.675 34.8299 110.208 35.2436 111.095 35.2436C111.627 35.2436 112.16 35.1402 112.692 35.0367C113.225 34.9333 113.579 34.7264 113.934 34.623C114.289 34.5196 113.934 34.7264 114.112 34.7264ZM114.467 29.1412C114.467 28.7275 114.112 28.5207 113.579 28.5207C113.047 28.5207 112.337 28.831 111.627 29.3481C110.917 29.9687 110.208 30.6927 109.853 31.6236C109.675 31.8304 109.675 32.0373 109.675 32.1407C110.03 32.0373 110.385 31.9339 110.74 31.8304C111.095 31.727 111.45 31.6236 111.805 31.5201C112.692 31.2098 113.225 30.8996 113.757 30.5893C114.289 30.1755 114.467 29.7618 114.467 29.1412Z" fill="#BA1315"/>
<path d="M121.388 35.0368C121.743 35.0368 121.921 35.1402 121.921 35.347C121.921 35.5539 121.566 35.7608 121.033 35.8642C120.501 35.9676 119.968 36.0711 119.259 36.0711C118.549 36.0711 118.016 35.9676 117.661 35.7608C117.306 35.5539 117.306 35.347 117.306 35.0368C117.306 34.7265 117.306 34.4162 117.306 34.2093C117.306 33.899 117.484 33.5887 117.661 33.0716C117.839 32.6579 118.016 32.0373 118.194 31.5201C118.371 30.8996 118.549 30.279 118.904 29.6584C119.081 29.0378 119.436 28.3138 119.614 27.5898C119.791 26.8658 120.146 26.2452 120.323 25.5212C120.501 24.7972 120.856 24.1766 121.033 23.5561C121.211 22.9355 121.388 22.4183 121.743 21.9012C121.921 21.384 122.098 20.9703 122.276 20.5566C122.276 20.3497 122.63 20.3497 122.985 20.3497C123.34 20.3497 123.518 20.4532 123.518 20.7635V20.9703C123.163 22.0046 122.808 22.9355 122.453 23.8663C122.098 24.7972 121.566 26.4521 120.678 28.7275C119.791 31.003 119.259 32.5544 119.081 33.3819C118.904 34.2093 118.726 34.7265 118.726 34.8299C118.726 35.0368 118.726 35.1402 118.904 35.2436C119.081 35.347 119.259 35.4505 119.436 35.4505C119.614 35.4505 119.791 35.4505 120.146 35.347C120.323 35.347 120.501 35.2436 120.678 35.2436C120.856 35.2436 121.033 35.1402 121.211 35.1402C121.211 35.1402 121.388 35.0368 121.388 35.0368Z" fill="#BA1315"/>
<path d="M125.647 30.0721C126.89 28.6241 128.309 27.9001 129.907 27.9001C130.794 27.9001 131.326 28.0035 131.681 28.3138C132.036 28.6241 132.214 29.0378 132.214 29.555C132.214 30.5893 132.036 31.5201 131.504 32.5544C130.971 33.5887 130.262 34.5196 129.374 35.2436C128.487 35.9676 127.245 36.3813 126.002 36.3813C125.47 36.3813 125.115 36.2779 124.76 36.1745C124.405 36.071 124.228 35.8642 124.05 35.5539C123.518 36.795 123.163 38.0362 122.808 39.1739C122.453 40.4151 121.92 41.4494 121.566 42.4837C121.388 42.6905 121.211 42.794 120.856 42.794C120.501 42.794 120.501 42.6905 120.323 42.4837C120.856 41.1391 121.388 39.8979 121.743 38.7602C122.098 37.6225 122.453 36.795 122.63 36.1745C122.808 35.5539 123.163 34.7265 123.518 33.5887C123.873 32.451 124.405 30.7961 125.292 28.4172V28.107C125.292 28.0035 125.292 27.9001 125.47 27.7967C125.647 27.6932 125.825 27.6932 126.002 27.6932C126.18 27.6932 126.357 27.6932 126.535 27.7967C126.712 27.9001 126.712 28.0035 126.712 28.107C126.712 28.2104 126.712 28.3138 126.712 28.3138C126.712 28.4172 126.712 28.4172 126.535 28.5207C126.357 28.6241 126.535 28.6241 126.357 28.7275C126.357 28.831 126.357 28.831 126.357 28.9344L125.647 30.0721ZM124.405 34.3127C124.405 35.1402 124.937 35.5539 126.002 35.5539C127.067 35.5539 127.954 35.2436 128.664 34.5196C129.729 33.5887 130.439 32.451 130.794 30.8996C130.971 30.4858 130.971 30.0721 130.971 29.6584C130.971 28.9344 130.617 28.6241 130.084 28.6241C129.552 28.6241 128.842 28.831 127.954 29.3481C126.89 30.0721 126.002 30.8996 125.292 31.8304C124.76 32.7613 124.405 33.5887 124.405 34.3127Z" fill="#BA1315"/>
<path d="M136.828 28.8309V28.624C136.828 28.5206 136.828 28.4171 136.65 28.1068C136.65 28.0034 136.65 27.9 136.828 27.7966C137.005 27.6931 137.183 27.5897 137.36 27.5897C137.538 27.5897 137.715 27.6931 137.893 27.7966C138.07 28.0034 138.07 28.1068 138.07 28.3137C138.07 28.5206 137.715 29.6583 136.828 31.8303C135.941 34.0023 135.586 35.1401 135.586 35.2435C135.586 35.3469 135.763 35.4504 135.941 35.4504C136.118 35.4504 136.295 35.3469 136.473 35.2435C136.65 35.1401 136.828 35.0366 137.005 35.0366C137.36 35.0366 137.538 35.1401 137.538 35.3469C137.538 35.5538 137.183 35.7606 136.65 35.9675C136.118 36.1744 135.763 36.1744 135.408 36.1744C134.698 36.1744 134.521 35.8641 134.521 35.2435C134.521 35.1401 134.521 35.0366 134.698 34.8298C134.698 34.7263 134.876 34.5195 135.053 34.2092C135.231 33.8989 135.231 33.5886 135.408 33.0715C135.586 32.6577 135.763 32.1406 135.941 31.6235C136.118 31.1063 136.295 30.5892 136.65 29.8651C136.65 29.348 136.828 28.9343 136.828 28.8309ZM138.78 25.2108C139.312 25.2108 139.667 25.4177 139.667 25.728C139.667 26.1417 139.312 26.452 138.78 26.452C138.603 26.452 138.425 26.452 138.248 26.452C138.07 26.452 137.893 26.3485 137.715 26.2451C137.538 26.1417 137.36 26.0383 137.36 25.8314C137.36 25.6245 137.538 25.5211 137.715 25.3142C138.07 25.2108 138.425 25.2108 138.78 25.2108Z" fill="#BA1315"/>
<path d="M148.719 29.6583C148.719 29.1411 148.541 28.8308 148.009 28.8308C147.299 28.8308 146.057 29.9685 144.282 32.1406C143.394 33.1749 142.862 33.8989 142.507 34.416C142.152 34.9332 141.975 35.2435 141.797 35.4503C141.62 35.6572 141.442 35.7606 141.265 35.9675C141.087 36.0709 140.91 36.1743 140.732 36.1743C140.555 36.1743 140.377 36.1743 140.377 36.0709C140.377 35.9675 140.377 35.864 140.377 35.7606C140.377 35.6572 140.732 34.416 141.442 32.0371C142.152 29.6583 142.507 28.4171 142.685 28.3137C142.862 28.2102 142.862 28.1068 143.04 28.1068C143.217 28.1068 143.217 28.1068 143.572 28.1068C143.927 28.1068 143.927 28.2102 144.104 28.3137C144.282 28.4171 144.282 28.5205 144.282 28.624C144.282 28.7274 144.282 28.8308 144.282 28.8308C144.282 28.9342 144.104 29.1411 143.927 29.348C143.572 30.072 143.04 31.1063 142.685 32.4509L142.33 33.3817C142.507 33.1749 142.862 32.8646 143.04 32.4509C143.217 32.1406 143.749 31.6234 144.282 30.8994C144.814 30.2788 145.347 29.6583 146.057 29.1411C146.944 28.4171 147.654 28.1068 148.364 28.1068C149.606 28.1068 150.138 28.7274 150.138 29.8651C150.138 30.2788 149.961 30.8994 149.783 31.52C149.606 32.1406 149.251 32.8646 149.074 33.692C148.896 34.5195 148.719 35.14 148.719 35.6572L148.541 36.0709C148.541 36.1743 148.541 36.2778 148.541 36.2778C148.541 36.2778 148.364 36.3812 148.009 36.3812C147.654 36.3812 147.476 36.3812 147.299 36.2778C147.121 36.1743 147.121 36.0709 147.121 35.9675L148.541 31.2097C148.541 30.3823 148.719 29.9685 148.719 29.6583Z" fill="#BA1315"/>
<path d="M161.141 28.0035C161.496 28.0035 161.674 28.107 161.674 28.3138C161.674 28.5207 161.674 28.6241 161.496 28.831C161.319 29.0378 161.319 29.2447 161.141 29.4515C160.964 29.7618 160.786 30.1755 160.609 30.6927C160.431 31.2098 160.077 31.8304 159.899 32.3476C159.722 32.8647 159.544 33.4853 159.189 34.0024C159.012 34.5196 158.834 35.1402 158.657 35.6573C159.012 35.5539 159.367 35.347 159.722 35.1402C160.077 34.9333 160.431 34.8299 160.609 34.7265C160.786 34.623 160.964 34.5196 161.141 34.5196C161.496 34.5196 161.674 34.623 161.674 34.8299C161.674 34.9333 161.674 35.0367 161.496 35.1402C160.431 35.6573 159.367 36.071 158.657 36.3813L157.769 38.7602C157.237 40.4151 156.527 41.4494 155.64 41.9665C154.93 42.3802 154.22 42.5871 153.333 42.5871C152.445 42.5871 151.735 42.3802 151.026 42.07C150.493 41.7597 150.138 41.2425 150.138 40.6219C150.138 39.7945 150.848 38.9671 152.445 38.2431C152.978 37.9328 153.865 37.5191 154.93 37.1053C155.995 36.6916 156.705 36.2779 157.414 36.071C157.414 35.8642 157.592 35.5539 157.769 35.2436C157.947 34.9333 157.947 34.7265 158.124 34.5196C158.302 34.3127 158.302 34.1059 158.479 33.7956C158.657 33.5887 158.657 33.3819 158.657 33.175C158.657 32.9681 158.834 32.7613 158.834 32.6579C158.302 33.5887 157.769 34.3127 157.237 34.7265C156.172 35.5539 155.462 36.071 154.752 36.071C154.043 36.071 153.51 35.9676 153.155 35.6573C152.8 35.347 152.445 34.9333 152.445 34.4162C152.445 33.4853 152.8 32.5544 153.333 31.5201C153.865 30.4858 154.752 29.555 155.817 28.831C156.882 28.107 157.947 27.6932 159.189 27.6932C159.899 27.6932 160.431 27.7967 160.964 27.9001C160.786 28.0035 160.964 28.0035 161.141 28.0035ZM156.882 37.0019C156.172 37.3122 155.462 37.6225 154.93 37.9328C154.397 38.2431 153.688 38.5533 153.155 38.7602C151.913 39.3808 151.38 40.0014 151.38 40.6219C151.38 41.2425 151.558 41.5528 152.09 41.7597C152.268 41.8631 152.623 41.8631 152.978 41.8631C153.688 41.8631 154.397 41.6562 154.93 41.1391C155.462 40.6219 155.995 39.6911 156.527 38.3465L156.882 37.0019ZM154.22 31.727C153.688 32.6579 153.333 33.4853 153.333 34.3127C153.333 35.0367 153.688 35.4505 154.397 35.4505C154.93 35.4505 155.64 35.1402 156.527 34.4162C157.237 33.6922 157.947 32.9681 158.479 31.9339C159.012 31.003 159.367 30.279 159.544 29.7618C159.722 29.2447 159.899 28.831 160.077 28.7275C159.722 28.6241 159.367 28.5207 159.012 28.5207C158.124 28.5207 157.414 28.831 156.527 29.4515C155.64 30.0721 154.93 30.7961 154.22 31.727Z" fill="#BA1315"/>
<path d="M170.547 31.2098V31.3132C170.547 31.4167 170.547 31.5201 170.37 31.6235C170.192 31.7269 170.015 31.7269 169.837 31.7269C169.482 31.7269 169.305 31.5201 169.305 31.2098C169.305 30.5892 170.37 29.8652 172.677 29.1412C173.387 28.8309 174.097 28.7275 174.452 28.6241C174.984 28.5206 175.339 28.4172 175.871 28.3138C176.404 28.2103 176.759 28.1069 177.114 28.0035C177.469 27.9 177.646 27.9 177.823 27.9C178.178 26.9692 178.533 25.9349 178.711 24.9006C178.888 23.8663 179.066 23.0389 179.243 22.4183C179.421 21.7977 179.421 21.1771 179.598 20.66C179.598 20.3497 179.953 20.2463 180.486 20.2463C180.663 20.2463 180.84 20.2463 180.84 20.3497C180.84 20.3497 181.018 20.4531 180.84 20.5565C180.663 22.108 180.131 24.4869 179.243 27.6932C182.083 27.2795 185.632 26.9692 189.891 26.8658C190.424 24.1766 190.779 22.7286 190.956 22.4183C191.311 21.4874 191.489 20.8668 191.666 20.5565C191.666 20.4531 191.844 20.3497 192.021 20.2463C192.199 20.1428 192.376 20.1428 192.554 20.1428C192.731 20.1428 192.908 20.2463 193.086 20.4531C193.086 20.7634 192.908 21.0737 192.908 21.384L192.554 22.2114C192.376 22.6251 192.199 23.3491 192.021 24.28C191.844 25.3143 191.666 26.1417 191.489 26.7623L197.878 26.6589C198.233 26.6589 198.41 26.7623 198.41 26.9692C198.41 27.0726 198.41 27.176 198.233 27.2795C198.055 27.3829 197.878 27.3829 197.7 27.4863C196.635 27.4863 195.571 27.4863 194.506 27.5898C193.441 27.5898 192.376 27.5898 191.311 27.5898C191.134 28.3138 190.956 29.2446 190.601 30.1755C190.246 31.1064 190.069 32.0372 189.714 32.9681C189.359 33.899 189.182 34.8298 189.182 35.7607C189.182 35.8641 189.004 35.9676 188.827 36.071C188.649 36.1744 188.472 36.1744 188.294 36.1744C187.939 36.1744 187.939 36.071 187.762 35.8641C187.762 34.9333 187.939 33.899 188.294 32.9681C188.649 32.0372 188.827 31.3132 189.004 30.7961C189.182 30.2789 189.359 29.6584 189.537 29.1412L189.891 27.6932C185.632 27.7966 182.083 28.1069 179.066 28.5206C178.533 29.8652 177.823 31.1064 177.291 32.451C176.581 33.6921 176.049 35.0367 175.516 36.2779C175.339 36.4847 174.984 36.5881 174.807 36.5881C174.452 36.5881 174.452 36.4847 174.274 36.2779C174.806 35.0367 175.339 33.7955 175.871 32.5544C176.404 31.3132 177.114 30.0721 177.646 28.7275C175.339 29.1412 173.387 29.7618 171.967 30.3824C171.967 30.3824 171.79 30.4858 171.612 30.4858C170.902 30.7961 170.547 31.0029 170.547 31.2098Z" fill="#BA1315"/>
<path d="M194.683 36.071C193.618 36.071 193.086 35.6573 193.086 34.9332C193.086 34.1058 193.618 33.1749 194.506 32.0372C195.571 30.8995 196.635 29.9686 198.055 29.1412C199.475 28.3137 200.54 27.9 201.25 27.9C202.137 27.9 202.492 28.1069 202.669 28.5206C202.669 28.624 202.669 28.8309 202.669 28.9343C202.669 28.9343 202.847 28.9343 203.024 28.9343C203.379 28.9343 203.734 29.0378 203.734 29.2446V29.348C203.734 29.348 203.557 29.5549 203.379 30.0721C203.202 30.4858 202.847 31.3132 202.669 32.3475C202.314 33.3818 202.314 34.3127 202.314 35.1401C202.314 35.1401 202.492 35.2435 202.669 35.2435C202.847 35.2435 202.847 35.347 203.024 35.4504C203.202 35.5538 203.202 35.6573 203.202 35.7607C203.202 35.8641 203.202 35.9675 203.024 36.071C202.847 36.1744 202.669 36.1744 202.492 36.1744C201.96 36.1744 201.605 36.071 201.25 35.7607C200.895 35.4504 200.717 35.2435 200.717 34.9332C200.717 34.3127 201.072 33.1749 201.605 31.5201C200.895 32.4509 199.83 33.3818 198.588 34.2092C197.345 35.0367 196.458 35.6573 196.103 35.8641C195.571 35.9675 195.216 36.071 194.683 36.071ZM194.328 34.9332C194.328 35.1401 194.506 35.2435 194.683 35.2435C194.861 35.2435 195.038 35.2435 195.216 35.1401C197.168 34.2092 198.765 32.8647 200.185 31.2098C201.072 30.2789 201.427 29.7618 201.605 29.5549C201.605 29.4515 201.605 29.2446 201.605 29.1412C201.605 29.0378 201.605 28.9343 201.427 28.8309C201.25 28.7275 201.25 28.7275 201.072 28.7275C200.895 28.7275 200.717 28.7275 200.362 28.8309C199.652 29.0378 198.765 29.5549 197.878 30.2789C196.813 31.0029 195.925 31.8304 195.393 32.6578C194.683 33.5887 194.328 34.3127 194.328 34.9332Z" fill="#BA1315"/>
<path d="M213.85 29.6583C213.85 29.1411 213.673 28.8308 213.14 28.8308C212.43 28.8308 211.188 29.9685 209.413 32.1406C208.526 33.1749 207.994 33.8989 207.639 34.416C207.284 34.9332 207.106 35.2435 206.929 35.4503C206.751 35.6572 206.574 35.7606 206.396 35.9675C206.219 36.0709 206.041 36.1743 205.864 36.1743C205.686 36.1743 205.509 36.1743 205.509 36.0709C205.509 35.9675 205.509 35.864 205.509 35.7606C205.509 35.6572 205.864 34.416 206.574 32.0371C207.284 29.6583 207.639 28.4171 207.816 28.3137C207.994 28.2102 207.994 28.1068 208.171 28.1068C208.349 28.1068 208.349 28.1068 208.704 28.1068C209.058 28.1068 209.058 28.2102 209.236 28.3137C209.413 28.4171 209.413 28.5205 209.413 28.624C209.413 28.7274 209.413 28.8308 209.413 28.8308C209.413 28.9342 209.236 29.1411 209.058 29.348C208.703 30.072 208.171 31.1063 207.816 32.4509L207.461 33.3817C207.639 33.1749 207.994 32.8646 208.171 32.4509C208.349 32.1406 208.881 31.6234 209.413 30.8994C209.946 30.2788 210.478 29.6583 211.188 29.1411C212.075 28.4171 212.785 28.1068 213.495 28.1068C214.737 28.1068 215.27 28.7274 215.27 29.8651C215.27 30.2788 215.092 30.8994 214.915 31.52C214.737 32.1406 214.383 32.8646 214.205 33.692C214.028 34.5195 213.85 35.14 213.85 35.6572L213.673 36.0709C213.673 36.1743 213.673 36.2778 213.673 36.2778C213.673 36.2778 213.495 36.3812 213.14 36.3812C212.785 36.3812 212.608 36.3812 212.43 36.2778C212.253 36.1743 212.253 36.0709 212.253 35.9675L213.673 31.2097C213.673 30.3823 213.85 29.9685 213.85 29.6583Z" fill="#BA1315"/>
<path d="M225.918 28.624L227.338 25.2108C227.515 25.004 227.693 24.3834 228.048 23.3491C228.403 22.3148 228.58 21.5908 228.758 21.2805V21.0736C228.758 20.9702 228.758 20.8668 228.935 20.7633C229.112 20.6599 229.29 20.6599 229.467 20.6599C229.822 20.6599 230 20.7633 230 21.0736V21.1771C230 21.4873 229.645 22.4182 229.112 24.1765C228.58 25.9348 228.048 27.0726 227.87 27.7966C227.693 28.5206 227.338 29.4514 226.805 30.6926C226.273 31.9338 225.918 32.7612 225.741 33.1749C225.563 33.5886 225.386 34.0023 225.386 34.3126C225.208 34.6229 225.208 34.9332 225.208 35.2435C225.208 35.5538 225.208 35.8641 225.386 36.1744C225.386 36.2778 225.208 36.3812 225.031 36.4847C224.853 36.5881 224.676 36.5881 224.498 36.5881C224.321 36.5881 224.143 36.3812 223.966 36.0709C223.788 35.7607 223.788 35.4504 223.788 35.2435C223.788 35.0366 223.788 34.7264 223.966 34.5195C223.611 35.1401 223.078 35.6572 222.546 35.9675C222.014 36.2778 221.126 36.4847 220.239 36.4847C219.352 36.4847 218.642 36.2778 218.287 35.7607C217.932 35.3469 217.754 34.8298 217.754 34.4161C217.754 32.7612 218.287 31.4166 219.352 30.2789C219.884 29.7617 220.239 29.348 220.594 29.1411C220.949 28.9343 221.481 28.624 222.014 28.4171C222.546 28.2103 223.256 28.1069 224.143 28.1069C225.031 28.1069 225.563 28.1069 225.918 28.624ZM224.853 31.1063C225.031 30.6926 225.031 30.3823 225.208 30.2789C225.208 30.1754 225.208 29.9686 225.208 29.6583C225.208 29.348 225.031 29.1411 224.853 28.8309C224.498 28.5206 224.143 28.4171 223.788 28.4171C222.901 28.4171 222.014 28.7274 221.304 29.348C220.594 29.9686 220.062 30.796 219.529 31.6235C219.174 32.4509 218.819 33.1749 218.819 33.7955C218.819 34.4161 219.174 34.8298 219.707 35.0366C219.884 35.1401 220.239 35.1401 220.416 35.1401C221.126 35.1401 221.659 34.8298 222.546 34.2092C223.433 33.5886 223.788 32.968 224.143 32.4509C224.498 32.0372 224.853 31.6235 224.853 31.1063Z" fill="#BA1315"/>
<path d="M91.5726 40.7252C91.2176 40.7252 91.0402 40.6218 91.0402 40.4149C91.0402 40.3115 91.0402 40.2081 91.2177 40.1047C91.3951 40.0012 91.5726 40.0012 91.7501 40.0012H94.2346C95.122 40.0012 96.1868 40.0012 97.4291 40.0012C97.7841 40.1047 97.784 40.1047 97.784 40.2081C97.784 40.3115 97.7841 40.4149 97.6066 40.5184C97.4291 40.6218 97.2516 40.6218 97.0742 40.7252H96.1868C96.0093 40.7252 95.6544 40.7252 95.122 40.7252C92.4599 46.931 90.5078 51.6888 89.6204 54.7916C91.3951 54.7916 92.2825 54.8951 92.4599 55.1019C92.4599 55.1019 92.4599 55.2054 92.4599 55.3088C92.4599 55.4122 92.4599 55.4122 92.2825 55.5157C92.105 55.6191 91.9275 55.6191 91.7501 55.7225C91.2176 55.7225 90.6852 55.7225 90.1528 55.6191C89.6204 55.5157 89.2655 55.5157 88.9105 55.5157C88.5556 55.5157 88.2007 55.5157 87.8457 55.5157C87.4908 55.5157 86.9584 55.5157 86.4259 55.6191H86.2485C86.071 55.6191 85.8935 55.6191 85.8935 55.5157C85.7161 55.4122 85.7161 55.4122 85.7161 55.3088C85.7161 54.8951 86.6034 54.7916 88.3781 54.7916H88.5556C89.2655 52.4128 90.3303 49.7236 91.3951 46.8276C92.6374 43.9315 93.3473 41.863 93.8797 40.7252C93.7022 40.7252 93.7022 40.7252 93.5248 40.7252H92.8149H91.5726Z" fill="#BA1315"/>
<path d="M104.883 49.1031C104.883 48.5859 104.706 48.2756 104.173 48.2756C103.464 48.2756 102.221 49.4134 100.447 51.5854C99.5592 52.6197 99.0268 53.3437 98.6719 53.8608C98.3169 54.378 98.1395 54.6883 97.962 54.8951C97.7845 55.102 97.6071 55.2054 97.4296 55.4123C97.2521 55.5157 97.0746 55.6192 96.8972 55.6192C96.7197 55.6192 96.5422 55.6192 96.5422 55.5157C96.5422 55.4123 96.5422 55.3089 96.5422 55.2054C96.5422 55.102 96.8972 53.8609 97.6071 51.482C98.3169 49.1031 98.6719 47.8619 98.8493 47.7585C99.0268 47.6551 99.0268 47.5516 99.2043 47.5516C99.3818 47.5516 99.3818 47.5516 99.7367 47.5516C99.9142 47.5516 100.092 47.6551 100.269 47.7585C100.447 47.8619 100.447 47.9654 100.447 48.0688C100.447 48.1722 100.447 48.2756 100.447 48.2756C100.447 48.3791 100.269 48.5859 100.092 48.7928C99.7367 49.5168 99.2043 50.5511 98.8493 51.8957L98.4944 52.8266C98.6719 52.6197 98.8494 52.3094 99.2043 51.8957C99.3818 51.5854 99.9142 51.0682 100.447 50.3442C100.979 49.6202 101.511 49.1031 102.221 48.5859C103.109 47.8619 103.819 47.5516 104.528 47.5516C105.771 47.5516 106.303 48.1722 106.303 49.3099C106.303 49.7237 106.126 50.3442 105.948 50.9648C105.771 51.5854 105.416 52.3094 105.238 53.1368C105.061 53.9643 104.883 54.5849 104.883 55.102L104.706 55.5157C104.706 55.6192 104.706 55.7226 104.528 55.7226C104.528 55.7226 104.351 55.826 103.996 55.826C103.641 55.826 103.464 55.826 103.286 55.7226C103.109 55.6192 103.109 55.5157 103.109 55.4123L104.528 50.6545C104.883 49.8271 104.883 49.4134 104.883 49.1031Z" fill="#BA1315"/>
<path d="M112.337 48.0687C111.627 48.0687 110.917 48.0687 110.385 48.1721C110.03 48.1721 109.853 48.0687 109.853 47.8619C109.853 47.7584 109.853 47.655 110.03 47.5516C110.207 47.4481 110.385 47.3447 110.562 47.3447H112.515C112.515 47.2413 112.515 47.1378 112.692 46.931C112.692 46.7241 112.87 46.5173 112.87 46.207C112.87 45.8967 113.047 45.6898 113.224 45.3795C113.402 45.0693 113.579 44.9658 113.934 44.9658C114.289 44.9658 114.467 45.0693 114.467 45.2761V45.3795C114.289 46.0001 113.934 46.6207 113.757 47.2413H115.709C116.419 47.2413 116.774 47.2413 116.951 47.3447C117.129 47.4481 117.129 47.4481 117.129 47.5516C117.129 47.7584 116.951 47.8619 116.596 47.9653C116.419 47.9653 116.064 47.9653 115.354 47.9653C114.644 47.9653 114.112 47.9653 113.402 47.9653C113.224 48.4824 112.87 49.5167 112.337 50.9647C111.805 52.4128 111.45 53.3436 111.45 53.7573C111.45 54.1711 111.45 54.4814 111.627 54.5848C111.805 54.6882 111.982 54.6882 112.16 54.6882C112.337 54.6882 112.692 54.6882 112.87 54.5848C113.047 54.4814 113.224 54.3779 113.402 54.2745C113.579 54.1711 113.757 54.0676 113.934 53.9642C114.112 53.8608 114.289 53.8608 114.467 53.8608C114.822 53.8608 114.999 53.9642 114.999 54.1711C114.999 54.2745 114.822 54.4814 114.467 54.6882C114.112 54.8951 113.757 55.1019 113.402 55.3088C113.047 55.5157 112.692 55.5157 111.982 55.5157C111.272 55.5157 110.917 55.4122 110.74 55.3088C110.385 55.1019 110.207 54.7916 110.207 54.1711C110.207 53.8608 110.207 53.5505 110.385 53.2402L110.562 52.3093C110.74 51.8956 110.917 51.4819 111.095 51.0682C111.272 50.7579 111.272 50.4476 111.45 50.1373C111.627 49.9304 111.627 49.5167 111.805 49.103C111.982 48.6893 112.16 48.379 112.337 48.0687Z" fill="#BA1315"/>
<path d="M125.115 54.1712C125.47 54.1712 125.647 54.2746 125.647 54.4814C125.647 54.6883 125.115 54.9986 124.228 55.2055C123.34 55.5157 122.453 55.6192 121.921 55.6192C121.211 55.6192 120.856 55.5157 120.501 55.4123C120.146 55.3089 119.968 55.102 119.791 54.8952C119.436 54.4814 119.259 53.9643 119.259 53.3437C119.259 52.3094 119.613 51.2751 120.146 50.3443C120.678 49.4134 121.388 48.586 122.276 48.0688C123.163 47.5517 124.228 47.1379 125.293 47.1379C125.825 47.1379 126.357 47.2414 126.535 47.5517C126.89 47.8619 127.067 48.1722 127.067 48.4825C127.067 49.2065 126.712 49.7237 126.18 50.2408C125.647 50.758 124.76 51.0683 123.873 51.3786C122.985 51.6888 121.921 51.9991 120.678 52.206V53.3437C120.678 54.2746 121.211 54.6883 122.098 54.6883C122.63 54.6883 123.163 54.5849 123.695 54.4814C124.228 54.378 124.583 54.1712 124.938 54.0677C125.293 53.9643 124.938 54.1712 125.115 54.1712ZM125.47 48.586C125.47 48.1722 125.115 47.9654 124.583 47.9654C124.05 47.9654 123.34 48.2757 122.63 48.7928C121.921 49.4134 121.211 50.1374 120.856 51.0683C120.678 51.2751 120.678 51.482 120.678 51.5854C121.033 51.482 121.388 51.3786 121.743 51.2751C122.098 51.1717 122.453 51.0683 122.808 50.9648C123.695 50.6545 124.228 50.3443 124.76 50.034C125.115 49.6203 125.47 49.2065 125.47 48.586Z" fill="#BA1315"/>
<path d="M128.842 55.5157L129.552 53.5506C129.907 52.5163 130.084 51.8957 130.262 51.482C130.439 51.0683 130.439 50.6545 130.617 50.1374C130.794 49.6203 131.149 48.8962 131.504 47.9654C131.504 47.9654 131.504 47.9654 131.504 47.8619V47.7585C131.504 47.5517 131.681 47.3448 132.036 47.2414C132.214 47.2414 132.214 47.1379 132.391 47.1379C132.746 47.1379 132.924 47.3448 132.924 47.6551C132.924 47.8619 132.746 48.1722 132.569 48.6894C132.391 49.2065 132.036 49.6203 132.036 50.034C132.214 49.9305 132.391 49.7237 132.569 49.6203C132.746 49.5168 133.101 49.2065 133.456 48.7928C133.811 48.4825 134.343 48.0688 135.053 47.7585C135.586 47.4482 136.296 47.2414 137.005 47.2414C137.715 47.2414 138.07 47.3448 138.425 47.5517C138.603 47.6551 138.603 47.7585 138.603 47.8619C138.603 47.9654 138.603 48.0688 138.425 48.1722C138.248 48.2757 138.07 48.2757 137.893 48.2757C137.715 48.2757 137.538 48.2757 137.36 48.1722C137.183 48.0688 137.005 48.0688 136.828 48.0688C136.651 48.0688 136.296 48.1722 135.941 48.3791C134.166 49.1031 132.746 50.5511 131.681 52.7231C131.326 53.3437 131.149 53.654 131.149 53.9643C131.149 54.1712 130.971 54.378 130.971 54.4814C130.616 55.3089 130.262 55.7226 129.729 55.7226C129.019 55.7226 128.842 55.6192 128.842 55.5157Z" fill="#BA1315"/>
<path d="M147.831 49.1031C147.831 48.5859 147.654 48.2756 147.121 48.2756C146.412 48.2756 145.169 49.4134 143.395 51.5854C142.507 52.6197 141.975 53.3437 141.62 53.8608C141.265 54.378 141.087 54.6883 140.91 54.8951C140.733 55.102 140.555 55.2054 140.378 55.4123C140.2 55.5157 140.023 55.6192 139.845 55.6192C139.668 55.6192 139.49 55.6192 139.49 55.5157C139.49 55.4123 139.49 55.3089 139.49 55.2054C139.49 55.102 139.845 53.8609 140.555 51.482C141.265 49.1031 141.62 47.8619 141.797 47.7585C141.975 47.6551 141.975 47.5516 142.152 47.5516C142.33 47.5516 142.33 47.5516 142.685 47.5516C143.04 47.5516 143.04 47.6551 143.217 47.7585C143.395 47.8619 143.395 47.9654 143.395 48.0688C143.395 48.1722 143.395 48.2756 143.395 48.2756C143.395 48.3791 143.217 48.5859 143.04 48.7928C142.685 49.5168 142.152 50.5511 141.797 51.8957L141.442 52.8266C141.62 52.6197 141.975 52.3094 142.152 51.8957C142.33 51.5854 142.862 51.0682 143.395 50.3442C143.927 49.7237 144.459 49.1031 145.169 48.5859C146.057 47.8619 146.767 47.5516 147.476 47.5516C148.719 47.5516 149.251 48.1722 149.251 49.3099C149.251 49.7237 149.074 50.3442 148.896 50.9648C148.719 51.5854 148.364 52.3094 148.186 53.1368C148.009 53.9643 147.831 54.5849 147.831 55.102L147.654 55.5157C147.654 55.6192 147.654 55.7226 147.654 55.7226C147.654 55.7226 147.476 55.826 147.121 55.826C146.767 55.826 146.589 55.826 146.412 55.7226C146.234 55.6192 146.234 55.5157 146.234 55.4123L147.654 50.6545C147.654 49.8271 147.831 49.4134 147.831 49.1031Z" fill="#BA1315"/>
<path d="M153.51 55.5158C152.445 55.5158 151.913 55.1021 151.913 54.3781C151.913 53.5506 152.445 52.6198 153.333 51.482C154.397 50.3443 155.462 49.4134 156.882 48.586C158.302 47.7586 159.367 47.3448 160.076 47.3448C160.964 47.3448 161.319 47.5517 161.496 47.9654C161.496 48.0689 161.496 48.2757 161.496 48.3791C161.496 48.3791 161.674 48.3791 161.851 48.3791C162.206 48.3791 162.561 48.4826 162.561 48.6894V48.7929C162.561 48.7929 162.384 48.9997 162.206 49.5169C162.029 49.9306 161.674 50.758 161.496 51.7923C161.141 52.8266 161.141 53.7575 161.141 54.5849C161.141 54.5849 161.319 54.6884 161.496 54.6884C161.674 54.6884 161.674 54.7918 161.851 54.8952C162.029 54.9986 162.029 55.1021 162.029 55.2055C162.029 55.3089 162.029 55.4124 161.851 55.5158C161.674 55.6192 161.496 55.6192 161.319 55.6192C160.786 55.6192 160.431 55.5158 160.076 55.2055C159.722 54.8952 159.544 54.6884 159.544 54.3781C159.544 53.7575 159.899 52.6198 160.431 50.9649C159.722 51.8958 158.657 52.8266 157.414 53.6541C156.172 54.4815 155.285 55.1021 154.93 55.3089C154.397 55.4124 154.042 55.5158 153.51 55.5158ZM153.155 54.3781C153.155 54.5849 153.333 54.6884 153.51 54.6884C153.688 54.6884 153.865 54.6884 154.042 54.5849C155.995 53.6541 157.592 52.3095 159.012 50.6546C159.899 49.7237 160.254 49.2066 160.431 48.9997C160.431 48.8963 160.431 48.6894 160.431 48.586C160.431 48.4826 160.431 48.3791 160.254 48.2757C160.076 48.1723 160.076 48.1723 159.899 48.1723C159.722 48.1723 159.544 48.1723 159.189 48.2757C158.479 48.4826 157.592 48.9997 156.705 49.7237C155.817 50.4477 154.752 51.2752 154.22 52.1026C153.51 53.0335 153.155 53.7575 153.155 54.3781Z" fill="#BA1315"/>
<path d="M168.24 48.0687C167.53 48.0687 166.82 48.0687 166.288 48.1721C165.933 48.1721 165.755 48.0687 165.755 47.8619C165.755 47.7584 165.755 47.655 165.933 47.5516C166.11 47.4481 166.288 47.3447 166.465 47.3447H168.417C168.417 47.2413 168.417 47.1378 168.595 46.931C168.595 46.7241 168.772 46.5173 168.772 46.207C168.772 45.8967 168.95 45.6898 169.127 45.3795C169.305 45.0693 169.482 44.9658 169.837 44.9658C170.192 44.9658 170.37 45.0693 170.37 45.2761V45.3795C170.192 46.0001 169.837 46.6207 169.66 47.2413H171.612C172.322 47.2413 172.677 47.2413 172.854 47.3447C173.032 47.4481 173.032 47.4481 173.032 47.5516C173.032 47.7584 172.854 47.8619 172.499 47.9653C172.322 47.9653 171.967 47.9653 171.257 47.9653C170.547 47.9653 170.015 47.9653 169.305 47.9653C169.127 48.4824 168.772 49.5167 168.24 50.9647C167.708 52.4128 167.353 53.3436 167.353 53.7573C167.353 54.1711 167.353 54.4814 167.53 54.5848C167.708 54.6882 167.885 54.6882 168.062 54.6882C168.24 54.6882 168.595 54.6882 168.772 54.5848C168.95 54.4814 169.127 54.3779 169.305 54.2745C169.482 54.1711 169.66 54.0676 169.837 53.9642C170.015 53.8608 170.192 53.8608 170.37 53.8608C170.725 53.8608 170.902 53.9642 170.902 54.1711C170.902 54.2745 170.725 54.4814 170.37 54.6882C170.015 54.8951 169.66 55.1019 169.305 55.3088C168.95 55.5157 168.595 55.5157 167.885 55.5157C167.175 55.5157 166.82 55.4122 166.643 55.3088C166.11 55.1019 165.933 54.6882 165.933 54.1711C165.933 53.8608 165.933 53.5505 166.11 53.2402L166.288 52.3093C166.465 51.8956 166.643 51.4819 166.82 51.0682C166.998 50.7579 166.998 50.4476 167.175 50.1373C167.353 49.9304 167.353 49.5167 167.53 49.103C167.708 48.6893 168.24 48.379 168.24 48.0687Z" fill="#BA1315"/>
<path d="M177.291 48.2757V48.0688C177.291 47.9654 177.291 47.862 177.114 47.5517C177.114 47.4482 177.114 47.3448 177.291 47.2414C177.468 47.138 177.646 47.0345 177.823 47.0345C178.001 47.0345 178.178 47.138 178.356 47.2414C178.533 47.4482 178.533 47.5517 178.533 47.7585C178.533 47.9654 178.178 49.1031 177.291 51.2751C176.404 53.4472 176.049 54.5849 176.049 54.6883C176.049 54.7917 176.226 54.8952 176.404 54.8952C176.581 54.8952 176.759 54.7917 176.936 54.6883C177.114 54.5849 177.291 54.4815 177.468 54.4815C177.823 54.4815 178.001 54.5849 178.001 54.7917C178.001 54.9986 177.646 55.2055 177.114 55.4123C176.581 55.6192 176.226 55.6192 175.871 55.6192C175.161 55.6192 174.984 55.3089 174.984 54.6883C174.984 54.5849 174.984 54.4815 175.161 54.2746C175.161 54.1712 175.339 53.9643 175.516 53.654C175.694 53.3437 175.694 53.0334 175.871 52.5163C176.049 52.1026 176.226 51.5854 176.404 51.0683C176.581 50.5511 176.759 50.034 177.114 49.31C177.291 48.7928 177.291 48.3791 177.291 48.2757ZM179.243 44.6556C179.776 44.6556 180.131 44.8625 180.131 45.1728C180.131 45.5865 179.776 45.8968 179.243 45.8968C179.066 45.8968 178.888 45.8968 178.711 45.8968C178.533 45.8968 178.356 45.7934 178.178 45.6899C178.001 45.5865 177.823 45.4831 177.823 45.2762C177.823 45.0694 178.001 44.9659 178.178 44.7591C178.711 44.6556 178.888 44.6556 179.243 44.6556Z" fill="#BA1315"/>
<path d="M187.939 47.3448C189.714 47.3448 190.424 48.0689 190.424 49.6203C190.424 50.758 189.892 52.1026 188.827 53.4472C188.117 54.3781 187.23 54.9987 186.165 55.4124C185.632 55.6192 185.1 55.7227 184.568 55.7227C183.503 55.7227 182.793 55.5158 182.438 54.9987C182.083 54.4815 181.728 53.9644 181.728 53.4472C181.728 52.5163 182.083 51.482 182.615 50.5512C183.148 49.6203 184.035 48.8963 184.922 48.2757C185.632 47.6551 186.697 47.3448 187.939 47.3448ZM184.213 49.9306C183.148 51.0683 182.793 52.206 182.793 53.2403C182.793 53.9644 183.148 54.4815 183.858 54.7918C184.035 54.8952 184.39 54.8952 184.568 54.8952C185.1 54.8952 185.81 54.5849 186.52 54.0678C187.23 53.4472 187.762 52.7232 188.294 51.8958C188.827 51.0683 189.004 50.3443 189.004 49.7237C189.004 49.1032 189.004 48.6894 188.827 48.586C188.649 48.3791 188.649 48.2757 188.472 48.2757C188.294 48.1723 188.117 48.1723 187.762 48.1723C187.407 48.1723 187.052 48.2757 186.52 48.3791C185.632 48.586 184.922 49.2066 184.213 49.9306Z" fill="#BA1315"/>
<path d="M201.427 49.1031C201.427 48.5859 201.25 48.2756 200.717 48.2756C200.007 48.2756 198.765 49.4134 196.99 51.5854C196.103 52.6197 195.571 53.3437 195.216 53.8608C194.861 54.378 194.683 54.6883 194.506 54.8951C194.328 55.102 194.151 55.2054 193.973 55.4123C193.796 55.5157 193.618 55.6192 193.441 55.6192C193.263 55.6192 193.086 55.6192 193.086 55.5157C193.086 55.4123 193.086 55.3089 193.086 55.2054C193.086 55.102 193.441 53.8609 194.151 51.482C194.861 49.1031 195.216 47.8619 195.393 47.7585C195.571 47.6551 195.571 47.5516 195.748 47.5516C195.925 47.5516 195.925 47.5516 196.28 47.5516C196.635 47.5516 196.635 47.6551 196.813 47.7585C196.99 47.8619 196.99 47.9654 196.99 48.0688C196.99 48.1722 196.99 48.2756 196.99 48.2756C196.99 48.3791 196.813 48.5859 196.635 48.7928C196.28 49.5168 195.748 50.5511 195.393 51.8957L195.038 52.8266C195.216 52.6197 195.571 52.3094 195.748 51.8957C195.925 51.5854 196.458 51.0682 196.99 50.3442C197.523 49.7237 198.055 49.1031 198.765 48.5859C199.652 47.8619 200.362 47.5516 201.072 47.5516C202.314 47.5516 202.847 48.1722 202.847 49.3099C202.847 49.7237 202.669 50.3442 202.492 50.9648C202.314 51.5854 201.96 52.3094 201.782 53.1368C201.605 53.9643 201.427 54.5849 201.427 55.102L201.25 55.5157C201.25 55.6192 201.25 55.7226 201.25 55.7226C201.25 55.7226 201.072 55.826 200.717 55.826C200.362 55.826 200.185 55.826 200.007 55.7226C199.83 55.6192 199.83 55.5157 199.83 55.4123L201.25 50.6545C201.427 49.8271 201.427 49.4134 201.427 49.1031Z" fill="#BA1315"/>
<path d="M207.106 55.5158C206.041 55.5158 205.509 55.1021 205.509 54.3781C205.509 53.5506 206.041 52.6198 206.929 51.482C207.994 50.3443 209.058 49.4134 210.478 48.586C211.898 47.7586 212.963 47.3448 213.673 47.3448C214.56 47.3448 214.915 47.5517 215.092 47.9654C215.092 48.0689 215.092 48.2757 215.092 48.3791C215.092 48.3791 215.27 48.3791 215.447 48.3791C215.802 48.3791 216.157 48.4826 216.157 48.6894V48.7929C216.157 48.7929 215.98 48.9997 215.802 49.5169C215.625 49.9306 215.27 50.758 215.092 51.7923C214.738 52.8266 214.738 53.7575 214.738 54.5849C214.738 54.5849 214.915 54.6884 215.092 54.6884C215.27 54.6884 215.27 54.7918 215.447 54.8952C215.625 54.9986 215.625 55.1021 215.625 55.2055C215.625 55.3089 215.625 55.4124 215.447 55.5158C215.27 55.6192 215.092 55.6192 214.915 55.6192C214.383 55.6192 214.028 55.5158 213.673 55.2055C213.318 54.8952 213.14 54.6884 213.14 54.3781C213.14 53.7575 213.495 52.6198 214.028 50.9649C213.318 51.8958 212.253 52.8266 211.011 53.6541C209.768 54.4815 208.881 55.1021 208.526 55.3089C208.171 55.4124 207.639 55.5158 207.106 55.5158ZM206.929 54.3781C206.929 54.5849 207.106 54.6884 207.284 54.6884C207.461 54.6884 207.639 54.6884 207.816 54.5849C209.768 53.6541 211.366 52.3095 212.785 50.6546C213.673 49.7237 214.028 49.2066 214.205 48.9997C214.205 48.8963 214.205 48.6894 214.205 48.586C214.205 48.4826 214.205 48.3791 214.028 48.2757C213.85 48.1723 213.85 48.1723 213.673 48.1723C213.495 48.1723 213.318 48.1723 212.963 48.2757C212.253 48.4826 211.366 48.9997 210.478 49.7237C209.591 50.4477 208.526 51.2752 207.994 52.1026C207.284 53.0335 206.929 53.7575 206.929 54.3781Z" fill="#BA1315"/>
<path d="M223.611 54.4815C223.966 54.4815 224.143 54.5849 224.143 54.7918C224.143 54.9986 223.788 55.2055 223.256 55.3089C222.724 55.4124 222.191 55.5158 221.481 55.5158C220.771 55.5158 220.239 55.4124 219.884 55.2055C219.529 54.9986 219.352 54.6883 219.352 54.3781C219.352 54.0678 219.352 53.7575 219.352 53.5506C219.352 53.2403 219.529 52.93 219.706 52.4129C219.884 51.9992 220.061 51.3786 220.239 50.8614C220.416 50.2409 220.594 49.6203 220.949 48.9997C221.126 48.3791 221.481 47.6551 221.659 46.9311C221.836 46.2071 222.191 45.5865 222.369 44.8625C222.546 44.1385 222.901 43.5179 223.078 42.8974C223.256 42.2768 223.433 41.7596 223.788 41.2425C223.966 40.7253 224.143 40.3116 224.321 39.8979C224.321 39.691 224.676 39.691 225.031 39.691C225.386 39.691 225.563 39.7945 225.563 40.1048V40.3116C225.208 41.3459 224.853 42.2768 224.498 43.2077C224.143 44.1385 223.611 45.7934 222.724 48.0688C221.836 50.3443 221.304 51.8957 221.126 52.7232C220.949 53.5506 220.771 54.0678 220.771 54.1712C220.771 54.3781 220.771 54.4815 220.949 54.5849C221.126 54.6883 221.304 54.7918 221.481 54.7918C221.659 54.7918 221.836 54.7918 222.191 54.6883C222.369 54.6883 222.546 54.5849 222.724 54.5849C222.901 54.5849 223.078 54.4815 223.256 54.4815C223.433 54.4815 223.433 54.4815 223.611 54.4815Z" fill="#BA1315"/>
</svg>
